<svg width="15" height="13" viewBox="0 0 15 13" fill="none" xmlns="http://www.w3.org/2000/svg">
<path fill-rule="evenodd" clip-rule="evenodd" d="M8.39035 10.6845L12.924 11.8272C13.0348 11.8553 13.1007 11.9627 13.0711 12.0669L12.8467 12.8549C12.8167 12.9591 12.7026 13.0211 12.5918 12.9935L8.0587 11.8509C7.94787 11.8227 7.88193 11.7154 7.9113 11.6111L8.13573 10.8232C8.16593 10.7189 8.2798 10.6569 8.39062 10.6845H8.39007H8.39035ZM6.60965 10.6845L2.07577 11.8272C1.96494 11.8556 1.89928 11.9627 1.92865 12.0669L2.15307 12.8549C2.18299 12.9591 2.29714 13.0211 2.40797 12.9935L6.94158 11.8509C7.0524 11.8227 7.11834 11.7154 7.08897 11.6111L6.86455 10.8232C6.83463 10.7189 6.72076 10.6569 6.60965 10.6845ZM7.50014 0C8.47762 0 9.41493 0.365063 10.1059 1.01519C10.7969 1.66506 11.1854 2.54658 11.1851 3.46588C11.1851 4.38493 10.7969 5.26671 10.1057 5.91658C9.41438 6.56671 8.47735 6.93177 7.49986 6.93177C6.52238 6.93177 5.58507 6.56645 4.89407 5.91658C4.20279 5.26645 3.81463 4.38493 3.8149 3.46588C3.8149 2.54658 4.20307 1.66506 4.89435 1.01519C5.58534 0.365063 6.52266 0 7.50014 0ZM8.2798 2.4744C8.15124 2.30816 7.95813 2.19663 7.74229 2.1638V2.02752C7.74229 1.90166 7.63396 1.79952 7.49986 1.79952C7.36576 1.79952 7.25743 1.90166 7.25743 2.02752V2.17266C6.99283 2.22816 6.77506 2.40327 6.67504 2.64013C6.5753 2.87699 6.60661 3.14512 6.75871 3.35592C6.91082 3.56673 7.16406 3.6931 7.43503 3.6931H7.56386C7.74811 3.6931 7.89745 3.83355 7.89745 4.00684C7.89745 4.18012 7.74811 4.32057 7.56386 4.32057H7.38266C7.27488 4.32135 7.17376 4.2721 7.11169 4.18924C7.03328 4.08735 6.88201 4.06468 6.77367 4.13842C6.66534 4.21217 6.64124 4.35444 6.71965 4.45632C6.84821 4.62231 7.04132 4.7341 7.25715 4.76667V4.90269C7.25715 5.02854 7.36548 5.13069 7.49958 5.13069C7.63368 5.13069 7.74202 5.02854 7.74202 4.90269V4.75755C8.00661 4.70231 8.22494 4.5272 8.32496 4.29008C8.42498 4.05296 8.39339 3.78483 8.24101 3.57402C8.08862 3.36322 7.83539 3.23684 7.56414 3.2371H7.43531C7.25106 3.2371 7.10172 3.09665 7.10172 2.92337C7.10172 2.75009 7.25106 2.60964 7.43531 2.60964H7.61651C7.72428 2.60886 7.82541 2.65811 7.88747 2.74097C7.96588 2.84285 8.11716 2.86552 8.22549 2.79178C8.33383 2.71804 8.35793 2.57551 8.27952 2.47388L8.2798 2.4744ZM7.50014 0.938585C6.78753 0.938585 6.10401 1.20489 5.60031 1.67861C5.0966 2.15234 4.81317 2.79517 4.81317 3.46562C4.81317 4.13608 5.09633 4.77865 5.60031 5.25238C6.10429 5.7261 6.78753 5.99266 7.50014 5.99266C8.21275 5.99266 8.89627 5.72636 9.39997 5.25238C9.90367 4.77839 10.1871 4.13582 10.1871 3.46562C10.1871 2.79543 9.90395 2.1526 9.39997 1.67887C8.89599 1.20515 8.21247 0.938585 7.50014 0.938585ZM5.97878 8.1807C6.26166 8.51632 6.38468 8.94704 6.31901 9.37074L6.18741 10.3192L2.44703 11.2615C2.45147 10.7953 2.25863 10.3466 1.91091 10.0144L0.502041 8.58876C0.181754 8.28623 0.00166239 7.87739 0 7.45057V1.97202C0 1.65464 0.180092 1.36123 0.472672 1.20229C0.765252 1.0436 1.12544 1.0436 1.41774 1.20229C1.71004 1.36097 1.89013 1.65438 1.89013 1.97202V5.23466C1.76296 5.29355 1.64715 5.37198 1.54741 5.46657C1.30885 5.69535 1.17586 6.00335 1.17697 6.32385C1.17836 6.64436 1.31384 6.95131 1.55406 7.17853L2.93827 8.46967C3.03303 8.55827 3.18624 8.55801 3.28044 8.46889C3.37465 8.38004 3.37437 8.23594 3.27961 8.14734L1.89568 6.85594C1.74578 6.71419 1.661 6.52241 1.66017 6.32229C1.65934 6.12217 1.74218 5.92987 1.89097 5.78681L1.89291 5.78499C1.89706 5.78082 1.90122 5.77665 1.90565 5.77274C2.10098 5.58669 2.36696 5.4809 2.64486 5.47907C2.92303 5.47725 3.1904 5.57913 3.3885 5.76232L5.97961 8.17992H5.9785L5.97878 8.1807ZM9.02178 8.1807C8.73889 8.51632 8.61588 8.94704 8.68154 9.37074L8.81315 10.3192L12.5535 11.262C12.5491 10.7958 12.7419 10.3471 13.0896 10.0149L14.4985 8.58928C14.8182 8.28675 14.9986 7.87791 15 7.45109V1.97228C15 1.6549 14.8199 1.3615 14.5276 1.20255C14.2353 1.04386 13.8748 1.04386 13.5825 1.20255C13.2902 1.36123 13.1101 1.65464 13.1101 1.97228V5.23492C13.2373 5.29381 13.3531 5.37224 13.4529 5.46683C13.6914 5.69561 13.8244 6.00361 13.8233 6.32411C13.8219 6.64462 13.6864 6.95157 13.4462 7.17879L12.062 8.46993C11.9673 8.55853 11.814 8.55827 11.7198 8.46915C11.6256 8.3803 11.6259 8.2362 11.7207 8.1476L13.1046 6.8562C13.2545 6.71445 13.3393 6.52267 13.3401 6.32255C13.3412 6.12243 13.2581 5.93013 13.1096 5.78707L13.1079 5.78525C13.1038 5.78108 13.0996 5.77691 13.0955 5.773C12.8996 5.58878 12.6341 5.48481 12.3574 5.48376C12.0806 5.48272 11.8143 5.58461 11.617 5.76727L9.02233 8.18044L9.02178 8.1807Z" fill="#27AE60"/>
</svg>
