<svg width="13" height="12" viewBox="0 0 13 12" fill="none" xmlns="http://www.w3.org/2000/svg">
<path d="M6.81932 5.4C6.66115 5.4 6.50946 5.46321 6.39762 5.57573C6.28577 5.68826 6.22294 5.84087 6.22294 6V8.4C6.22294 8.55913 6.28577 8.71174 6.39762 8.82426C6.50946 8.93678 6.66115 9 6.81932 9C6.9775 9 7.12919 8.93678 7.24103 8.82426C7.35288 8.71174 7.41571 8.55913 7.41571 8.4V6C7.41571 5.84087 7.35288 5.68826 7.24103 5.57573C7.12919 5.46321 6.9775 5.4 6.81932 5.4ZM7.04595 3.048C6.90075 2.98799 6.7379 2.98799 6.5927 3.048C6.51949 3.07656 6.45261 3.11937 6.39589 3.174C6.34321 3.23232 6.30085 3.29929 6.27065 3.372C6.23726 3.44321 6.22092 3.52129 6.22294 3.6C6.22249 3.67896 6.23753 3.75724 6.26721 3.83034C6.29689 3.90345 6.34062 3.96993 6.39589 4.026C6.45386 4.079 6.52043 4.12161 6.5927 4.152C6.68305 4.18934 6.78114 4.20379 6.87834 4.19407C6.97554 4.18434 7.06887 4.15075 7.15015 4.09624C7.23142 4.04173 7.29814 3.96797 7.34445 3.88144C7.39075 3.79491 7.41522 3.69827 7.41571 3.6C7.41351 3.44114 7.35174 3.28898 7.24276 3.174C7.18604 3.11937 7.11916 3.07656 7.04595 3.048ZM6.81932 0C5.63979 0 4.48674 0.351894 3.50599 1.01118C2.52523 1.67047 1.76083 2.60754 1.30944 3.7039C0.858053 4.80025 0.739949 6.00665 0.970065 7.17054C1.20018 8.33443 1.76818 9.40352 2.60224 10.2426C3.4363 11.0818 4.49896 11.6532 5.65584 11.8847C6.81271 12.1162 8.01184 11.9974 9.10159 11.5433C10.1913 11.0891 11.1228 10.3201 11.7781 9.33342C12.4334 8.34672 12.7832 7.18669 12.7832 6C12.7832 5.21207 12.6289 4.43185 12.3292 3.7039C12.0295 2.97594 11.5902 2.31451 11.0364 1.75736C10.4826 1.20021 9.82516 0.758251 9.10159 0.456723C8.37803 0.155195 7.60251 0 6.81932 0ZM6.81932 10.8C5.87569 10.8 4.95325 10.5185 4.16865 9.99105C3.38405 9.46362 2.77253 8.71396 2.41142 7.83688C2.05031 6.95979 1.95582 5.99467 2.13992 5.06357C2.32401 4.13246 2.77841 3.27718 3.44566 2.60589C4.11291 1.93459 4.96303 1.47744 5.88853 1.29223C6.81403 1.10702 7.77334 1.20208 8.64514 1.56538C9.51694 1.92868 10.2621 2.54391 10.7863 3.33326C11.3106 4.12262 11.5904 5.05065 11.5904 6C11.5904 7.27304 11.0877 8.49394 10.193 9.39411C9.29824 10.2943 8.08469 10.8 6.81932 10.8Z" fill="#3B3D43"/>
</svg>
