<svg width="16" height="14" viewBox="0 0 16 14" fill="none" xmlns="http://www.w3.org/2000/svg">
<path d="M11.0499 6.61111C10.8135 6.61111 10.5589 6.61111 10.3226 6.63056V1.94444H10.3044C10.3226 1.88611 10.3226 1.80833 10.3226 1.75C10.3226 0.544444 7.86793 0 5.59512 0C3.32231 0 0.867676 0.544444 0.867676 1.75C0.867676 1.80833 0.867676 1.88611 0.885858 1.94444H0.867676V9.52778C0.867676 10.7333 3.32231 11.2778 5.59512 11.2778C5.83149 11.2778 6.08605 11.2778 6.32242 11.2583V12.25C6.32242 13.4556 8.77706 14 11.0499 14C13.3227 14 15.7773 13.4556 15.7773 12.25V8.36111C15.7773 7.15556 13.3227 6.61111 11.0499 6.61111ZM9.46799 6.70833C9.52254 6.68889 9.5589 6.66944 9.59527 6.63056V6.68889C9.5589 6.68889 9.50436 6.68889 9.46799 6.70833ZM5.59512 0.777778C8.19522 0.777778 9.59527 1.45833 9.59527 1.75C9.59527 2.04167 8.19522 2.72222 5.59512 2.72222C2.99503 2.72222 1.59498 2.04167 1.59498 1.75C1.59498 1.45833 2.99503 0.777778 5.59512 0.777778ZM1.59498 2.74167C2.48592 3.26667 4.08598 3.5 5.59512 3.5C7.10427 3.5 8.70433 3.26667 9.59527 2.74167V3.69444C9.59527 3.98611 8.19522 4.66667 5.59512 4.66667C2.99503 4.66667 1.59498 3.98611 1.59498 3.69444V2.74167ZM1.59498 4.68611C2.48592 5.21111 4.08598 5.44444 5.59512 5.44444C7.10427 5.44444 8.70433 5.21111 9.59527 4.68611V5.63889C9.59527 5.93055 8.19522 6.61111 5.59512 6.61111C2.99503 6.61111 1.59498 5.93055 1.59498 5.63889V4.68611ZM1.59498 6.63056C2.48592 7.15556 4.08598 7.38889 5.59512 7.38889C6.12241 7.38889 6.66789 7.35 7.177 7.29167C6.64971 7.56389 6.32242 7.91389 6.32242 8.36111V8.53611C6.08605 8.55556 5.83149 8.55555 5.59512 8.55555C2.99503 8.55555 1.59498 7.875 1.59498 7.58333V6.63056ZM5.59512 10.5C2.99503 10.5 1.59498 9.81944 1.59498 9.52778V8.575C2.48592 9.1 4.08598 9.33333 5.59512 9.33333C5.83149 9.33333 6.08605 9.33333 6.32242 9.31389V10.4806C6.08605 10.5 5.83149 10.5 5.59512 10.5ZM11.0499 13.2222C8.44977 13.2222 7.04972 12.5417 7.04972 12.25V11.2972C7.94066 11.8222 9.54072 12.0556 11.0499 12.0556C12.559 12.0556 14.1591 11.8222 15.05 11.2972V12.25C15.05 12.5417 13.65 13.2222 11.0499 13.2222ZM11.0499 11.2778C8.44977 11.2778 7.04972 10.5972 7.04972 10.3056V9.35278C7.94066 9.87778 9.54072 10.1111 11.0499 10.1111C12.559 10.1111 14.1591 9.87778 15.05 9.35278V10.3056C15.05 10.5972 13.65 11.2778 11.0499 11.2778ZM11.0499 9.33333C8.44977 9.33333 7.04972 8.65278 7.04972 8.36111C7.04972 8.06944 8.44977 7.38889 11.0499 7.38889C13.65 7.38889 15.05 8.06944 15.05 8.36111C15.05 8.65278 13.65 9.33333 11.0499 9.33333Z" fill="#27AE60"/>
</svg>
