<svg width="9" height="14" viewBox="0 0 9 14" fill="none" xmlns="http://www.w3.org/2000/svg">
<g clip-path="url(#clip0_7831_23480)">
<path d="M4.5004 14C6.98186 14 9 11.7809 9 9.05234C9 6.52152 6.47445 3.882 6.10278 3.50769H2.89775C2.52608 3.88258 0 6.52211 0 9.05234C0.000534394 11.7809 2.01921 14 4.50013 14H4.5004ZM2.73717 7.92149C2.64044 7.92149 2.56189 7.83511 2.56189 7.72876C2.56189 7.6224 2.64044 7.53602 2.73717 7.53602H4.6861C4.60327 7.04596 4.21343 6.67342 3.74397 6.67342H2.7377C2.64098 6.67342 2.56242 6.58704 2.56242 6.48068C2.56242 6.37433 2.64098 6.28795 2.7377 6.28795H6.26417C6.36089 6.28795 6.43945 6.37433 6.43945 6.48068C6.43945 6.58704 6.36089 6.67342 6.26417 6.67342H4.62946C4.84776 6.89553 4.99472 7.19639 5.03667 7.53602H6.26417C6.36089 7.53602 6.43945 7.6224 6.43945 7.72876C6.43945 7.83511 6.36089 7.92149 6.26417 7.92149H5.03667C4.96693 8.48589 4.60274 8.94304 4.11724 9.10287L6.38468 11.4818C6.45468 11.5558 6.45709 11.6778 6.39082 11.7541C6.32402 11.8311 6.2126 11.8344 6.14313 11.7609L3.67343 9.16957H2.73717C2.64044 9.16957 2.56189 9.08319 2.56189 8.97683C2.56189 8.87047 2.64044 8.7841 2.73717 8.7841H3.74343C4.2129 8.7841 4.60274 8.41126 4.68557 7.9209H2.7369V7.92149H2.73717Z" fill="#EB5757"/>
<path d="M2.82315 3.12194H6.17808C6.35256 3.12194 6.49417 2.96623 6.49417 2.77438V2.43033C6.49417 2.23848 6.35256 2.08276 6.17835 2.08276H2.82342C2.64894 2.08276 2.50732 2.23848 2.50732 2.43033V2.77438C2.50732 2.96623 2.64894 3.12194 2.82315 3.12194Z" fill="#EB5757"/>
<path d="M5.93879 1.6973L7.02682 0.237687C6.3615 0.441292 5.6569 0.42337 4.98704 0.177457L4.50047 0L4.01417 0.177751C3.34458 0.423958 2.63944 0.442173 1.97412 0.23798L3.06215 1.69759H5.93879V1.69701V1.6973Z" fill="#EB5757"/>
</g>
<defs>
<clipPath id="clip0_7831_23480">
<rect width="9" height="14" fill="white"/>
</clipPath>
</defs>
</svg>
