<svg width="15" height="14" viewBox="0 0 15 14" fill="none" xmlns="http://www.w3.org/2000/svg">
<path d="M10.2439 6.61111C10.0061 6.61111 9.75 6.61111 9.5122 6.63056V1.94444H9.4939C9.5122 1.88611 9.5122 1.80833 9.5122 1.75C9.5122 0.544444 7.04268 0 4.7561 0C2.46951 0 0 0.544444 0 1.75C0 1.80833 0 1.88611 0.0182927 1.94444H0V9.52778C0 10.7333 2.46951 11.2778 4.7561 11.2778C4.9939 11.2778 5.25 11.2778 5.4878 11.2583V12.25C5.4878 13.4556 7.95732 14 10.2439 14C12.5305 14 15 13.4556 15 12.25V8.36111C15 7.15556 12.5305 6.61111 10.2439 6.61111ZM8.65244 6.70833C8.70732 6.68889 8.7439 6.66944 8.78049 6.63056V6.68889C8.7439 6.68889 8.68902 6.68889 8.65244 6.70833ZM4.7561 0.777778C7.37195 0.777778 8.78049 1.45833 8.78049 1.75C8.78049 2.04167 7.37195 2.72222 4.7561 2.72222C2.14024 2.72222 0.731707 2.04167 0.731707 1.75C0.731707 1.45833 2.14024 0.777778 4.7561 0.777778ZM0.731707 2.74167C1.62805 3.26667 3.23781 3.5 4.7561 3.5C6.27439 3.5 7.88415 3.26667 8.78049 2.74167V3.69444C8.78049 3.98611 7.37195 4.66667 4.7561 4.66667C2.14024 4.66667 0.731707 3.98611 0.731707 3.69444V2.74167ZM0.731707 4.68611C1.62805 5.21111 3.23781 5.44444 4.7561 5.44444C6.27439 5.44444 7.88415 5.21111 8.78049 4.68611V5.63889C8.78049 5.93055 7.37195 6.61111 4.7561 6.61111C2.14024 6.61111 0.731707 5.93055 0.731707 5.63889V4.68611ZM0.731707 6.63056C1.62805 7.15556 3.23781 7.38889 4.7561 7.38889C5.28659 7.38889 5.83537 7.35 6.34756 7.29167C5.81707 7.56389 5.4878 7.91389 5.4878 8.36111V8.53611C5.25 8.55556 4.9939 8.55555 4.7561 8.55555C2.14024 8.55555 0.731707 7.875 0.731707 7.58333V6.63056ZM4.7561 10.5C2.14024 10.5 0.731707 9.81944 0.731707 9.52778V8.575C1.62805 9.1 3.23781 9.33333 4.7561 9.33333C4.9939 9.33333 5.25 9.33333 5.4878 9.31389V10.4806C5.25 10.5 4.9939 10.5 4.7561 10.5ZM10.2439 13.2222C7.62805 13.2222 6.21951 12.5417 6.21951 12.25V11.2972C7.11585 11.8222 8.72561 12.0556 10.2439 12.0556C11.7622 12.0556 13.372 11.8222 14.2683 11.2972V12.25C14.2683 12.5417 12.8598 13.2222 10.2439 13.2222ZM10.2439 11.2778C7.62805 11.2778 6.21951 10.5972 6.21951 10.3056V9.35278C7.11585 9.87778 8.72561 10.1111 10.2439 10.1111C11.7622 10.1111 13.372 9.87778 14.2683 9.35278V10.3056C14.2683 10.5972 12.8598 11.2778 10.2439 11.2778ZM10.2439 9.33333C7.62805 9.33333 6.21951 8.65278 6.21951 8.36111C6.21951 8.06944 7.62805 7.38889 10.2439 7.38889C12.8598 7.38889 14.2683 8.06944 14.2683 8.36111C14.2683 8.65278 12.8598 9.33333 10.2439 9.33333Z" fill="#EB5757"/>
</svg>
