<svg width="16" height="12" viewBox="0 0 16 12" fill="none" xmlns="http://www.w3.org/2000/svg">
<path d="M7.97647 6.15529C8.35311 5.82927 8.65521 5.42604 8.86226 4.97296C9.06932 4.51988 9.17648 4.02756 9.17647 3.52941C9.17647 2.59335 8.80462 1.69563 8.14273 1.03374C7.48084 0.371848 6.58312 1.2629e-07 5.64706 1.2629e-07C4.711 1.2629e-07 3.81328 0.371848 3.15139 1.03374C2.48949 1.69563 2.11765 2.59335 2.11765 3.52941C2.11764 4.02756 2.2248 4.51988 2.43185 4.97296C2.63891 5.42604 2.941 5.82927 3.31765 6.15529C2.32951 6.60274 1.49115 7.32531 0.90281 8.23662C0.314467 9.14792 0.00103896 10.2094 0 11.2941C0 11.4813 0.0743695 11.6609 0.206748 11.7933C0.339127 11.9256 0.518671 12 0.705882 12C0.893094 12 1.07264 11.9256 1.20502 11.7933C1.3374 11.6609 1.41176 11.4813 1.41176 11.2941C1.41176 10.1708 1.85798 9.09359 2.65225 8.29931C3.44653 7.50504 4.52379 7.05882 5.64706 7.05882C6.77033 7.05882 7.84759 7.50504 8.64186 8.29931C9.43614 9.09359 9.88235 10.1708 9.88235 11.2941C9.88235 11.4813 9.95672 11.6609 10.0891 11.7933C10.2215 11.9256 10.401 12 10.5882 12C10.7754 12 10.955 11.9256 11.0874 11.7933C11.2197 11.6609 11.2941 11.4813 11.2941 11.2941C11.2931 10.2094 10.9797 9.14792 10.3913 8.23662C9.80297 7.32531 8.96461 6.60274 7.97647 6.15529ZM5.64706 5.64706C5.22823 5.64706 4.8188 5.52286 4.47056 5.29017C4.12231 5.05748 3.85089 4.72675 3.69061 4.3398C3.53033 3.95285 3.48839 3.52706 3.5701 3.11628C3.65181 2.7055 3.8535 2.32817 4.14966 2.03201C4.44581 1.73585 4.82314 1.53416 5.23393 1.45246C5.64471 1.37075 6.0705 1.41268 6.45745 1.57296C6.8444 1.73324 7.17513 2.00466 7.40782 2.35291C7.64051 2.70116 7.76471 3.11058 7.76471 3.52941C7.76471 4.09105 7.5416 4.62968 7.14446 5.02681C6.74733 5.42395 6.20869 5.64706 5.64706 5.64706ZM12.5224 5.87294C12.9741 5.36423 13.2692 4.7358 13.3721 4.0633C13.475 3.39079 13.3814 2.70288 13.1024 2.08235C12.8235 1.46183 12.3711 0.93515 11.7999 0.56571C11.2286 0.196271 10.5627 -0.000181835 9.88235 1.2629e-07C9.69514 1.2629e-07 9.5156 0.0743696 9.38322 0.206748C9.25084 0.339127 9.17647 0.518671 9.17647 0.705883C9.17647 0.893094 9.25084 1.07264 9.38322 1.20502C9.5156 1.3374 9.69514 1.41176 9.88235 1.41176C10.444 1.41176 10.9826 1.63487 11.3798 2.03201C11.7769 2.42915 12 2.96778 12 3.52941C11.999 3.90017 11.9007 4.26417 11.7149 4.585C11.5291 4.90584 11.2623 5.17227 10.9412 5.35765C10.8365 5.41802 10.7491 5.50423 10.6873 5.60805C10.6255 5.71187 10.5914 5.82981 10.5882 5.95059C10.5853 6.07042 10.6129 6.18903 10.6685 6.29524C10.724 6.40145 10.8057 6.49176 10.9059 6.55765L11.1812 6.74118L11.2729 6.79059C12.1238 7.19415 12.8416 7.83246 13.3419 8.63034C13.8421 9.42822 14.1039 10.3524 14.0965 11.2941C14.0965 11.4813 14.1708 11.6609 14.3032 11.7933C14.4356 11.9256 14.6151 12 14.8024 12C14.9896 12 15.1691 11.9256 15.3015 11.7933C15.4339 11.6609 15.5082 11.4813 15.5082 11.2941C15.514 10.2109 15.2427 9.14418 14.7201 8.19534C14.1975 7.2465 13.4409 6.44704 12.5224 5.87294Z" fill="#27AE60"/>
</svg>
