<svg width="16" height="16" viewBox="0 0 16 16" fill="none" xmlns="http://www.w3.org/2000/svg">
<rect y="16" width="16" height="16" rx="2" transform="rotate(-90 0 16)" fill="#F2F2F2"/>
<path d="M6.66675 8C6.66675 8.26371 6.74495 8.52149 6.89146 8.74076C7.03796 8.96002 7.2462 9.13092 7.48984 9.23184C7.73347 9.33276 8.00156 9.35916 8.2602 9.30771C8.51884 9.25627 8.75642 9.12928 8.94289 8.94281C9.12936 8.75634 9.25635 8.51876 9.3078 8.26012C9.35924 8.00148 9.33284 7.73339 9.23192 7.48975C9.131 7.24612 8.96011 7.03788 8.74084 6.89137C8.52158 6.74486 8.26379 6.66667 8.00008 6.66667C7.64646 6.66667 7.30732 6.80714 7.05727 7.05719C6.80722 7.30724 6.66675 7.64638 6.66675 8ZM6.66675 12.6667C6.66675 12.9304 6.74495 13.1882 6.89146 13.4074C7.03796 13.6267 7.2462 13.7976 7.48984 13.8985C7.73347 13.9994 8.00156 14.0258 8.2602 13.9744C8.51884 13.9229 8.75642 13.7959 8.94289 13.6095C9.12936 13.423 9.25635 13.1854 9.3078 12.9268C9.35924 12.6681 9.33284 12.4001 9.23192 12.1564C9.131 11.9128 8.96011 11.7045 8.74084 11.558C8.52158 11.4115 8.26379 11.3333 8.00008 11.3333C7.64646 11.3333 7.30732 11.4738 7.05727 11.7239C6.80722 11.9739 6.66675 12.313 6.66675 12.6667ZM6.66675 3.33333C6.66675 3.59704 6.74495 3.85483 6.89145 4.07409C7.03796 4.29336 7.2462 4.46426 7.48984 4.56517C7.73347 4.66609 8.00156 4.69249 8.2602 4.64105C8.51884 4.5896 8.75642 4.46261 8.94289 4.27614C9.12936 4.08967 9.25635 3.85209 9.30779 3.59345C9.35924 3.33481 9.33284 3.06672 9.23192 2.82309C9.131 2.57945 8.96011 2.37122 8.74084 2.22471C8.52158 2.0782 8.26379 2 8.00008 2C7.64646 2 7.30732 2.14048 7.05727 2.39052C6.80722 2.64057 6.66675 2.97971 6.66675 3.33333Z" fill="black"/>
</svg>
