<svg width="22" height="26" viewBox="0 0 22 26" fill="none" xmlns="http://www.w3.org/2000/svg">
<g clip-path="url(#clip0_5740_26687)">
<path d="M18.7352 7.26494L11.0881 3.44141L2.294 4.20611L1.5293 13.3826L5.35283 23.3238H12.6175L18.7352 19.1179V7.26494Z" fill="#EA4047"/>
<path d="M7.36035 8.15981C7.5477 8.13215 7.81535 8.10449 8.19006 8.10449C8.56476 8.10449 8.83241 8.18747 9.01976 8.32577C9.18035 8.46407 9.31418 8.68534 9.31418 8.96194C9.31418 9.23853 9.23388 9.45981 9.07329 9.62577C8.85918 9.81939 8.56476 9.93002 8.19006 9.93002H7.97594V10.9258H7.36035V8.15981ZM7.97594 9.43215C8.02947 9.43215 8.083 9.45981 8.19006 9.45981C8.51123 9.45981 8.72535 9.29385 8.72535 9.01726C8.72535 8.76832 8.56476 8.60236 8.24359 8.60236C8.10976 8.60236 8.02947 8.60236 8.0027 8.63002V9.43215H7.97594Z" fill="white"/>
<path d="M9.68887 8.15981C9.90299 8.13215 10.1974 8.10449 10.5186 8.10449C11.0271 8.10449 11.3751 8.18747 11.6159 8.40875C11.8836 8.63002 12.0709 8.96194 12.0709 9.45981C12.0709 9.98534 11.8836 10.3726 11.6159 10.5939C11.3215 10.8428 10.8933 10.9534 10.358 10.9534C10.0368 10.9534 9.8227 10.9258 9.66211 10.9258V8.15981H9.68887ZM10.3045 10.4279H10.5186C11.0806 10.4279 11.4286 10.1236 11.4286 9.45981C11.4286 8.87896 11.1074 8.57471 10.5721 8.57471C10.4383 8.57471 10.358 8.57471 10.3045 8.60236V10.4284V10.4279Z" fill="white"/>
<path d="M12.4724 8.10449H14.1318V8.63002H13.088V9.26619H14.0515V9.79173H13.088V10.9258H12.4724V8.10449Z" fill="white"/>
<path d="M20.9835 6.3617L15.2291 0.414894C14.9615 0.138298 14.6135 0 14.2388 0H1.60588C0.722647 0 0 0.746808 0 1.65957V24.3404C0 25.2532 0.722647 26 1.60588 26H19.8059C20.6891 26 21.4118 25.2532 21.4118 24.3404V7.46808C21.4118 7.05319 21.2512 6.6383 20.9835 6.3617ZM10.7059 22.2383L7.62794 19.0574H9.20706V13.9128H12.2315V19.0574H13.8106L10.7059 22.2383ZM17.9056 11.5617C17.9056 11.8936 17.6379 12.1426 17.3435 12.1426H4.095C3.77382 12.1426 3.53294 11.8655 3.53294 11.5612V7.82717C3.53294 7.49525 3.80059 7.24632 4.095 7.24632H17.3435C17.6647 7.24632 17.9056 7.52291 17.9056 7.82717V11.5617Z" fill="white"/>
</g>
<defs>
<clipPath id="clip0_5740_26687">
<rect width="21.4118" height="26" fill="white"/>
</clipPath>
</defs>
</svg>
