<svg width="12" height="12" viewBox="0 0 12 12" fill="none" xmlns="http://www.w3.org/2000/svg">
<path d="M3.83583 6.75283C3.78116 6.80705 3.73776 6.87157 3.70815 6.94266C3.67853 7.01374 3.66328 7.08998 3.66328 7.16699C3.66328 7.244 3.67853 7.32024 3.70815 7.39133C3.73776 7.46241 3.78116 7.52693 3.83583 7.58116L5.58583 9.33116C5.64006 9.38583 5.70458 9.42923 5.77566 9.45885C5.84675 9.48846 5.92299 9.50371 6 9.50371C6.07701 9.50371 6.15325 9.48846 6.22434 9.45885C6.29542 9.42923 6.35994 9.38583 6.41417 9.33116L8.16417 7.58116C8.27401 7.47131 8.33572 7.32233 8.33572 7.16699C8.33572 7.01165 8.27401 6.86267 8.16417 6.75283C8.05432 6.64298 7.90534 6.58127 7.75 6.58127C7.59466 6.58127 7.44568 6.64298 7.33583 6.75283L6.58333 7.51116V0.750326C6.58333 0.595616 6.52187 0.447243 6.41248 0.337847C6.30308 0.22845 6.15471 0.166992 6 0.166992C5.84529 0.166992 5.69692 0.22845 5.58752 0.337847C5.47812 0.447243 5.41667 0.595616 5.41667 0.750326V7.51116L4.66417 6.75283C4.60994 6.69815 4.54542 6.65475 4.47434 6.62514C4.40325 6.59552 4.32701 6.58028 4.25 6.58028C4.17299 6.58028 4.09675 6.59552 4.02566 6.62514C3.95458 6.65475 3.89006 6.69815 3.83583 6.75283ZM9.5 4.25033H8.33333C8.17862 4.25033 8.03025 4.31178 7.92085 4.42118C7.81146 4.53058 7.75 4.67895 7.75 4.83366C7.75 4.98837 7.81146 5.13674 7.92085 5.24614C8.03025 5.35553 8.17862 5.41699 8.33333 5.41699H9.5C9.65471 5.41699 9.80308 5.47845 9.91248 5.58785C10.0219 5.69724 10.0833 5.84562 10.0833 6.00033V10.0837C10.0833 10.2384 10.0219 10.3867 9.91248 10.4961C9.80308 10.6055 9.65471 10.667 9.5 10.667H2.5C2.34529 10.667 2.19692 10.6055 2.08752 10.4961C1.97812 10.3867 1.91667 10.2384 1.91667 10.0837V6.00033C1.91667 5.84562 1.97812 5.69724 2.08752 5.58785C2.19692 5.47845 2.34529 5.41699 2.5 5.41699H3.66667C3.82138 5.41699 3.96975 5.35553 4.07915 5.24614C4.18854 5.13674 4.25 4.98837 4.25 4.83366C4.25 4.67895 4.18854 4.53058 4.07915 4.42118C3.96975 4.31178 3.82138 4.25033 3.66667 4.25033H2.5C2.03587 4.25033 1.59075 4.4347 1.26256 4.76289C0.934375 5.09108 0.75 5.5362 0.75 6.00033V10.0837C0.75 10.5478 0.934375 10.9929 1.26256 11.3211C1.59075 11.6493 2.03587 11.8337 2.5 11.8337H9.5C9.96413 11.8337 10.4092 11.6493 10.7374 11.3211C11.0656 10.9929 11.25 10.5478 11.25 10.0837V6.00033C11.25 5.5362 11.0656 5.09108 10.7374 4.76289C10.4092 4.4347 9.96413 4.25033 9.5 4.25033Z" fill="black"/>
</svg>
