<svg width="15" height="14" viewBox="0 0 15 14" fill="none" xmlns="http://www.w3.org/2000/svg">
<path d="M11.1533 2.33317H9.97921V1.74984C9.97921 1.59513 9.91736 1.44675 9.80727 1.33736C9.69718 1.22796 9.54787 1.1665 9.39218 1.1665C9.23649 1.1665 9.08718 1.22796 8.97709 1.33736C8.867 1.44675 8.80516 1.59513 8.80516 1.74984V2.33317H5.28301V1.74984C5.28301 1.59513 5.22116 1.44675 5.11107 1.33736C5.00098 1.22796 4.85167 1.1665 4.69598 1.1665C4.54029 1.1665 4.39098 1.22796 4.28089 1.33736C4.1708 1.44675 4.10895 1.59513 4.10895 1.74984V2.33317H2.9349C2.46784 2.33317 2.0199 2.51755 1.68964 2.84573C1.35937 3.17392 1.17383 3.61904 1.17383 4.08317V11.0832C1.17383 11.5473 1.35937 11.9924 1.68964 12.3206C2.0199 12.6488 2.46784 12.8332 2.9349 12.8332H11.1533C11.6203 12.8332 12.0683 12.6488 12.3985 12.3206C12.7288 11.9924 12.9143 11.5473 12.9143 11.0832V4.08317C12.9143 3.61904 12.7288 3.17392 12.3985 2.84573C12.0683 2.51755 11.6203 2.33317 11.1533 2.33317ZM11.7403 11.0832C11.7403 11.2379 11.6784 11.3863 11.5683 11.4956C11.4583 11.605 11.3089 11.6665 11.1533 11.6665H2.9349C2.77922 11.6665 2.6299 11.605 2.51981 11.4956C2.40973 11.3863 2.34788 11.2379 2.34788 11.0832V6.99984H11.7403V11.0832ZM11.7403 5.83317H2.34788V4.08317C2.34788 3.92846 2.40973 3.78009 2.51981 3.67069C2.6299 3.5613 2.77922 3.49984 2.9349 3.49984H4.10895V4.08317C4.10895 4.23788 4.1708 4.38625 4.28089 4.49565C4.39098 4.60505 4.54029 4.6665 4.69598 4.6665C4.85167 4.6665 5.00098 4.60505 5.11107 4.49565C5.22116 4.38625 5.28301 4.23788 5.28301 4.08317V3.49984H8.80516V4.08317C8.80516 4.23788 8.867 4.38625 8.97709 4.49565C9.08718 4.60505 9.23649 4.6665 9.39218 4.6665C9.54787 4.6665 9.69718 4.60505 9.80727 4.49565C9.91736 4.38625 9.97921 4.23788 9.97921 4.08317V3.49984H11.1533C11.3089 3.49984 11.4583 3.5613 11.5683 3.67069C11.6784 3.78009 11.7403 3.92846 11.7403 4.08317V5.83317Z" fill="#003874"/>
</svg>
