<svg width="79" height="80" viewBox="0 0 79 80" fill="none" xmlns="http://www.w3.org/2000/svg">
<g filter="url(#filter0_d_7992_23425)">
<path d="M8.20713 41.4963L16.4865 48.1215L17.3557 58.6708L27.9674 59.1845L34.8911 67.212L43.7752 61.3994L54.1116 63.823L57.8722 53.9115L67.6731 49.8276L64.8818 39.6172L70.391 30.5316L62.1116 23.9064L61.2374 13.3289L50.6258 12.8152L43.702 4.78766L34.8229 10.6285L24.4866 8.20496L20.726 18.1164L10.93 22.2286L13.7213 32.4389L8.20713 41.4963Z" fill="url(#paint0_linear_7992_23425)"/>
</g>
<path d="M41.9687 36.4989L46.9838 31.4948L46.9842 31.4944C47.3131 31.1654 47.4979 30.7193 47.4979 30.2541C47.4979 29.7889 47.3131 29.3427 46.9842 29.0138C46.6553 28.6848 46.2092 28.5 45.744 28.5C45.2788 28.5 44.8327 28.6848 44.5037 29.0138L44.5033 29.0142L39.5 34.0299L34.4967 29.0142L34.4967 29.0142L34.4963 29.0138C34.1673 28.6848 33.7212 28.5 33.256 28.5C32.7908 28.5 32.3447 28.6848 32.0158 29.0138C31.6869 29.3427 31.5021 29.7889 31.5021 30.2541C31.5021 30.7193 31.6869 31.1654 32.0158 31.4944L32.0162 31.4948L37.0313 36.4989L32.0173 41.502C32.017 41.5023 32.0168 41.5025 32.0166 41.5028C31.853 41.6652 31.7231 41.8584 31.6345 42.0712C31.5457 42.2843 31.5 42.5129 31.5 42.7438C31.5 42.9747 31.5457 43.2033 31.6345 43.4164C31.723 43.6289 31.8526 43.8218 32.0158 43.9841C32.1781 44.1473 32.371 44.2769 32.5835 44.3655C32.7966 44.4543 33.0252 44.5 33.256 44.5C33.4869 44.5 33.7155 44.4543 33.9286 44.3655C34.1415 44.2768 34.3347 44.1468 34.4972 43.9832C34.4973 43.983 34.4975 43.9828 34.4977 43.9826L39.5 38.968L44.5023 43.9826C44.5025 43.9828 44.5027 43.983 44.5029 43.9832C44.6653 44.1469 44.8585 44.2768 45.0714 44.3655C45.2845 44.4543 45.5131 44.5 45.744 44.5C45.9748 44.5 46.2034 44.4543 46.4165 44.3655C46.629 44.2769 46.8219 44.1473 46.9842 43.9841C47.1474 43.8218 47.277 43.6289 47.3655 43.4164C47.4543 43.2033 47.5 42.9747 47.5 42.7438C47.5 42.5129 47.4543 42.2843 47.3655 42.0712C47.2769 41.8584 47.147 41.6651 46.9834 41.5027C46.9832 41.5025 46.983 41.5023 46.9827 41.502L41.9687 36.4989Z" fill="white" stroke="white"/>
<defs>
<filter id="filter0_d_7992_23425" x="0.207031" y="0.787598" width="78.1841" height="78.4243" filterUnits="userSpaceOnUse" color-interpolation-filters="sRGB">
<feFlood flood-opacity="0" result="BackgroundImageFix"/>
<feColorMatrix in="SourceAlpha" type="matrix" values="0 0 0 0 0 0 0 0 0 0 0 0 0 0 0 0 0 0 127 0" result="hardAlpha"/>
<feOffset dy="4"/>
<feGaussianBlur stdDeviation="4"/>
<feComposite in2="hardAlpha" operator="out"/>
<feColorMatrix type="matrix" values="0 0 0 0 0 0 0 0 0 0 0 0 0 0 0 0 0 0 0.08 0"/>
<feBlend mode="normal" in2="BackgroundImageFix" result="effect1_dropShadow_7992_23425"/>
<feBlend mode="normal" in="SourceGraphic" in2="effect1_dropShadow_7992_23425" result="shape"/>
</filter>
<linearGradient id="paint0_linear_7992_23425" x1="44.5013" y1="65.5175" x2="34.0918" y2="6.4822" gradientUnits="userSpaceOnUse">
<stop stop-color="#DB0000"/>
<stop offset="1" stop-color="#DF4545"/>
</linearGradient>
</defs>
</svg>
