<svg width="24" height="23" viewBox="0 0 24 23" fill="none" xmlns="http://www.w3.org/2000/svg">
<path d="M23.81 10.9697L21.662 8.3483L21.8662 4.95927C21.8772 4.76616 21.8215 4.57544 21.7081 4.41913C21.5948 4.26282 21.431 4.15097 21.2443 4.10269L17.9696 3.24994L16.153 0.385753C16.0492 0.222754 15.8921 0.100386 15.7083 0.0406357C15.5245 -0.0191145 15.3259 -0.0129005 15.1464 0.0587997L11.9998 1.30399L8.85316 0.0583217C8.67364 -0.0129005 8.47459 -0.0191145 8.29126 0.0411137C8.10746 0.100864 7.95032 0.223232 7.84651 0.386709L6.02988 3.25089L2.75566 4.10174C2.569 4.15001 2.40471 4.26235 2.29091 4.41865C2.17758 4.57496 2.12186 4.76616 2.13329 4.95975L2.33662 8.3483L0.18952 10.9697C0.0671415 11.1188 0 11.3067 0 11.4998C0 11.6929 0.0671415 11.8807 0.18952 12.0299L2.33757 14.6512L2.13329 18.0398C2.12186 18.2329 2.17758 18.4241 2.29091 18.5809C2.40424 18.7377 2.56804 18.8495 2.75518 18.8983L6.02988 19.7501L7.84651 22.6143C7.95032 22.7773 8.10746 22.8991 8.29126 22.9589C8.47507 23.0186 8.67364 23.0124 8.85316 22.9412L11.9998 21.696L15.1464 22.9412C15.3259 23.0124 15.5249 23.0186 15.7083 22.9589C15.8921 22.8991 16.0492 22.7768 16.1525 22.6133L17.9692 19.7491L21.2434 18.8978C21.43 18.8495 21.5943 18.7377 21.7077 18.5814C21.821 18.4251 21.8772 18.2339 21.8658 18.0407L21.6624 14.6522L23.8105 12.0308C23.9329 11.8812 23.9995 11.6938 23.9995 11.5002C23.9995 11.3067 23.9324 11.1198 23.81 10.9701V10.9697ZM18.0568 9.21062L10.1546 17.1431C9.99837 17.2994 9.78695 17.3873 9.56648 17.3873C9.346 17.3873 9.13458 17.2994 8.97839 17.1431L5.03942 13.189C4.82943 12.9782 4.74752 12.6709 4.82419 12.3826C4.90086 12.0944 5.12514 11.8697 5.41227 11.7923C5.69941 11.7149 6.0056 11.7976 6.21559 12.0084L9.56648 15.3725L16.8806 8.03043C17.0906 7.81963 17.3968 7.73694 17.6839 7.81437C17.9711 7.89133 18.1949 8.11647 18.272 8.40471C18.3492 8.69246 18.2668 9.0003 18.0568 9.21109V9.21062Z" fill="#003874"/>
</svg>
