<svg width="50" height="50" viewBox="0 0 50 50" fill="none" xmlns="http://www.w3.org/2000/svg">
<g clip-path="url(#clip0_2233_7094)">
<rect x="45" y="45" width="7.5" height="7.5" fill="white"/>
<rect x="37.5" y="45" width="7.5" height="7.5" fill="white"/>
<rect x="30" y="45" width="7.5" height="7.5" fill="#29EEB2"/>
<rect x="22.5" y="45" width="7.5" height="7.5" fill="white"/>
<rect x="15" y="45" width="7.5" height="7.5" fill="#E1E740"/>
<rect x="7.5" y="45" width="7.5" height="7.5" fill="white"/>
<rect y="45" width="7.5" height="7.5" fill="white"/>
<rect x="45" y="37.5" width="7.5" height="7.5" fill="#FC1F32"/>
<rect x="37.5" y="37.5" width="7.5" height="7.5" fill="#FC1F32"/>
<rect x="30" y="37.5" width="7.5" height="7.5" fill="white"/>
<rect x="22.5" y="37.5" width="7.5" height="7.5" fill="#29EEB2"/>
<rect x="15" y="37.5" width="7.5" height="7.5" fill="#FC1F32"/>
<rect x="7.5" y="37.5" width="7.5" height="7.5" fill="#E1E740"/>
<rect y="37.5" width="7.5" height="7.5" fill="#FC1F32"/>
<rect x="45" y="30" width="7.5" height="7.5" fill="#29EEB2"/>
<rect x="37.5" y="30" width="7.5" height="7.5" fill="#29EEB2"/>
<rect x="30" y="30" width="7.5" height="7.5" fill="white"/>
<rect x="22.5" y="30" width="7.5" height="7.5" fill="#E1E740"/>
<rect x="15" y="30" width="7.5" height="7.5" fill="#29EEB2"/>
<rect x="7.5" y="30" width="7.5" height="7.5" fill="#E1E740"/>
<rect y="30" width="7.5" height="7.5" fill="#FC1F32"/>
<rect x="45" y="22.5" width="7.5" height="7.5" fill="#E1E740"/>
<rect x="37.5" y="22.5" width="7.5" height="7.5" fill="#E1E740"/>
<rect x="30" y="22.5" width="7.5" height="7.5" fill="white"/>
<rect x="22.5" y="22.5" width="7.5" height="7.5" fill="white"/>
<rect x="15" y="22.5" width="7.5" height="7.5" fill="#FC1F32"/>
<rect x="7.5" y="22.5" width="7.5" height="7.5" fill="#29EEB2"/>
<rect y="22.5" width="7.5" height="7.5" fill="#FC1F32"/>
<rect x="45" y="15" width="7.5" height="7.5" fill="white"/>
<rect x="37.5" y="15" width="7.5" height="7.5" fill="#29EEB2"/>
<rect x="30" y="15" width="7.5" height="7.5" fill="white"/>
<rect x="22.5" y="15" width="7.5" height="7.5" fill="#29EEB2"/>
<rect x="15" y="15" width="7.5" height="7.5" fill="#E1E740"/>
<rect x="7.5" y="15" width="7.5" height="7.5" fill="#29EEB2"/>
<rect y="15" width="7.5" height="7.5" fill="white"/>
<rect x="45" y="7.5" width="7.5" height="7.5" fill="#E1E740"/>
<rect x="37.5" y="7.5" width="7.5" height="7.5" fill="#29EEB2"/>
<rect x="30" y="7.5" width="7.5" height="7.5" fill="#FC1F32"/>
<rect x="22.5" y="7.5" width="7.5" height="7.5" fill="white"/>
<rect x="15" y="7.5" width="7.5" height="7.5" fill="#E1E740"/>
<rect x="7.5" y="7.5" width="7.5" height="7.5" fill="#E1E740"/>
<rect y="7.5" width="7.5" height="7.5" fill="white"/>
<rect x="45" width="7.5" height="7.5" fill="#29EEB2"/>
<rect x="37.5" width="7.5" height="7.5" fill="#29EEB2"/>
<rect x="30" width="7.5" height="7.5" fill="white"/>
<rect x="22.5" width="7.5" height="7.5" fill="#E1E740"/>
<rect x="15" width="7.5" height="7.5" fill="#29EEB2"/>
<rect x="7.5" width="7.5" height="7.5" fill="#FC1F32"/>
<rect width="7.5" height="7.5" fill="#FC1F32"/>
</g>
<defs>
<clipPath id="clip0_2233_7094">
<rect width="50" height="50" rx="25" fill="white"/>
</clipPath>
</defs>
</svg>
