<svg width="100" height="100" viewBox="0 0 100 100" fill="none" xmlns="http://www.w3.org/2000/svg">
<g clip-path="url(#clip0_5760_22216)">
<path d="M58.0955 54.6501C57.0148 53.5696 55.2625 53.5696 54.1818 54.6503L47.9566 60.8755L39.1248 52.0437L45.3499 45.8183C46.4308 44.7374 46.4308 42.9851 45.3499 41.9044C44.2693 40.8235 42.5167 40.8235 41.4361 41.9044L35.2109 48.1298L30.2333 43.1522C29.1527 42.0714 27.4001 42.0714 26.3195 43.1522L15.3117 54.1601C7.64077 61.8308 7.16128 74.0116 13.8734 82.2462C13.7835 82.3161 13.6958 82.3903 13.6132 82.4729L0.810889 95.2757C-0.269971 96.3564 -0.269971 98.1089 0.810889 99.1896C1.35132 99.73 2.05952 100 2.76772 100C3.47593 100 4.18433 99.7298 4.72456 99.1896L17.5271 86.387C17.6097 86.3044 17.6839 86.2167 17.7539 86.1269C21.5966 89.2591 26.2988 90.8251 31.0009 90.8251C36.3749 90.8251 41.749 88.7796 45.84 84.6884L56.8478 73.6806C57.9287 72.5999 57.9287 70.8474 56.8478 69.7667L51.8703 64.7892L58.0955 58.564C59.1763 57.4833 59.1763 55.7308 58.0955 54.6501ZM39.1248 74.6928C38.7644 75.053 38.2923 75.2332 37.8201 75.2332C37.3478 75.2332 36.8757 75.053 36.5154 74.6928L25.0326 63.21C24.3121 62.4895 24.3121 61.3211 25.0326 60.6006C25.7533 59.8803 26.9212 59.8803 27.6419 60.6006L39.1248 72.0834C39.8453 72.8039 39.8453 73.9723 39.1248 74.6928Z" fill="url(#paint0_linear_5760_22216)"/>
<path d="M99.1896 4.72451C100.27 3.64385 100.27 1.8915 99.1896 0.810645C98.1091 -0.270215 96.3565 -0.270215 95.2757 0.810645L82.4731 13.613C82.3905 13.6954 82.3167 13.7829 82.2468 13.8728C78.514 10.8233 73.8843 9.16494 68.9993 9.16494C63.3938 9.16494 58.1239 11.348 54.1603 15.3116L43.1524 26.3194C42.0716 27.4003 42.0716 29.1524 43.1524 30.2333L69.7669 56.8476C70.2858 57.3667 70.9897 57.6581 71.7237 57.6581C72.4577 57.6581 73.1618 57.3665 73.6806 56.8476L84.6884 45.8398C88.6521 41.8761 90.8349 36.6062 90.8349 31.0007C90.8349 26.1157 89.1767 21.486 86.1271 17.753C86.2167 17.6831 86.3042 17.6091 86.3868 17.5267L99.1896 4.72451ZM74.3331 39.5832C73.9728 39.9436 73.5007 40.1237 73.0284 40.1237C72.5562 40.1237 72.0841 39.9436 71.7237 39.5832L60.2411 28.1006C59.5206 27.3801 59.5206 26.2117 60.2411 25.4912C60.9618 24.7707 62.1298 24.7707 62.8505 25.4912L74.3331 36.9739C75.0536 37.6944 75.0536 38.8629 74.3331 39.5832Z" fill="url(#paint1_linear_5760_22216)"/>
<path d="M26.4986 43.1819C27.6701 42.0103 29.5696 42.0103 30.7412 43.1819L56.8204 69.2611C57.992 70.4326 57.992 72.3321 56.8204 73.5037L54.8465 75.4776L24.5246 45.1558L26.4986 43.1819Z" fill="url(#paint2_linear_5760_22216)"/>
<path d="M41.3288 41.8618C42.438 40.7527 44.2363 40.7527 45.3455 41.8618V41.8618C46.4547 42.971 46.4547 44.7693 45.3455 45.8785L44.0167 47.2072L40.0001 43.1906L41.3288 41.8618Z" fill="#C4C4C4"/>
</g>
<path fill-rule="evenodd" clip-rule="evenodd" d="M76.0861 62.3788C75.4006 62.4604 74.9111 63.0823 74.9927 63.7679C75.0744 64.4534 75.6963 64.9429 76.3818 64.8612L79.6918 64.4669C80.3773 64.3852 80.8668 63.7633 80.7851 63.0778C80.7034 62.3923 80.0815 61.9028 79.396 61.9844L76.0861 62.3788ZM62.379 76.0859C62.4607 75.4004 63.0826 74.9108 63.7681 74.9925C64.4536 75.0742 64.9431 75.6961 64.8614 76.3816L64.4671 79.6915C64.3854 80.377 63.7635 80.8665 63.078 80.7849C62.3925 80.7032 61.903 80.0813 61.9847 79.3958L62.379 76.0859ZM73.6449 69.6384C73.8788 68.9889 74.595 68.652 75.2445 68.886L78.3806 70.0156C79.0301 70.2495 79.367 70.9657 79.133 71.6152C78.8991 72.2647 78.1829 72.6016 77.5334 72.3677L74.3973 71.238C73.7478 71.0041 73.4109 70.2879 73.6449 69.6384ZM68.8864 75.2443C68.6525 74.5948 68.9893 73.8786 69.6388 73.6447C70.2883 73.4107 71.0045 73.7476 71.2385 74.3971L72.3681 77.5332C72.6021 78.1827 72.2652 78.8989 71.6157 79.1328C70.9662 79.3668 70.25 79.0299 70.016 78.3804L68.8864 75.2443Z" fill="#CCD0DB"/>
<path fill-rule="evenodd" clip-rule="evenodd" d="M25.0822 37.1227C25.7677 37.0411 26.2573 36.4192 26.1756 35.7337C26.0939 35.0481 25.472 34.5586 24.7865 34.6403L21.4766 35.0346C20.7911 35.1163 20.3016 35.7382 20.3832 36.4237C20.4649 37.1092 21.0868 37.5987 21.7723 37.5171L25.0822 37.1227ZM38.7891 23.4156C38.7075 24.1012 38.0855 24.5907 37.4 24.509C36.7145 24.4273 36.225 23.8054 36.3067 23.1199L36.701 19.81C36.7827 19.1245 37.4046 18.635 38.0901 18.7166C38.7756 18.7983 39.2651 19.4202 39.1834 20.1057L38.7891 23.4156ZM27.5232 29.8631C27.2893 30.5126 26.5731 30.8495 25.9236 30.6155L22.7875 29.4859C22.138 29.252 21.8011 28.5358 22.0351 27.8863C22.269 27.2368 22.9852 26.8999 23.6347 27.1339L26.7708 28.2635C27.4203 28.4974 27.7572 29.2136 27.5232 29.8631ZM32.2819 24.2572C32.5159 24.9067 32.179 25.6229 31.5295 25.8568C30.88 26.0908 30.1638 25.7539 29.9298 25.1044L28.8002 21.9683C28.5663 21.3188 28.9031 20.6026 29.5527 20.3687C30.2022 20.1347 30.9183 20.4716 31.1523 21.1211L32.2819 24.2572Z" fill="#CACEDA"/>
<defs>
<linearGradient id="paint0_linear_5760_22216" x1="21.0203" y1="56.4185" x2="62.9714" y2="107.572" gradientUnits="userSpaceOnUse">
<stop stop-color="#E1E5EF"/>
<stop offset="1" stop-color="#B8BDC9"/>
</linearGradient>
<linearGradient id="paint1_linear_5760_22216" x1="62.9167" y1="15" x2="103.979" y2="65.0705" gradientUnits="userSpaceOnUse">
<stop stop-color="#E1E5EF"/>
<stop offset="1" stop-color="#B8BDC9"/>
</linearGradient>
<linearGradient id="paint2_linear_5760_22216" x1="17.5001" y1="43.75" x2="11.124" y2="59.8667" gradientUnits="userSpaceOnUse">
<stop stop-color="#B0B8C7"/>
<stop offset="1" stop-color="#757982"/>
</linearGradient>
<clipPath id="clip0_5760_22216">
<rect width="100" height="100" fill="white"/>
</clipPath>
</defs>
</svg>
