<svg width="26" height="26" viewBox="0 0 26 26" fill="none" xmlns="http://www.w3.org/2000/svg">
<path d="M22.7774 14.3414C22.4904 14.3414 22.1903 14.2498 21.9033 14.1844C21.322 14.0559 20.7508 13.8854 20.1941 13.6741C19.5889 13.4532 18.9235 13.4647 18.3262 13.7063C17.7289 13.9478 17.2417 14.4024 16.9585 14.9826L16.6715 15.5714C15.4007 14.8624 14.233 13.9819 13.201 12.9544C12.1765 11.9194 11.2985 10.7483 10.5916 9.47384L11.1396 9.10746C11.7181 8.82341 12.1713 8.33484 12.4122 7.73577C12.6531 7.13669 12.6645 6.46945 12.4443 5.86242C12.2371 5.30294 12.0672 4.73032 11.9355 4.14831C11.8702 3.86044 11.818 3.55949 11.7789 3.25854C11.6205 2.33687 11.1391 1.50222 10.4215 0.904891C9.70396 0.307564 8.7973 -0.0131815 7.86485 0.000415186H3.9508C3.38852 -0.00487965 2.83171 0.111392 2.31826 0.341315C1.80482 0.571238 1.3468 0.909414 0.975379 1.33282C0.603961 1.75623 0.327869 2.25493 0.165897 2.79496C0.00392539 3.335 -0.0401235 3.9037 0.0367493 4.46235C0.731804 9.94409 3.22804 15.0374 7.13117 18.9376C11.0343 22.8379 16.1218 25.3229 21.5901 26H22.0859C23.048 26.0014 23.9769 25.6474 24.6953 25.0055C25.108 24.6353 25.4377 24.1814 25.6627 23.6739C25.8876 23.1664 26.0025 22.6168 26 22.0615V18.136C25.984 17.2271 25.654 16.352 25.0662 15.6599C24.4785 14.9679 23.6696 14.5019 22.7774 14.3414ZM23.4297 22.1923C23.4295 22.3781 23.3898 22.5617 23.3133 22.7309C23.2368 22.9001 23.1253 23.0511 22.9861 23.1737C22.8404 23.2999 22.6699 23.3942 22.4857 23.4505C22.3014 23.5069 22.1075 23.524 21.9163 23.5008C17.0301 22.8725 12.4916 20.6306 9.01652 17.1289C5.54147 13.6271 3.3277 9.06473 2.7244 4.16139C2.70363 3.96973 2.72183 3.77582 2.77789 3.59141C2.83395 3.40699 2.92671 3.23589 3.05057 3.08844C3.17283 2.94886 3.32333 2.837 3.49205 2.76029C3.66076 2.68358 3.84384 2.64379 4.02908 2.64355H7.94313C8.24653 2.63678 8.5428 2.7363 8.78093 2.92497C9.01906 3.11364 9.18416 3.37967 9.24782 3.67726C9.3 4.03491 9.36524 4.3882 9.44352 4.73713C9.59424 5.42689 9.79482 6.10473 10.0437 6.76528L8.21712 7.61579C8.06094 7.68766 7.92046 7.78975 7.80374 7.91621C7.68701 8.04268 7.59635 8.19102 7.53695 8.35272C7.47755 8.51443 7.45058 8.6863 7.45759 8.85849C7.46461 9.03067 7.50547 9.19977 7.57782 9.35608C9.45552 13.3898 12.6886 16.6323 16.7106 18.5155C17.0282 18.6463 17.3845 18.6463 17.7022 18.5155C17.8649 18.4571 18.0144 18.3669 18.1421 18.2501C18.2697 18.1333 18.373 17.9922 18.4458 17.8351L19.2547 16.0032C19.9292 16.2451 20.6176 16.4461 21.3161 16.6051C21.6641 16.6836 22.0163 16.749 22.3729 16.8014C22.6697 16.8652 22.9349 17.0308 23.123 17.2696C23.3112 17.5084 23.4104 17.8056 23.4036 18.1098L23.4297 22.1923Z" fill="#808080"/>
</svg>
