<svg width="22" height="25" viewBox="0 0 22 25" fill="none" xmlns="http://www.w3.org/2000/svg">
<path d="M20.4629 7.52092L13.2408 0.953774C12.5787 0.339565 11.7216 0 10.8334 0C9.94512 0 9.08804 0.339565 8.42598 0.953774L1.20381 7.52092C0.821478 7.87558 0.516379 8.31067 0.308828 8.79719C0.101277 9.28372 -0.00396324 9.81053 0.000114103 10.3425V21.2545C0.000114103 22.2479 0.380567 23.2005 1.05778 23.903C1.73499 24.6054 2.65348 25 3.6112 25H18.0555C19.0133 25 19.9318 24.6054 20.609 23.903C21.2862 23.2005 21.6666 22.2479 21.6666 21.2545V10.3301C21.669 9.80014 21.5629 9.27574 21.3554 8.7915C21.1479 8.30725 20.8437 7.87419 20.4629 7.52092ZM13.2408 22.503H8.42598V16.2605C8.42598 15.9293 8.5528 15.6118 8.77853 15.3776C9.00427 15.1435 9.31044 15.012 9.62967 15.012H12.0371C12.3563 15.012 12.6625 15.1435 12.8882 15.3776C13.1139 15.6118 13.2408 15.9293 13.2408 16.2605V22.503ZM19.2592 21.2545C19.2592 21.5856 19.1324 21.9032 18.9067 22.1373C18.6809 22.3715 18.3748 22.503 18.0555 22.503H15.6482V16.2605C15.6482 15.2671 15.2677 14.3144 14.5905 13.612C13.9133 12.9096 12.9948 12.5149 12.0371 12.5149H9.62967C8.67196 12.5149 7.75346 12.9096 7.07625 13.612C6.39904 14.3144 6.01859 15.2671 6.01859 16.2605V22.503H3.6112C3.29196 22.503 2.9858 22.3715 2.76006 22.1373C2.53432 21.9032 2.4075 21.5856 2.4075 21.2545V10.3301C2.40772 10.1528 2.44433 9.9776 2.51489 9.81614C2.58546 9.65469 2.68836 9.51067 2.81676 9.39367L10.0389 2.83902C10.2586 2.63886 10.541 2.52847 10.8334 2.52847C11.1258 2.52847 11.4081 2.63886 11.6278 2.83902L18.85 9.39367C18.9784 9.51067 19.0813 9.65469 19.1518 9.81614C19.2224 9.9776 19.259 10.1528 19.2592 10.3301V21.2545Z" fill="#808080"/>
</svg>
