<svg width="26" height="25" viewBox="0 0 26 25" fill="none" xmlns="http://www.w3.org/2000/svg">
<path d="M22.037 2.5H19.4444V1.25C19.4444 0.918479 19.3079 0.600537 19.0648 0.366116C18.8217 0.131696 18.4919 0 18.1481 0C17.8043 0 17.4746 0.131696 17.2315 0.366116C16.9884 0.600537 16.8519 0.918479 16.8519 1.25V2.5H9.07407V1.25C9.07407 0.918479 8.9375 0.600537 8.6944 0.366116C8.45129 0.131696 8.12158 0 7.77778 0C7.43398 0 7.10426 0.131696 6.86116 0.366116C6.61806 0.600537 6.48148 0.918479 6.48148 1.25V2.5H3.88889C2.85749 2.5 1.86834 2.89509 1.13903 3.59835C0.409721 4.30161 0 5.25544 0 6.25V21.25C0 22.2446 0.409721 23.1984 1.13903 23.9017C1.86834 24.6049 2.85749 25 3.88889 25H22.037C23.0684 25 24.0576 24.6049 24.7869 23.9017C25.5162 23.1984 25.9259 22.2446 25.9259 21.25V6.25C25.9259 5.25544 25.5162 4.30161 24.7869 3.59835C24.0576 2.89509 23.0684 2.5 22.037 2.5ZM23.3333 21.25C23.3333 21.5815 23.1968 21.8995 22.9537 22.1339C22.7106 22.3683 22.3808 22.5 22.037 22.5H3.88889C3.54509 22.5 3.21537 22.3683 2.97227 22.1339C2.72917 21.8995 2.59259 21.5815 2.59259 21.25V12.5H23.3333V21.25ZM23.3333 10H2.59259V6.25C2.59259 5.91848 2.72917 5.60054 2.97227 5.36612C3.21537 5.1317 3.54509 5 3.88889 5H6.48148V6.25C6.48148 6.58152 6.61806 6.89946 6.86116 7.13388C7.10426 7.3683 7.43398 7.5 7.77778 7.5C8.12158 7.5 8.45129 7.3683 8.6944 7.13388C8.9375 6.89946 9.07407 6.58152 9.07407 6.25V5H16.8519V6.25C16.8519 6.58152 16.9884 6.89946 17.2315 7.13388C17.4746 7.3683 17.8043 7.5 18.1481 7.5C18.4919 7.5 18.8217 7.3683 19.0648 7.13388C19.3079 6.89946 19.4444 6.58152 19.4444 6.25V5H22.037C22.3808 5 22.7106 5.1317 22.9537 5.36612C23.1968 5.60054 23.3333 5.91848 23.3333 6.25V10Z" fill="#808080"/>
</svg>
