<svg width="14" height="14" viewBox="0 0 14 14" fill="none" xmlns="http://www.w3.org/2000/svg">
<path d="M11.9078 7.66554C11.7662 7.66554 11.6183 7.62037 11.4768 7.58811C11.1904 7.52389 10.9089 7.43981 10.6341 7.33649C10.3357 7.2276 10.0077 7.23325 9.71318 7.35236C9.41868 7.47147 9.17849 7.69562 9.03885 7.98168L8.89734 8.27847C8.27263 7.9231 7.69551 7.48949 7.17986 6.98808C6.67996 6.47087 6.24765 5.892 5.89335 5.2654L6.18925 5.12991C6.47445 4.98985 6.69792 4.74894 6.81667 4.45354C6.93543 4.15815 6.94106 3.82913 6.8325 3.52982C6.73035 3.25176 6.64654 2.96726 6.58163 2.67816C6.54947 2.53621 6.52374 2.38782 6.50444 2.24587C6.42633 1.79141 6.18901 1.37985 5.83522 1.08532C5.48143 0.790783 5.03442 0.632627 4.57469 0.639331H2.6385C2.36656 0.638974 2.09762 0.696269 1.84931 0.807459C1.60099 0.91865 1.37891 1.08123 1.19762 1.28453C1.01257 1.49335 0.874778 1.73988 0.793721 2.00717C0.712663 2.27447 0.690258 2.5562 0.728043 2.833C1.07771 5.51841 2.30093 8.01307 4.20803 9.93018C6.11936 11.8431 8.6065 13.07 11.2838 13.4207C11.3673 13.4271 11.4512 13.4271 11.5347 13.4207C12.009 13.4214 12.467 13.2468 12.8212 12.9304C13.0239 12.7485 13.186 12.5258 13.2968 12.2767C13.4077 12.0276 13.4648 11.7579 13.4644 11.4851V9.54951C13.461 9.10371 13.3042 8.67277 13.0205 8.32951C12.7369 7.98625 12.3439 7.75172 11.9078 7.66554ZM12.223 11.5367C12.2227 11.6268 12.2037 11.7158 12.1672 11.798C12.1306 11.8802 12.0773 11.9538 12.0107 12.0142C11.9402 12.0786 11.8563 12.1265 11.7651 12.1544C11.6738 12.1823 11.5776 12.1895 11.4832 12.1755C9.08277 11.861 6.85196 10.7638 5.13432 9.05271C3.41521 7.3284 2.31175 5.08305 1.99525 2.66525C1.98127 2.57062 1.98845 2.47406 2.01627 2.38256C2.04408 2.29106 2.09183 2.2069 2.15606 2.13619C2.21693 2.06854 2.29139 2.01459 2.37454 1.9779C2.4577 1.9412 2.54766 1.92258 2.6385 1.92327H4.56826C4.71695 1.91963 4.86231 1.96778 4.97959 2.05954C5.09687 2.1513 5.17883 2.28098 5.21151 2.42653C5.21151 2.60073 5.2694 2.78139 5.30799 2.95559C5.38234 3.29359 5.48124 3.62567 5.60389 3.9492L4.70334 4.37503C4.54855 4.4463 4.42826 4.57623 4.36885 4.73634C4.30451 4.89342 4.30451 5.06961 4.36885 5.22669C5.29462 7.21568 6.88862 8.8145 8.87161 9.74307C9.02822 9.8076 9.20387 9.8076 9.36048 9.74307C9.5201 9.68348 9.64965 9.56283 9.7207 9.40757L10.1259 8.50429C10.4578 8.62567 10.7973 8.72482 11.1423 8.80109C11.3095 8.8398 11.4896 8.87206 11.6633 8.89786C11.8084 8.93064 11.9377 9.01285 12.0292 9.13048C12.1207 9.24812 12.1687 9.39392 12.1651 9.54306L12.223 11.5367ZM8.42777 0.568359C8.27982 0.568359 8.12544 0.568359 7.97749 0.568359C7.80689 0.582904 7.64904 0.66483 7.53866 0.796113C7.42828 0.927395 7.37441 1.09728 7.38891 1.2684C7.40342 1.43952 7.48509 1.59785 7.61598 1.70856C7.74687 1.81927 7.91624 1.8733 8.08684 1.85876H8.42777C9.45137 1.85876 10.4331 2.26661 11.1569 2.9926C11.8807 3.71859 12.2873 4.70324 12.2873 5.72994C12.2873 5.84608 12.2873 5.95576 12.2873 6.0719C12.273 6.24211 12.3266 6.41104 12.4364 6.54167C12.5461 6.67229 12.703 6.75394 12.8726 6.76871H12.9241C13.0851 6.76937 13.2405 6.70942 13.3596 6.60071C13.4787 6.492 13.5529 6.34244 13.5673 6.18158C13.5673 6.03319 13.5673 5.87834 13.5673 5.72994C13.5673 4.36212 13.0261 3.05023 12.0624 2.08243C11.0987 1.11463 9.79146 0.570069 8.42777 0.568359ZM9.71427 5.72994C9.71427 5.90106 9.78204 6.06517 9.90267 6.18617C10.0233 6.30716 10.1869 6.37514 10.3575 6.37514C10.5281 6.37514 10.6917 6.30716 10.8124 6.18617C10.933 6.06517 11.0008 5.90106 11.0008 5.72994C11.0008 5.04547 10.7297 4.38904 10.2472 3.90505C9.76462 3.42106 9.11017 3.14915 8.42777 3.14915C8.25716 3.14915 8.09355 3.21713 7.97292 3.33813C7.85228 3.45912 7.78451 3.62323 7.78451 3.79435C7.78451 3.96547 7.85228 4.12957 7.97292 4.25057C8.09355 4.37157 8.25716 4.43955 8.42777 4.43955C8.76897 4.43955 9.09619 4.5755 9.33746 4.8175C9.57873 5.05949 9.71427 5.38771 9.71427 5.72994Z" fill="white"/>
</svg>
