<svg width="12" height="11" viewBox="0 0 12 11" fill="none" xmlns="http://www.w3.org/2000/svg">
<path d="M9.6963 1.1H8.55555V0.55C8.55555 0.404131 8.49546 0.264236 8.3885 0.161091C8.28153 0.0579462 8.13646 0 7.98518 0C7.83391 0 7.68884 0.0579462 7.58187 0.161091C7.47491 0.264236 7.41481 0.404131 7.41481 0.55V1.1H3.99259V0.55C3.99259 0.404131 3.9325 0.264236 3.82553 0.161091C3.71857 0.0579462 3.57349 0 3.42222 0C3.27095 0 3.12587 0.0579462 3.01891 0.161091C2.91194 0.264236 2.85185 0.404131 2.85185 0.55V1.1H1.71111C1.2573 1.1 0.822068 1.27384 0.501173 1.58327C0.180277 1.89271 0 2.31239 0 2.75V9.35C0 9.78761 0.180277 10.2073 0.501173 10.5167C0.822068 10.8262 1.2573 11 1.71111 11H9.6963C10.1501 11 10.5853 10.8262 10.9062 10.5167C11.2271 10.2073 11.4074 9.78761 11.4074 9.35V2.75C11.4074 2.31239 11.2271 1.89271 10.9062 1.58327C10.5853 1.27384 10.1501 1.1 9.6963 1.1ZM10.2667 9.35C10.2667 9.49587 10.2066 9.63576 10.0996 9.73891C9.99264 9.84205 9.84757 9.9 9.6963 9.9H1.71111C1.55984 9.9 1.41476 9.84205 1.3078 9.73891C1.20083 9.63576 1.14074 9.49587 1.14074 9.35V5.5H10.2667V9.35ZM10.2667 4.4H1.14074V2.75C1.14074 2.60413 1.20083 2.46424 1.3078 2.36109C1.41476 2.25795 1.55984 2.2 1.71111 2.2H2.85185V2.75C2.85185 2.89587 2.91194 3.03576 3.01891 3.13891C3.12587 3.24205 3.27095 3.3 3.42222 3.3C3.57349 3.3 3.71857 3.24205 3.82553 3.13891C3.9325 3.03576 3.99259 2.89587 3.99259 2.75V2.2H7.41481V2.75C7.41481 2.89587 7.47491 3.03576 7.58187 3.13891C7.68884 3.24205 7.83391 3.3 7.98518 3.3C8.13646 3.3 8.28153 3.24205 8.3885 3.13891C8.49546 3.03576 8.55555 2.89587 8.55555 2.75V2.2H9.6963C9.84757 2.2 9.99264 2.25795 10.0996 2.36109C10.2066 2.46424 10.2667 2.60413 10.2667 2.75V4.4Z" fill="#EB5757"/>
</svg>
