<svg width="11" height="8" viewBox="0 0 11 8" fill="none" xmlns="http://www.w3.org/2000/svg">
<path d="M2.66667 5.33333H4.26667C4.40812 5.33333 4.54377 5.27714 4.64379 5.17712C4.74381 5.0771 4.8 4.94145 4.8 4.8C4.8 4.65855 4.74381 4.5229 4.64379 4.42288C4.54377 4.32286 4.40812 4.26667 4.26667 4.26667H2.66667C2.52522 4.26667 2.38956 4.32286 2.28954 4.42288C2.18952 4.5229 2.13333 4.65855 2.13333 4.8C2.13333 4.94145 2.18952 5.0771 2.28954 5.17712C2.38956 5.27714 2.52522 5.33333 2.66667 5.33333ZM9.06667 0H1.6C1.17565 0 0.768687 0.168571 0.468629 0.468629C0.168571 0.768687 0 1.17565 0 1.6V6.4C0 6.82435 0.168571 7.23131 0.468629 7.53137C0.768687 7.83143 1.17565 8 1.6 8H9.06667C9.49101 8 9.89798 7.83143 10.198 7.53137C10.4981 7.23131 10.6667 6.82435 10.6667 6.4V1.6C10.6667 1.17565 10.4981 0.768687 10.198 0.468629C9.89798 0.168571 9.49101 0 9.06667 0ZM9.6 6.4C9.6 6.54145 9.54381 6.6771 9.44379 6.77712C9.34377 6.87714 9.20812 6.93333 9.06667 6.93333H1.6C1.45855 6.93333 1.3229 6.87714 1.22288 6.77712C1.12286 6.6771 1.06667 6.54145 1.06667 6.4V3.2H9.6V6.4ZM9.6 2.13333H1.06667V1.6C1.06667 1.45855 1.12286 1.3229 1.22288 1.22288C1.3229 1.12286 1.45855 1.06667 1.6 1.06667H9.06667C9.20812 1.06667 9.34377 1.12286 9.44379 1.22288C9.54381 1.3229 9.6 1.45855 9.6 1.6V2.13333Z" fill="#3B3D43"/>
</svg>
