<svg width="32" height="32" viewBox="0 0 32 32" fill="none" xmlns="http://www.w3.org/2000/svg">
<path d="M16 0C7.1639 0 0 7.1639 0 16C0 24.8361 7.1639 32 16 32C24.8361 32 32 24.8361 32 16C32 7.1639 24.8372 0 16 0ZM15.9402 24.2148C15.0487 24.2148 14.3256 23.5781 14.3256 22.7929C14.3256 22.0078 15.0487 21.371 15.9402 21.371C16.8317 21.371 17.5548 22.0078 17.5548 22.7929C17.5548 23.5781 16.8328 24.2148 15.9402 24.2148ZM17.1506 19.9978H14.567L13.7597 6.94795H18.2813L17.1506 19.9978Z" fill="#EB5757"/>
</svg>
