<svg width="10" height="14" viewBox="0 0 10 14" fill="none" xmlns="http://www.w3.org/2000/svg">
<g clip-path="url(#clip0_9594_19278)">
<path d="M6.93203 7.01349H6.07397C6.02881 6.85315 5.96107 6.6928 5.84816 6.55536H6.93203C7.11268 6.55536 7.27074 6.39461 7.27074 6.21176C7.27074 6.02892 7.11268 5.86816 6.93203 5.86816H2.86752C2.68687 5.86816 2.52881 6.02851 2.52881 6.21176C2.52881 6.39501 2.68687 6.55536 2.86752 6.55536H4.1772C4.8772 6.55536 5.19332 6.73861 5.35139 7.01349H2.86752C2.68687 7.01349 2.52881 7.17425 2.52881 7.35709C2.52881 7.53993 2.68687 7.70069 2.86752 7.70069H5.46429C5.44171 8.18173 5.23849 8.61695 4.1772 8.61695H2.86752C2.73203 8.61695 2.59655 8.70858 2.55139 8.82311C2.50623 8.96055 2.52881 9.09799 2.61913 9.18962L5.32881 11.9384C5.39655 12.0071 5.48687 12.03 5.5772 12.03C5.66752 12.03 5.75784 12.0071 5.82558 11.9384C5.96107 11.801 5.96107 11.5948 5.82558 11.4574L3.703 9.30415H4.1772C5.803 9.30415 6.11913 8.34207 6.14171 7.70069H6.93203C7.11268 7.70069 7.27074 7.54034 7.27074 7.35709C7.27074 7.17384 7.11268 7.01349 6.93203 7.01349Z" fill="white"/>
<path d="M5.82566 2.18006C5.75792 2.18006 5.69017 2.15715 5.62243 2.11134C5.46437 1.9968 5.44179 1.79064 5.55469 1.6303L6.18695 0.782755L4.94501 0.920194H4.87727L3.63534 0.782755L4.26759 1.6303C4.3805 1.79064 4.35792 1.9968 4.19985 2.11134C4.04179 2.22587 3.83856 2.20296 3.72566 2.04262L2.61921 0.553689C2.52889 0.439156 2.52889 0.301717 2.59663 0.187184C2.66437 0.0726514 2.79985 0.00393176 2.93534 0.00393176L4.92243 0.232997L6.90953 0.0043408C7.04501 -0.0185658 7.1805 0.0501539 7.24824 0.187593C7.31598 0.325033 7.31598 0.462472 7.22566 0.554098L6.11921 2.04302C6.02888 2.13465 5.91598 2.18046 5.82566 2.18046V2.18006Z" fill="white"/>
<path d="M4.9 14.0002C2.59677 14.0002 0 14.0002 0 10.5871C0 7.40347 2.19032 2.54688 4.9 2.54688C7.60967 2.54688 9.8 7.40307 9.8 10.5871C9.8 14.0002 7.20322 14.0002 4.9 14.0002ZM4.9 3.23407C3.90645 3.23407 2.84516 4.17324 1.9871 5.7767C1.19677 7.26563 0.7 9.14396 0.7 10.5642C0.677419 13.1755 2.28064 13.313 4.9 13.313C7.51935 13.313 9.12258 13.1755 9.12258 10.5871C9.12258 9.14396 8.6258 7.26563 7.83548 5.79961C6.95484 4.17324 5.89355 3.23407 4.9 3.23407Z" fill="white"/>
</g>
<defs>
<clipPath id="clip0_9594_19278">
<rect width="9.8" height="14" fill="white"/>
</clipPath>
</defs>
</svg>
