<svg width="24" height="34" viewBox="0 0 24 34" fill="none" xmlns="http://www.w3.org/2000/svg">
<g clip-path="url(#clip0_7233_29765)">
<path d="M22.7376 34C23.2652 34 23.697 33.5831 23.697 33.0736V0.92643C23.697 0.416894 23.2652 0 22.7376 0H0.959391C0.431726 0 0 0.416894 0 0.92643V33.0272C0 33.5368 0.431726 33.9537 0.959391 33.9537H22.7376V34V34ZM1.91878 32.1471V14.6839H21.7782V32.1471H1.91878V32.1471ZM21.7782 1.85286V12.8311H1.91878V1.85286H21.7782Z" fill="#003874"/>
<path d="M4.3173 10.8854C4.84497 10.8854 5.27669 10.4685 5.27669 9.95894V5.65104C5.27669 5.1415 4.84497 4.72461 4.3173 4.72461C3.78964 4.72461 3.35791 5.1415 3.35791 5.65104V9.95894C3.35791 10.4685 3.78964 10.8854 4.3173 10.8854Z" fill="#003874"/>
<path d="M4.3173 18.0654C3.78964 18.0654 3.35791 18.4823 3.35791 18.9919V23.2998C3.35791 23.8093 3.78964 24.2262 4.3173 24.2262C4.84497 24.2262 5.27669 23.8093 5.27669 23.2998V18.9919C5.27669 18.4823 4.84497 18.0654 4.3173 18.0654Z" fill="#003874"/>
</g>
<defs>
<clipPath id="clip0_7233_29765">
<rect width="23.697" height="34" fill="white"/>
</clipPath>
</defs>
</svg>
