<svg width="17" height="13" viewBox="0 0 17 13" fill="none" xmlns="http://www.w3.org/2000/svg">
<path d="M16.514 8.37509C16.3482 7.57286 15.709 7.17059 15.1327 6.98253C14.6333 6.81963 14.1121 6.75209 13.882 6.6968C13.8735 6.65839 13.8656 6.60575 13.8599 6.54847C14.752 6.67627 15.3884 6.29717 15.3884 6.29717C15.4821 6.23956 15.545 6.14024 15.5599 6.02767C15.5745 5.9151 15.5393 5.80186 15.464 5.72009C14.9979 5.21451 14.9605 4.0163 14.9678 3.52V3.51867C14.9928 2.08406 14.2267 1.10404 13.2805 0.747126C12.4327 0.427294 11.4428 0.566351 10.725 1.1792C10.714 1.16993 10.6507 1.1345 10.5522 1.08384C10.7573 1.20999 11.1051 1.4934 11.4637 2.09929C11.3912 1.96255 11.3111 1.8331 11.2235 1.71291C11.5507 1.45599 11.9576 1.32554 12.3649 1.32388C12.5944 1.32355 12.8241 1.36328 13.0399 1.44473C13.7301 1.70497 14.2798 2.33801 14.2593 3.50609V3.50742C14.2532 3.92161 14.1934 4.97182 14.646 5.8012C14.3979 5.85616 14.0403 5.87504 13.6051 5.72969C13.5007 5.69492 13.3868 5.71247 13.2963 5.77736C13.2058 5.84226 13.1494 5.94754 13.1431 6.06177C13.1431 6.06177 13.1298 6.29155 13.1479 6.54516C13.157 6.67197 13.1719 6.8054 13.2115 6.94214C13.251 7.07854 13.308 7.26958 13.5437 7.36361C13.5441 7.36361 13.5447 7.36361 13.545 7.36361C13.946 7.52386 14.4555 7.5371 14.9222 7.6894C15.3191 7.81886 15.6181 7.98573 15.7609 8.32973C15.1153 8.88497 14.3476 9.25446 13.5384 9.43358C13.5127 9.39518 13.4855 9.35843 13.458 9.32234C13.4817 9.36041 13.7558 9.80506 13.84 10.2547C13.8425 10.2199 13.8406 10.1845 13.8333 10.1494C13.8317 10.1418 13.8298 10.1342 13.8282 10.1262C14.771 9.8928 15.6653 9.42762 16.4058 8.72803C16.4998 8.63897 16.5416 8.50421 16.5147 8.37443L16.514 8.37509ZM13.8906 6.72958C13.8979 6.75209 13.9051 6.74679 13.8906 6.72958V6.72958Z" fill="white"/>
<path d="M12.1641 8.47183C11.5138 8.2596 10.8322 8.18213 10.5508 8.10168C10.5496 8.0977 10.548 8.09439 10.5464 8.08909C10.5261 8.0189 10.5075 7.89541 10.4986 7.77092C10.4973 7.75602 10.497 7.74145 10.4961 7.72655C11.6426 7.93315 12.4654 7.43983 12.4654 7.43983C12.5591 7.38255 12.6221 7.28322 12.6366 7.17065C12.6512 7.05808 12.6157 6.94485 12.5404 6.86307C11.9164 6.18665 11.8828 4.65537 11.8936 4.03822C11.9069 3.28466 11.7471 2.63407 11.4676 2.10432L10.3663 0.990871C9.92076 0.776987 9.16853 0.459473 8.7258 0.459473C8.0144 0.459473 7.2992 0.696864 6.72577 1.17827C6.00868 0.566415 5.01974 0.426695 4.17226 0.745203C3.22382 1.10145 2.45546 2.08247 2.48109 3.51973C2.48995 4.01206 2.45166 5.21425 1.98615 5.72015C1.91083 5.80193 1.8757 5.91516 1.89058 6.02773C1.90545 6.13997 1.96843 6.2393 2.0621 6.29691C2.0621 6.29691 2.69818 6.67534 3.58965 6.5482C3.58364 6.60515 3.57541 6.65779 3.56718 6.6962C3.33712 6.75149 2.81591 6.81904 2.31622 6.98193C1.73962 7.16999 1.10069 7.57293 0.936132 8.37515C0.909549 8.50461 0.951005 8.63903 1.04499 8.7281C1.78425 9.42835 2.67951 9.89353 3.62288 10.1273C3.6213 10.1349 3.6194 10.1422 3.61782 10.1498C3.59123 10.2793 3.63269 10.414 3.72668 10.5027C6.4859 13.1117 10.966 13.1117 13.7252 10.5027C13.7936 10.4382 13.8338 10.3491 13.8408 10.2554L13.4575 9.32108C13.1205 8.88536 12.6309 8.62446 12.1645 8.47216L12.1641 8.47183ZM10.5613 8.12353C10.5663 8.13114 10.5676 8.12982 10.5613 8.12353V8.12353ZM7.01502 1.89839C7.47325 1.43718 8.097 1.20144 8.72549 1.20144C9.35398 1.20144 9.97772 1.43718 10.4356 1.89839C10.8939 2.35959 11.2024 3.04561 11.185 4.0253C11.1758 4.56531 11.1084 5.94032 11.7198 6.96074C11.4065 7.0498 10.9192 7.10973 10.317 6.92399C10.2147 6.86638 10.092 6.86473 9.98816 6.92002C9.96633 6.93061 9.94544 6.94386 9.92614 6.95909C9.29828 7.37692 8.16725 7.39248 7.53939 6.97067C7.51155 6.9465 7.48053 6.92697 7.4473 6.9124C7.34572 6.86439 7.22831 6.86936 7.13084 6.92531C6.52957 7.10973 6.0438 7.0498 5.73146 6.96074C6.34159 5.94032 6.27419 4.56498 6.26501 4.0253C6.24792 3.04561 6.5571 2.35926 7.01534 1.89806L7.01502 1.89839ZM3.55832 6.72931C3.54377 6.74653 3.55104 6.75149 3.55832 6.72931V6.72931ZM3.91181 9.43464C3.10135 9.25453 2.3333 8.88536 1.68931 8.33046C1.83108 7.98612 2.13014 7.81959 2.52666 7.69013C2.99312 7.53783 3.50263 7.52492 3.90358 7.36434C3.90358 7.36434 3.9039 7.36434 3.90421 7.36434H3.90485C4.14029 7.27031 4.19726 7.07993 4.23713 6.94352C4.277 6.80679 4.29219 6.67336 4.30169 6.54655C4.32036 6.29293 4.30738 6.06316 4.30738 6.06316C4.30137 5.94827 4.24504 5.84298 4.15453 5.77776C4.06403 5.71287 3.9501 5.69499 3.84535 5.72975C3.4099 5.87543 3.0523 5.85623 2.80388 5.80127C3.25547 4.97222 3.19661 3.923 3.18901 3.50616C3.16844 2.33609 3.7194 1.70304 4.41118 1.44347C4.62733 1.36235 4.85739 1.32262 5.08746 1.32395V1.32328C5.49411 1.3256 5.89981 1.45638 6.22608 1.71231C5.79791 2.29934 5.53905 3.08733 5.5555 4.03822C5.56626 4.65504 5.53272 6.18732 4.91024 6.86373C4.83492 6.94584 4.7998 7.05874 4.81435 7.17131C4.82891 7.28355 4.89189 7.38288 4.98524 7.44049C4.98524 7.44049 5.80709 7.93381 6.95458 7.72721C6.95363 7.74211 6.95299 7.75668 6.95204 7.77158C6.94287 7.89574 6.9242 8.01923 6.90394 8.08909C6.90236 8.09439 6.90078 8.0977 6.89919 8.10201C6.61849 8.18246 5.93652 8.2596 5.28588 8.4725C4.78018 8.63771 4.24726 8.93006 3.91149 9.43464H3.91181ZM6.89002 8.1232C6.88432 8.12882 6.88527 8.13015 6.89002 8.1232V8.1232ZM4.36751 10.1021C4.54726 9.59555 4.96562 9.35386 5.49822 9.1797C6.09697 8.98403 6.74761 8.96085 7.2185 8.77279C7.2185 8.77279 7.21914 8.77279 7.21945 8.77279C7.21945 8.77279 7.21945 8.77279 7.21977 8.77279C7.46914 8.67347 7.53623 8.46521 7.58307 8.30563C7.62674 8.15564 7.64636 8.00367 7.65775 7.85733C8.33308 8.1222 9.1217 8.11393 9.79417 7.85137C9.80557 7.99904 9.82455 8.15299 9.86854 8.30463C9.91475 8.46422 9.98089 8.6728 10.2309 8.77279C10.2309 8.77279 10.2312 8.77279 10.2315 8.77279C10.7024 8.96118 11.3537 8.98403 11.9534 9.1797C12.4863 9.35386 12.905 9.59555 13.085 10.1021C10.6537 12.24 6.79888 12.24 4.36783 10.1021H4.36751Z" fill="white"/>
<path d="M13.4565 9.3208L13.4578 9.32331C13.4578 9.32331 13.4598 9.32518 13.4604 9.32643C13.4585 9.3233 13.4565 9.3208 13.4565 9.3208Z" fill="white"/>
<path d="M13.4565 9.3208L13.4578 9.32331C13.4578 9.32331 13.4598 9.32518 13.4604 9.32643C13.4585 9.3233 13.4565 9.3208 13.4565 9.3208Z" stroke="white"/>
<path d="M13.457 9.32227L13.8403 10.2566V10.2563C13.7561 9.80632 13.482 9.362 13.4583 9.32392C13.4581 9.32359 13.4579 9.32334 13.4577 9.32309C13.4574 9.32284 13.4572 9.3226 13.457 9.32227Z" fill="white"/>
<path d="M13.457 9.32227L13.8403 10.2566V10.2563C13.7561 9.80632 13.482 9.362 13.4583 9.32392C13.4581 9.32359 13.4579 9.32334 13.4577 9.32309C13.4574 9.32284 13.4572 9.3226 13.457 9.32227Z" stroke="white"/>
</svg>
