<svg width="28" height="25" viewBox="0 0 28 25" fill="none" xmlns="http://www.w3.org/2000/svg">
<path d="M20.1579 8.76743L14 2.85314L4.29789 12.1714H6.47368V22.6857H10.5789H17.4211H21.5263V12.1714H23.7021L21.5263 10.0817V5.6H20.1579V8.76743ZM1 13.4857L14 1L18.7895 5.6V4.28571H22.8947V9.54286L27 13.4857H22.8947V24H16.0526H11.9474H5.10526V13.4857H1Z" fill="#003874" stroke="#003874" stroke-width="0.4"/>
<path d="M14 21C17.3137 21 20 18.3137 20 15C20 11.6863 17.3137 9 14 9C10.6863 9 8 11.6863 8 15C8 18.3137 10.6863 21 14 21Z" stroke="#003874" stroke-width="1.5" stroke-linecap="round" stroke-linejoin="round"/>
<path d="M14 12.5996V17.3996" stroke="#003874" stroke-width="1.5" stroke-linecap="round" stroke-linejoin="round"/>
<path d="M11.5996 15H16.3996" stroke="#003874" stroke-width="1.5" stroke-linecap="round" stroke-linejoin="round"/>
</svg>
