<svg width="33" height="32" viewBox="0 0 33 32" fill="none" xmlns="http://www.w3.org/2000/svg">
<g clip-path="url(#clip0_7233_29850)">
<path d="M30.1712 6.02239H15.4973L18.4461 3.01127C18.7206 2.73099 18.7206 2.31086 18.4461 2.03117C18.1716 1.75089 17.7602 1.75089 17.4863 2.03117L14.2636 5.32198L9.25714 0.210214C8.98266 -0.0700715 8.57123 -0.0700715 8.29734 0.210214C8.02285 0.4905 8.02285 0.910629 8.29734 1.19031L13.0288 6.0218H2.74305C1.23429 6.0224 0 7.28278 0 8.82285V26.6081C0 28.1488 1.23429 29.4092 2.74305 29.4092H3.70286V31.2997C3.70286 31.7199 3.97734 32.0002 4.38877 32.0002H8.3661C8.77753 32.0002 9.05201 31.7199 9.05201 31.2997V29.4092H23.9322V31.2997C23.9322 31.7199 24.2067 32.0002 24.6181 32.0002H28.5955C29.0069 32.0002 29.2814 31.7199 29.2814 31.2997V29.4092H30.1724C31.6812 29.4092 32.9155 28.1488 32.9155 26.6081V8.82285C32.9155 7.28218 31.6812 6.0218 30.1724 6.0218L30.1712 6.02239ZM7.61143 30.5303H5.07409V29.4098H7.67961V30.5303H7.61143ZM27.8402 30.5303H25.2347V29.4098H27.8402V30.5303ZM31.543 26.5391C31.543 27.3091 30.9259 27.9393 30.1718 27.9393H2.74305C1.98896 27.9393 1.37182 27.3091 1.37182 26.5391V8.82345C1.37182 8.05342 1.98896 7.42322 2.74305 7.42322H30.1718C30.9259 7.42322 31.543 8.05342 31.543 8.82345V26.5391Z" fill="#003874"/>
<path d="M21.2575 8.82324H5.48573C3.97696 8.82324 2.74268 10.0836 2.74268 11.6243V23.808C2.74268 25.3487 3.97696 26.6091 5.48573 26.6091H21.257C22.7657 26.6091 24 25.3487 24 23.808V11.6243C24 10.0836 22.7657 8.82324 21.2575 8.82324ZM22.6288 23.7378C22.6288 24.5078 22.0116 25.138 21.2575 25.138H5.48573C4.73164 25.138 4.1145 24.5078 4.1145 23.7378V11.6243C4.1145 10.8543 4.73164 10.2241 5.48573 10.2241H21.257C22.0111 10.2241 22.6282 10.8543 22.6282 11.6243V23.7378H22.6288Z" fill="#003874"/>
<path d="M29.4172 23.8779H26.4003C25.9888 23.8779 25.7144 24.1582 25.7144 24.5783C25.7144 24.9985 25.9888 25.2788 26.4003 25.2788H29.4172C29.8286 25.2788 30.1031 24.9985 30.1031 24.5783C30.1031 24.1582 29.8286 23.8779 29.4172 23.8779Z" fill="#003874"/>
<path d="M29.4172 20.167H26.4003C25.9888 20.167 25.7144 20.4473 25.7144 20.8674C25.7144 21.2875 25.9888 21.5678 26.4003 21.5678H29.4172C29.8286 21.5678 30.1031 21.2875 30.1031 20.8674C30.1031 20.4473 29.8286 20.167 29.4172 20.167Z" fill="#003874"/>
<path d="M27.9772 9.87402C26.4685 9.87402 25.166 11.1344 25.166 12.7447C25.166 14.355 26.4003 15.6154 27.9772 15.6154C29.5542 15.6154 30.7885 14.355 30.7885 12.7447C30.7885 11.1344 29.486 9.87402 27.9772 9.87402ZM27.9772 14.2152C27.2232 14.2152 26.5372 13.585 26.5372 12.7447C26.5372 11.9044 27.1544 11.2743 27.9772 11.2743C28.7313 11.2743 29.4172 11.9044 29.4172 12.7447C29.4172 13.585 28.7313 14.2152 27.9772 14.2152Z" fill="#003874"/>
</g>
<defs>
<clipPath id="clip0_7233_29850">
<rect width="32.9143" height="32" fill="white"/>
</clipPath>
</defs>
</svg>
