<svg width="35" height="25" viewBox="0 0 35 25" fill="none" xmlns="http://www.w3.org/2000/svg">
<g clip-path="url(#clip0_7233_29593)">
<path d="M10.3895 17.0075C10.6105 16.5955 10.4263 16.071 9.9842 15.8462C9.57894 15.6214 9.06315 15.8088 8.84209 16.2583C8.17894 17.6069 8.17894 19.1803 8.84209 20.5289C9.24736 21.3906 9.24736 22.402 8.84209 23.2636C8.62104 23.6757 8.80525 24.2002 9.24736 24.425C9.35788 24.4999 9.50525 24.4999 9.61578 24.4999C9.94736 24.4999 10.2421 24.3126 10.3895 24.0129C11.0526 22.6643 11.0526 21.0909 10.3895 19.7422C9.9842 18.8806 9.9842 17.8692 10.3895 17.0075Z" fill="#003874"/>
<path d="M15.658 17.0075C15.8791 16.5955 15.6949 16.071 15.2528 15.8462C14.8475 15.6214 14.3317 15.8088 14.1106 16.2583C13.4475 17.6069 13.4475 19.1803 14.1106 20.5289C14.5159 21.3906 14.5159 22.402 14.1106 23.2636C13.8896 23.6757 14.0738 24.2002 14.5159 24.425C14.6264 24.4999 14.7738 24.4999 14.8843 24.4999C15.2159 24.4999 15.5107 24.3126 15.658 24.0129C16.3212 22.6643 16.3212 21.0909 15.658 19.7422C15.2159 18.8806 15.2159 17.8692 15.658 17.0075Z" fill="#003874"/>
<path d="M20.8895 17.0075C21.1105 16.5955 20.9263 16.071 20.4842 15.8462C20.0789 15.6214 19.5631 15.8088 19.3421 16.2583C18.6789 17.6069 18.6789 19.1803 19.3421 20.5289C19.7474 21.3906 19.7474 22.402 19.3421 23.2636C19.121 23.6757 19.3053 24.2002 19.7474 24.425C19.8579 24.4999 20.0053 24.4999 20.1158 24.4999C20.4474 24.4999 20.7421 24.3126 20.8895 24.0129C21.5526 22.6643 21.5526 21.0909 20.8895 19.7422C20.4842 18.8806 20.4842 17.8692 20.8895 17.0075Z" fill="#003874"/>
<path d="M26.158 17.0075C26.3791 16.5955 26.1949 16.071 25.7528 15.8462C25.3475 15.6214 24.8317 15.8088 24.6106 16.2583C23.9475 17.6069 23.9475 19.1803 24.6106 20.5289C25.0159 21.3906 25.0159 22.402 24.6106 23.2636C24.3896 23.6757 24.5738 24.2002 25.0159 24.425C25.1264 24.4999 25.2738 24.4999 25.3843 24.4999C25.7159 24.4999 26.0107 24.3126 26.158 24.0129C26.8212 22.6643 26.8212 21.0909 26.158 19.7422C25.7153 18.8806 25.7153 17.8692 26.158 17.0075Z" fill="#003874"/>
<path d="M32.1263 0H2.87368C1.28947 0 0 1.31116 0 2.92202V10.9763C0 12.5872 1.28947 13.8983 2.87368 13.8983H32.1263C33.7105 13.8983 35 12.5872 35 10.9763V2.88456C35 1.2737 33.7105 0 32.1263 0ZM2.87368 1.72324H32.1263C32.7526 1.72324 33.2684 2.24771 33.2684 2.88456V8.27905H1.69474V2.88456C1.69474 2.24771 2.21053 1.72324 2.87368 1.72324ZM32.1263 12.1376H2.87368C2.24737 12.1376 1.73158 11.6131 1.73158 10.9763V10.0398H33.3053V10.9763C33.3053 11.6131 32.7895 12.1376 32.1263 12.1376Z" fill="#003874"/>
<path d="M28.6262 5.28183H30.5788C31.0578 5.28183 31.4262 4.90722 31.4262 4.42021C31.4262 3.93321 31.0578 3.55859 30.5788 3.55859H28.6262C28.1472 3.55859 27.7788 3.93321 27.7788 4.42021C27.7788 4.90722 28.1472 5.28183 28.6262 5.28183Z" fill="#003874"/>
<path d="M23.8737 5.28183H25.8264C26.3053 5.28183 26.6737 4.90722 26.6737 4.42021C26.6737 3.93321 26.3053 3.55859 25.8264 3.55859H23.8737C23.3948 3.55859 23.0264 3.93321 23.0264 4.42021C23.0264 4.90722 23.4316 5.28183 23.8737 5.28183Z" fill="#003874"/>
</g>
<defs>
<clipPath id="clip0_7233_29593">
<rect width="35" height="24.5" fill="white"/>
</clipPath>
</defs>
</svg>
