<svg width="13" height="18" viewBox="0 0 13 18" fill="none" xmlns="http://www.w3.org/2000/svg">
<path d="M9.49127 6.35274L9.49126 6.35176C9.47318 4.50224 8.09653 2.98826 6.35869 2.98826C4.62096 2.98826 3.24375 4.50231 3.24375 6.35274C3.24375 8.20435 4.63968 9.69823 6.35869 9.69823C8.07734 9.69823 9.49127 8.18575 9.49127 6.35274ZM6.35869 8.35946C5.34523 8.35946 4.50163 7.46233 4.50163 6.35274C4.50163 5.24194 5.34634 4.32703 6.35869 4.32703C7.37249 4.32703 8.233 5.22436 8.23339 6.35196C8.21611 7.46264 7.37177 8.35946 6.35869 8.35946Z" fill="#003874" stroke="#1A051D" stroke-width="0.2"/>
<path d="M11.0264 2.74768L11.0262 2.74746C9.9509 1.14619 8.21039 0.178931 6.34144 0.178931C5.60432 0.178931 4.88581 0.333798 4.20421 0.623424L4.20421 0.62342L4.20337 0.623784C2.69571 1.28069 1.54806 2.53643 0.992728 4.17526C0.437848 5.77481 0.527207 7.58579 1.24367 9.10901L1.2437 9.10909L4.89314 16.8522C4.89317 16.8523 4.89321 16.8524 4.89325 16.8525C5.1735 17.4556 5.73689 17.8211 6.3767 17.8211C7.01818 17.8211 7.58019 17.4351 7.85971 16.8534L7.86002 16.8527L11.5097 9.10909L11.5097 9.10909L11.5104 9.1076C12.4409 7.0467 12.2627 4.59932 11.0264 2.74768ZM6.70939 16.255L6.70916 16.2555C6.63848 16.4077 6.49911 16.4823 6.35907 16.4823C6.21903 16.4823 6.07966 16.4077 6.00898 16.2555L6.00874 16.255L2.35919 8.51162C1.18186 5.99554 2.22384 2.92723 4.68885 1.85098L4.68885 1.85099L4.68998 1.85048C5.22284 1.60993 5.79055 1.49872 6.34144 1.49872C7.75268 1.49872 9.13245 2.2213 9.99608 3.50401C11.0332 5.06713 11.0681 7.00357 10.359 8.51145L6.70939 16.255Z" fill="#003874" stroke="#1A051D" stroke-width="0.2"/>
</svg>
