<svg width="10" height="14" viewBox="0 0 10 14" fill="none" xmlns="http://www.w3.org/2000/svg">
<path d="M7.24859 5.17866L7.24858 5.17765C7.23556 3.88769 6.24463 2.83274 4.99528 2.83274C3.74605 2.83274 2.75449 3.88774 2.75449 5.17866C2.75449 6.47074 3.75969 7.51152 4.99528 7.51152C6.2305 7.51152 7.24858 6.45807 7.24859 5.17866ZM4.99528 6.52806C4.29076 6.52806 3.70564 5.92396 3.70564 5.17866C3.70564 4.43217 4.2919 3.8162 4.99528 3.8162C5.70011 3.8162 6.29701 4.42047 6.29743 5.17786C6.2853 5.92431 5.69932 6.52806 4.99528 6.52806Z" fill="#1A051D" stroke="#1A051D" stroke-width="0.2"/>
<path d="M5.2177 11.9774L5.21795 11.9769L7.80939 6.64948L5.2177 11.9774ZM5.2177 11.9774C5.17337 12.0699 5.08553 12.1165 4.9949 12.1165C4.90426 12.1165 4.81642 12.0699 4.77209 11.9774L4.77184 11.9769M5.2177 11.9774L4.77184 11.9769M4.77184 11.9769L2.18049 6.64966C1.35261 4.93537 2.08492 2.84439 3.8195 2.1106L3.8195 2.1106M4.77184 11.9769L3.8195 2.1106M3.8195 2.1106L3.82061 2.11012M3.8195 2.1106L3.82061 2.11012M3.82061 2.11012C4.19524 1.94626 4.59463 1.8704 4.98238 1.8704M3.82061 2.11012L4.98238 1.8704M4.98238 1.8704C5.97585 1.8704 6.94673 2.36331 7.55416 3.23745M4.98238 1.8704L7.55416 3.23745M7.55416 3.23745C8.28348 4.30267 8.30799 5.622 7.80943 6.6494L7.55416 3.23745ZM8.33224 2.67993L8.33208 2.67971C7.56289 1.56989 6.31829 0.9 4.98238 0.9C4.45532 0.9 3.94165 1.0073 3.45452 1.20786L3.45452 1.20785L3.4537 1.2082C2.37595 1.66319 1.55476 2.53342 1.15738 3.66958C0.760462 4.77831 0.82438 6.03348 1.33696 7.08937L1.337 7.08944L3.92823 12.4165C3.92826 12.4165 3.9283 12.4166 3.92834 12.4167C4.1327 12.8428 4.54315 13.1 5.00742 13.1C5.47337 13.1 5.88241 12.8283 6.08603 12.4177L6.08636 12.417L8.67784 7.08944L8.67785 7.08945L8.67855 7.08794C9.34412 5.65974 9.21671 3.96343 8.33224 2.67993Z" fill="#1A051D" stroke="#1A051D" stroke-width="0.2"/>
</svg>
