<svg width="175" height="64" viewBox="0 0 175 64" fill="none" xmlns="http://www.w3.org/2000/svg">
<g clip-path="url(#clip0_118_115)">
<path d="M23.6969 55.6388H18.0278L20.5978 39.3873H12.8122L9.9776 56.0167C9.18393 60.741 5.85804 63.122 -0.0378418 63.122L0.680247 58.8135C2.83451 58.8135 4.08172 57.7931 4.42187 55.79L7.14304 39.3873H4.27069L5.02657 34.7764H7.93672L8.16348 33.4914C8.57922 31.0348 9.71304 29.2207 11.5272 28.0491C13.3791 26.8775 15.6467 26.3106 18.4057 26.3106H20.4844L19.7285 30.997H17.1963C15.1932 30.997 14.0594 31.9419 13.757 33.8316L13.6058 34.7764H27.4007L23.6969 55.6388ZM28.4967 28.6538L28.3078 29.6364C28.1944 30.4301 27.8164 31.0348 27.2117 31.4506C26.5692 31.8663 25.7755 32.0931 24.8685 32.0931C23.9614 32.0931 23.2811 31.8663 22.752 31.4128C22.2607 30.9592 22.0339 30.3167 22.1473 29.5231L22.2985 28.5782C22.5253 26.9531 23.6969 26.1216 25.7756 26.1216C26.6826 26.1216 27.3629 26.3483 27.8542 26.8019C28.3456 27.2554 28.5723 27.8979 28.4589 28.6916L28.4967 28.6538ZM46.1466 55.6388H40.5531L42.7829 42.1463C42.8963 41.3904 42.8207 40.7479 42.5561 40.2188C42.2538 39.6897 41.7247 39.4251 40.9688 39.4251C40.2885 39.4251 39.457 39.6897 38.5122 40.2188L35.791 41.7684L33.5233 55.6388H27.9298L31.3691 34.7764H36.9626L36.6225 36.9307L38.7011 35.7213C40.0239 34.9276 41.4223 34.5497 42.9341 34.5497C44.975 34.5497 46.5245 35.1922 47.545 36.515C48.5654 37.8 48.8678 39.5385 48.4898 41.655L46.1466 55.6766V55.6388ZM64.8925 48.0044L65.8373 42.4486C65.9885 41.466 65.8751 40.7101 65.4594 40.1432C65.0814 39.5763 64.4389 39.3117 63.5697 39.3117C62.776 39.3117 61.9067 39.5763 60.9241 40.1054L57.9006 41.655L56.7667 48.6091L59.2612 50.2342C59.9792 50.7256 60.8107 50.9523 61.6422 50.9523C62.4737 50.9523 63.1539 50.6878 63.7587 50.1586C64.3634 49.6295 64.7035 48.9114 64.8547 48.0422L64.8925 48.0044ZM54.4235 62.9331H48.9811L53.6298 34.7764H59.0722L58.732 36.8173L60.9997 35.6079C62.3981 34.8898 63.872 34.5119 65.4216 34.5119C67.6137 34.5119 69.2388 35.1922 70.297 36.5906C71.3931 37.9889 71.7332 39.7653 71.3553 41.9195L70.1837 48.8359C69.8435 50.9523 68.8987 52.6531 67.4247 53.9381C65.9129 55.1853 64.061 55.8278 61.9067 55.8278C60.3194 55.8278 58.9588 55.4498 57.825 54.6939L56.0109 53.4845L54.4613 62.9709L54.4235 62.9331ZM87.9847 47.0217L88.5894 43.5069C88.8162 42.1841 88.665 41.1259 88.0603 40.3322C87.4556 39.5385 86.5485 39.1228 85.2635 39.1228C84.0541 39.1228 83.0337 39.5007 82.1644 40.2566C81.2951 41.0125 80.766 42.1085 80.5392 43.5069L79.9345 47.0217C79.7078 48.3445 79.8967 49.4028 80.4637 50.1964C81.0306 50.9901 81.9376 51.4059 83.2226 51.4059C84.432 51.4059 85.4525 51.0279 86.3217 50.272C87.191 49.5161 87.7579 48.4201 87.9847 47.0217ZM93.994 43.1667L93.2381 47.7398C92.8223 50.3854 91.6507 52.4641 89.7232 53.9003C87.7957 55.3364 85.4525 56.0545 82.6179 56.0545C79.8212 56.0545 77.6291 55.2609 76.1551 53.7113C74.6434 52.1617 74.1142 50.0453 74.53 47.3619L75.2859 42.7888C75.7394 40.1432 76.911 38.0645 78.8007 36.6284C80.6904 35.1922 83.0715 34.4741 85.8682 34.4741C88.665 34.4741 90.857 35.2678 92.331 36.8173C93.8428 38.3669 94.3719 40.4834 93.9562 43.1667H93.994ZM117.766 55.6388H111.341L109.867 43.6203L104.463 55.6388H98.0001L96.9797 34.7764H102.762L102.724 49.1004L109.036 34.7764H113.647L115.31 49.1004L120.11 34.7764H125.854L117.729 55.6388H117.766ZM139.347 48.7603H144.676C144.298 51.0657 143.24 52.8798 141.426 54.1648C139.611 55.4498 137.344 56.0923 134.547 56.0923C131.901 56.0923 129.785 55.3364 128.235 53.7869C126.686 52.2373 126.157 50.1209 126.61 47.3997L127.366 42.8266C127.782 40.181 128.954 38.1023 130.881 36.6661C132.809 35.1922 135.19 34.4741 138.024 34.4741C140.519 34.4741 142.484 35.0788 143.92 36.2882C145.356 37.4976 146.074 38.9716 146.074 40.7101C146.074 42.9778 145.281 44.6407 143.693 45.6611C142.106 46.7194 140.103 47.2107 137.646 47.2107H131.901L131.864 47.4753C131.637 48.7603 131.826 49.7807 132.393 50.5366C132.96 51.2925 133.867 51.6704 135.152 51.6704C137.608 51.6704 139.045 50.7256 139.385 48.7981L139.347 48.7603ZM132.393 43.9604H137.041C139.385 43.9604 140.556 43.0911 140.556 41.3148C140.556 40.5967 140.292 40.0298 139.725 39.5763C139.158 39.1228 138.364 38.896 137.306 38.896C134.698 38.896 133.111 40.3322 132.544 43.2045L132.393 43.9982V43.9604ZM152.273 55.6388H146.679L150.118 34.7764H155.712L155.258 37.4976L156.128 36.6661C157.639 35.3056 159.378 34.6253 161.268 34.6253H162.553L161.645 40.1432H160.398C158.773 40.1432 157.337 40.5589 156.128 41.4282L154.427 42.5998L152.273 55.6388Z" fill="white"/>
<path fill-rule="evenodd" clip-rule="evenodd" d="M157.564 25.1012C158.811 26.8775 163.875 34.5119 164.934 35.3056L174.873 0.00585938C172.984 2.53807 157.715 24.7988 157.526 25.1012H157.564Z" fill="#DB3E33"/>
<path fill-rule="evenodd" clip-rule="evenodd" d="M157.564 25.1012C155.447 24.572 115.952 33.567 114.781 32.849L174.873 0.00585938C173.173 2.65145 157.79 24.8366 157.564 25.1012Z" fill="#B2382C"/>
</g>
<defs>
<clipPath id="clip0_118_115">
<rect width="174.911" height="63.1276" fill="white"/>
</clipPath>
</defs>
</svg>
