<?xml version="1.0" standalone="yes"?>
<svg xmlns="http://www.w3.org/2000/svg" width="240" height="77">
<path style="fill:#010101; stroke:none;" d="M0 0L0 41L1 41C7.60085 31.8558 16.0187 33.2123 26 34L26 44C23.3572 42.6147 6.78003 38.5269 11.0864 46.689C13.5304 51.3213 21.1747 52.3417 24.7716 56.1852C32.7523 64.7131 24.6837 75.0017 15 76L15 77L68 77L68 76C51.6389 67.411 67.9508 56.8732 79 56C75.3836 50.1046 69.6398 52.5079 64 54C64.4152 41.2499 82.8159 42.8355 86.8519 53.0039C88.7654 57.825 89.0597 66.9251 87.6821 71.9414C86.3761 76.6969 81.3108 76.5605 79 73L73 76L73 77L103 77L103 76C84.1066 69.5721 93.8969 37.8952 114 48C114 43.9085 112.662 36.8568 115.028 33.3179C117.334 29.8689 122.601 31.0701 123.281 35.0586C124.946 44.8327 124.946 62.1673 123.281 71.9414C122.391 77.1622 116.281 76.5174 114 73L107 76L107 77L171 77L171 76C163.81 73.5283 160.354 65.2451 167.214 59.8542C170.968 56.9041 176.432 56.5803 181 56C177.68 49.9787 171.511 52.7403 166 54C166.363 42.9013 181.651 42.4104 187.566 50.044C192.374 56.2479 190 68.5462 190 76L181 73L175 76L175 77L240 77L240 4L239 4L228 46L215.907 33.7739L201 35.919L162 44L184 30L237 1L215 0L167 0L0 0z"/>
<path style="fill:#c33509; stroke:none;" d="M162 44C174.12 41.0141 186.711 38.6456 199 36.4244C204.585 35.415 212.011 35.2678 216.816 31.9915C226.237 25.5677 234.062 9.62177 240 0C232.889 1.37119 226.301 6.23405 220 9.69444C206.996 16.836 193.973 23.9432 181 31.1389C174.798 34.5791 165.381 37.4929 162 44z"/>
<path style="fill:#d23d0e; stroke:none;" d="M239 1L237 4L239 1z"/>
<path style="fill:#ec4a17; stroke:none;" d="M239 2C229.673 13.2366 207.647 35.6646 228 46C230.755 33.9808 241.736 13.9828 239 2z"/>
<path style="fill:#d23d0e; stroke:none;" d="M235 6L236 7L235 6M234 8L235 9L234 8M233 9L234 10L233 9M231 12L232 13L231 12M229 15L230 16L229 15M227 18L228 19L227 18M226 19L227 20L226 19M225 21L226 22L225 21M224 22L225 23L224 22M222 25L223 26L222 25M221 26L222 27L221 26M220 28L221 29L220 28M219 29L220 30L219 29z"/>
<path style="fill:#013975; stroke:none;" d="M114 48C87.2723 30.3585 86.1033 91.9888 114 73C114.895 77.178 122.817 77.5572 123.722 72.9722C125.744 62.7299 124.27 45.6515 123.833 35C123.667 30.9332 117.199 29.0418 114.722 32.3333C112.363 35.4676 114 44.1764 114 48M159 76C159 62.9742 161 36.2366 140 48L140 40C139.991 35.7854 134.73 24.9313 130.603 33.3179C126.809 41.0281 129.996 57.4152 130 66C130.001 69.2331 129.107 74.5588 133.147 75.6775C142.906 78.3798 139.276 64.1303 140.228 59.0046C140.738 56.2582 143.196 52.131 146.57 54.0864C153.186 57.9208 145.129 70.6332 150.603 74.9722C152.683 76.6208 156.528 75.9981 159 76z"/>
<path style="fill:#d23d0e; stroke:none;" d="M216 32L217 33L216 32z"/>
<path style="fill:#013975; stroke:none;" d="M0 65C0.00222715 67.8822 -0.643301 72.0204 1.6034 74.2616C7.94338 80.5861 25.2215 76.4643 27.5664 67.9961C29.5197 60.942 26.1116 55.2904 19.9992 51.9815C17.5358 50.6479 9.99644 48.2632 11.3457 44.2384C13.2801 38.468 22.5904 42.687 26 44L26 34C22.3225 33.5352 18.7282 32.8886 15 33.0401C4.89725 33.4507 -5.98 43.7855 2.57253 53.6713C5.98863 57.6199 13.9387 58.2841 16.0787 63.0895C19.9418 71.764 2.35561 65.7839 0 65M29 46C29.8985 52.0838 34.4468 72.7027 40.2778 75.3966C52.9006 81.2284 58.7441 54.5043 60 46C47.7035 46.0095 47.1908 55.4139 45 66C40.6367 55.8586 42.9196 44.2808 29 46M64 54C70.2119 52.9482 74.2288 50.7048 79 56C73.9838 56.2154 67.1122 56.4937 63.4336 60.3943C53.1673 71.2804 69.4558 79.209 79 73C79.7607 76.5498 86.0625 77.728 87.6667 73.8889C89.6743 69.0843 88.7839 56.7863 86.9722 52C82.9904 41.4801 64 41.7847 64 54M166 54C172.036 53.1126 176.524 50.6306 181 56C176.046 56.3915 169.266 56.6751 165.653 60.5579C155.774 71.1739 171.557 79.6375 181 73C181.904 77.2169 186.356 76 190 76C190 68.5202 192.568 55.2244 187.566 49.1088C181.361 41.5217 166.126 43.432 166 54M206 49L197 46L197 76L206 76C206 71.4793 203.6 52.7775 211.907 53.9213C218.488 54.8275 216 71.4341 216 76C218.626 75.998 223.112 76.7464 224.972 74.3966C226.909 71.9503 226.005 66.9077 226 64C225.979 51.2296 219.493 39.0292 206 49z"/>
<path style="fill:#010101; stroke:none;" d="M0 51C0 55.2951 -1.50216 62.7817 2.3179 65.7724C5.17474 68.009 18.0546 71.134 17.0787 63.9892C16.4518 59.3995 3.68326 53.9789 0 51M105.303 54.0324C99.4033 57.7098 103.123 72.3899 110.606 67.8056C116.935 63.9287 113.056 49.1999 105.303 54.0324M79 62C64.0131 62.697 76.4369 74.5533 79 62M181 62C165.966 63.365 179.565 74.7333 181 62M0 74C0.854378 77.9871 4.48947 77 8 77L8 76L0 74z"/>
</svg>
