<?xml version="1.0" encoding="UTF-8"?>
<!DOCTYPE svg PUBLIC "-//W3C//DTD SVG 1.1//EN" "http://www.w3.org/Graphics/SVG/1.1/DTD/svg11.dtd">
<!-- Creator: CorelDRAW X6 -->
<svg xmlns="http://www.w3.org/2000/svg" xml:space="preserve" width="46.2786mm" height="16.7025mm" version="1.1" style="shape-rendering:geometricPrecision; text-rendering:geometricPrecision; image-rendering:optimizeQuality; fill-rule:evenodd; clip-rule:evenodd"
viewBox="0 0 4628 1670"
 xmlns:xlink="http://www.w3.org/1999/xlink">
 <defs>
  <style type="text/css">
   <![CDATA[
    .fil2 {fill:#B2382C}
    .fil1 {fill:#DB3E33}
    .fil0 {fill:#00416B;fill-rule:nonzero}
   ]]>
  </style>
 </defs>
 <g id="Layer_x0020_1">
  <metadata id="CorelCorpID_0Corel-Layer"/>
  <g id="_1521417456">
   <path class="fil0" d="M627 1472l-150 0 68 -430 -206 0 -75 440c-21,125 -109,188 -265,188l19 -114c57,0 90,-27 99,-80l72 -434 -76 0 20 -122 77 0 6 -34c11,-65 41,-113 89,-144 49,-31 109,-46 182,-46l55 0 -20 124 -67 0c-53,0 -83,25 -91,75l-4 25 365 0 -98 552zm127 -714l-5 26c-3,21 -13,37 -29,48 -17,11 -38,17 -62,17 -24,0 -42,-6 -56,-18 -13,-12 -19,-29 -16,-50l4 -25c6,-43 37,-65 92,-65 24,0 42,6 55,18 13,12 19,29 16,50zm467 714l-148 0 59 -357c3,-20 1,-37 -6,-51 -8,-14 -22,-21 -42,-21 -18,0 -40,7 -65,21l-72 41 -60 367 -148 0 91 -552 148 0 -9 57 55 -32c35,-21 72,-31 112,-31 54,0 95,17 122,52 27,34 35,80 25,136l-62 371zm496 -202l25 -147c4,-26 1,-46 -10,-61 -10,-15 -27,-22 -50,-22 -21,0 -44,7 -70,21l-80 41 -30 184 66 43c19,13 41,19 63,19 22,0 40,-7 56,-21 16,-14 25,-33 29,-56zm-277 395l-144 0 123 -745 144 0 -9 54 60 -32c37,-19 76,-29 117,-29 58,0 101,18 129,55 29,37 38,84 28,141l-31 183c-9,56 -34,101 -73,135 -40,33 -89,50 -146,50 -42,0 -78,-10 -108,-30l-48 -32 -41 251zm888 -421l16 -93c6,-35 2,-63 -14,-84 -16,-21 -40,-32 -74,-32 -32,0 -59,10 -82,30 -23,20 -37,49 -43,86l-16 93c-6,35 -1,63 14,84 15,21 39,32 73,32 32,0 59,-10 82,-30 23,-20 38,-49 44,-86zm159 -102l-20 121c-11,70 -42,125 -93,163 -51,38 -113,57 -188,57 -74,0 -132,-21 -171,-62 -40,-41 -54,-97 -43,-168l20 -121c12,-70 43,-125 93,-163 50,-38 113,-57 187,-57 74,0 132,21 171,62 40,41 54,97 43,168zm629 330l-170 0 -39 -318 -143 318 -171 0 -27 -552 153 0 -1 379 167 -379 122 0 44 379 127 -379 152 0 -215 552zm571 -182l141 0c-10,61 -38,109 -86,143 -48,34 -108,51 -182,51 -70,0 -126,-20 -167,-61 -41,-41 -55,-97 -43,-169l20 -121c11,-70 42,-125 93,-163 51,-39 114,-58 189,-58 66,0 118,16 156,48 38,32 57,71 57,117 0,60 -21,104 -63,131 -42,28 -95,41 -160,41l-152 0 -1 7c-6,34 -1,61 14,81 15,20 39,30 73,30 65,0 103,-25 112,-76zm-184 -127l123 0c62,0 93,-23 93,-70 0,-19 -7,-34 -22,-46 -15,-12 -36,-18 -64,-18 -69,0 -111,38 -126,114l-4 21zm526 309l-148 0 91 -552 148 0 -12 72 23 -22c40,-36 86,-54 136,-54l34 0 -24 146 -33 0c-43,0 -81,11 -113,34l-45 31 -57 345z"/>
   <g>
    <path class="fil1" d="M4169 664c33,47 167,249 195,270l263 -934c-50,67 -454,656 -459,664z"/>
    <path class="fil2" d="M4169 664c-56,-14 -1101,224 -1132,205l1590 -869c-45,70 -452,657 -458,664z"/>
   </g>
  </g>
 </g>
</svg>
