<svg width="26" height="24" viewBox="0 0 26 24" fill="none" xmlns="http://www.w3.org/2000/svg">
<path d="M22.3334 10.2503C22.024 10.2503 21.7272 10.3732 21.5085 10.592C21.2897 10.8108 21.1667 11.1076 21.1667 11.417V19.5837C21.1667 19.8931 21.0438 20.1898 20.825 20.4086C20.6062 20.6274 20.3095 20.7503 20.0001 20.7503H3.66675C3.35733 20.7503 3.06058 20.6274 2.84179 20.4086C2.623 20.1898 2.50008 19.8931 2.50008 19.5837V10.2503C2.50008 9.94091 2.623 9.64416 2.84179 9.42537C3.06058 9.20658 3.35733 9.08366 3.66675 9.08366H6.00008C6.25449 9.09694 6.50626 9.02658 6.71692 8.88333C6.92759 8.74007 7.08557 8.5318 7.16675 8.29033L7.79675 6.37699C7.87501 6.14527 8.02413 5.944 8.22301 5.80164C8.4219 5.65928 8.6605 5.58303 8.90508 5.58366H15.3334C15.6428 5.58366 15.9396 5.46074 16.1584 5.24195C16.3772 5.02316 16.5001 4.72641 16.5001 4.41699C16.5001 4.10757 16.3772 3.81083 16.1584 3.59203C15.9396 3.37324 15.6428 3.25033 15.3334 3.25033H8.84675C8.11355 3.2517 7.39931 3.48329 6.80481 3.91242C6.21031 4.34154 5.76559 4.94653 5.53341 5.64199L5.16008 6.80866H3.66675C2.73849 6.80866 1.84825 7.17741 1.19187 7.83379C0.535497 8.49016 0.166748 9.3804 0.166748 10.3087V19.642C0.166748 20.5702 0.535497 21.4605 1.19187 22.1169C1.84825 22.7732 2.73849 23.142 3.66675 23.142H20.0001C20.9283 23.142 21.8186 22.7732 22.475 22.1169C23.1313 21.4605 23.5001 20.5702 23.5001 19.642V11.4753C23.508 11.3173 23.4837 11.1593 23.4286 11.0109C23.3735 10.8626 23.2888 10.727 23.1797 10.6124C23.0706 10.4978 22.9393 10.4066 22.7938 10.3444C22.6483 10.2821 22.4917 10.2501 22.3334 10.2503ZM11.8334 9.08366C10.9104 9.08366 10.0082 9.35736 9.24076 9.87014C8.47333 10.3829 7.87519 11.1117 7.52198 11.9645C7.16877 12.8172 7.07635 13.7555 7.25642 14.6607C7.43648 15.566 7.88094 16.3975 8.53358 17.0502C9.18623 17.7028 10.0177 18.1473 10.923 18.3273C11.8282 18.5074 12.7666 18.415 13.6193 18.0618C14.472 17.7086 15.2008 17.1104 15.7136 16.343C16.2264 15.5756 16.5001 14.6733 16.5001 13.7503C16.5001 12.5126 16.0084 11.3257 15.1332 10.4505C14.2581 9.57532 13.0711 9.08366 11.8334 9.08366ZM11.8334 16.0837C11.3719 16.0837 10.9208 15.9468 10.5371 15.6904C10.1534 15.434 9.8543 15.0696 9.6777 14.6433C9.50109 14.2169 9.45488 13.7477 9.54492 13.2951C9.63495 12.8425 9.85718 12.4267 10.1835 12.1004C10.5098 11.7741 10.9256 11.5519 11.3782 11.4618C11.8308 11.3718 12.3 11.418 12.7263 11.5946C13.1527 11.7712 13.5171 12.0703 13.7735 12.454C14.0299 12.8377 14.1667 13.2888 14.1667 13.7503C14.1667 14.3692 13.9209 14.9627 13.4833 15.4002C13.0457 15.8378 12.4523 16.0837 11.8334 16.0837ZM24.6667 3.25033H23.5001V2.08366C23.5001 1.77424 23.3772 1.47749 23.1584 1.2587C22.9396 1.03991 22.6428 0.916992 22.3334 0.916992C22.024 0.916992 21.7272 1.03991 21.5085 1.2587C21.2897 1.47749 21.1667 1.77424 21.1667 2.08366V3.25033H20.0001C19.6907 3.25033 19.3939 3.37324 19.1751 3.59203C18.9563 3.81083 18.8334 4.10757 18.8334 4.41699C18.8334 4.72641 18.9563 5.02316 19.1751 5.24195C19.3939 5.46074 19.6907 5.58366 20.0001 5.58366H21.1667V6.75033C21.1667 7.05975 21.2897 7.35649 21.5085 7.57528C21.7272 7.79408 22.024 7.91699 22.3334 7.91699C22.6428 7.91699 22.9396 7.79408 23.1584 7.57528C23.3772 7.35649 23.5001 7.05975 23.5001 6.75033V5.58366H24.6667C24.9762 5.58366 25.2729 5.46074 25.4917 5.24195C25.7105 5.02316 25.8334 4.72641 25.8334 4.41699C25.8334 4.10757 25.7105 3.81083 25.4917 3.59203C25.2729 3.37324 24.9762 3.25033 24.6667 3.25033Z" fill="#808080"/>
</svg>
