<svg width="24" height="29" viewBox="0 0 24 29" fill="none" xmlns="http://www.w3.org/2000/svg">
<path d="M22.3936 0H0.947871C0.69655 0 0.45552 0.0983594 0.27732 0.273696C0.0991202 0.449032 0 0.687447 0 0.935484V28.0645C0 28.3126 0.0996619 28.5504 0.27732 28.7263C0.454978 28.9022 0.696008 29 0.947871 29H22.3936C22.6449 29 22.8859 28.9016 23.0641 28.7263C23.2423 28.551 23.3415 28.3131 23.3415 28.0645V0.935484C23.3415 0.687447 23.2418 0.449567 23.0641 0.273696C22.8865 0.0978249 22.6455 0 22.3936 0V0ZM21.4457 1.87097V5.55464H1.89574V1.87097H21.4457ZM1.89574 27.129V7.4256H21.4457V27.129H1.89574ZM11.6707 9.47191C7.43348 9.47191 3.98431 12.8674 3.96914 17.0467C3.96914 17.0504 3.96914 17.0541 3.96914 17.0584V17.0728C3.96914 21.2638 7.42427 24.6738 11.6707 24.6738C15.9172 24.6738 19.3723 21.2638 19.3723 17.0728C19.3723 12.8819 15.9172 9.47191 11.6707 9.47191ZM11.6707 11.3429C12.8683 11.3445 14.0361 11.7107 15.0148 12.3917C15.9936 13.0727 16.7356 14.0355 17.1391 15.1479C15.8186 15.0303 14.4873 15.1383 13.2041 15.467C11.3479 15.954 10.7104 16.6265 9.2718 16.8499C8.20098 17.0167 7.06787 16.8836 5.89793 16.4581C6.05338 15.0538 6.72826 13.7554 7.79367 12.8113C8.85853 11.8673 10.2392 11.3445 11.6707 11.3429ZM11.6707 22.8028C10.3778 22.8001 9.12285 22.373 8.10403 21.5883C7.08466 20.8036 6.3594 19.7061 6.04309 18.4691C7.1827 18.7818 8.36672 18.8855 9.57025 18.699C11.3387 18.4242 12.0358 17.7111 13.6948 17.2754C14.867 16.9681 16.1371 16.8975 17.4798 17.0648V17.0734C17.4782 18.5931 16.8656 20.0498 15.7764 21.1243C14.6871 22.1988 13.2106 22.8023 11.6713 22.8034L11.6707 22.8028ZM4.44308 3.74247C4.44362 3.49443 4.54328 3.25709 4.7204 3.08122C5.47382 2.33924 6.65026 3.18866 6.26624 4.10063C5.88601 5.04841 4.44308 4.74691 4.44308 3.74247ZM8.34398 3.01921C9.16727 2.3649 10.2516 3.29344 9.78149 4.18348C9.38826 4.89712 8.35372 4.80625 8.07045 4.10063C7.99245 3.91567 7.97728 3.7104 8.02657 3.51528C8.07586 3.3207 8.18744 3.14697 8.34452 3.01921H8.34398ZM11.5521 3.74247C11.5521 2.52955 13.4479 2.47877 13.4479 3.74247C13.4479 5.00618 11.5521 5.01847 11.5521 3.74247Z" fill="#003874"/>
</svg>
