<svg width="12" height="12" viewBox="0 0 12 12" fill="none" xmlns="http://www.w3.org/2000/svg">
<path d="M10.8254 7.55857H10.826V4.84422C10.8252 4.00333 10.4904 3.1974 9.89554 2.60287C9.30048 2.0084 8.49361 1.67451 7.65246 1.67399C7.65244 1.67399 7.65242 1.67399 7.65241 1.67399M10.8254 7.55857L7.65246 1.58399L7.65241 1.67399M10.8254 7.55857L10.8254 7.64865M10.8254 7.55857L10.8254 7.64865M7.65241 1.67399H4.84785M7.65241 1.67399H4.84785M4.84785 1.67399L4.8478 1.67399L4.84785 1.67399ZM10.8254 7.64865C10.8262 8.49058 10.4924 9.29828 9.89731 9.89405C9.30221 10.4898 8.49454 10.8252 7.65215 10.8258M10.8254 7.64865L7.65215 10.8258M7.65215 10.8258H4.84762C4.00519 10.825 3.19752 10.4898 2.60243 9.89405C2.00735 9.29828 1.67354 8.49058 1.6743 7.64865V7.64857L1.6743 4.84422L1.6743 4.84413L7.65215 10.8258ZM5.7632 3.79667H3.89361C3.6828 3.79667 3.51146 3.62586 3.51146 3.41467C3.51146 3.20349 3.6828 3.03268 3.89361 3.03268H8.60587C8.70718 3.03268 8.80442 3.07291 8.87608 3.14454C8.94702 3.21543 8.98719 3.31137 8.98801 3.41155H8.98802V3.41441C8.98802 3.4145 8.98802 3.41459 8.98802 3.41467H8.98797C8.98317 3.62215 8.81348 3.7878 8.60587 3.7878H7.23558C7.38227 3.99572 7.48315 4.23306 7.53087 4.48378H8.60874C8.8196 4.48378 8.99089 4.6549 8.99089 4.86577C8.99089 5.07664 8.8196 5.24777 8.60874 5.24777H7.51248C7.42084 5.6273 7.20804 5.96737 6.90541 6.21615C6.58362 6.48069 6.18001 6.62558 5.76324 6.62613H5.76312H4.92149L7.43025 8.78926L5.7632 3.79667ZM5.7632 3.79667C5.99765 3.79715 6.22494 3.87725 6.40811 4.02361C6.56127 4.14599 6.67583 4.30883 6.73968 4.49264M5.7632 3.79667L6.73968 4.49264M6.73968 4.49264H3.89361C3.6828 4.49264 3.51146 4.66345 3.51146 4.87464C3.51146 5.08582 3.6828 5.25663 3.89361 5.25663H6.70313M6.73968 4.49264L6.70313 5.25663M6.70313 5.25663C6.62987 5.4167 6.51667 5.5562 6.37354 5.66107C6.19636 5.79088 5.98276 5.86139 5.76323 5.86214C5.76318 5.86214 5.76314 5.86214 5.76309 5.86214L3.89361 5.86214C3.73359 5.86214 3.59066 5.96173 3.53507 6.1117L3.53501 6.11187C3.47979 6.26175 3.52335 6.4302 3.64508 6.53428C3.64514 6.53433 3.64521 6.53439 3.64527 6.53444L6.93165 9.36805L6.9317 9.36809C7.09169 9.50583 7.33297 9.48782 7.47055 9.3278C7.60798 9.16795 7.59032 8.92712 7.4303 8.78931L6.70313 5.25663ZM6.70313 5.25663H6.80129C6.72268 5.4463 6.59337 5.61157 6.42673 5.73367C6.23422 5.87471 6.00206 5.95136 5.76338 5.95214H3.89361C3.77127 5.95214 3.66198 6.02827 3.61946 6.14298C3.5772 6.25769 3.61059 6.38648 3.70371 6.466L6.70313 5.25663ZM4.84754 0.91L4.84745 0.91C3.80396 0.911067 2.80319 1.32594 2.06509 2.06337L2.06508 2.06338C1.32699 2.80107 0.911602 3.80078 0.91 4.84373V4.84387V7.64828C0.91 7.64829 0.91 7.6483 0.91 7.6483C0.909739 8.69283 1.32431 9.69467 2.06268 10.4337C2.80105 11.1727 3.80262 11.5887 4.84771 11.5897H4.8478H7.65246H7.65258C8.69737 11.5884 9.6992 11.1727 10.4376 10.4337C11.1759 9.69467 11.5905 8.69283 11.5903 7.6483C11.5903 7.6483 11.5903 7.64829 11.5903 7.64828V4.84387V4.84373C11.5887 3.80052 11.1733 2.80081 10.4352 2.06337L10.4352 2.06336C9.6968 1.32594 8.69604 0.911067 7.65255 0.91H7.65246H7.6522L4.84754 0.91Z" fill="#3B3D43" stroke="#4F4F4F" stroke-width="0.18"/>
</svg>
