<svg width="20" height="20" viewBox="0 0 20 20" fill="none" xmlns="http://www.w3.org/2000/svg">
<path d="M18.3142 14.4273L16.4167 12.4839C16.0086 12.096 15.4937 11.8389 14.9384 11.7458C14.383 11.6527 13.8124 11.7278 13.3001 11.9614L12.4751 11.1364C13.4472 9.83744 13.8912 8.21838 13.7177 6.6052C13.5441 4.99201 12.7658 3.50447 11.5395 2.44203C10.3133 1.37959 8.73006 0.82114 7.1086 0.879099C5.48713 0.937058 3.94782 1.60712 2.80054 2.7544C1.65326 3.90168 0.9832 5.44099 0.925242 7.06246C0.867283 8.68392 1.42573 10.2671 2.48817 11.4934C3.55061 12.7197 5.03815 13.4979 6.65134 13.6715C8.26453 13.8451 9.88358 13.4011 11.1826 12.4289L11.9984 13.2448C11.7372 13.7578 11.6436 14.3398 11.7308 14.9088C11.818 15.4778 12.0815 16.0051 12.4842 16.4164L14.4276 18.3598C14.9432 18.8748 15.6422 19.164 16.3709 19.164C17.0997 19.164 17.7986 18.8748 18.3142 18.3598C18.5762 18.1037 18.7843 17.7978 18.9264 17.4601C19.0685 17.1225 19.1416 16.7598 19.1416 16.3935C19.1416 16.0272 19.0685 15.6645 18.9264 15.3269C18.7843 14.9892 18.5762 14.6834 18.3142 14.4273ZM10.5409 10.5406C9.89946 11.1804 9.08276 11.6158 8.194 11.7917C7.30524 11.9676 6.38428 11.8762 5.54746 11.5289C4.71064 11.1817 3.9955 10.5942 3.49239 9.84076C2.98928 9.08728 2.72077 8.2016 2.72077 7.2956C2.72077 6.38959 2.98928 5.50391 3.49239 4.75044C3.9955 3.99696 4.71064 3.4095 5.54746 3.06226C6.38428 2.71502 7.30524 2.62357 8.194 2.79949C9.08276 2.9754 9.89946 3.41077 10.5409 4.0506C10.9677 4.47635 11.3064 4.98212 11.5374 5.53896C11.7685 6.09579 11.8874 6.69273 11.8874 7.2956C11.8874 7.89846 11.7685 8.49541 11.5374 9.05224C11.3064 9.60907 10.9677 10.1148 10.5409 10.5406ZM17.0217 17.0214C16.9365 17.1073 16.8351 17.1755 16.7234 17.2221C16.6117 17.2686 16.4919 17.2926 16.3709 17.2926C16.2499 17.2926 16.1301 17.2686 16.0184 17.2221C15.9067 17.1755 15.8053 17.1073 15.7201 17.0214L13.7767 15.0781C13.6908 14.9929 13.6226 14.8915 13.5761 14.7798C13.5296 14.6681 13.5056 14.5483 13.5056 14.4273C13.5056 14.3063 13.5296 14.1864 13.5761 14.0747C13.6226 13.963 13.6908 13.8616 13.7767 13.7764C13.862 13.6905 13.9633 13.6223 14.075 13.5758C14.1867 13.5292 14.3066 13.5053 14.4276 13.5053C14.5486 13.5053 14.6684 13.5292 14.7801 13.5758C14.8918 13.6223 14.9932 13.6905 15.0784 13.7764L17.0217 15.7198C17.1077 15.805 17.1758 15.9064 17.2224 16.0181C17.2689 16.1298 17.2929 16.2496 17.2929 16.3706C17.2929 16.4916 17.2689 16.6114 17.2224 16.7231C17.1758 16.8348 17.1077 16.9362 17.0217 17.0214Z" fill="white"/>
</svg>
