<svg width="21" height="18" viewBox="0 0 21 18" fill="none" xmlns="http://www.w3.org/2000/svg">
<path d="M10.0441 -0.000104176C9.8964 0.00270826 9.7543 0.0549392 9.63895 0.14775L0.251084 7.79758C0.112182 7.90967 0.0231733 8.07239 0.00321606 8.25038C-0.0167411 8.42837 0.0351476 8.60716 0.14611 8.74698C0.257471 8.88679 0.419124 8.97639 0.595945 8.99648C0.772765 9.01617 0.950384 8.96434 1.08889 8.85264L2.23443 7.91771V17.3253C2.23443 17.5045 2.30508 17.6761 2.43081 17.8026C2.55654 17.9292 2.72697 18.0003 2.90499 18.0003H17.2107C17.3887 18.0003 17.5592 17.9292 17.6849 17.8026C17.8106 17.6761 17.8813 17.5045 17.8813 17.3253V7.91731L19.0268 8.85224C19.1657 8.96434 19.3433 9.01576 19.5198 8.99608C19.6966 8.97639 19.8586 8.88679 19.9696 8.74657C20.0806 8.60676 20.132 8.42796 20.1125 8.24998C20.0929 8.07199 20.0035 7.90927 19.8646 7.79718L10.4772 0.14775C10.3542 0.0489126 10.2009 -0.00331839 10.0441 -0.000104176ZM10.058 1.54674L16.5401 6.82729V16.6495H12.9638V11.0246C12.9638 10.8459 12.8932 10.6739 12.7674 10.5473C12.6417 10.4208 12.4713 10.3497 12.2933 10.3497H7.82284C7.79969 10.3485 7.77614 10.3485 7.75299 10.3497C7.58775 10.3669 7.43448 10.4457 7.32351 10.5706C7.21255 10.6956 7.15148 10.8571 7.15228 11.0246V16.6495H3.57595V6.82729L10.058 1.54674ZM8.49341 11.6996H11.6227V16.6495H8.49341V11.6996Z" fill="white"/>
</svg>
