<svg width="101" height="75" viewBox="0 0 101 75" fill="none" xmlns="http://www.w3.org/2000/svg">
<g clip-path="url(#clip0_636_2267)">
<path d="M87.7856 11.749H13.2152C10.8957 11.749 9.0127 13.6202 9.0127 15.9251V60.9225C9.0127 63.2317 10.8957 65.0986 13.2152 65.0986H87.7856C90.1094 65.0986 91.9881 63.2274 91.9881 60.9225V15.9251C91.9881 13.6159 90.1051 11.749 87.7856 11.749Z" fill="white" stroke="#DBE2E8" stroke-width="3" stroke-miterlimit="10"/>
<path d="M85.1518 21.9785H48.5094C47.998 21.9785 47.5835 22.3931 47.5835 22.9044C47.5835 23.4158 47.998 23.8304 48.5094 23.8304H85.1518C85.6631 23.8304 86.0777 23.4158 86.0777 22.9044C86.0777 22.3931 85.6631 21.9785 85.1518 21.9785Z" fill="#DBE2E8"/>
<path d="M85.1518 30.1904H48.5094C47.998 30.1904 47.5835 30.605 47.5835 31.1164C47.5835 31.6277 47.998 32.0423 48.5094 32.0423H85.1518C85.6631 32.0423 86.0777 31.6277 86.0777 31.1164C86.0777 30.605 85.6631 30.1904 85.1518 30.1904Z" fill="#DBE2E8"/>
<path d="M85.1518 38.4022H48.5094C47.998 38.4022 47.5835 38.8168 47.5835 39.3281C47.5835 39.8395 47.998 40.2541 48.5094 40.2541H85.1518C85.6631 40.2541 86.0777 39.8395 86.0777 39.3281C86.0777 38.8168 85.6631 38.4022 85.1518 38.4022Z" fill="#DBE2E8"/>
<path d="M85.1518 46.6141H48.5094C47.998 46.6141 47.5835 47.0287 47.5835 47.5401C47.5835 48.0514 47.998 48.466 48.5094 48.466H85.1518C85.6631 48.466 86.0777 48.0514 86.0777 47.5401C86.0777 47.0287 85.6631 46.6141 85.1518 46.6141Z" fill="#DBE2E8"/>
<circle cx="27.8151" cy="30.5555" r="10.1852" fill="#DBE2E8"/>
<rect x="18.5557" y="46.2963" width="9.25926" height="2.77778" rx="1.38889" fill="#D9D9D9"/>
<rect x="29.667" y="46.2963" width="9.25926" height="2.77778" rx="1.38889" fill="#D9D9D9"/>
</g>
<path d="M100.959 1.05321C100.841 0.434655 100.304 -0.00933789 99.6842 0.00014912L87.4394 0.000147883C87.0979 -0.00364694 86.7695 0.129171 86.5269 0.373937C86.2843 0.616805 86.1481 0.948851 86.1481 1.29608C86.1481 1.6433 86.2843 1.97535 86.5269 2.21822C86.7695 2.46108 87.0979 2.5958 87.4394 2.59011L98.4096 2.59011L98.4096 15.3537C98.404 15.7009 98.5365 16.0348 98.7754 16.2815C99.0161 16.5282 99.3408 16.6667 99.6823 16.6667C100.024 16.6667 100.35 16.5282 100.589 16.2815C100.828 16.0348 100.962 15.7009 100.959 15.3537L100.959 1.29798C100.964 1.21639 100.964 1.1348 100.959 1.05511L100.959 1.05321Z" fill="#003874"/>
<path d="M100.957 58.587C100.888 57.871 100.25 57.345 99.5301 57.4133C98.8099 57.4817 98.2807 58.116 98.3476 58.8301L98.3476 72.4074L84.6923 72.4074C84.3427 72.4017 84.0065 72.5366 83.7581 72.7797C83.5098 73.0247 83.3703 73.3551 83.3703 73.7027C83.3703 74.0503 83.5098 74.3826 83.7581 74.6257C84.0065 74.8707 84.3427 75.0037 84.6923 74.9999L99.6524 74.9999C100.373 74.9999 100.957 74.4187 100.957 73.7027L100.957 58.8282C100.965 58.7466 100.965 58.6649 100.957 58.5851L100.957 58.587Z" fill="#003874"/>
<path d="M16.6928 1.19122C16.6095 0.489495 16.03 -0.0268299 15.3596 0.00107951L1.3305 0.00107823C0.616531 0.0010782 0.0370254 0.611099 0.0370254 1.36266L0.0370248 15.2871C0.0332368 15.652 0.167701 16.0028 0.410108 16.262C0.654411 16.5211 0.983931 16.6667 1.3305 16.6667C1.67707 16.6667 2.00849 16.5211 2.2509 16.262C2.49331 16.0028 2.62777 15.652 2.62398 15.2871L2.62398 2.72225L15.3596 2.72225C15.7402 2.7382 16.1058 2.57672 16.3633 2.28168C16.6209 1.98664 16.7421 1.58793 16.6928 1.19122Z" fill="#003874"/>
<path d="M17.619 73.5296C17.5351 72.857 16.9515 72.3621 16.2763 72.3889L2.64281 72.3889L2.64281 58.7296C2.64662 58.3799 2.5112 58.0436 2.26706 57.7952C2.02102 57.5468 1.68913 57.4073 1.34009 57.4073C0.991041 57.4073 0.659166 57.5468 0.413118 57.7952C0.168978 58.0436 0.033554 58.3799 0.0373687 58.7296L0.0373681 73.6939C0.037368 74.4142 0.621015 74.9989 1.34009 74.9989L16.2763 74.9989C16.6596 75.0142 17.0278 74.8594 17.2872 74.5766C17.5466 74.2939 17.6686 73.9117 17.619 73.5315L17.619 73.5296Z" fill="#003874"/>
<defs>
<clipPath id="clip0_636_2267">
<rect width="84.2593" height="54.6296" fill="white" transform="translate(8.37061 11.1111)"/>
</clipPath>
</defs>
</svg>
