<svg width="99" height="73" viewBox="0 0 99 73" fill="none" xmlns="http://www.w3.org/2000/svg">
<g clip-path="url(#clip0_636_2252)">
<path d="M85.7915 11.4357H13.2096C10.9519 11.4357 9.11914 13.2569 9.11914 15.5004V59.2978C9.11914 61.5455 10.9519 63.3626 13.2096 63.3626H85.7915C88.0533 63.3626 89.8819 61.5413 89.8819 59.2978V15.5004C89.8819 13.2528 88.0491 11.4357 85.7915 11.4357Z" fill="white" stroke="#DBE2E8" stroke-width="3" stroke-miterlimit="10"/>
<path d="M40.7969 20.4585H17.0376C16.3753 20.4585 15.8338 21.0007 15.8296 21.663V52.7985C15.8338 53.4566 16.3753 53.9947 17.0376 53.9989H40.7969C41.4592 53.9989 42.0007 53.4566 42.0049 52.7985V21.6589C42.0007 20.9966 41.4592 20.4585 40.7928 20.4585H40.7969ZM40.6178 46.184C40.6012 46.1301 40.5887 46.0887 40.5803 46.0639C40.1096 44.7311 39.2016 44.4786 39.2016 44.4786L33.5242 41.9661L32.1038 41.0761C32.0829 40.7491 32.0788 40.4097 32.0829 40.0703C32.3287 39.7847 32.5536 39.4659 32.7244 39.1141C32.9993 38.5429 33.1826 37.8351 33.3326 37.0859C33.4908 37.0569 33.6533 36.9534 33.8199 36.8003C34.1823 36.4733 34.653 34.9045 34.7571 34.2008C34.8113 33.7993 34.3572 33.2695 34.1198 33.2405C34.2989 32.1767 34.4572 30.4589 33.9157 29.2213C33.0785 27.309 31.7289 26.6301 30.8958 27.1061C30.8875 27.1061 30.8875 27.1103 30.8833 27.1144C30.6959 26.9654 30.3918 26.8329 29.8628 26.7005C28.2508 26.2907 27.0303 26.2907 25.485 27.5863C24.2728 28.6045 23.7522 29.5649 23.8146 31.4068C23.8396 32.2057 23.8938 32.81 23.9396 33.2405C23.6772 33.2529 23.1982 33.7786 23.2606 34.205C23.3648 34.9128 23.8355 36.4774 24.1937 36.8044C24.3686 36.9658 24.5436 37.0693 24.7019 37.0942C24.8352 37.8102 24.9934 38.4642 25.1726 38.874C25.3308 39.2466 25.5349 39.5777 25.764 39.8799C25.7724 40.2855 25.7724 40.7077 25.7557 41.1175L24.3936 41.9661L18.7037 44.5614C18.7037 44.5614 17.5666 44.9794 17.2875 46.2295C17.2791 46.275 17.2542 46.3661 17.2208 46.4861V21.8369H40.6178V46.1798V46.184Z" fill="#DBE2E8"/>
<path d="M82.5837 23.1949H48.2072C47.3536 23.1949 46.6616 23.8869 46.6616 24.7406C46.6616 25.5942 47.3536 26.2862 48.2072 26.2862H82.5837C83.4373 26.2862 84.1293 25.5942 84.1293 24.7406C84.1293 23.8869 83.4373 23.1949 82.5837 23.1949Z" fill="#DBE2E8"/>
<path d="M82.5837 29.3854H48.2072C47.3536 29.3854 46.6616 30.0774 46.6616 30.931C46.6616 31.7846 47.3536 32.4766 48.2072 32.4766H82.5837C83.4373 32.4766 84.1293 31.7846 84.1293 30.931C84.1293 30.0774 83.4373 29.3854 82.5837 29.3854Z" fill="#DBE2E8"/>
<path d="M73.3832 38.7532H47.2474C46.7497 38.7532 46.3462 39.1567 46.3462 39.6544C46.3462 40.1521 46.7497 40.5556 47.2474 40.5556H73.3832C73.881 40.5556 74.2845 40.1521 74.2845 39.6544C74.2845 39.1567 73.881 38.7532 73.3832 38.7532Z" fill="#DBE2E8"/>
<path d="M73.3832 43.2593H47.2474C46.7497 43.2593 46.3462 43.6628 46.3462 44.1605C46.3462 44.6582 46.7497 45.0617 47.2474 45.0617H73.3832C73.881 45.0617 74.2845 44.6582 74.2845 44.1605C74.2845 43.6628 73.881 43.2593 73.3832 43.2593Z" fill="#DBE2E8"/>
<path d="M73.3832 47.7655H47.2474C46.7497 47.7655 46.3462 48.169 46.3462 48.6667C46.3462 49.1645 46.7497 49.568 47.2474 49.568H73.3832C73.881 49.568 74.2845 49.1645 74.2845 48.6667C74.2845 48.169 73.881 47.7655 73.3832 47.7655Z" fill="#DBE2E8"/>
</g>
<path d="M98.6131 1.02512C98.4987 0.423065 97.9756 -0.00908888 97.3726 0.000145143L85.4543 0.00014394C85.1219 -0.00354969 84.8023 0.125727 84.5661 0.363965C84.33 0.600357 84.1974 0.923548 84.1974 1.26151C84.1974 1.59948 84.33 1.92267 84.5661 2.15906C84.8023 2.39545 85.1219 2.52658 85.4543 2.52104L96.132 2.52104L96.132 14.9442C96.1266 15.2822 96.2555 15.6072 96.488 15.8473C96.7223 16.0874 97.0384 16.2222 97.3707 16.2222C97.7031 16.2222 98.021 16.0874 98.2535 15.8473C98.486 15.6072 98.6167 15.2822 98.6131 14.9442L98.6131 1.26336C98.6185 1.18395 98.6185 1.10454 98.6131 1.02697L98.6131 1.02512Z" fill="#003874"/>
<path d="M98.6116 57.0248C98.5447 56.3279 97.9236 55.8159 97.2226 55.8824C96.5216 55.949 96.0065 56.5664 96.0716 57.2614L96.0716 70.4767L82.7805 70.4767C82.4402 70.4711 82.1129 70.6024 81.8712 70.839C81.6295 71.0774 81.4937 71.3991 81.4937 71.7374C81.4937 72.0757 81.6295 72.3992 81.8712 72.6358C82.1129 72.8743 82.4402 73.0037 82.7805 73L97.3416 73C98.0426 73 98.6116 72.4343 98.6116 71.7374L98.6116 57.2596C98.619 57.1801 98.619 57.1006 98.6116 57.023L98.6116 57.0248Z" fill="#003874"/>
<path d="M16.5945 1.15945C16.5134 0.476441 15.9493 -0.0261144 15.2968 0.00105072L1.64182 0.00104948C0.946886 0.00104945 0.382835 0.594803 0.382835 1.32632L0.382835 14.8795C0.379148 15.2346 0.510024 15.5761 0.745969 15.8283C0.983756 16.0806 1.30449 16.2222 1.64182 16.2222C1.97914 16.2222 2.30173 16.0806 2.53767 15.8283C2.77362 15.5761 2.90449 15.2346 2.9008 14.8795L2.9008 2.64965L15.2968 2.64966C15.6673 2.66518 16.0231 2.50801 16.2738 2.22083C16.5245 1.93366 16.6424 1.54559 16.5945 1.15945Z" fill="#003874"/>
<path d="M17.4958 71.5689C17.4141 70.9143 16.846 70.4326 16.1888 70.4586L2.91893 70.4586L2.91893 57.1635C2.92264 56.8232 2.79083 56.4959 2.5532 56.2541C2.31372 56.0123 1.99068 55.8766 1.65095 55.8766C1.31121 55.8766 0.988184 56.0123 0.748697 56.2541C0.511066 56.4959 0.379255 56.8232 0.382967 57.1635L0.382966 71.7288C0.382966 72.4299 0.951049 72.999 1.65094 72.999L16.1888 72.999C16.562 73.0139 16.9203 72.8633 17.1728 72.588C17.4252 72.3128 17.5441 71.9408 17.4958 71.5707L17.4958 71.5689Z" fill="#003874"/>
<defs>
<clipPath id="clip0_636_2252">
<rect width="82.0123" height="53.1728" fill="white" transform="translate(8.49414 10.8148)"/>
</clipPath>
</defs>
</svg>
