<?xml version="1.0" encoding="utf-8"?>
<!-- Generator: Adobe Illustrator 27.1.1, SVG Export Plug-In . SVG Version: 6.00 Build 0)  -->
<svg version="1.1" id="Layer_1" xmlns="http://www.w3.org/2000/svg" xmlns:xlink="http://www.w3.org/1999/xlink" x="0px" y="0px"
	 viewBox="0 0 475.4 516.9" style="enable-background:new 0 0 475.4 516.9;" xml:space="preserve">
<style type="text/css">
	.st0{fill:none;stroke:#000000;stroke-width:21.538;stroke-linecap:round;stroke-linejoin:round;stroke-miterlimit:107.69;}
</style>
<path class="st0" d="M440.3,349v120.1c0,20.4-16.6,37-37,37H72c-20.4,0-37-16.6-37-37V346.2"/>
<path class="st0" d="M464.6,346.2h-54.7c-20.7,11.5-46.2,10.3-65.7-3.3l-3.6-2.5c-21.3-14.8-49.6-14.8-71,0
	c-21.3,14.8-49.6,14.8-71,0c-21.3-14.8-49.6-14.8-71,0l-2.3,1.6c-20.2,14-46.7,14.8-67.7,2.1l-46.8-0.4v-69.1
	c0-18,14.6-32.6,32.6-32.6H432c18,0,32.6,14.6,32.6,32.6L464.6,346.2z"/>
<path class="st0" d="M203.3,242v-91.1c16.7-13.4,40.5-13.4,57.2,0V242"/>
<path class="st0" d="M233.6,10.8c-56.7,106.1,0,95.6,0,95.6C233.6,106.3,282.7,114.8,233.6,10.8z"/>
</svg>
