<svg width="18" height="16" viewBox="0 0 18 16" fill="none" xmlns="http://www.w3.org/2000/svg">
<path d="M7.19033 2.16667L5.52366 3.83333H2.33366V13.8333H15.667V3.83333H12.477L10.8103 2.16667H7.19033ZM6.50033 0.5H11.5003L13.167 2.16667H16.5003C16.7213 2.16667 16.9333 2.25446 17.0896 2.41074C17.2459 2.56702 17.3337 2.77899 17.3337 3V14.6667C17.3337 14.8877 17.2459 15.0996 17.0896 15.2559C16.9333 15.4122 16.7213 15.5 16.5003 15.5H1.50033C1.27931 15.5 1.06735 15.4122 0.91107 15.2559C0.75479 15.0996 0.666992 14.8877 0.666992 14.6667V3C0.666992 2.77899 0.75479 2.56702 0.91107 2.41074C1.06735 2.25446 1.27931 2.16667 1.50033 2.16667H4.83366L6.50033 0.5ZM9.00033 13C7.78475 13 6.61896 12.5171 5.75942 11.6576C4.89988 10.798 4.41699 9.63224 4.41699 8.41667C4.41699 7.20109 4.89988 6.0353 5.75942 5.17576C6.61896 4.31622 7.78475 3.83333 9.00033 3.83333C10.2159 3.83333 11.3817 4.31622 12.2412 5.17576C13.1008 6.0353 13.5837 7.20109 13.5837 8.41667C13.5837 9.63224 13.1008 10.798 12.2412 11.6576C11.3817 12.5171 10.2159 13 9.00033 13ZM9.00033 11.3333C9.77387 11.3333 10.5157 11.026 11.0627 10.4791C11.6097 9.93208 11.917 9.19021 11.917 8.41667C11.917 7.64312 11.6097 6.90125 11.0627 6.35427C10.5157 5.80729 9.77387 5.5 9.00033 5.5C8.22678 5.5 7.48491 5.80729 6.93793 6.35427C6.39095 6.90125 6.08366 7.64312 6.08366 8.41667C6.08366 9.19021 6.39095 9.93208 6.93793 10.4791C7.48491 11.026 8.22678 11.3333 9.00033 11.3333Z" fill="#003874"/>
</svg>
