<svg width="265" height="258" viewBox="0 0 265 258" fill="none" xmlns="http://www.w3.org/2000/svg">
<path d="M201.363 253.232C235.121 242.801 278.919 82.9129 259.008 39.6181C236.363 -9.63215 55.3394 -21.8244 13.3728 54.8153C-18.215 112.499 16.1133 227.386 55.3394 241.612C94.5655 255.838 175.081 261.358 201.357 253.232H201.363Z" fill="url(#paint0_linear_3263_15724)"/>
<g clip-path="url(#clip0_3263_15724)">
<path d="M258 17L179.023 39.3158L198.117 58.7071C176.941 80.3165 150.46 107.454 149.756 108.738C148.576 110.88 128.027 68.7179 128.027 68.7179L72.5473 130.248L52.2897 103.356L8 153.025L49.3526 124.755L71.6923 154L121.566 103.158L142.829 146.773L216.967 77.8532L237.487 98.698L258 17Z" fill="#A5AFFB"/>
<path d="M143.608 146.89L218.415 79.3417L214.164 74.2283L143.608 146.89Z" fill="#6979F8"/>
<path d="M71.6924 154L124.41 108.878L121.595 103.164L71.6924 154Z" fill="#AE2436"/>
<path d="M49.3526 124.755L8 153.025L52.1443 128.409L49.3526 124.755Z" fill="#6979F8"/>
</g>
<g style="mix-blend-mode:multiply" opacity="0.6">
<path d="M168.128 196.69C168.128 204.545 136.084 210.913 96.5609 210.913C57.0377 210.913 25 204.539 25 196.69C25 188.841 57.0442 182.467 96.5674 182.467C136.091 182.467 168.135 188.835 168.135 196.69H168.128Z" fill="#CCCCCC"/>
</g>
<path d="M216.302 149.414C216.302 149.414 203.798 85.9259 156.77 57.8711H123.157C76.1224 85.9324 63.6185 149.414 63.6185 149.414C49.8648 223.238 135.323 213.836 135.323 213.836H144.592C144.592 213.836 230.049 223.238 216.296 149.414H216.302Z" fill="#E8C47B"/>
<path d="M216.302 149.414C216.302 149.414 203.798 85.9259 156.77 57.8711H138.089C170.035 86.0694 179.011 131.616 179.011 131.616C191.574 199.045 113.517 190.459 113.517 190.459H105.049C105.049 190.459 84.6947 192.691 66.4497 185.905C82.1561 219.682 135.329 213.843 135.329 213.843H144.598C144.598 213.843 230.056 223.244 216.302 149.421V149.414Z" fill="#DAB873"/>
<path d="M89.0428 16.5981C87.2983 14.3015 84.545 9.34953 87.5392 7.05948C91.4381 4.07132 99.0863 7.23564 103.05 8.3513C108.238 9.79971 113.973 11.0981 119.675 10.5043C125.24 9.92368 131.573 6.8246 136.514 4.8151C141.519 2.7795 146.772 -0.880673 152.754 0.965722C159.009 2.90346 161.469 8.39045 168.694 9.07551C181.387 10.2825 188.879 -1.1286 200.778 0.0914574C206.961 0.724321 206.252 4.58675 202.789 7.24216L156.776 57.8647H123.163L89.0428 16.5981Z" fill="#E8C47B"/>
<g style="mix-blend-mode:multiply" opacity="0.6">
<path d="M182.578 232.998C167.113 232.998 154.576 228.164 154.576 222.207C154.576 216.25 167.113 211.416 182.578 211.416C198.044 211.416 210.58 216.25 210.58 222.207C210.58 228.164 198.044 232.998 182.578 232.998Z" fill="#CCCCCC"/>
</g>
<g style="mix-blend-mode:multiply" opacity="0.6">
<path d="M211.961 200.115C196.495 200.115 183.958 195.281 183.958 189.324C183.958 183.367 196.495 178.533 211.961 178.533C227.426 178.533 239.963 183.367 239.963 189.324C239.963 195.281 227.426 200.115 211.961 200.115Z" fill="#CCCCCC"/>
</g>
<g style="mix-blend-mode:multiply" opacity="0.6">
<path d="M208.537 221.378C193.084 220.856 180.391 225.26 180.189 231.217C179.988 237.174 192.355 242.426 207.808 242.954C223.26 243.476 235.953 239.072 236.155 233.116C236.356 227.159 223.989 221.907 208.537 221.378Z" fill="#CCCCCC"/>
</g>
<g style="mix-blend-mode:multiply" opacity="0.6">
<path d="M129.367 203.534C144.819 203.012 157.512 207.416 157.714 213.373C157.915 219.33 145.548 224.582 130.096 225.11C114.643 225.632 101.95 221.228 101.749 215.271C101.547 209.315 113.914 204.063 129.367 203.534Z" fill="#CCCCCC"/>
</g>
<path d="M117.058 206.711C117.058 212.675 129.594 217.503 145.06 217.503C160.525 217.503 173.062 212.668 173.062 206.711V201.609H117.064V206.711H117.058Z" fill="#FF931E"/>
<path d="M142.391 204.232V217.451C143.27 217.483 144.155 217.503 145.053 217.503V204.232H142.391Z" fill="#D17918"/>
<path d="M136.995 204.232V217.046C138.44 217.216 139.937 217.333 141.473 217.411V204.232H136.995Z" fill="#D17918"/>
<path d="M135.888 216.909V201.635H117.058V206.711C117.058 211.435 124.927 215.448 135.888 216.909Z" fill="#D17918"/>
<path d="M155.032 204.232V216.798C155.338 216.752 155.644 216.707 155.943 216.661V204.239H155.032V204.232Z" fill="#D17918"/>
<path d="M151.549 217.209C151.855 217.183 152.161 217.15 152.461 217.118V204.232H151.549V217.209Z" fill="#D17918"/>
<path d="M147.129 204.232V217.47C147.579 217.457 148.021 217.444 148.464 217.418V204.226H147.129V204.232Z" fill="#D17918"/>
<path d="M145.06 212.408C129.595 212.408 117.058 207.573 117.058 201.616C117.058 195.659 129.595 190.825 145.06 190.825C160.526 190.825 173.062 195.659 173.062 201.616C173.062 207.573 160.526 212.408 145.06 212.408Z" fill="#FF931E"/>
<path style="mix-blend-mode:multiply" opacity="0.4" d="M160.831 210.528C160.037 210.554 159.237 210.574 158.423 210.574C142.957 210.574 130.421 205.739 130.421 199.783C130.421 196.077 135.264 192.808 142.645 190.864C128.312 191.334 117.051 195.966 117.051 201.616C117.051 207.579 129.588 212.407 145.053 212.407C150.905 212.407 156.334 211.716 160.831 210.528Z" fill="url(#paint1_linear_3263_15724)"/>
<path d="M173.036 201.949C172.574 196.142 160.233 191.49 145.06 191.49C129.887 191.49 117.546 196.142 117.084 201.949C117.546 207.755 129.887 212.407 145.06 212.407C160.233 212.407 172.58 207.755 173.036 201.949ZM145.06 211.07C132.491 211.07 122.272 207.129 122.272 202.281C122.272 197.434 132.498 193.493 145.06 193.493C157.623 193.493 167.855 197.434 167.855 202.281C167.855 207.129 157.629 211.07 145.06 211.07Z" fill="#D17918"/>
<path d="M142.522 200.115L131.69 203.234V205.4L142.775 201.975C143.869 202.862 145.451 203.534 147.488 203.978C147.651 204.017 147.82 204.043 147.989 204.076V206.007H152.012V204.519C152.891 204.558 153.704 204.565 154.414 204.545V206.007H158.436V200.2H154.414V203.006C153.743 203.032 152.904 203.032 152.012 202.973V200.2H147.989V202.177C147.032 201.805 146.206 201.27 145.665 200.52L142.522 200.102V200.115Z" fill="#D17918"/>
<path d="M167.848 201.609C167.848 206.451 157.622 210.398 145.053 210.398C132.484 210.398 122.265 206.457 122.265 201.609C122.265 196.762 132.491 192.821 145.053 192.821C157.616 192.821 167.848 196.762 167.848 201.609ZM173.055 201.609C173.055 195.646 160.519 190.818 145.053 190.818C129.588 190.818 117.051 195.653 117.051 201.609C117.051 207.566 129.588 212.401 145.053 212.401C160.519 212.401 173.055 207.566 173.055 201.609Z" fill="#FFC022"/>
<path d="M125.279 201.609C125.279 197.408 134.151 193.982 145.06 193.982C155.969 193.982 164.841 197.401 164.841 201.609C164.841 205.818 155.969 209.236 145.06 209.236C134.151 209.236 125.279 205.818 125.279 201.609ZM163.969 201.609C163.969 197.59 155.487 194.322 145.06 194.322C134.632 194.322 126.151 197.59 126.151 201.609C126.151 205.628 134.632 208.897 145.06 208.897C155.487 208.897 163.969 205.628 163.969 201.609Z" fill="#FFC022"/>
<path d="M142.522 198.66L131.69 201.779V203.945L142.775 200.52C143.869 201.407 145.451 202.079 147.488 202.523C147.651 202.562 147.82 202.588 147.989 202.621V204.558H152.012V203.071C152.891 203.11 153.704 203.11 154.414 203.097V204.558H158.436V198.752H154.414V201.557C153.743 201.583 152.904 201.583 152.012 201.525V198.752H147.989V200.729C147.032 200.357 146.206 199.822 145.665 199.071L142.522 198.66Z" fill="#FFC022"/>
<path d="M117.058 195.92C117.058 201.877 129.594 206.711 145.06 206.711C160.525 206.711 173.062 201.877 173.062 195.92V190.818H117.064V195.92H117.058Z" fill="#FF931E"/>
<path d="M142.391 193.441V206.659C143.27 206.692 144.155 206.711 145.053 206.711V193.441H142.391Z" fill="#D17918"/>
<path d="M136.995 193.441V206.255C138.44 206.424 139.937 206.548 141.473 206.62V193.441H136.995Z" fill="#D17918"/>
<path d="M135.888 206.118V190.844H117.058V195.92C117.058 200.644 124.927 204.65 135.888 206.118Z" fill="#D17918"/>
<path d="M155.032 193.441V206.007C155.338 205.961 155.644 205.915 155.943 205.87V193.447H155.032V193.441Z" fill="#D17918"/>
<path d="M151.549 206.418C151.855 206.392 152.161 206.359 152.461 206.326V193.441H151.549V206.418Z" fill="#D17918"/>
<path d="M147.129 193.441V206.679C147.579 206.666 148.021 206.653 148.464 206.627V193.441H147.129Z" fill="#D17918"/>
<path d="M145.06 201.609C129.595 201.609 117.058 196.775 117.058 190.818C117.058 184.861 129.595 180.027 145.06 180.027C160.526 180.027 173.062 184.861 173.062 190.818C173.062 196.775 160.526 201.609 145.06 201.609Z" fill="#FF931E"/>
<path style="mix-blend-mode:multiply" opacity="0.4" d="M160.831 199.737C160.037 199.763 159.237 199.776 158.423 199.776C142.957 199.776 130.421 194.941 130.421 188.985C130.421 185.279 135.264 182.01 142.645 180.066C128.312 180.536 117.051 185.168 117.051 190.818C117.051 196.781 129.588 201.609 145.053 201.609C150.905 201.609 156.334 200.918 160.831 199.73V199.737Z" fill="url(#paint2_linear_3263_15724)"/>
<path d="M173.036 191.151C172.574 185.344 160.233 180.692 145.06 180.692C129.887 180.692 117.546 185.344 117.084 191.151C117.546 196.958 129.887 201.609 145.06 201.609C160.233 201.609 172.58 196.958 173.036 191.151ZM145.06 200.272C132.491 200.272 122.272 196.331 122.272 191.484C122.272 186.636 132.498 182.695 145.06 182.695C157.623 182.695 167.855 186.636 167.855 191.484C167.855 196.331 157.629 200.272 145.06 200.272Z" fill="#D17918"/>
<path d="M142.522 189.324L131.69 192.443V194.609L142.775 191.183C143.869 192.071 145.451 192.743 147.488 193.186C147.651 193.226 147.82 193.252 147.989 193.284V195.222H152.012V193.734C152.891 193.774 153.704 193.78 154.414 193.761V195.222H158.436V189.415H154.414V192.221C153.743 192.247 152.904 192.247 152.012 192.188V189.415H147.989V191.392C147.032 191.02 146.206 190.485 145.665 189.735L142.522 189.318V189.324Z" fill="#D17918"/>
<path d="M167.848 190.818C167.848 195.659 157.622 199.606 145.053 199.606C132.484 199.606 122.265 195.666 122.265 190.818C122.265 185.97 132.491 182.03 145.053 182.03C157.616 182.03 167.848 185.97 167.848 190.818ZM173.055 190.818C173.055 184.855 160.519 180.027 145.053 180.027C129.588 180.027 117.051 184.861 117.051 190.818C117.051 196.775 129.588 201.609 145.053 201.609C160.519 201.609 173.055 196.775 173.055 190.818Z" fill="#FFC022"/>
<path d="M125.279 190.818C125.279 186.61 134.151 183.191 145.06 183.191C155.969 183.191 164.841 186.61 164.841 190.818C164.841 195.026 155.969 198.445 145.06 198.445C134.151 198.445 125.279 195.026 125.279 190.818ZM163.969 190.818C163.969 186.799 155.487 183.53 145.06 183.53C134.632 183.53 126.151 186.799 126.151 190.818C126.151 194.837 134.632 198.106 145.06 198.106C155.487 198.106 163.969 194.837 163.969 190.818Z" fill="#FFC022"/>
<path d="M142.522 187.869L131.69 190.988V193.154L142.775 189.729C143.869 190.616 145.451 191.288 147.488 191.731C147.651 191.764 147.82 191.797 147.989 191.829V193.761H152.012V192.273C152.891 192.312 153.704 192.312 154.414 192.299V193.761H158.436V187.954H154.414V190.759C153.743 190.785 152.904 190.785 152.012 190.727V187.954H147.989V189.931C147.032 189.559 146.206 189.024 145.665 188.274L142.522 187.863V187.869Z" fill="#FFC022"/>
<path d="M117.058 185.122C117.058 191.079 129.594 195.914 145.06 195.914C160.525 195.914 173.062 191.079 173.062 185.122V180.02H117.064V185.122H117.058Z" fill="#FF931E"/>
<path d="M142.391 182.643V195.861C143.27 195.894 144.155 195.914 145.053 195.914V182.643H142.391Z" fill="#D17918"/>
<path d="M136.995 182.643V195.457C138.44 195.627 139.937 195.751 141.473 195.822V182.643H136.995Z" fill="#D17918"/>
<path d="M135.888 195.32V180.046H117.058V185.122C117.058 189.846 124.927 193.852 135.888 195.32Z" fill="#D17918"/>
<path d="M155.032 182.643V195.209C155.338 195.163 155.644 195.118 155.943 195.072V182.643H155.032Z" fill="#D17918"/>
<path d="M151.549 195.62C151.855 195.594 152.161 195.561 152.461 195.529V182.643H151.549V195.62Z" fill="#D17918"/>
<path d="M147.129 182.643V195.881C147.579 195.868 148.021 195.855 148.464 195.829V182.643H147.129Z" fill="#D17918"/>
<path d="M145.06 190.818C129.595 190.818 117.058 185.984 117.058 180.027C117.058 174.07 129.595 169.235 145.06 169.235C160.526 169.235 173.062 174.07 173.062 180.027C173.062 185.984 160.526 190.818 145.06 190.818Z" fill="#FF931E"/>
<path style="mix-blend-mode:multiply" opacity="0.4" d="M160.831 188.946C160.037 188.972 159.237 188.985 158.423 188.985C142.957 188.985 130.421 184.15 130.421 178.193C130.421 174.488 135.264 171.219 142.645 169.275C128.312 169.744 117.051 174.377 117.051 180.027C117.051 185.99 129.588 190.818 145.053 190.818C150.905 190.818 156.334 190.127 160.831 188.939V188.946Z" fill="url(#paint3_linear_3263_15724)"/>
<path d="M173.036 180.36C172.574 174.553 160.233 169.901 145.06 169.901C129.887 169.901 117.546 174.553 117.084 180.36C117.546 186.166 129.887 190.818 145.06 190.818C160.233 190.818 172.58 186.166 173.036 180.36ZM145.06 189.481C132.491 189.481 122.272 185.54 122.272 180.692C122.272 175.845 132.498 171.904 145.06 171.904C157.623 171.904 167.855 175.845 167.855 180.692C167.855 185.54 157.629 189.481 145.06 189.481Z" fill="#D17918"/>
<path d="M142.522 178.526L131.69 181.645V183.811L142.775 180.386C143.869 181.273 145.451 181.945 147.488 182.389C147.651 182.428 147.82 182.454 147.989 182.486V184.418H152.012V182.93C152.891 182.969 153.704 182.976 154.414 182.956V184.418H158.436V178.611H154.414V181.41C153.743 181.436 152.904 181.436 152.012 181.377V178.604H147.989V180.581C147.032 180.209 146.206 179.674 145.665 178.924L142.522 178.507V178.526Z" fill="#D17918"/>
<path d="M167.848 180.027C167.848 184.868 157.622 188.815 145.053 188.815C132.484 188.815 122.265 184.874 122.265 180.027C122.265 175.179 132.491 171.238 145.053 171.238C157.616 171.238 167.848 175.179 167.848 180.027ZM173.055 180.027C173.055 174.063 160.519 169.235 145.053 169.235C129.588 169.235 117.051 174.07 117.051 180.027C117.051 185.984 129.588 190.818 145.053 190.818C160.519 190.818 173.055 185.984 173.055 180.027Z" fill="#FFC022"/>
<path d="M125.279 180.027C125.279 175.819 134.151 172.4 145.06 172.4C155.969 172.4 164.841 175.819 164.841 180.027C164.841 184.235 155.969 187.654 145.06 187.654C134.151 187.654 125.279 184.235 125.279 180.027ZM163.969 180.027C163.969 176.008 155.487 172.739 145.06 172.739C134.632 172.739 126.151 176.008 126.151 180.027C126.151 184.046 134.632 187.314 145.06 187.314C155.487 187.314 163.969 184.046 163.969 180.027Z" fill="#FFC022"/>
<path d="M142.522 177.078L131.69 180.196V182.362L142.775 178.937C143.869 179.824 145.451 180.496 147.488 180.94C147.651 180.973 147.82 181.005 147.989 181.038V182.969H152.012V181.482C152.891 181.521 153.704 181.521 154.414 181.508V182.969H158.436V177.163H154.414V179.968C153.743 179.994 152.904 179.994 152.012 179.935V177.163H147.989V179.139C147.032 178.768 146.206 178.233 145.665 177.482L142.522 177.071V177.078Z" fill="#FFC022"/>
<path d="M185.996 185.984C185.996 191.947 198.532 196.775 213.998 196.775C229.463 196.775 242 191.94 242 185.984V180.881H186.002V185.984H185.996Z" fill="#FF931E"/>
<path d="M211.335 183.504V196.723C212.214 196.755 213.099 196.775 213.998 196.775V183.504H211.335Z" fill="#D17918"/>
<path d="M205.933 183.504V196.318C207.378 196.488 208.875 196.605 210.411 196.683V183.504H205.933Z" fill="#D17918"/>
<path d="M204.826 196.181V180.908H185.996V185.984C185.996 190.707 193.865 194.72 204.826 196.181Z" fill="#D17918"/>
<path d="M223.97 183.504V196.07C224.276 196.025 224.582 195.979 224.881 195.933V183.511H223.97V183.504Z" fill="#D17918"/>
<path d="M220.487 196.481C220.793 196.455 221.099 196.423 221.399 196.39V183.504H220.487V196.481Z" fill="#D17918"/>
<path d="M216.074 183.504V196.742C216.523 196.729 216.966 196.716 217.409 196.69V183.498H216.074V183.504Z" fill="#D17918"/>
<path d="M213.998 191.679C198.533 191.679 185.996 186.845 185.996 180.888C185.996 174.931 198.533 170.097 213.998 170.097C229.464 170.097 242 174.931 242 180.888C242 186.845 229.464 191.679 213.998 191.679Z" fill="#FF931E"/>
<path style="mix-blend-mode:multiply" opacity="0.4" d="M229.776 189.8C228.982 189.826 228.181 189.846 227.367 189.846C211.902 189.846 199.365 185.011 199.365 179.055C199.365 175.349 204.208 172.08 211.589 170.136C197.256 170.606 185.996 175.238 185.996 180.888C185.996 186.851 198.532 191.679 213.998 191.679C219.849 191.679 225.278 190.988 229.776 189.8Z" fill="url(#paint4_linear_3263_15724)"/>
<path d="M241.974 181.221C241.512 175.414 229.171 170.762 213.998 170.762C198.825 170.762 186.484 175.414 186.022 181.221C186.484 187.027 198.825 191.679 213.998 191.679C229.171 191.679 241.518 187.027 241.974 181.221ZM213.998 190.342C201.429 190.342 191.21 186.401 191.21 181.553C191.21 176.706 201.435 172.765 213.998 172.765C226.561 172.765 236.793 176.706 236.793 181.553C236.793 186.401 226.567 190.342 213.998 190.342Z" fill="#D17918"/>
<path d="M211.46 179.387L200.628 182.506V184.672L211.713 181.247C212.807 182.134 214.389 182.806 216.426 183.25C216.589 183.289 216.758 183.315 216.927 183.348V185.279H220.95V183.791C221.829 183.83 222.642 183.837 223.352 183.817V185.279H227.374V179.472H223.352V182.278C222.681 182.304 221.842 182.304 220.95 182.245V179.472H216.927V181.449C215.97 181.077 215.144 180.542 214.603 179.792L211.46 179.374V179.387Z" fill="#D17918"/>
<path d="M236.786 180.888C236.786 185.729 226.56 189.676 213.991 189.676C201.422 189.676 191.203 185.736 191.203 180.888C191.203 176.04 201.429 172.1 213.991 172.1C226.554 172.1 236.786 176.04 236.786 180.888ZM241.993 180.888C241.993 174.925 229.457 170.097 213.991 170.097C198.526 170.097 185.989 174.931 185.989 180.888C185.989 186.845 198.526 191.679 213.991 191.679C229.457 191.679 241.993 186.845 241.993 180.888Z" fill="#FFC022"/>
<path d="M194.217 180.888C194.217 176.686 203.089 173.261 213.998 173.261C224.907 173.261 233.779 176.68 233.779 180.888C233.779 185.096 224.907 188.515 213.998 188.515C203.089 188.515 194.217 185.096 194.217 180.888ZM232.907 180.888C232.907 176.869 224.425 173.6 213.998 173.6C203.57 173.6 195.089 176.869 195.089 180.888C195.089 184.907 203.57 188.176 213.998 188.176C224.425 188.176 232.907 184.907 232.907 180.888Z" fill="#FFC022"/>
<path d="M211.46 177.939L200.628 181.058V183.224L211.713 179.798C212.807 180.686 214.389 181.358 216.426 181.801C216.589 181.841 216.758 181.867 216.927 181.899V183.837H220.95V182.349C221.829 182.389 222.642 182.389 223.352 182.376V183.837H227.374V178.03H223.352V180.836C222.681 180.862 221.842 180.862 220.95 180.803V178.03H216.927V180.007C215.97 179.635 215.144 179.1 214.603 178.35L211.46 177.939Z" fill="#FFC022"/>
<path d="M185.996 175.192C185.996 181.149 198.532 185.983 213.998 185.983C229.463 185.983 242 181.149 242 175.192V170.09H186.002V175.192H185.996Z" fill="#FF931E"/>
<path d="M211.335 172.713V185.931C212.214 185.964 213.099 185.983 213.998 185.983V172.713H211.335Z" fill="#D17918"/>
<path d="M205.933 172.713V185.527C207.378 185.696 208.875 185.82 210.411 185.892V172.713H205.933Z" fill="#D17918"/>
<path d="M204.826 185.39V170.116H185.996V175.192C185.996 179.916 193.865 183.922 204.826 185.39Z" fill="#D17918"/>
<path d="M223.97 172.713V185.279C224.276 185.233 224.582 185.187 224.881 185.142V172.719H223.97V172.713Z" fill="#D17918"/>
<path d="M220.487 185.69C220.793 185.664 221.099 185.631 221.399 185.599V172.713H220.487V185.69Z" fill="#D17918"/>
<path d="M216.074 172.713V185.951C216.523 185.938 216.966 185.925 217.409 185.899V172.713H216.074Z" fill="#D17918"/>
<path d="M213.998 180.888C198.533 180.888 185.996 176.054 185.996 170.097C185.996 164.14 198.533 159.306 213.998 159.306C229.464 159.306 242 164.14 242 170.097C242 176.054 229.464 180.888 213.998 180.888Z" fill="#FF931E"/>
<path style="mix-blend-mode:multiply" opacity="0.4" d="M229.776 179.009C228.982 179.035 228.181 179.048 227.367 179.048C211.902 179.048 199.365 174.213 199.365 168.257C199.365 164.551 204.208 161.282 211.589 159.338C197.256 159.808 185.996 164.44 185.996 170.09C185.996 176.053 198.532 180.881 213.998 180.881C219.849 180.881 225.278 180.19 229.776 179.002V179.009Z" fill="url(#paint5_linear_3263_15724)"/>
<path d="M241.974 170.43C241.512 164.623 229.171 159.971 213.998 159.971C198.825 159.971 186.484 164.623 186.022 170.43C186.484 176.236 198.825 180.888 213.998 180.888C229.171 180.888 241.518 176.236 241.974 170.43ZM213.998 179.551C201.429 179.551 191.21 175.61 191.21 170.762C191.21 165.915 201.435 161.974 213.998 161.974C226.561 161.974 236.793 165.915 236.793 170.762C236.793 175.61 226.567 179.551 213.998 179.551Z" fill="#D17918"/>
<path d="M211.46 168.596L200.628 171.715V173.881L211.713 170.455C212.807 171.343 214.389 172.015 216.426 172.458C216.589 172.498 216.758 172.524 216.927 172.556V174.494H220.95V173.006C221.829 173.046 222.642 173.052 223.352 173.033V174.494H227.374V168.687H223.352V171.493C222.681 171.519 221.842 171.519 220.95 171.46V168.687H216.927V170.664C215.97 170.292 215.144 169.757 214.603 169.007L211.46 168.589V168.596Z" fill="#D17918"/>
<path d="M236.786 170.09C236.786 174.931 226.56 178.878 213.991 178.878C201.422 178.878 191.203 174.938 191.203 170.09C191.203 165.243 201.429 161.302 213.991 161.302C226.554 161.302 236.786 165.243 236.786 170.09ZM241.993 170.09C241.993 164.127 229.457 159.299 213.991 159.299C198.526 159.299 185.989 164.133 185.989 170.09C185.989 176.047 198.526 180.881 213.991 180.881C229.457 180.881 241.993 176.047 241.993 170.09Z" fill="#FFC022"/>
<path d="M194.217 170.09C194.217 165.882 203.089 162.463 213.998 162.463C224.907 162.463 233.779 165.882 233.779 170.09C233.779 174.298 224.907 177.717 213.998 177.717C203.089 177.717 194.217 174.298 194.217 170.09ZM232.907 170.09C232.907 166.071 224.425 162.802 213.998 162.802C203.57 162.802 195.089 166.071 195.089 170.09C195.089 174.109 203.57 177.378 213.998 177.378C224.425 177.378 232.907 174.109 232.907 170.09Z" fill="#FFC022"/>
<path d="M211.46 167.141L200.628 170.26V172.426L211.713 169.001C212.807 169.888 214.389 170.56 216.426 171.004C216.589 171.036 216.758 171.069 216.927 171.101V173.033H220.95V171.545C221.829 171.584 222.642 171.584 223.352 171.571V173.033H227.374V167.226H223.352V170.031C222.681 170.058 221.842 170.058 220.95 169.999V167.226H216.927V169.203C215.97 168.831 215.144 168.296 214.603 167.546L211.46 167.135V167.141Z" fill="#FFC022"/>
<path d="M185.996 164.401C185.996 170.358 198.532 175.192 213.998 175.192C229.463 175.192 242 170.358 242 164.401V159.299H186.002V164.401H185.996Z" fill="#FF931E"/>
<path d="M211.335 161.922V175.14C212.214 175.173 213.099 175.192 213.998 175.192V161.922H211.335Z" fill="#D17918"/>
<path d="M205.933 161.922V174.735C207.378 174.905 208.875 175.029 210.411 175.101V161.922H205.933Z" fill="#D17918"/>
<path d="M204.826 174.592V159.318H185.996V164.394C185.996 169.118 193.865 173.124 204.826 174.592Z" fill="#D17918"/>
<path d="M223.97 161.922V174.488C224.276 174.442 224.582 174.396 224.881 174.351V161.928H223.97V161.922Z" fill="#D17918"/>
<path d="M220.487 174.899C220.793 174.873 221.099 174.84 221.399 174.807V161.922H220.487V174.899Z" fill="#D17918"/>
<path d="M216.074 161.922V175.16C216.523 175.147 216.966 175.133 217.409 175.107V161.922H216.074Z" fill="#D17918"/>
<path d="M213.998 170.09C198.533 170.09 185.996 165.256 185.996 159.299C185.996 153.342 198.533 148.508 213.998 148.508C229.464 148.508 242 153.342 242 159.299C242 165.256 229.464 170.09 213.998 170.09Z" fill="#FF931E"/>
<path style="mix-blend-mode:multiply" opacity="0.4" d="M229.776 168.218C228.982 168.244 228.181 168.257 227.367 168.257C211.902 168.257 199.365 163.422 199.365 157.465C199.365 153.76 204.208 150.491 211.589 148.547C197.256 149.016 185.996 153.649 185.996 159.299C185.996 165.262 198.532 170.09 213.998 170.09C219.849 170.09 225.278 169.399 229.776 168.211V168.218Z" fill="url(#paint6_linear_3263_15724)"/>
<path d="M241.974 159.632C241.512 153.825 229.171 149.173 213.998 149.173C198.825 149.173 186.484 153.825 186.022 159.632C186.484 165.438 198.825 170.09 213.998 170.09C229.171 170.09 241.518 165.438 241.974 159.632ZM213.998 168.753C201.429 168.753 191.21 164.812 191.21 159.964C191.21 155.117 201.435 151.176 213.998 151.176C226.561 151.176 236.793 155.117 236.793 159.964C236.793 164.812 226.567 168.753 213.998 168.753Z" fill="#D17918"/>
<path d="M211.46 157.798L200.628 160.917V163.083L211.713 159.658C212.807 160.545 214.389 161.217 216.426 161.661C216.589 161.7 216.758 161.726 216.927 161.759V163.69H220.95V162.202C221.829 162.241 222.642 162.248 223.352 162.228V163.69H227.374V157.883H223.352V160.682C222.681 160.708 221.842 160.708 220.95 160.65V157.877H216.927V159.854C215.97 159.482 215.144 158.947 214.603 158.196L211.46 157.779V157.798Z" fill="#D17918"/>
<path d="M236.786 159.299C236.786 164.14 226.56 168.087 213.991 168.087C201.422 168.087 191.203 164.146 191.203 159.299C191.203 154.451 201.429 150.511 213.991 150.511C226.554 150.511 236.786 154.451 236.786 159.299ZM241.993 159.299C241.993 153.336 229.457 148.508 213.991 148.508C198.526 148.508 185.989 153.342 185.989 159.299C185.989 165.256 198.526 170.09 213.991 170.09C229.457 170.09 241.993 165.256 241.993 159.299Z" fill="#FFC022"/>
<path d="M194.217 159.299C194.217 155.091 203.089 151.672 213.998 151.672C224.907 151.672 233.779 155.091 233.779 159.299C233.779 163.507 224.907 166.926 213.998 166.926C203.089 166.926 194.217 163.507 194.217 159.299ZM232.907 159.299C232.907 155.28 224.425 152.011 213.998 152.011C203.57 152.011 195.089 155.28 195.089 159.299C195.089 163.318 203.57 166.587 213.998 166.587C224.425 166.587 232.907 163.318 232.907 159.299Z" fill="#FFC022"/>
<path d="M211.46 156.35L200.628 159.468V161.635L211.713 158.209C212.807 159.097 214.389 159.769 216.426 160.212C216.589 160.245 216.758 160.277 216.927 160.31V162.241H220.95V160.754C221.829 160.793 222.642 160.793 223.352 160.78V162.241H227.374V156.435H223.352V159.24C222.681 159.266 221.842 159.266 220.95 159.207V156.435H216.927V158.411C215.97 158.04 215.144 157.505 214.603 156.754L211.46 156.343V156.35Z" fill="#FFC022"/>
<path d="M185.996 153.603C185.996 159.56 198.532 164.394 213.998 164.394C229.463 164.394 242 159.56 242 153.603V148.501H186.002V153.603H185.996Z" fill="#FF931E"/>
<path d="M211.335 151.124V164.342C212.214 164.375 213.099 164.394 213.998 164.394V151.124H211.335Z" fill="#D17918"/>
<path d="M205.933 151.124V163.938C207.378 164.107 208.875 164.225 210.411 164.303V151.124H205.933Z" fill="#D17918"/>
<path d="M204.826 163.801V148.527H185.996V153.603C185.996 158.327 193.865 162.333 204.826 163.801Z" fill="#D17918"/>
<path d="M223.97 151.124V163.69C224.276 163.644 224.582 163.598 224.881 163.553V151.13H223.97V151.124Z" fill="#D17918"/>
<path d="M220.487 164.101C220.793 164.075 221.099 164.042 221.399 164.009V151.124H220.487V164.101Z" fill="#D17918"/>
<path d="M216.074 151.124V164.362C216.523 164.349 216.966 164.336 217.409 164.309V151.117H216.074V151.124Z" fill="#D17918"/>
<path d="M213.998 159.299C198.533 159.299 185.996 154.464 185.996 148.508C185.996 142.551 198.533 137.716 213.998 137.716C229.464 137.716 242 142.551 242 148.508C242 154.464 229.464 159.299 213.998 159.299Z" fill="#FF931E"/>
<path style="mix-blend-mode:multiply" opacity="0.4" d="M229.776 157.42C228.982 157.446 228.181 157.465 227.367 157.465C211.902 157.465 199.365 152.631 199.365 146.674C199.365 142.968 204.208 139.7 211.589 137.755C197.256 138.225 185.996 142.857 185.996 148.508C185.996 154.471 198.532 159.299 213.998 159.299C219.849 159.299 225.278 158.607 229.776 157.42Z" fill="url(#paint7_linear_3263_15724)"/>
<path d="M241.974 148.84C241.512 143.034 229.171 138.382 213.998 138.382C198.825 138.382 186.484 143.034 186.022 148.84C186.484 154.647 198.825 159.299 213.998 159.299C229.171 159.299 241.518 154.647 241.974 148.84ZM213.998 157.961C201.429 157.961 191.21 154.021 191.21 149.173C191.21 144.326 201.435 140.385 213.998 140.385C226.561 140.385 236.793 144.326 236.793 149.173C236.793 154.021 226.567 157.961 213.998 157.961Z" fill="#D17918"/>
<path d="M211.46 147.007L200.628 150.126V152.292L211.713 148.866C212.807 149.754 214.389 150.426 216.426 150.869C216.589 150.909 216.758 150.935 216.927 150.967V152.898H220.95V151.411C221.829 151.45 222.642 151.45 223.352 151.437V152.898H227.374V147.092H223.352V149.897C222.681 149.923 221.842 149.923 220.95 149.865V147.092H216.927V149.069C215.97 148.697 215.144 148.162 214.603 147.411L211.46 146.994V147.007Z" fill="#D17918"/>
<path d="M236.786 148.508C236.786 153.349 226.56 157.296 213.991 157.296C201.422 157.296 191.203 153.355 191.203 148.508C191.203 143.66 201.429 139.719 213.991 139.719C226.554 139.719 236.786 143.66 236.786 148.508ZM241.993 148.508C241.993 142.544 229.457 137.716 213.991 137.716C198.526 137.716 185.989 142.551 185.989 148.508C185.989 154.464 198.526 159.299 213.991 159.299C229.457 159.299 241.993 154.464 241.993 148.508Z" fill="#FFC022"/>
<path d="M194.217 148.508C194.217 144.299 203.089 140.881 213.998 140.881C224.907 140.881 233.779 144.299 233.779 148.508C233.779 152.716 224.907 156.135 213.998 156.135C203.089 156.135 194.217 152.716 194.217 148.508ZM232.907 148.508C232.907 144.489 224.425 141.22 213.998 141.22C203.57 141.22 195.089 144.489 195.089 148.508C195.089 152.527 203.57 155.795 213.998 155.795C224.425 155.795 232.907 152.527 232.907 148.508Z" fill="#FFC022"/>
<path d="M211.46 145.559L200.628 148.677V150.843L211.713 147.418C212.807 148.305 214.389 148.977 216.426 149.421C216.589 149.46 216.758 149.486 216.927 149.519V151.457H220.95V149.969C221.829 150.008 222.642 150.008 223.352 149.995V151.457H227.374V145.65H223.352V148.455C222.681 148.482 221.842 148.482 220.95 148.423V145.65H216.927V147.627C215.97 147.255 215.144 146.72 214.603 145.97L211.46 145.559Z" fill="#FFC022"/>
<path d="M185.996 142.812C185.996 148.769 198.532 153.603 213.998 153.603C229.463 153.603 242 148.769 242 142.812V137.71H186.002V142.812H185.996Z" fill="#FF931E"/>
<path d="M211.335 140.333V153.551C212.214 153.584 213.099 153.603 213.998 153.603V140.333H211.335Z" fill="#D17918"/>
<path d="M205.933 140.333V153.146C207.378 153.316 208.875 153.433 210.411 153.512V140.333H205.933Z" fill="#D17918"/>
<path d="M204.826 153.009V137.736H185.996V142.812C185.996 147.535 193.865 151.548 204.826 153.009Z" fill="#D17918"/>
<path d="M223.97 140.333V152.898C224.276 152.853 224.582 152.807 224.881 152.761V140.333H223.97Z" fill="#D17918"/>
<path d="M220.487 153.309C220.793 153.283 221.099 153.251 221.399 153.218V140.333H220.487V153.309Z" fill="#D17918"/>
<path d="M216.074 140.332V153.57C216.523 153.557 216.966 153.544 217.409 153.518V140.326H216.074V140.332Z" fill="#D17918"/>
<path d="M213.998 148.508C198.533 148.508 185.996 143.673 185.996 137.717C185.996 131.76 198.533 126.925 213.998 126.925C229.464 126.925 242 131.76 242 137.717C242 143.673 229.464 148.508 213.998 148.508Z" fill="#FF931E"/>
<path style="mix-blend-mode:multiply" opacity="0.4" d="M229.776 146.629C228.982 146.655 228.181 146.674 227.367 146.674C211.902 146.674 199.365 141.84 199.365 135.883C199.365 132.177 204.208 128.908 211.589 126.964C197.256 127.434 185.996 132.066 185.996 137.716C185.996 143.68 198.532 148.508 213.998 148.508C219.849 148.508 225.278 147.816 229.776 146.629Z" fill="url(#paint8_linear_3263_15724)"/>
<path d="M241.974 138.049C241.512 132.242 229.171 127.591 213.998 127.591C198.825 127.591 186.484 132.242 186.022 138.049C186.484 143.856 198.825 148.508 213.998 148.508C229.171 148.508 241.518 143.856 241.974 138.049ZM213.998 147.17C201.429 147.17 191.21 143.229 191.21 138.382C191.21 133.534 201.435 129.594 213.998 129.594C226.561 129.594 236.793 133.534 236.793 138.382C236.793 143.229 226.567 147.17 213.998 147.17Z" fill="#D17918"/>
<path d="M211.46 136.216L200.628 139.334V141.5L211.713 138.075C212.807 138.963 214.389 139.635 216.426 140.078C216.589 140.117 216.758 140.143 216.927 140.176V142.114H220.95V140.626C221.829 140.665 222.642 140.672 223.352 140.652V142.114H227.374V136.307H223.352V139.113C222.681 139.139 221.842 139.139 220.95 139.08V136.307H216.927V138.284C215.97 137.912 215.144 137.377 214.603 136.627L211.46 136.209V136.216Z" fill="#D17918"/>
<path d="M236.786 137.71C236.786 142.551 226.56 146.498 213.991 146.498C201.422 146.498 191.203 142.557 191.203 137.71C191.203 132.862 201.429 128.921 213.991 128.921C226.554 128.921 236.786 132.862 236.786 137.71ZM241.993 137.71C241.993 131.746 229.457 126.918 213.991 126.918C198.526 126.918 185.989 131.753 185.989 137.71C185.989 143.667 198.526 148.501 213.991 148.501C229.457 148.501 241.993 143.667 241.993 137.71Z" fill="#FFC022"/>
<path d="M194.217 137.71C194.217 133.508 203.089 130.083 213.998 130.083C224.907 130.083 233.779 133.502 233.779 137.71C233.779 141.918 224.907 145.337 213.998 145.337C203.089 145.337 194.217 141.918 194.217 137.71ZM232.907 137.71C232.907 133.691 224.425 130.422 213.998 130.422C203.57 130.422 195.089 133.691 195.089 137.71C195.089 141.729 203.57 144.997 213.998 144.997C224.425 144.997 232.907 141.729 232.907 137.71Z" fill="#FFC022"/>
<path d="M211.46 134.761L200.628 137.879V140.045L211.713 136.62C212.807 137.507 214.389 138.18 216.426 138.623C216.589 138.656 216.758 138.688 216.927 138.721V140.659H220.95V139.171C221.829 139.21 222.642 139.21 223.352 139.197V140.659H227.374V134.852H223.352V137.658C222.681 137.684 221.842 137.684 220.95 137.625V134.852H216.927V136.829C215.97 136.457 215.144 135.922 214.603 135.172L211.46 134.761Z" fill="#FFC022"/>
<path d="M160.688 218.605C160.688 224.569 173.225 229.397 188.691 229.397C204.156 229.397 216.693 224.562 216.693 218.605V213.503H160.695V218.605H160.688Z" fill="#FF931E"/>
<path d="M186.028 216.126V229.344C186.907 229.377 187.792 229.397 188.691 229.397V216.126H186.028Z" fill="#D17918"/>
<path d="M180.626 216.126V228.94C182.071 229.11 183.568 229.227 185.104 229.305V216.126H180.626Z" fill="#D17918"/>
<path d="M179.519 228.803V213.529H160.688V218.605C160.688 223.329 168.558 227.342 179.519 228.803Z" fill="#D17918"/>
<path d="M198.663 216.126V228.692C198.969 228.646 199.274 228.601 199.574 228.555V216.126H198.663Z" fill="#D17918"/>
<path d="M195.18 229.103C195.486 229.077 195.792 229.044 196.091 229.012V216.126H195.18V229.103Z" fill="#D17918"/>
<path d="M190.767 216.126V229.364C191.216 229.351 191.659 229.338 192.101 229.312V216.12H190.767V216.126Z" fill="#D17918"/>
<path d="M188.691 224.295C173.225 224.295 160.688 219.46 160.688 213.503C160.688 207.547 173.225 202.712 188.691 202.712C204.156 202.712 216.693 207.547 216.693 213.503C216.693 219.46 204.156 224.295 188.691 224.295Z" fill="#FF931E"/>
<path style="mix-blend-mode:multiply" opacity="0.4" d="M204.469 222.422C203.674 222.448 202.874 222.468 202.06 222.468C186.595 222.468 174.058 217.633 174.058 211.677C174.058 207.971 178.901 204.702 186.282 202.758C171.949 203.227 160.688 207.86 160.688 213.51C160.688 219.473 173.225 224.301 188.691 224.301C194.542 224.301 199.977 223.61 204.469 222.422Z" fill="url(#paint9_linear_3263_15724)"/>
<path d="M216.666 213.843C216.204 208.036 203.863 203.384 188.69 203.384C173.518 203.384 161.177 208.036 160.714 213.843C161.177 219.649 173.518 224.301 188.69 224.301C203.863 224.301 216.211 219.649 216.666 213.843ZM188.69 222.964C176.121 222.964 165.902 219.023 165.902 214.175C165.902 209.328 176.128 205.387 188.69 205.387C201.253 205.387 211.485 209.328 211.485 214.175C211.485 219.023 201.259 222.964 188.69 222.964Z" fill="#D17918"/>
<path d="M186.152 212.003L175.321 215.121V217.287L186.406 213.862C187.499 214.749 189.081 215.421 191.118 215.865C191.281 215.904 191.45 215.93 191.62 215.963V217.894H195.642V216.407C196.521 216.446 197.335 216.452 198.044 216.433V217.894H202.067V212.087H198.044V214.893C197.374 214.919 196.534 214.919 195.642 214.86V212.087H191.62V214.064C190.663 213.692 189.836 213.157 189.296 212.407L186.152 211.99V212.003Z" fill="#D17918"/>
<path d="M211.485 213.503C211.485 218.344 201.26 222.292 188.691 222.292C176.122 222.292 165.902 218.351 165.902 213.503C165.902 208.656 176.128 204.715 188.691 204.715C201.253 204.715 211.485 208.656 211.485 213.503ZM216.693 213.503C216.693 207.54 204.156 202.712 188.691 202.712C173.225 202.712 160.688 207.547 160.688 213.503C160.688 219.46 173.225 224.295 188.691 224.295C204.156 224.295 216.693 219.46 216.693 213.503Z" fill="#FFC022"/>
<path d="M168.91 213.503C168.91 209.302 177.782 205.876 188.691 205.876C199.6 205.876 208.472 209.295 208.472 213.503C208.472 217.712 199.6 221.13 188.691 221.13C177.782 221.13 168.91 217.712 168.91 213.503ZM207.6 213.503C207.6 209.484 199.118 206.216 188.691 206.216C178.263 206.216 169.782 209.484 169.782 213.503C169.782 217.522 178.263 220.791 188.691 220.791C199.118 220.791 207.6 217.522 207.6 213.503Z" fill="#FFC022"/>
<path d="M186.152 210.554L175.321 213.673V215.839L186.406 212.414C187.499 213.301 189.081 213.973 191.118 214.417C191.281 214.456 191.45 214.482 191.62 214.515V216.452H195.642V214.965C196.521 215.004 197.335 215.004 198.044 214.991V216.452H202.067V210.646H198.044V213.451C197.374 213.477 196.534 213.477 195.642 213.419V210.646H191.62V212.623C190.663 212.251 189.836 211.716 189.296 210.965L186.152 210.554Z" fill="#FFC022"/>
<path d="M160.688 207.808C160.688 213.764 173.225 218.599 188.691 218.599C204.156 218.599 216.693 213.764 216.693 207.808V202.705H160.695V207.808H160.688Z" fill="#FF931E"/>
<path d="M186.028 205.328V218.547C186.907 218.579 187.792 218.599 188.691 218.599V205.328H186.028Z" fill="#D17918"/>
<path d="M180.626 205.328V218.142C182.071 218.312 183.568 218.436 185.104 218.507V205.328H180.626Z" fill="#D17918"/>
<path d="M179.519 218.005V202.732H160.688V207.808C160.688 212.531 168.558 216.537 179.519 218.005Z" fill="#D17918"/>
<path d="M198.663 205.328V217.894C198.969 217.849 199.274 217.803 199.574 217.757V205.335H198.663V205.328Z" fill="#D17918"/>
<path d="M195.18 218.305C195.486 218.279 195.792 218.246 196.091 218.214V205.328H195.18V218.305Z" fill="#D17918"/>
<path d="M190.767 205.328V218.566C191.216 218.553 191.659 218.54 192.101 218.514V205.328H190.767Z" fill="#D17918"/>
<path d="M188.691 213.503C173.225 213.503 160.688 208.669 160.688 202.712C160.688 196.755 173.225 191.921 188.691 191.921C204.156 191.921 216.693 196.755 216.693 202.712C216.693 208.669 204.156 213.503 188.691 213.503Z" fill="#FF931E"/>
<path style="mix-blend-mode:multiply" opacity="0.4" d="M204.469 211.624C203.674 211.65 202.874 211.663 202.06 211.663C186.595 211.663 174.058 206.829 174.058 200.872C174.058 197.166 178.901 193.898 186.282 191.953C171.949 192.423 160.688 197.055 160.688 202.705C160.688 208.669 173.225 213.497 188.691 213.497C194.542 213.497 199.977 212.805 204.469 211.618V211.624Z" fill="url(#paint10_linear_3263_15724)"/>
<path d="M216.666 203.045C216.204 197.238 203.863 192.586 188.69 192.586C173.518 192.586 161.177 197.238 160.714 203.045C161.177 208.851 173.518 213.503 188.69 213.503C203.863 213.503 216.211 208.851 216.666 203.045ZM188.69 212.166C176.121 212.166 165.902 208.225 165.902 203.377C165.902 198.53 176.128 194.589 188.69 194.589C201.253 194.589 211.485 198.53 211.485 203.377C211.485 208.225 201.259 212.166 188.69 212.166Z" fill="#D17918"/>
<path d="M186.152 201.211L175.321 204.33V206.496L186.406 203.071C187.499 203.958 189.081 204.63 191.118 205.074C191.281 205.113 191.45 205.139 191.62 205.172V207.109H195.642V205.622C196.521 205.661 197.335 205.667 198.044 205.648V207.109H202.067V201.303H198.044V204.108C197.374 204.134 196.534 204.134 195.642 204.076V201.303H191.62V203.28C190.663 202.908 189.836 202.373 189.296 201.622L186.152 201.205V201.211Z" fill="#D17918"/>
<path d="M211.485 202.712C211.485 207.553 201.26 211.5 188.691 211.5C176.122 211.5 165.902 207.56 165.902 202.712C165.902 197.864 176.128 193.924 188.691 193.924C201.253 193.924 211.485 197.864 211.485 202.712ZM216.693 202.712C216.693 196.749 204.156 191.921 188.691 191.921C173.225 191.921 160.688 196.755 160.688 202.712C160.688 208.669 173.225 213.503 188.691 213.503C204.156 213.503 216.693 208.669 216.693 202.712Z" fill="#FFC022"/>
<path d="M168.91 202.712C168.91 198.504 177.782 195.085 188.691 195.085C199.6 195.085 208.472 198.504 208.472 202.712C208.472 206.92 199.6 210.339 188.691 210.339C177.782 210.339 168.91 206.92 168.91 202.712ZM207.6 202.712C207.6 198.693 199.118 195.424 188.691 195.424C178.263 195.424 169.782 198.693 169.782 202.712C169.782 206.731 178.263 210 188.691 210C199.118 210 207.6 206.731 207.6 202.712Z" fill="#FFC022"/>
<path d="M186.152 199.763L175.321 202.882V205.048L186.406 201.622C187.499 202.51 189.081 203.182 191.118 203.625C191.281 203.658 191.45 203.691 191.62 203.723V205.654H195.642V204.167C196.521 204.206 197.335 204.206 198.044 204.193V205.654H202.067V199.848H198.044V202.653C197.374 202.679 196.534 202.679 195.642 202.621V199.848H191.62V201.825C190.663 201.453 189.836 200.918 189.296 200.167L186.152 199.756V199.763Z" fill="#FFC022"/>
<path d="M160.688 197.016C160.688 202.973 173.225 207.808 188.691 207.808C204.156 207.808 216.693 202.973 216.693 197.016V191.914H160.695V197.016H160.688Z" fill="#FF931E"/>
<path d="M186.028 194.537V207.755C186.907 207.788 187.792 207.808 188.691 207.808V194.537H186.028Z" fill="#D17918"/>
<path d="M180.626 194.537V207.351C182.071 207.52 183.568 207.644 185.104 207.716V194.537H180.626Z" fill="#D17918"/>
<path d="M179.519 207.214V191.94H160.688V197.016C160.688 201.74 168.558 205.746 179.519 207.214Z" fill="#D17918"/>
<path d="M198.663 194.537V207.103C198.969 207.057 199.274 207.012 199.574 206.966V194.543H198.663V194.537Z" fill="#D17918"/>
<path d="M195.18 207.514C195.486 207.488 195.792 207.455 196.091 207.423V194.537H195.18V207.514Z" fill="#D17918"/>
<path d="M190.767 194.537V207.775C191.216 207.762 191.659 207.749 192.101 207.723V194.537H190.767Z" fill="#D17918"/>
<path d="M188.691 202.712C173.225 202.712 160.688 197.878 160.688 191.921C160.688 185.964 173.225 181.13 188.691 181.13C204.156 181.13 216.693 185.964 216.693 191.921C216.693 197.878 204.156 202.712 188.691 202.712Z" fill="#FF931E"/>
<path style="mix-blend-mode:multiply" opacity="0.4" d="M204.469 200.833C203.674 200.859 202.874 200.872 202.06 200.872C186.595 200.872 174.058 196.038 174.058 190.081C174.058 186.375 178.901 183.106 186.282 181.162C171.949 181.632 160.688 186.264 160.688 191.914C160.688 197.878 173.225 202.706 188.691 202.706C194.542 202.706 199.977 202.014 204.469 200.827V200.833Z" fill="url(#paint11_linear_3263_15724)"/>
<path d="M216.666 192.253C216.204 186.447 203.863 181.795 188.69 181.795C173.518 181.795 161.177 186.447 160.714 192.253C161.177 198.06 173.518 202.712 188.69 202.712C203.863 202.712 216.211 198.06 216.666 192.253ZM188.69 201.375C176.121 201.375 165.902 197.434 165.902 192.586C165.902 187.739 176.128 183.798 188.69 183.798C201.253 183.798 211.485 187.739 211.485 192.586C211.485 197.434 201.259 201.375 188.69 201.375Z" fill="#D17918"/>
<path d="M186.152 190.42L175.321 193.539V195.705L186.406 192.28C187.499 193.167 189.081 193.839 191.118 194.283C191.281 194.322 191.45 194.348 191.62 194.38V196.312H195.642V194.824C196.521 194.863 197.335 194.87 198.044 194.85V196.312H202.067V190.505H198.044V193.31C197.374 193.337 196.534 193.337 195.642 193.278V190.505H191.62V192.482C190.663 192.11 189.836 191.575 189.296 190.825L186.152 190.407V190.42Z" fill="#D17918"/>
<path d="M211.485 191.914C211.485 196.755 201.26 200.703 188.691 200.703C176.122 200.703 165.902 196.762 165.902 191.914C165.902 187.067 176.128 183.126 188.691 183.126C201.253 183.126 211.485 187.067 211.485 191.914ZM216.693 191.914C216.693 185.951 204.156 181.123 188.691 181.123C173.225 181.123 160.688 185.957 160.688 191.914C160.688 197.871 173.225 202.706 188.691 202.706C204.156 202.706 216.693 197.871 216.693 191.914Z" fill="#FFC022"/>
<path d="M168.91 191.914C168.91 187.706 177.782 184.287 188.691 184.287C199.6 184.287 208.472 187.706 208.472 191.914C208.472 196.122 199.6 199.541 188.691 199.541C177.782 199.541 168.91 196.122 168.91 191.914ZM207.6 191.914C207.6 187.895 199.118 184.627 188.691 184.627C178.263 184.627 169.782 187.895 169.782 191.914C169.782 195.933 178.263 199.202 188.691 199.202C199.118 199.202 207.6 195.933 207.6 191.914Z" fill="#FFC022"/>
<path d="M186.152 188.965L175.321 192.084V194.25L186.406 190.825C187.499 191.712 189.081 192.384 191.118 192.828C191.281 192.86 191.45 192.893 191.62 192.926V194.857H195.642V193.369C196.521 193.408 197.335 193.408 198.044 193.395V194.857H202.067V189.05H198.044V191.856C197.374 191.882 196.534 191.882 195.642 191.823V189.05H191.62V191.027C190.663 190.655 189.836 190.12 189.296 189.37L186.152 188.959V188.965Z" fill="#FFC022"/>
<path d="M160.688 186.225C160.688 192.182 173.225 197.016 188.691 197.016C204.156 197.016 216.693 192.182 216.693 186.225V181.123H160.695V186.225H160.688Z" fill="#FF931E"/>
<path d="M186.028 183.746V196.964C186.907 196.997 187.792 197.016 188.691 197.016V183.746H186.028Z" fill="#D17918"/>
<path d="M180.626 183.746V196.559C182.071 196.729 183.568 196.847 185.104 196.925V183.746H180.626Z" fill="#D17918"/>
<path d="M179.519 196.422V181.149H160.688V186.225C160.688 190.949 168.558 194.954 179.519 196.422Z" fill="#D17918"/>
<path d="M198.663 183.746V196.312C198.969 196.266 199.274 196.22 199.574 196.175V183.746H198.663Z" fill="#D17918"/>
<path d="M195.18 196.723C195.486 196.696 195.792 196.664 196.091 196.631V183.746H195.18V196.723Z" fill="#D17918"/>
<path d="M190.767 183.746V196.984C191.216 196.971 191.659 196.958 192.101 196.931V183.739H190.767V183.746Z" fill="#D17918"/>
<path d="M188.691 191.914C173.225 191.914 160.688 187.08 160.688 181.123C160.688 175.166 173.225 170.332 188.691 170.332C204.156 170.332 216.693 175.166 216.693 181.123C216.693 187.08 204.156 191.914 188.691 191.914Z" fill="#FF931E"/>
<path style="mix-blend-mode:multiply" opacity="0.4" d="M204.469 190.042C203.674 190.068 202.874 190.087 202.06 190.087C186.595 190.087 174.058 185.253 174.058 179.296C174.058 175.59 178.901 172.321 186.282 170.377C171.949 170.847 160.688 175.479 160.688 181.129C160.688 187.093 173.225 191.921 188.691 191.921C194.542 191.921 199.977 191.229 204.469 190.042Z" fill="url(#paint12_linear_3263_15724)"/>
<path d="M216.666 181.462C216.204 175.655 203.863 171.004 188.69 171.004C173.518 171.004 161.177 175.655 160.714 181.462C161.177 187.269 173.518 191.921 188.69 191.921C203.863 191.921 216.211 187.269 216.666 181.462ZM188.69 190.583C176.121 190.583 165.902 186.642 165.902 181.795C165.902 176.947 176.128 173.007 188.69 173.007C201.253 173.007 211.485 176.947 211.485 181.795C211.485 186.642 201.259 190.583 188.69 190.583Z" fill="#D17918"/>
<path d="M186.152 179.622L175.321 182.741V184.907L186.406 181.482C187.499 182.369 189.081 183.041 191.118 183.485C191.281 183.524 191.45 183.55 191.62 183.582V185.514H195.642V184.026C196.521 184.065 197.335 184.065 198.044 184.052V185.514H202.067V179.707H198.044V182.512C197.374 182.539 196.534 182.539 195.642 182.48V179.707H191.62V181.684C190.663 181.312 189.836 180.777 189.296 180.027L186.152 179.609V179.622Z" fill="#D17918"/>
<path d="M211.485 181.123C211.485 185.964 201.26 189.911 188.691 189.911C176.122 189.911 165.902 185.97 165.902 181.123C165.902 176.275 176.128 172.335 188.691 172.335C201.253 172.335 211.485 176.275 211.485 181.123ZM216.693 181.123C216.693 175.16 204.156 170.332 188.691 170.332C173.225 170.332 160.688 175.166 160.688 181.123C160.688 187.08 173.225 191.914 188.691 191.914C204.156 191.914 216.693 187.08 216.693 181.123Z" fill="#FFC022"/>
<path d="M168.91 181.123C168.91 176.915 177.782 173.496 188.691 173.496C199.6 173.496 208.472 176.915 208.472 181.123C208.472 185.331 199.6 188.75 188.691 188.75C177.782 188.75 168.91 185.331 168.91 181.123ZM207.6 181.123C207.6 177.104 199.118 173.835 188.691 173.835C178.263 173.835 169.782 177.104 169.782 181.123C169.782 185.142 178.263 188.411 188.691 188.411C199.118 188.411 207.6 185.142 207.6 181.123Z" fill="#FFC022"/>
<path d="M186.152 178.174L175.321 181.292V183.459L186.406 180.033C187.499 180.921 189.081 181.593 191.118 182.036C191.281 182.075 191.45 182.102 191.62 182.134V184.072H195.642V182.584C196.521 182.623 197.335 182.623 198.044 182.61V184.072H202.067V178.265H198.044V181.071C197.374 181.097 196.534 181.097 195.642 181.038V178.265H191.62V180.242C190.663 179.87 189.836 179.335 189.296 178.585L186.152 178.174Z" fill="#FFC022"/>
<path d="M160.688 175.427C160.688 181.384 173.225 186.218 188.691 186.218C204.156 186.218 216.693 181.384 216.693 175.427V170.325H160.695V175.427H160.688Z" fill="#FF931E"/>
<path d="M186.028 172.948V186.166C186.907 186.199 187.792 186.218 188.691 186.218V172.948H186.028Z" fill="#D17918"/>
<path d="M180.626 172.948V185.762C182.071 185.931 183.568 186.049 185.104 186.127V172.948H180.626Z" fill="#D17918"/>
<path d="M179.519 185.625V170.351H160.688V175.427C160.688 180.151 168.558 184.163 179.519 185.625Z" fill="#D17918"/>
<path d="M198.663 172.948V185.514C198.969 185.468 199.274 185.422 199.574 185.377V172.954H198.663V172.948Z" fill="#D17918"/>
<path d="M195.18 185.925C195.486 185.899 195.792 185.866 196.091 185.833V172.948H195.18V185.925Z" fill="#D17918"/>
<path d="M190.767 172.948V186.186C191.216 186.173 191.659 186.16 192.101 186.134V172.941H190.767V172.948Z" fill="#D17918"/>
<path d="M188.691 181.123C173.225 181.123 160.688 176.288 160.688 170.332C160.688 164.375 173.225 159.54 188.691 159.54C204.156 159.54 216.693 164.375 216.693 170.332C216.693 176.288 204.156 181.123 188.691 181.123Z" fill="#FF931E"/>
<path style="mix-blend-mode:multiply" opacity="0.4" d="M204.469 179.244C203.674 179.27 202.874 179.289 202.06 179.289C186.595 179.289 174.058 174.455 174.058 168.498C174.058 164.792 178.901 161.524 186.282 159.579C171.949 160.049 160.688 164.681 160.688 170.332C160.688 176.295 173.225 181.123 188.691 181.123C194.542 181.123 199.977 180.431 204.469 179.244Z" fill="url(#paint13_linear_3263_15724)"/>
<path d="M216.666 170.664C216.204 164.858 203.863 160.206 188.69 160.206C173.518 160.206 161.177 164.858 160.714 170.664C161.177 176.471 173.518 181.123 188.69 181.123C203.863 181.123 216.211 176.471 216.666 170.664ZM188.69 179.785C176.121 179.785 165.902 175.845 165.902 170.997C165.902 166.15 176.128 162.209 188.69 162.209C201.253 162.209 211.485 166.15 211.485 170.997C211.485 175.845 201.259 179.785 188.69 179.785Z" fill="#D17918"/>
<path d="M186.152 168.831L175.321 171.95V174.116L186.406 170.69C187.499 171.578 189.081 172.25 191.118 172.693C191.281 172.733 191.45 172.759 191.62 172.791V174.729H195.642V173.241C196.521 173.281 197.335 173.287 198.044 173.268V174.729H202.067V168.922H198.044V171.728C197.374 171.754 196.534 171.754 195.642 171.695V168.922H191.62V170.899C190.663 170.527 189.836 169.992 189.296 169.242L186.152 168.824V168.831Z" fill="#D17918"/>
<path d="M211.485 170.332C211.485 175.173 201.26 179.12 188.691 179.12C176.122 179.12 165.902 175.179 165.902 170.332C165.902 165.484 176.128 161.543 188.691 161.543C201.253 161.543 211.485 165.484 211.485 170.332ZM216.693 170.332C216.693 164.368 204.156 159.54 188.691 159.54C173.225 159.54 160.688 164.375 160.688 170.332C160.688 176.288 173.225 181.123 188.691 181.123C204.156 181.123 216.693 176.288 216.693 170.332Z" fill="#FFC022"/>
<path d="M168.91 170.332C168.91 166.13 177.782 162.705 188.691 162.705C199.6 162.705 208.472 166.123 208.472 170.332C208.472 174.54 199.6 177.959 188.691 177.959C177.782 177.959 168.91 174.54 168.91 170.332ZM207.6 170.332C207.6 166.313 199.118 163.044 188.691 163.044C178.263 163.044 169.782 166.313 169.782 170.332C169.782 174.351 178.263 177.619 188.691 177.619C199.118 177.619 207.6 174.351 207.6 170.332Z" fill="#FFC022"/>
<path d="M186.152 167.383L175.321 170.501V172.667L186.406 169.242C187.499 170.129 189.081 170.801 191.118 171.245C191.281 171.278 191.45 171.31 191.62 171.343V173.281H195.642V171.793C196.521 171.832 197.335 171.832 198.044 171.819V173.281H202.067V167.474H198.044V170.279C197.374 170.305 196.534 170.305 195.642 170.247V167.474H191.62V169.451C190.663 169.079 189.836 168.544 189.296 167.794L186.152 167.383Z" fill="#FFC022"/>
<g style="mix-blend-mode:multiply" opacity="0.6">
<path d="M130.558 172.863C126.36 171.826 121.159 177.384 117.214 186.277C117.214 186.29 117.221 186.303 117.227 186.316C117.26 186.434 117.299 186.551 117.345 186.669C117.364 186.721 117.377 186.766 117.397 186.819C117.462 186.982 117.533 187.138 117.618 187.295C117.631 187.321 117.65 187.347 117.663 187.373C117.735 187.504 117.813 187.634 117.898 187.765C117.937 187.823 117.976 187.876 118.015 187.934C118.021 187.947 118.034 187.96 118.041 187.973C117.989 188.045 117.937 188.117 117.891 188.189C117.833 188.28 117.781 188.371 117.729 188.463C117.683 188.541 117.637 188.619 117.598 188.698C117.546 188.796 117.507 188.893 117.462 188.991C117.429 189.07 117.39 189.141 117.364 189.22C117.325 189.324 117.292 189.428 117.26 189.533C117.24 189.605 117.214 189.676 117.195 189.748C117.162 189.865 117.143 189.983 117.123 190.1C117.11 190.159 117.097 190.218 117.091 190.283C117.065 190.459 117.058 190.642 117.058 190.825V195.927C117.058 196.096 117.071 196.266 117.091 196.436C117.091 196.488 117.11 196.54 117.117 196.592C117.136 196.71 117.156 196.827 117.188 196.944C117.201 197.003 117.214 197.062 117.234 197.114C117.266 197.232 117.305 197.349 117.351 197.466C117.371 197.519 117.384 197.564 117.403 197.616C117.468 197.78 117.54 197.936 117.624 198.093C117.637 198.119 117.657 198.145 117.67 198.178C117.742 198.308 117.82 198.439 117.904 198.569C117.943 198.628 117.982 198.68 118.021 198.739C118.028 198.752 118.041 198.765 118.047 198.778C117.995 198.85 117.943 198.921 117.898 198.993C117.839 199.084 117.781 199.182 117.729 199.274C117.683 199.352 117.637 199.424 117.598 199.502C117.546 199.6 117.507 199.698 117.462 199.796C117.429 199.867 117.39 199.946 117.364 200.017C117.325 200.122 117.292 200.226 117.26 200.337C117.24 200.409 117.214 200.474 117.195 200.546C117.162 200.663 117.143 200.781 117.123 200.905C117.11 200.963 117.097 201.022 117.091 201.081C117.065 201.257 117.058 201.44 117.058 201.622V206.724C117.058 206.894 117.071 207.064 117.091 207.233C117.091 207.286 117.11 207.338 117.117 207.39C117.136 207.507 117.156 207.625 117.188 207.742C117.201 207.801 117.214 207.86 117.234 207.912C117.266 208.029 117.305 208.147 117.351 208.264C117.371 208.316 117.384 208.362 117.403 208.414C117.468 208.577 117.54 208.734 117.624 208.897C117.637 208.923 117.657 208.949 117.67 208.975C117.742 209.106 117.82 209.236 117.904 209.367C117.943 209.426 117.982 209.478 118.021 209.536C118.093 209.641 118.165 209.739 118.243 209.843C118.288 209.902 118.334 209.961 118.386 210.019C118.471 210.124 118.562 210.222 118.653 210.326C118.698 210.378 118.744 210.43 118.796 210.482C118.933 210.626 119.082 210.77 119.232 210.907C119.284 210.959 119.349 211.004 119.408 211.057C119.512 211.148 119.623 211.246 119.74 211.337C119.818 211.402 119.903 211.461 119.981 211.526C120.078 211.605 120.182 211.683 120.287 211.761C120.378 211.827 120.469 211.892 120.56 211.957C120.664 212.029 120.775 212.107 120.885 212.179C120.983 212.244 121.074 212.309 121.178 212.368C121.367 212.485 121.562 212.609 121.771 212.72C121.894 212.792 122.025 212.864 122.155 212.929C122.252 212.981 122.357 213.04 122.461 213.092C122.597 213.164 122.741 213.236 122.884 213.308C122.981 213.353 123.079 213.405 123.177 213.451C123.333 213.523 123.489 213.601 123.645 213.673C123.723 213.706 123.802 213.738 123.873 213.777C124.465 214.045 125.09 214.299 125.748 214.541C125.813 214.567 125.878 214.593 125.95 214.612C126.164 214.691 126.379 214.762 126.594 214.841C126.659 214.86 126.718 214.88 126.783 214.906C127.707 215.213 128.69 215.493 129.718 215.754C131.541 212.016 133.149 207.573 134.346 202.712C138.037 187.66 136.351 174.305 130.571 172.883L130.558 172.863Z" fill="#CCCCCC"/>
</g>
<path d="M108.14 221.9C113.667 224.099 122.766 214.195 128.468 199.783C134.164 185.37 134.3 171.91 128.774 169.712L124.042 167.833L103.408 220.015L108.14 221.894V221.9Z" fill="#FF931E"/>
<path d="M115.177 197.375L127.44 202.249C127.791 201.446 128.136 200.624 128.468 199.782L116.16 194.896L115.177 197.375Z" fill="#D17918"/>
<path d="M113.191 202.405L125.077 207.129C125.767 205.844 126.431 204.493 127.069 203.09L114.845 198.236L113.198 202.405H113.191Z" fill="#D17918"/>
<path d="M124.537 208.108L110.366 202.477L103.428 220.021L108.14 221.894C112.521 223.636 119.141 217.777 124.537 208.108Z" fill="#D17918"/>
<path d="M119.831 185.599L131.482 190.224C131.554 189.924 131.625 189.624 131.69 189.324L120.163 184.744L119.824 185.592L119.831 185.599Z" fill="#D17918"/>
<path d="M130.584 193.624C130.668 193.33 130.753 193.036 130.838 192.743L118.887 187.993L118.548 188.841L130.584 193.624Z" fill="#D17918"/>
<path d="M116.921 192.958L129.197 197.832C129.353 197.408 129.496 196.99 129.64 196.573L117.409 191.712L116.921 192.952V192.958Z" fill="#D17918"/>
<path d="M123.736 197.904C118.041 212.316 108.941 222.213 103.408 220.021C97.8821 217.822 98.0188 204.363 103.714 189.957C109.41 175.545 118.509 165.647 124.042 167.839C129.568 170.038 129.432 183.498 123.736 197.91V197.904Z" fill="#FF931E"/>
<path style="mix-blend-mode:multiply" opacity="0.4" d="M127.811 182.513C127.544 183.263 127.264 184.013 126.965 184.77C121.269 199.182 112.17 209.08 106.637 206.888C103.2 205.524 101.957 199.802 102.868 192.214C98.0255 205.746 98.1752 217.94 103.409 220.021C108.935 222.22 118.041 212.316 123.736 197.904C125.891 192.449 127.251 187.132 127.811 182.513Z" fill="url(#paint14_linear_3263_15724)"/>
<path d="M124.348 167.983C118.796 166.273 109.93 176.06 104.339 190.198C98.7478 204.337 98.52 217.555 103.734 220.126C109.286 221.835 118.151 212.048 123.743 197.91C129.334 183.772 129.562 170.553 124.348 167.983ZM122.499 197.414C117.872 209.125 110.445 217.203 105.953 215.415C101.462 213.627 101.573 202.653 106.201 190.942C110.829 179.231 118.256 171.154 122.747 172.941C127.238 174.729 127.127 185.703 122.499 197.414Z" fill="#D17918"/>
<path d="M111.402 195.744L110.308 206.985L112.319 207.781L113.224 196.194C114.454 195.503 115.652 194.276 116.817 192.547C116.915 192.404 116.999 192.26 117.091 192.116L118.887 192.828L120.371 189.083L118.991 188.535C119.349 187.732 119.655 186.969 119.903 186.303L121.256 186.838L122.734 183.093L117.351 180.953L115.867 184.698L118.464 185.729C118.236 186.362 117.93 187.145 117.546 187.954L114.975 186.936L113.498 190.681L115.333 191.412C114.637 192.162 113.836 192.743 112.944 192.965L111.402 195.737V195.744Z" fill="#D17918"/>
<path d="M122.122 172.687C126.613 174.475 126.503 185.449 121.875 197.16C117.247 208.871 109.82 216.948 105.329 215.161C100.837 213.373 100.948 202.399 105.576 190.688C110.204 178.976 117.631 170.899 122.122 172.687ZM124.042 167.833C118.516 165.634 109.41 175.538 103.714 189.95C98.0188 204.356 97.8821 217.822 103.408 220.015C108.935 222.213 118.041 212.309 123.736 197.897C129.432 183.485 129.568 170.025 124.042 167.826V167.833Z" fill="#FFC022"/>
<path d="M106.441 212.355C102.543 210.809 102.64 201.277 106.656 191.118C110.672 180.953 117.116 173.946 121.015 175.492C124.914 177.039 124.817 186.571 120.801 196.736C116.784 206.894 110.34 213.908 106.441 212.355ZM120.696 176.301C116.967 174.82 110.809 181.521 106.969 191.236C103.128 200.95 103.037 210.065 106.767 211.546C110.497 213.027 116.654 206.327 120.495 196.612C124.335 186.897 124.426 177.782 120.703 176.301H120.696Z" fill="#FFC022"/>
<path d="M110.061 195.209L108.967 206.45L110.979 207.246L111.883 195.653C113.114 194.961 114.318 193.735 115.476 192.006C115.568 191.862 115.659 191.718 115.75 191.575L117.546 192.286L119.03 188.541L117.65 187.993C118.008 187.191 118.314 186.427 118.562 185.762L119.916 186.297L121.393 182.552L116.01 180.412L114.533 184.157L117.13 185.188C116.902 185.82 116.596 186.603 116.212 187.412L113.641 186.395L112.157 190.14L113.992 190.87C113.296 191.621 112.495 192.201 111.597 192.423L110.054 195.196L110.061 195.209Z" fill="#FFC022"/>
<path d="M231.924 238.655C226.398 240.854 217.298 230.95 211.596 216.537C205.901 202.125 205.764 188.665 211.29 186.466L216.022 184.587L236.656 236.769L231.924 238.648V238.655Z" fill="#FF931E"/>
<path d="M224.888 214.13L212.625 219.003C212.273 218.201 211.928 217.379 211.596 216.537L223.905 211.65L224.888 214.13Z" fill="#D17918"/>
<path d="M226.879 219.167L214.994 223.89C214.304 222.605 213.64 221.254 213.008 219.852L225.232 214.997L226.879 219.167Z" fill="#D17918"/>
<path d="M215.527 224.869L229.698 219.238L236.636 236.782L231.924 238.655C227.543 240.397 220.923 234.538 215.527 224.869Z" fill="#D17918"/>
<path d="M220.234 202.353L208.582 206.979C208.511 206.679 208.439 206.379 208.374 206.079L219.902 201.499L220.24 202.347L220.234 202.353Z" fill="#D17918"/>
<path d="M209.48 210.385C209.396 210.091 209.311 209.797 209.227 209.504L221.177 204.754L221.516 205.602L209.48 210.385Z" fill="#D17918"/>
<path d="M223.143 209.719L210.867 214.593C210.711 214.169 210.568 213.751 210.424 213.334L222.655 208.473L223.143 209.713V209.719Z" fill="#D17918"/>
<path d="M216.328 214.665C222.024 229.077 231.123 238.974 236.656 236.782C242.182 234.584 242.045 221.124 236.35 206.718C230.655 192.306 221.555 182.408 216.022 184.6C210.496 186.799 210.633 200.259 216.328 214.671V214.665Z" fill="#FF931E"/>
<path style="mix-blend-mode:multiply" opacity="0.4" d="M212.253 199.267C212.52 200.018 212.8 200.768 213.1 201.525C218.795 215.93 227.895 225.834 233.427 223.642C236.864 222.279 238.108 216.557 237.196 208.969C242.039 222.5 241.889 234.695 236.656 236.776C231.13 238.974 222.03 229.071 216.328 214.658C214.174 209.204 212.813 203.886 212.253 199.267Z" fill="url(#paint15_linear_3263_15724)"/>
<path d="M216.328 214.665C221.919 228.803 230.785 238.589 236.337 236.88C241.551 234.31 241.323 221.091 235.732 206.953C230.14 192.815 221.275 183.028 215.723 184.737C210.509 187.308 210.743 200.526 216.328 214.665ZM217.324 189.696C221.815 187.908 229.236 195.985 233.87 207.697C238.498 219.408 238.615 230.388 234.117 232.17C229.626 233.957 222.199 225.88 217.571 214.169C212.943 202.458 212.833 191.477 217.324 189.696Z" fill="#D17918"/>
<path d="M228.663 212.499L229.756 223.74L227.745 224.536L226.84 212.949C225.61 212.257 224.412 211.031 223.247 209.302C223.149 209.158 223.065 209.015 222.974 208.871L221.177 209.582L219.693 205.837L221.073 205.289C220.715 204.487 220.409 203.723 220.162 203.058L218.808 203.593L217.324 199.848L222.707 197.708L224.191 201.453L221.594 202.484C221.822 203.117 222.127 203.9 222.511 204.709L225.083 203.691L226.567 207.436L224.731 208.166C225.428 208.917 226.228 209.497 227.12 209.719L228.663 212.492V212.499Z" fill="#D17918"/>
<path d="M217.942 189.448C222.434 187.66 229.86 195.737 234.488 207.449C239.116 219.16 239.227 230.14 234.736 231.922C230.244 233.709 222.818 225.632 218.19 213.921C213.562 202.21 213.445 191.229 217.942 189.448ZM216.022 184.594C210.496 186.793 210.633 200.252 216.328 214.665C222.024 229.077 231.123 238.974 236.656 236.782C242.182 234.584 242.045 221.124 236.35 206.718C230.655 192.306 221.555 182.408 216.022 184.6V184.594Z" fill="#FFC022"/>
<path d="M219.264 213.497C215.248 203.332 215.15 193.806 219.049 192.253C222.948 190.707 229.392 197.714 233.408 207.879C237.424 218.038 237.522 227.57 233.623 229.116C229.724 230.669 223.28 223.655 219.264 213.497ZM219.576 213.373C223.417 223.088 229.574 229.788 233.304 228.307C237.034 226.826 236.942 217.718 233.102 207.997C229.262 198.282 223.104 191.581 219.374 193.063C215.645 194.544 215.736 203.652 219.583 213.373H219.576Z" fill="#FFC022"/>
<path d="M230.01 211.964L231.104 223.205L229.092 224.001L228.188 212.407C226.957 211.716 225.753 210.489 224.595 208.76C224.503 208.617 224.412 208.473 224.321 208.33L222.525 209.041L221.041 205.296L222.42 204.748C222.062 203.945 221.757 203.182 221.509 202.516L220.155 203.051L218.678 199.306L224.061 197.166L225.538 200.911L222.941 201.942C223.169 202.575 223.475 203.358 223.859 204.167L226.43 203.149L227.914 206.894L226.079 207.625C226.775 208.375 227.576 208.956 228.474 209.178L230.017 211.951L230.01 211.964Z" fill="#FFC022"/>
<path d="M128.202 179.642L127.062 176.745L125.923 179.642L123.027 180.79L125.923 181.932L127.062 184.835L128.202 181.932L131.098 180.79L128.202 179.642Z" fill="white"/>
<path d="M210.366 176.575L209.227 173.672L208.087 176.575L205.191 177.717L208.087 178.859L209.227 181.762L210.366 178.859L213.262 177.717L210.366 176.575Z" fill="white"/>
<path d="M237.3 144.228L236.161 141.324L235.016 144.228L232.125 145.369L235.016 146.518L236.161 149.414L237.3 146.518L240.197 145.369L237.3 144.228Z" fill="white"/>
<path d="M168.304 197.623L167.165 194.72L166.026 197.623L163.129 198.765L166.026 199.907L167.165 202.81L168.304 199.907L171.201 198.765L168.304 197.623Z" fill="white"/>
<path d="M126.672 57.8711C126.672 57.8711 111.18 69.2104 106.325 77.8683C106.325 77.8683 127.024 62.4903 138.089 57.8711H126.672Z" fill="#DAB873"/>
<path d="M131.326 57.8711C131.326 57.8711 143.264 64.2063 149.102 77.8683C149.102 77.8683 148.347 66.3462 142.131 57.8711H131.326Z" fill="#DAB873"/>
<path d="M155.032 86.376C155.032 86.376 165.512 106.086 171.201 127.59C171.201 127.59 172.438 103.183 155.032 86.376Z" fill="#DAB873"/>
<path d="M168.91 88.875C168.91 88.875 179.389 108.585 185.078 130.089C185.078 130.089 186.315 105.682 168.91 88.875Z" fill="#E8C47B"/>
<path d="M152.467 96.228C152.467 96.228 170.055 93.3507 186.041 97.4872C186.041 97.4872 170.029 89.1621 152.467 96.228Z" fill="#E8C47B"/>
<path d="M156.308 105.727C156.308 105.727 173.895 102.85 189.881 106.986C189.881 106.986 173.869 98.6613 156.308 105.727Z" fill="#E8C47B"/>
<path d="M156.308 105.727C156.308 105.727 162.212 104.762 170.29 104.755C170.036 104.149 169.775 103.542 169.502 102.928C165.382 103.098 160.904 103.881 156.308 105.734V105.727Z" fill="#DAB873"/>
<path d="M165.922 95.2623C165.622 94.6621 165.317 94.0618 165.004 93.4551C161.066 93.6769 156.816 94.4794 152.474 96.2279C152.474 96.2279 158.124 95.308 165.922 95.2558V95.2623Z" fill="#DAB873"/>
<path d="M108.896 9.78657L131.326 51.8361V6.99414C130.896 7.1703 130.467 7.34646 130.031 7.52261C129.952 7.55524 129.874 7.58786 129.796 7.61396C129.36 7.79011 128.917 7.95975 128.481 8.12938C128.462 8.1359 128.449 8.14243 128.429 8.14895C127.974 8.31859 127.518 8.48822 127.062 8.65133C126.971 8.68395 126.874 8.71657 126.782 8.74919C126.424 8.87316 126.066 8.99712 125.708 9.11456C125.585 9.15371 125.468 9.19285 125.344 9.232C124.934 9.36248 124.517 9.48645 124.107 9.60389C124.068 9.61694 124.036 9.62346 123.997 9.63651C123.554 9.76047 123.118 9.87139 122.682 9.97578C122.565 10.0019 122.441 10.028 122.324 10.0541C121.992 10.1258 121.666 10.1911 121.341 10.2563C121.217 10.2824 121.087 10.302 120.963 10.3216C120.534 10.3933 120.104 10.4586 119.681 10.4977C116.056 10.8761 112.41 10.4847 108.902 9.78004L108.896 9.78657Z" fill="#DAB873"/>
<path d="M103.051 8.35117C102.582 8.22068 102.061 8.05757 101.501 7.88794L120.111 36.4777L106.494 9.25153C105.322 8.97098 104.17 8.66434 103.044 8.35117H103.051Z" fill="#DAB873"/>
<path d="M202.783 7.24206C206.252 4.58664 206.961 0.724218 200.771 0.0913548C189.927 -1.01779 182.741 8.3512 171.956 9.11455L147.13 57.8711H156.763L202.783 7.24206Z" fill="#DAB873"/>
<path d="M150.124 45.8403L168.499 9.04936C164.73 8.63832 162.263 6.92242 159.849 5.10864L150.131 45.8403H150.124Z" fill="#DAB873"/>
<path d="M120.912 162.385C100.851 162.385 84.5322 146.413 84.5322 126.781C84.5322 107.15 100.851 91.178 120.912 91.178C140.973 91.178 157.291 107.15 157.291 126.781C157.291 146.413 140.973 162.385 120.912 162.385ZM120.912 95.7385C103.363 95.7385 89.0886 109.662 89.0886 126.775C89.0886 143.888 103.363 157.811 120.912 157.811C138.46 157.811 152.734 143.888 152.734 126.775C152.734 109.662 138.46 95.7385 120.912 95.7385Z" fill="#534741"/>
<path d="M107.991 131.074L121.66 149.408H131.157L116.147 130.644C120.039 128.791 122.981 126.122 124.928 122.671C125.084 122.391 125.214 122.11 125.357 121.823H133.825V115.018H127.316C127.479 113.537 127.499 112.147 127.427 110.953H133.825V104.148H108.394V110.953H120.671C120.768 112.089 120.781 113.504 120.527 115.018H108.394V121.823H117.058C115.418 123.441 113.094 124.844 109.8 125.757L107.984 131.074H107.991Z" fill="#534741"/>
<path d="M165.922 56.1161C165.714 56.1161 165.505 56.0965 165.291 56.0443C148.321 52.2862 116.941 56.0508 116.622 56.09C114.839 56.3053 113.231 54.8503 113.036 52.8343C112.84 50.8183 114.136 49.0045 115.919 48.7892C117.247 48.6261 148.595 44.8615 166.54 48.8349C168.304 49.2263 169.456 51.151 169.105 53.1409C168.799 54.8895 167.439 56.103 165.915 56.103L165.922 56.1161Z" fill="#FF931E"/>
<path d="M137.77 47.158C137.23 47.1775 136.689 47.1971 136.156 47.2167C135.179 48.776 133.89 51.314 133.148 54.7262C133.598 54.7001 134.053 54.6806 134.515 54.6545C135.381 50.9812 136.898 48.4106 137.77 47.158Z" fill="#BF6E17"/>
<path d="M128.527 47.6409C127.974 47.68 127.44 47.7192 126.913 47.7583C125.93 49.4416 124.752 52.0057 124.107 55.3592C124.544 55.32 124.999 55.2874 125.461 55.2483C126.21 51.699 127.583 49.1023 128.521 47.6474L128.527 47.6409Z" fill="#BF6E17"/>
<path d="M133.175 47.3538C132.628 47.3799 132.088 47.4125 131.56 47.4451C130.577 49.0631 129.334 51.6142 128.638 55.0003C129.08 54.9677 129.536 54.9416 129.992 54.909C130.805 51.2814 132.263 48.7043 133.175 47.3538Z" fill="#BF6E17"/>
<path d="M123.84 47.9998C123.281 48.0454 122.747 48.0976 122.233 48.1433C121.256 49.8983 120.143 52.4689 119.564 55.7768C119.981 55.7377 120.43 55.692 120.924 55.6398C121.595 52.1688 122.877 49.5656 123.84 47.9998Z" fill="#BF6E17"/>
<path d="M117.52 48.613C116.602 50.3615 115.62 52.8016 115.092 55.8616C115.489 56.0377 115.925 56.1291 116.381 56.1095C116.967 52.7168 118.152 50.1136 119.121 48.4434C118.51 48.5086 117.969 48.5608 117.52 48.613Z" fill="#BF6E17"/>
<path d="M163.793 48.3063C163.338 48.228 162.869 48.1562 162.4 48.0845C161.476 49.7286 160.435 52.1035 159.823 55.1308C160.259 55.183 160.695 55.2417 161.118 55.3004C161.762 52.2079 162.882 49.8395 163.787 48.3063H163.793Z" fill="#BF6E17"/>
<path d="M166.546 48.8413C166.546 48.8413 166.494 48.8283 166.468 48.8218C165.583 50.5442 164.672 52.893 164.164 55.8094C164.548 55.8811 164.926 55.9594 165.29 56.0443C165.342 56.0573 165.388 56.0508 165.44 56.0638C165.928 53.2649 166.826 51.0009 167.666 49.3568C167.334 49.1154 166.956 48.9327 166.54 48.8413H166.546Z" fill="#BF6E17"/>
<path d="M155.475 47.3603C154.973 47.3277 154.472 47.2951 153.971 47.2625C153.021 48.7892 151.797 51.2293 151.048 54.4784C151.497 54.4914 151.94 54.511 152.383 54.5306C153.209 51.1053 154.596 48.6587 155.475 47.3538V47.3603Z" fill="#BF6E17"/>
<path d="M159.686 47.7387C159.204 47.6865 158.723 47.6343 158.234 47.5886C157.291 49.1675 156.145 51.5685 155.455 54.7198C155.898 54.7524 156.334 54.785 156.77 54.8241C157.518 51.562 158.781 49.1545 159.679 47.7452L159.686 47.7387Z" fill="#BF6E17"/>
<path d="M151.166 47.1321C150.652 47.1125 150.137 47.0995 149.623 47.0864C148.666 48.5805 147.384 51.0467 146.609 54.3872C147.059 54.3872 147.508 54.3937 147.957 54.4002C148.842 50.8445 150.32 48.3456 151.166 47.1321Z" fill="#BF6E17"/>
<path d="M145.197 47.0276C144.233 48.5217 142.925 51.014 142.144 54.4066C142.593 54.4001 143.049 54.3936 143.498 54.3871C144.403 50.74 145.939 48.2085 146.772 47.0341C146.245 47.0341 145.724 47.0276 145.197 47.0276Z" fill="#BF6E17"/>
<path d="M142.307 47.0471C141.773 47.0536 141.239 47.0667 140.712 47.0732C139.742 48.5869 138.434 51.1053 137.659 54.524C138.108 54.511 138.564 54.4914 139.02 54.4784C139.918 50.7986 141.46 48.2411 142.307 47.0471Z" fill="#BF6E17"/>
<g style="mix-blend-mode:multiply" opacity="0.8">
<path d="M165.922 52.9843C165.713 52.9843 165.505 52.9647 165.29 52.9126C148.321 49.1545 116.941 52.9191 116.622 52.9582C115.209 53.1279 113.908 52.2471 113.328 50.877C113.081 51.4707 112.964 52.1362 113.035 52.8343C113.231 54.8503 114.838 56.3052 116.622 56.0899C116.934 56.0508 148.315 52.2862 165.29 56.0442C165.505 56.0899 165.713 56.116 165.922 56.116C167.445 56.116 168.805 54.9025 169.111 53.154C169.248 52.3515 169.137 51.5685 168.851 50.8835C168.317 52.1557 167.178 52.9908 165.922 52.9908V52.9843Z" fill="#B3B3B3"/>
</g>
<path d="M165.922 63.4886C165.714 63.4886 165.505 63.469 165.291 63.4168C148.321 59.6588 116.941 63.4234 116.622 63.4625C114.839 63.6778 113.231 62.2229 113.036 60.2068C112.84 58.1908 114.136 56.377 115.919 56.1617C117.247 55.9986 148.595 52.2341 166.54 56.2074C168.304 56.5989 169.456 58.5236 169.105 60.5135C168.799 62.262 167.439 63.4756 165.915 63.4756L165.922 63.4886Z" fill="#FF931E"/>
<path d="M137.77 54.5305C137.23 54.5501 136.689 54.5697 136.156 54.5892C135.179 56.1486 133.89 58.6865 133.148 62.0988C133.598 62.0727 134.053 62.0531 134.515 62.027C135.381 58.3538 136.898 55.7832 137.77 54.5305Z" fill="#BF6E17"/>
<path d="M128.527 55.0134C127.974 55.0526 127.44 55.0917 126.913 55.1309C125.93 56.8142 124.752 59.3782 124.107 62.7318C124.544 62.6926 124.999 62.66 125.461 62.6208C126.21 59.0716 127.583 56.4749 128.521 55.02L128.527 55.0134Z" fill="#BF6E17"/>
<path d="M133.175 54.7329C132.628 54.759 132.088 54.7916 131.56 54.8243C130.577 56.4423 129.334 58.9933 128.638 62.3795C129.08 62.3468 129.536 62.3207 129.992 62.2881C130.805 58.6606 132.263 56.0835 133.175 54.7329Z" fill="#BF6E17"/>
<path d="M123.84 55.3723C123.281 55.418 122.747 55.4702 122.233 55.5158C121.256 57.2709 120.143 59.8415 119.564 63.1494C119.981 63.1102 120.43 63.0645 120.924 63.0123C121.595 59.5414 122.877 56.9382 123.84 55.3723Z" fill="#BF6E17"/>
<path d="M117.52 55.9855C116.602 57.7341 115.62 60.1742 115.092 63.2341C115.489 63.4103 115.925 63.5016 116.381 63.482C116.967 60.0894 118.152 57.4862 119.121 55.8159C118.51 55.8812 117.969 55.9334 117.52 55.9855Z" fill="#BF6E17"/>
<path d="M163.793 55.6854C163.338 55.6072 162.869 55.5354 162.4 55.4636C161.476 57.1078 160.435 59.4826 159.823 62.5099C160.259 62.5621 160.695 62.6209 161.118 62.6796C161.762 59.587 162.882 57.2187 163.787 55.6854H163.793Z" fill="#BF6E17"/>
<path d="M166.546 56.2139C166.546 56.2139 166.494 56.2009 166.468 56.1943C165.583 57.9168 164.672 60.2655 164.164 63.1819C164.548 63.2537 164.926 63.332 165.29 63.4168C165.342 63.4299 165.388 63.4233 165.44 63.4364C165.928 60.6374 166.826 58.3735 167.666 56.7293C167.334 56.4879 166.956 56.3053 166.54 56.2139H166.546Z" fill="#BF6E17"/>
<path d="M155.475 54.7329C154.973 54.7003 154.472 54.6676 153.971 54.635C153.021 56.1617 151.797 58.6018 151.048 61.851C151.497 61.864 151.94 61.8836 152.383 61.9032C153.209 58.4779 154.596 56.0312 155.475 54.7264V54.7329Z" fill="#BF6E17"/>
<path d="M159.686 55.1112C159.204 55.059 158.723 55.0069 158.234 54.9612C157.291 56.5401 156.145 58.941 155.455 62.0923C155.898 62.1249 156.334 62.1576 156.77 62.1967C157.518 58.9345 158.781 56.527 159.679 55.1178L159.686 55.1112Z" fill="#BF6E17"/>
<path d="M151.166 54.5047C150.652 54.4851 150.137 54.472 149.623 54.459C148.666 55.9531 147.384 58.4193 146.609 61.7598C147.059 61.7598 147.508 61.7663 147.957 61.7728C148.842 58.217 150.32 55.7182 151.166 54.5047Z" fill="#BF6E17"/>
<path d="M145.197 54.4001C144.233 55.8942 142.925 58.3865 142.144 61.7792C142.593 61.7727 143.049 61.7662 143.498 61.7596C144.403 58.1125 145.939 55.5811 146.772 54.4067C146.245 54.4067 145.724 54.4001 145.197 54.4001Z" fill="#BF6E17"/>
<path d="M142.307 54.4197C141.773 54.4262 141.239 54.4392 140.712 54.4458C139.742 55.9594 138.434 58.4778 137.659 61.8966C138.108 61.8836 138.564 61.864 139.02 61.8509C139.918 58.1712 141.46 55.6136 142.307 54.4197Z" fill="#BF6E17"/>
<g style="mix-blend-mode:multiply" opacity="0.8">
<path d="M165.922 60.3635C165.713 60.3635 165.505 60.3439 165.29 60.2917C148.321 56.5337 116.941 60.2982 116.622 60.3374C115.209 60.507 113.908 59.6262 113.328 58.2561C113.081 58.8498 112.964 59.5153 113.035 60.2134C113.231 62.2294 114.838 63.6844 116.622 63.4691C116.934 63.4299 148.315 59.6654 165.29 63.4234C165.505 63.4691 165.713 63.4952 165.922 63.4952C167.445 63.4952 168.805 62.2816 169.111 60.5331C169.248 59.7306 169.137 58.9477 168.851 58.2626C168.317 59.5349 167.178 60.37 165.922 60.37V60.3635Z" fill="#B3B3B3"/>
</g>
<defs>
<linearGradient id="paint0_linear_3263_15724" x1="196.5" y1="277" x2="96.5165" y2="-9.13216" gradientUnits="userSpaceOnUse">
<stop stop-color="#DAE3FE" stop-opacity="0"/>
<stop offset="1" stop-color="#E9EFFD"/>
</linearGradient>
<linearGradient id="paint1_linear_3263_15724" x1="138.948" y1="190.864" x2="138.948" y2="212.407" gradientUnits="userSpaceOnUse">
<stop stop-color="white"/>
<stop offset="1" stop-color="#D17918"/>
</linearGradient>
<linearGradient id="paint2_linear_3263_15724" x1="342.318" y1="180.066" x2="342.318" y2="201.609" gradientUnits="userSpaceOnUse">
<stop stop-color="white"/>
<stop offset="1" stop-color="#D17918"/>
</linearGradient>
<linearGradient id="paint3_linear_3263_15724" x1="342.318" y1="169.275" x2="342.318" y2="190.818" gradientUnits="userSpaceOnUse">
<stop stop-color="white"/>
<stop offset="1" stop-color="#D17918"/>
</linearGradient>
<linearGradient id="paint4_linear_3263_15724" x1="207.886" y1="170.136" x2="207.886" y2="191.679" gradientUnits="userSpaceOnUse">
<stop stop-color="white"/>
<stop offset="1" stop-color="#D17918"/>
</linearGradient>
<linearGradient id="paint5_linear_3263_15724" x1="207.886" y1="159.344" x2="207.886" y2="180.888" gradientUnits="userSpaceOnUse">
<stop stop-color="white"/>
<stop offset="1" stop-color="#D17918"/>
</linearGradient>
<linearGradient id="paint6_linear_3263_15724" x1="207.886" y1="148.547" x2="207.886" y2="170.09" gradientUnits="userSpaceOnUse">
<stop stop-color="white"/>
<stop offset="1" stop-color="#D17918"/>
</linearGradient>
<linearGradient id="paint7_linear_3263_15724" x1="207.886" y1="137.755" x2="207.886" y2="159.299" gradientUnits="userSpaceOnUse">
<stop stop-color="white"/>
<stop offset="1" stop-color="#D17918"/>
</linearGradient>
<linearGradient id="paint8_linear_3263_15724" x1="207.886" y1="126.964" x2="207.886" y2="148.508" gradientUnits="userSpaceOnUse">
<stop stop-color="white"/>
<stop offset="1" stop-color="#D17918"/>
</linearGradient>
<linearGradient id="paint9_linear_3263_15724" x1="182.579" y1="202.751" x2="182.579" y2="224.295" gradientUnits="userSpaceOnUse">
<stop stop-color="white"/>
<stop offset="1" stop-color="#D17918"/>
</linearGradient>
<linearGradient id="paint10_linear_3263_15724" x1="182.579" y1="191.96" x2="182.579" y2="213.503" gradientUnits="userSpaceOnUse">
<stop stop-color="white"/>
<stop offset="1" stop-color="#D17918"/>
</linearGradient>
<linearGradient id="paint11_linear_3263_15724" x1="182.579" y1="181.169" x2="182.579" y2="202.712" gradientUnits="userSpaceOnUse">
<stop stop-color="white"/>
<stop offset="1" stop-color="#D17918"/>
</linearGradient>
<linearGradient id="paint12_linear_3263_15724" x1="182.579" y1="170.371" x2="182.579" y2="191.914" gradientUnits="userSpaceOnUse">
<stop stop-color="white"/>
<stop offset="1" stop-color="#D17918"/>
</linearGradient>
<linearGradient id="paint13_linear_3263_15724" x1="182.579" y1="159.579" x2="182.579" y2="181.123" gradientUnits="userSpaceOnUse">
<stop stop-color="white"/>
<stop offset="1" stop-color="#D17918"/>
</linearGradient>
<linearGradient id="paint14_linear_3263_15724" x1="101.483" y1="195.659" x2="121.477" y2="203.565" gradientUnits="userSpaceOnUse">
<stop stop-color="white"/>
<stop offset="1" stop-color="#D17918"/>
</linearGradient>
<linearGradient id="paint15_linear_3263_15724" x1="238.586" y1="212.422" x2="218.592" y2="220.327" gradientUnits="userSpaceOnUse">
<stop stop-color="white"/>
<stop offset="1" stop-color="#D17918"/>
</linearGradient>
<clipPath id="clip0_3263_15724">
<rect width="250" height="137" fill="white" transform="translate(8 17)"/>
</clipPath>
</defs>
</svg>
