<?xml version="1.0" standalone="yes"?>
<svg xmlns="http://www.w3.org/2000/svg" width="99" height="61">
<path style="fill:#f6f6f6; stroke:none;" d="M0 0L2 3L3 2L2 0L0 0z"/>
<path style="fill:#b9bbba; stroke:none;" d="M2 0L0 2L0 14C7.37472 26.0224 14.4637 7.28137 10.3465 1.69444C8.81653 -0.381607 4.25573 0.139568 2 0z"/>
<path style="fill:#f6f6f6; stroke:none;" d="M5.66667 0.333332L6.33333 0.666668L5.66667 0.333332M8 0L9 1L8 0M10 0C11.229 5.69849 10.0791 24.2256 1 15L0 15L0 61L1 61C11.386 49.8001 23.6307 59.1434 35 60.8526C55.3655 63.9143 78.386 61 99 61L99 58L41 58L41 54L99 54L99 42L41 42L41 38L99 38L99 17L15 17L15 11L99 11L99 0L94 0L94 6L15 6L15 0L10 0z"/>
<path style="fill:#dd8925; stroke:none;" d="M15 0C15.627 8.0475 23.7586 6 30 6L77 6C83.4694 6 93.3373 8.50503 94 0L15 0z"/>
<path style="fill:#b9bbba; stroke:none;" d="M1 1L2 2L1 1z"/>
<path style="fill:#636b5d; stroke:none;" d="M4 5L7 4L4 5z"/>
<path style="fill:#f6f6f6; stroke:none;" d="M0 4L0 14L1 14L0 4z"/>
<path style="fill:#636b5d; stroke:none;" d="M9 4L10 5L9 4z"/>
<path style="fill:#b9bbba; stroke:none;" d="M15 5L16 6L15 5M93 5L94 6L93 5z"/>
<path style="fill:#636b5d; stroke:none;" d="M9.33333 6.66667L9.66667 7.33333L9.33333 6.66667M2 7L3 8L2 7M4 7L5 8L4 7M7 7L8 8L7 7z"/>
<path style="fill:#f6f6f6; stroke:none;" d="M3 8L3 11L4 11L3 8M5 9L5 10L8 10L5 9M5 11L6 12L5 11z"/>
<path style="fill:#b9bbba; stroke:none;" d="M15 11L16 12L15 11z"/>
<path style="fill:#519416; stroke:none;" d="M99 17L99 11L35 11C31.6907 11 15.6358 8.99064 15.6358 14C15.6358 19.0094 31.6907 17 35 17L99 17z"/>
<path style="fill:#636b5d; stroke:none;" d="M1 13L2 14L1 13M4 13L5 14L4 13M9 13L10 14L9 13z"/>
<path style="fill:#f6f6f6; stroke:none;" d="M6 14L5 16L7 16L6 14M8.33333 14.6667L8.66667 15.3333L8.33333 14.6667z"/>
<path style="fill:#636b5d; stroke:none;" d="M2.66667 16.3333L3.33333 16.6667L2.66667 16.3333z"/>
<path style="fill:#b9bbba; stroke:none;" d="M15 16L16 17L15 16M41 29L41 33L84 33L84 29L41 29M12 31L13 32L12 31z"/>
<path style="fill:#636b5d; stroke:none;" d="M13.044 31.7431C3.56457 35.5526 7.45273 57.6085 18.9815 53.2531C29.5558 49.2583 26.1284 26.4847 13.044 31.7431z"/>
<path style="fill:#b9bbba; stroke:none;" d="M20 31L21 32L20 31M10 32L11 33L10 32M22 32L23 33L22 32M9 33L10 34L9 33M23 33L24 34L23 33M8 35L9 36L8 35M24 35L25 36L24 35M7 38L7 46L8 46L7 38M41 38L41 42L99 42L99 38L41 38M25 39L25 45L26 45L25 39M41 46L41 50L93 50L93 46L41 46M24.3333 47.6667L24.6667 48.3333L24.3333 47.6667M8 48L9 49L8 48M9 50L10 51L9 50M10 51L11 52L10 51M22 51L23 52L22 51M11 52L12 53L11 52M21 52L22 53L21 52M12 53L13 54L12 53M19 53L20 54L19 53M15 54L15 55L18 55L15 54M41 54L41 58L99 58L99 54L41 54M8.66667 55.3333L9.33333 55.6667L8.66667 55.3333z"/>
<path style="fill:#636b5d; stroke:none;" d="M1 61L31 61C26.2545 52.6659 6.4895 54.2435 1 61z"/>
<path style="fill:#b9bbba; stroke:none;" d="M20 55L21 56L20 55M22 55L22 56L25 56L22 55M6 56L7 57L6 56M13 56L14 57L13 56M18.6667 56.3333L19.3333 56.6667L18.6667 56.3333M26 56L27 57L26 56M28 57L29 58L28 57M2 58L3 59L2 58M31 60L32 61L31 60z"/>
</svg>
