<svg width="20" height="20" viewBox="0 0 20 20" fill="none" xmlns="http://www.w3.org/2000/svg">
<path d="M9.99542 19.0002C8.04998 19.0042 6.15548 18.3777 4.5981 17.2155C3.04073 16.0532 1.90366 14.4182 1.35913 12.5565C0.814226 10.6947 0.891179 8.7069 1.57789 6.89225C2.2646 5.07759 3.52406 3.5347 5.16682 2.49515C5.35884 2.38593 5.59373 2.38301 5.78831 2.48748C5.98289 2.59194 6.11004 2.78882 6.12433 3.00871C6.13862 3.22861 6.03859 3.44046 5.8594 3.56904C4.45666 4.46212 3.38225 5.78475 2.79741 7.33787C2.21257 8.89136 2.14881 10.5917 2.61565 12.1842C3.08213 13.7768 4.05467 15.1754 5.38632 16.1708C6.71797 17.1661 8.33764 17.7038 10.002 17.7038C11.6664 17.7038 13.2861 17.1658 14.6177 16.1708C15.9494 15.1754 16.9219 13.7768 17.3884 12.1842C17.8552 10.5917 17.7911 8.89136 17.2063 7.33787C16.6214 5.78475 15.547 4.46212 14.1446 3.56904C13.9655 3.4401 13.865 3.22861 13.8797 3.00871C13.894 2.78882 14.0212 2.59194 14.2157 2.48748C14.4103 2.38301 14.6452 2.38593 14.8372 2.49515C16.4807 3.53507 17.7409 5.07942 18.4272 6.89517C19.1136 8.71091 19.1894 10.7002 18.6431 12.5627C18.0967 14.4252 16.9578 16.0601 15.3982 17.2213C13.8383 18.3825 11.9423 19.0067 9.99579 19.0002H9.99542Z" fill="#EA4047" stroke="#EA4047"/>
<path d="M9.99479 12.0226C9.82476 12.0226 9.66169 11.9501 9.54113 11.821C9.42057 11.6919 9.35352 11.5167 9.35352 11.3337V1.68905C9.35352 1.44301 9.47591 1.21548 9.67415 1.09226C9.8724 0.969049 10.1172 0.969442 10.3154 1.09226C10.5137 1.21508 10.6361 1.44262 10.6361 1.68905V11.3337C10.6361 11.5163 10.5686 11.6915 10.4484 11.821C10.3282 11.9505 10.1652 12.0226 9.99479 12.0226Z" fill="#EA4047" stroke="#EA4047"/>
</svg>
