<svg width="20" height="19" viewBox="0 0 20 19" fill="none" xmlns="http://www.w3.org/2000/svg">
<path d="M9.99542 18.0002C8.04998 18.0042 6.15548 17.3777 4.5981 16.2155C3.04073 15.0532 1.90366 13.4182 1.35913 11.5565C0.814226 9.69468 0.891179 7.7069 1.57789 5.89225C2.2646 4.07759 3.52406 2.5347 5.16682 1.49515C5.35884 1.38593 5.59373 1.38301 5.78831 1.48748C5.98289 1.59194 6.11004 1.78882 6.12433 2.00871C6.13862 2.22861 6.03859 2.44046 5.8594 2.56904C4.45666 3.46212 3.38225 4.78475 2.79741 6.33787C2.21257 7.89136 2.14881 9.59168 2.61565 11.1842C3.08213 12.7768 4.05467 14.1754 5.38632 15.1708C6.71797 16.1661 8.33764 16.7038 10.002 16.7038C11.6664 16.7038 13.2861 16.1658 14.6177 15.1708C15.9494 14.1754 16.9219 12.7768 17.3884 11.1842C17.8552 9.59168 17.7911 7.89136 17.2063 6.33787C16.6214 4.78475 15.547 3.46212 14.1446 2.56904C13.9655 2.4401 13.865 2.22861 13.8797 2.00871C13.894 1.78882 14.0212 1.59194 14.2157 1.48748C14.4103 1.38301 14.6452 1.38593 14.8372 1.49515C16.4807 2.53507 17.7409 4.07942 18.4272 5.89517C19.1136 7.71091 19.1894 9.70016 18.6431 11.5627C18.0967 13.4252 16.9578 15.0601 15.3982 16.2213C13.8383 17.3825 11.9423 18.0067 9.99579 18.0002H9.99542Z" fill="#EA4047" stroke="#EA4047"/>
</svg>
