<svg width="256" height="243" viewBox="0 0 256 243" fill="none" xmlns="http://www.w3.org/2000/svg">
<g clip-path="url(#clip0_1305_11646)">
<path d="M169.147 16.8225C169.147 16.8225 126.335 -0.122881 85.3907 23.792C44.4462 47.7123 24.778 96.9175 7.81313 136.299C-9.15173 175.681 2.30387 216.546 34.5662 235.938C66.8232 255.33 87.7002 228.664 132.228 228.588C176.755 228.512 188.917 235.509 225.194 210.235C261.471 184.961 266.5 123.007 236.105 76.2101C205.704 29.4024 169.147 16.8225 169.147 16.8225Z" fill="#E0E0E0"/>
<path opacity="0.7" d="M169.147 16.8225C169.147 16.8225 126.335 -0.122881 85.3907 23.792C44.4462 47.7123 24.778 96.9175 7.81313 136.299C-9.15173 175.681 2.30387 216.546 34.5662 235.938C66.8232 255.33 87.7002 228.664 132.228 228.588C176.755 228.512 188.917 235.509 225.194 210.235C261.471 184.961 266.5 123.007 236.105 76.2101C205.704 29.4024 169.147 16.8225 169.147 16.8225Z" fill="white"/>
</g>
<g clip-path="url(#clip1_1305_11646)">
<path d="M59.4998 0.261475C82.8123 0.261475 101.737 19.1202 101.737 42.351V193.738H17.2622V42.351C17.2622 19.1202 36.1873 0.261475 59.4998 0.261475Z" stroke="#BDBDBD" stroke-linecap="round" stroke-linejoin="round"/>
<path d="M26.7983 193.283V43.7108C26.7983 25.715 41.4408 11.1238 59.4999 11.1238C77.559 11.1238 92.2015 25.715 92.2015 43.7108V193.283" stroke="#BDBDBD" stroke-linecap="round" stroke-linejoin="round"/>
<path d="M59.5 0.261475V193.508" stroke="#BDBDBD" stroke-linecap="round" stroke-linejoin="round"/>
<path d="M17.7192 37.4873H101.171" stroke="#BDBDBD" stroke-linecap="round" stroke-linejoin="round"/>
<path d="M17.7192 63.7358H101.171" stroke="#BDBDBD" stroke-linecap="round" stroke-linejoin="round"/>
<path d="M17.7192 89.9841H101.171" stroke="#BDBDBD" stroke-linecap="round" stroke-linejoin="round"/>
<path d="M17.7192 116.233H101.171" stroke="#BDBDBD" stroke-linecap="round" stroke-linejoin="round"/>
<path d="M17.7192 142.481H101.171" stroke="#BDBDBD" stroke-linecap="round" stroke-linejoin="round"/>
<path d="M17.7192 168.729H101.171" stroke="#BDBDBD" stroke-linecap="round" stroke-linejoin="round"/>
<path d="M28.8765 13.3987L36.4444 20.2654" stroke="#BDBDBD" stroke-linecap="round" stroke-linejoin="round"/>
<path d="M89.8086 13.3987L82.2407 20.2654" stroke="#BDBDBD" stroke-linecap="round" stroke-linejoin="round"/>
</g>
<g clip-path="url(#clip2_1305_11646)">
<path d="M236.303 10.9214H140.114V148.032H236.303V10.9214Z" fill="#E0E0E0"/>
<path d="M231.486 10.9214H135.297V148.032H231.486V10.9214Z" fill="#F5F5F5"/>
<path d="M219.535 25.7737H147.249V133.188H219.535V25.7737Z" fill="white"/>
<path d="M219.535 133.188C219.535 133.188 219.527 133.009 219.518 132.66C219.518 132.304 219.518 131.801 219.502 131.135C219.502 129.789 219.485 127.81 219.469 125.246C219.452 120.096 219.436 112.6 219.403 103.118C219.378 84.1774 219.337 57.3604 219.288 25.7737L219.527 26.009C197.438 26.009 172.975 26.0252 147.249 26.0333H147.241L147.504 25.7737C147.488 66.2912 147.463 103.653 147.455 133.188L147.249 132.985C169.263 133.034 187.31 133.066 199.863 133.09C206.14 133.115 211.048 133.131 214.396 133.139C216.063 133.147 217.341 133.155 218.215 133.163C219.081 133.163 219.535 133.188 219.535 133.188C219.535 133.188 219.106 133.204 218.257 133.212C217.39 133.212 216.129 133.228 214.479 133.236C211.138 133.244 206.247 133.269 199.987 133.285C187.4 133.309 169.312 133.35 147.241 133.391H147.034V133.188C147.018 103.653 147.001 66.2994 146.985 25.7737V25.5142H147.249H147.257C172.975 25.5142 197.447 25.5304 219.535 25.5385H219.774V25.7737C219.725 57.4171 219.683 84.299 219.659 103.272C219.634 112.722 219.609 120.209 219.593 125.344C219.576 127.891 219.568 129.846 219.568 131.184C219.568 131.833 219.56 132.336 219.551 132.677C219.551 133.009 219.535 133.172 219.535 133.172V133.188Z" fill="#E0E0E0"/>
<path d="M231.75 10.9213C231.808 10.9619 231.156 11.9028 230.035 13.371C228.921 14.8392 227.329 16.8428 225.523 19.0005C223.708 21.1582 222.017 23.0725 220.772 24.4352C219.518 25.798 218.71 26.6092 218.652 26.5605C218.594 26.5118 219.312 25.6195 220.491 24.2C221.778 22.6588 223.37 20.7688 225.119 18.676C226.875 16.5832 228.459 14.6851 229.746 13.152C230.942 11.7406 231.692 10.8807 231.75 10.9213Z" fill="#E0E0E0"/>
<path d="M219.898 132.839C223.486 138.452 227.725 143.668 232.509 148.348L219.898 132.839Z" fill="white"/>
<path d="M232.509 148.348C232.46 148.397 231.602 147.667 230.315 146.385C229.02 145.104 227.313 143.262 225.556 141.113C223.807 138.963 222.356 136.911 221.366 135.386C220.376 133.861 219.84 132.879 219.898 132.847C219.964 132.806 220.607 133.723 221.671 135.183C222.735 136.643 224.22 138.647 225.96 140.788C227.7 142.93 229.358 144.795 230.579 146.134C231.8 147.472 232.559 148.3 232.509 148.348Z" fill="#E0E0E0"/>
<path d="M135.281 147.927C139.479 142.833 143.677 137.738 147.876 132.636L135.281 147.927Z" fill="white"/>
<path d="M147.884 132.636C147.999 132.725 145.269 136.222 141.789 140.44C138.308 144.666 135.396 148.016 135.281 147.927C135.165 147.837 137.896 144.341 141.376 140.123C144.857 135.905 147.768 132.555 147.876 132.644L147.884 132.636Z" fill="#E0E0E0"/>
<path d="M135.297 10.9215C135.413 10.8323 138.151 14.0526 141.409 18.1084C144.675 22.1642 147.224 25.5305 147.117 25.6197C147.001 25.709 144.263 22.4887 141.005 18.4328C137.739 14.377 135.182 11.0107 135.297 10.9215Z" fill="#E0E0E0"/>
<path d="M197.009 47.5859H172.81V115.172H197.009V47.5859Z" fill="#E0E0E0"/>
</g>
<mask id="mask0_1305_11646" style="mask-type:alpha" maskUnits="userSpaceOnUse" x="11" y="4" width="234" height="234">
<circle cx="128" cy="121" r="117" fill="#D9D9D9"/>
</mask>
<g mask="url(#mask0_1305_11646)">
<g clip-path="url(#clip3_1305_11646)">
<path d="M167.197 88.1347C166.235 91.2422 163.653 91.3751 161.051 91.4827C159.653 90.4574 160.444 88.9765 160.305 87.7107C160.134 86.1601 159.507 84.7677 159.02 83.3247C160.862 88.1474 161.469 92.8055 157.102 96.742C156.444 98.0774 155.577 99.0964 153.887 98.8939C153.495 96.2104 155.615 93.3687 153.678 91.4447C155.729 96.2041 153.457 99.0458 149.615 101.577L149.375 103.818C147.014 103.248 147.141 101.071 146.792 99.4255C145.894 95.2168 145.349 90.9637 145.343 86.6221C145.343 84.5019 145.21 82.6096 146.381 80.616C148.476 77.0338 149.121 76.8186 152.406 79.7552C150.128 77.654 149.001 77.0655 144.856 76.6541C141.824 76.3566 138.672 76.1035 135.71 76.6731C126.812 78.3819 118.844 76.4136 111.452 71.4391C109.521 70.1416 107.446 69.1037 105.249 68.3442C101.863 67.1797 100.028 68.2809 99.3256 71.7871C99.1167 72.8188 99.3319 73.901 98.9395 74.9136C98.4965 75.863 97.7244 76.4895 96.8573 77.0275C94.946 78.0338 94.6612 79.7806 94.9713 81.6223C95.7688 86.293 96.2687 90.9891 96.0789 95.7231C95.946 99.0647 95.4017 102.387 95.6928 105.444C95.2181 103.603 95.927 101.463 95.7751 99.3242C95.7308 98.6913 95.832 97.9952 96.5409 97.7483C97.3826 97.4509 97.9396 98.0205 98.3953 98.6154C98.9079 99.2863 99.3129 100.039 99.6357 100.812C101.92 106.204 105.686 110.356 110.37 113.735C111.496 114.552 112.737 115.279 112.471 116.931C112.313 117.9 111.439 118.178 110.61 118.412C108.971 118.874 108.446 117.514 107.635 116.596C107.218 116.121 106.889 115.577 106.572 115.235C107.041 116.336 109.078 117.248 107.737 118.881C106.389 120.526 104.224 121.273 102.313 120.412C99.8193 119.286 97.1611 118.627 94.7055 117.431C90.8132 115.533 89.0158 112.007 88.2627 108.178C86.4906 99.1597 84.478 90.2043 82.4527 81.2425C80.1933 71.2365 82.4021 61.914 87.2627 53.0852C88.7373 50.4018 90.4145 47.8955 92.6549 45.7374C95.9586 42.5476 99.5788 40.7249 104.262 42.1425C105.224 42.1046 106.186 42.0603 107.154 42.0223C109.908 41.0476 112.452 39.5857 115.344 38.9211C124.603 36.7946 132.217 39.8768 138.97 46.0475C143.172 49.8891 146.641 54.408 150.64 58.4332C153.463 61.2748 156.741 63.5722 159.469 66.5152C162.089 69.3442 163.678 72.4897 163.463 76.4262C163.387 77.7933 163.564 79.173 163.431 80.5274C163.096 83.8817 164.102 86.5082 167.203 88.1284L167.197 88.1347Z" fill="#3B3D43"/>
<path d="M178.399 239.37C167.779 239.408 157.159 239.472 146.539 239.484C131.919 239.497 117.306 239.472 102.686 239.459C100.693 237.465 100.996 234.738 100.908 232.396C100.509 221.422 99.7179 210.473 99.066 199.517C98.7116 193.606 98.4395 187.644 97.6167 181.752C97.0281 179.885 97.6673 177.866 96.9395 176.018C96.7813 174.297 95.8952 172.05 97.8635 171.208C99.623 170.455 100.275 172.765 101.3 173.854C103.541 176.227 105.895 178.448 108.926 179.809C112.205 181.277 115.205 183.163 117.762 185.714C123.685 191.695 130.274 196.923 136.805 202.188C142.685 206.929 148.653 211.574 155.026 215.681C158.14 217.688 161.418 219.327 164.709 220.979C167.057 222.156 169.551 222.358 172.102 221.953C173.26 221.763 174.393 221.39 175.266 222.561C176.355 227.453 177.07 232.421 178.437 237.25C178.639 237.959 178.817 238.681 178.405 239.383L178.399 239.37Z" fill="#F18E88"/>
<path d="M178.399 239.371C176.817 233.82 175.589 228.194 174.734 222.479C173.95 221.593 173.88 220.523 173.931 219.422C174.026 218.105 174.703 217.029 175.386 215.973C181.443 206.625 184.019 196.163 185.006 185.246C186.234 171.626 186.993 157.981 186.93 144.298C186.911 140.589 186.348 136.969 185.848 133.323C184.74 125.267 179.772 120.634 172.494 118.071C164.627 115.305 164.627 115.375 158.52 121.134C153.343 126.02 147.577 129.969 140.849 132.507C134.451 134.918 128.097 135.007 121.698 132.76C116.198 130.83 110.964 128.324 106.585 124.419C104.718 122.754 103.047 122.628 100.87 123.533C98.8571 124.374 96.9268 125.602 94.5851 125.412C94.0661 125.222 93.6547 124.95 93.8129 124.286C95.7876 122.507 98.4837 122.109 100.838 120.805C99.6988 119.609 98.2875 119.469 97.0217 119.096C92.6168 117.799 89.408 114.951 88.4334 110.603C85.7879 98.8118 82.0918 87.173 81.0792 75.1164C80.1552 64.1484 84.4715 54.5031 91.3573 46.0477C93.5471 43.3579 96.4015 41.5542 99.9267 41.1428C101.446 40.9656 103.097 40.6175 104.268 42.1428C103.015 43.225 101.661 42.0985 100.332 42.3137C96.4204 42.9402 93.4838 45.0731 91.2624 48.1299C83.6614 58.5726 80.1298 70.0216 83.3702 82.9199C85.2436 90.3691 86.9144 97.8498 88.2498 105.419C89.851 114.533 94.1294 118.438 103.091 119.76C104.61 119.982 105.945 119.14 107.281 118.609C108.477 118.134 107.572 117.393 107.154 116.912C106.021 115.602 104.813 114.356 103.838 112.875C105.983 113.147 107.211 114.704 108.218 116.235C109.547 118.261 110.749 117.837 112.458 116.501C105.597 111.697 100.085 105.932 96.8508 98.1346C96.0724 102.116 95.5597 105.951 97.5217 110.103C95.5217 109.546 95.3888 108.217 95.123 107.122C94.6547 105.16 94.737 103.153 94.9205 101.154C95.4964 95.0398 95.2369 88.9514 94.2053 82.9073C93.8762 80.9896 93.9015 79.1289 94.5851 77.3125C94.8762 76.5404 95.199 75.6227 96.3761 76.2493C97.0343 79.1163 96.0534 82.0845 96.9204 84.9515C97.2179 85.9325 96.9837 87.0654 97.7685 87.9008C98.5533 87.8185 98.6925 87.097 99.0912 86.654C99.7241 85.9515 100.319 84.9895 101.414 85.73C102.332 86.3565 102.167 87.3945 101.933 88.3375C101.566 89.8374 100.654 91.0209 99.4393 91.888C97.9584 92.9449 97.8571 94.1791 98.5153 95.7296C103.021 106.324 110.502 113.925 121.255 118.14C124.477 119.4 127.464 118.704 129.976 116.223C135.147 111.115 138.736 105.21 139.52 97.8182C139.666 96.4511 139.419 94.2993 141.438 94.4639C143.28 94.6157 143.096 96.698 143.008 98.103C142.552 105.375 139.191 111.375 134.426 116.653C132.236 119.077 129.932 121.463 126.489 122.09C123.135 122.697 119.97 122.001 117.021 120.406C114.078 118.811 111.414 119.4 108.407 121.185C112.249 124.773 116.654 126.874 121.192 128.792C127.438 131.437 133.685 131.412 139.951 128.925C146.824 126.203 152.703 122.033 157.786 116.678C159.064 115.33 159.197 114.508 157.241 113.792C149.704 111.014 146.045 105.267 144.97 97.5777C144.558 94.6601 143.963 91.7614 143.944 88.7995C143.944 88.5906 144.001 88.3311 143.906 88.1729C142.02 85.154 142.508 82.4896 144.843 79.8757C145.577 79.053 144.982 78.496 143.767 78.4201C138.039 78.0593 132.331 78.8884 126.609 78.6226C121.508 78.3884 117.008 76.4012 112.692 73.8759C110.414 72.5468 108.116 71.2494 105.673 70.2558C102.427 68.9394 101.711 69.3507 100.686 72.6544C100.338 73.7747 100.617 75.7619 98.3128 74.9392C98.2875 74.3063 98.2242 73.6797 98.2495 73.0532C98.49 67.3951 101.098 65.6104 106.262 67.7812C108.863 68.8761 111.401 70.2178 113.781 71.7367C120.217 75.8379 127.192 76.9201 134.641 75.9708C138.919 75.4265 143.229 74.9898 147.476 76.2239C150.906 77.2239 153.71 79.0023 154.691 82.8756C153.273 81.5466 151.9 80.1605 150.412 78.9011C149.261 77.9264 148.52 77.8441 147.773 79.6669C144.349 88.0274 146.938 95.9005 149.368 103.824C150.938 108.223 154.513 110.375 158.634 111.672C163.146 113.09 167.76 114.178 172.317 115.451C182.576 118.318 187.721 125.229 188.848 135.703C190.209 148.355 188.848 160.93 188.386 173.537C188.012 183.758 187.164 193.91 183.88 203.701C182.127 208.916 179.797 213.846 176.728 218.416C175.867 219.7 175.475 220.871 175.874 222.491C177.146 227.7 178.203 232.959 179.386 238.187C179.601 239.149 180.354 240.333 178.386 239.383L178.399 239.371Z" fill="#4B1511"/>
<path d="M117.046 186.429C115.787 184.828 114.198 183.556 112.401 182.72C106.686 180.062 101.471 176.834 97.7304 171.24V175.309C97.9266 176.081 98.2178 176.86 97.5469 177.556C94.8065 176.752 95.8381 174.138 94.9647 172.271C93.8065 173.721 93.8761 175.265 94.3192 176.885C94.7305 178.391 95.4773 179.841 95.2179 181.48C95.0343 182.106 94.7305 182.625 94.0154 182.746C90.9838 180.562 90.5155 178.752 90.9079 170.588C90.1674 170.24 89.775 170.873 89.2877 171.189C86.4397 173.018 85.0726 172.847 83.3575 170.006C82.4651 168.525 81.3639 167.708 79.731 167.335C77.5286 166.822 75.5286 165.949 74.6236 163.62C74.5223 162.778 73.9211 162.082 73.8958 161.234C73.8641 161.145 73.8768 160.974 73.8198 160.949C69.0921 158.708 68.744 157.133 68.8833 163.791C68.6301 164.202 68.3327 164.506 67.7947 164.253C66.6049 162.759 65.5986 161.215 66.3074 159.151C66.396 158.892 66.396 158.443 66.2315 158.272C62.7189 154.563 64.9087 151.456 67.2378 148.354C66.7694 147.759 66.9846 147.19 67.301 146.627C67.5669 146.304 67.877 146.025 68.1365 145.696C68.82 144.817 70.2946 144.082 69.8389 142.918C69.3453 141.658 67.9846 142.76 67.0162 142.684C66.2631 142.627 65.491 142.614 65.1682 141.798C64.7885 140.823 65.4403 140.209 66.1365 139.709C67.7631 138.545 69.6301 138.291 71.5351 138.614C73.4084 138.931 75.2818 138.905 77.1678 138.886C77.6298 138.937 78.0602 139.089 78.4652 139.323C79.0412 139.81 79.826 140.082 80.0854 140.893C79.9399 142.298 78.6171 142.203 77.7691 142.709C76.9843 142.987 76.1299 143.051 75.402 143.513C74.4401 143.981 73.497 144.475 72.9274 145.449C71.1427 147.791 69.1934 149.994 67.5352 152.424C67.0605 153.114 66.4909 154.025 67.3517 154.671C68.1871 155.304 68.5985 154.247 69.0415 153.772C70.8452 151.835 73.1806 150.551 75.1046 148.766C75.5096 148.468 75.9527 148.285 76.44 148.183C79.6234 148.361 82.8005 148.418 85.9713 148.063C93.161 148.032 99.262 150.823 104.635 155.386C105.471 156.095 106.648 157.088 105.92 158.316C105.11 159.683 103.673 159.114 102.49 158.664C100.914 158.063 99.3886 157.335 97.8317 156.69C93.9647 155.082 90.0598 154.278 85.8131 155.038C82.3955 155.652 78.8703 155.139 75.3957 155.31C74.7185 155.341 73.6869 155.139 73.6553 156.164C73.63 157.114 74.6173 157.095 75.3198 157.246C80.0854 158.253 84.9903 157.734 89.7877 158.544C93.2369 159.126 96.5533 160.139 99.8759 161.151C100.484 161.335 101.059 161.607 101.578 161.981C102.37 162.55 103.205 163.227 102.863 164.291C102.458 165.556 101.268 165.196 100.439 164.93C95.4773 163.322 90.3256 162.968 85.1865 162.474C83.1043 162.278 81.0411 162.05 78.6298 162.582C79.6361 163.968 80.9398 164.012 82.0664 164.221C85.9017 164.942 89.6864 165.904 93.5217 166.575C96.857 167.158 99.5089 168.632 101.401 171.335C105.338 176.948 111.553 179.404 117.065 182.834C118.363 183.644 119.255 182.879 120.141 182.1C123.945 178.752 124.679 172.746 121.837 168.563C119.806 165.569 118.54 162.208 117.293 158.848C116.078 155.588 114.724 152.392 113.217 149.247C111.205 145.07 107.724 142.386 104.072 139.848C102.205 138.551 100.053 138.741 97.9519 138.981C96.3824 139.158 94.8381 139.551 93.2432 139.177C92.585 139 92.0281 138.696 91.7623 138.019C91.7243 137.481 92.0471 137.159 92.4395 136.88C92.9584 136.64 93.4521 136.348 93.9141 136.007C94.5976 133.697 92.5977 132.298 92.0028 130.425C91.5218 128.912 90.1294 127.627 90.9269 125.811C91.4838 124.982 92.2939 125.292 93.047 125.323C94.7432 127.627 95.6799 130.317 96.914 132.855C97.5469 134.165 98.2431 135.197 99.9076 135.222C107.388 135.317 111.515 140.557 115.426 145.785C118.154 149.437 119.211 154 120.825 158.221C122.451 162.48 124.571 166.411 127.4 169.974C127.521 171.613 126.698 173.208 127.179 174.86C126.767 180.17 124.603 184.347 119.521 186.619C118.66 186.91 117.837 186.752 117.021 186.423L117.046 186.429Z" fill="#4B1511"/>
<path d="M74.2377 161.139C74.782 161.696 75.6111 162.088 75.4086 163.094C72.4593 166.259 72.3391 167.347 74.6554 170.695C75.6681 172.164 76.7376 173.594 77.9781 174.879C79.8831 176.841 81.8831 178.505 80.0097 181.86C79.0161 183.644 80.573 185.264 82.6678 185.594C85.769 186.087 88.7119 185.473 91.446 183.923C92.2561 183.461 92.8827 182.676 93.8763 182.53C94.0852 182.094 94.2877 181.663 94.4966 181.227C96.294 181.398 96.4585 182.796 96.7117 184.144C97.1041 186.252 97.1231 188.442 97.9585 190.492C97.4205 187.48 95.6041 184.537 97.8066 181.505C97.9522 181.436 98.104 181.366 98.2496 181.296C99.6546 187.897 99.528 194.65 100.136 201.327C101.186 212.878 100.629 224.516 102.053 236.041C102.193 237.187 102.471 238.313 102.68 239.453C100.382 240.788 101.104 238.446 100.996 237.839C100.155 232.959 100.034 228.004 99.7686 223.067C99.7116 221.966 99.9458 220.795 99.2306 219.523C96.6231 221.782 93.889 223.656 90.5853 224.58C87.8196 225.352 85.4272 224.928 83.2754 222.972C76.225 216.561 74.8896 208.454 76.4022 199.58C77.5224 192.998 77.611 186.397 77.3579 179.765C77.3073 178.429 76.9022 177.391 76.0098 176.385C73.5669 173.626 71.3074 170.765 70.1113 167.157C69.7442 166.05 68.586 165.208 67.7886 164.246C68.0481 163.987 68.3075 163.727 68.567 163.468C70.7695 163.468 71.7631 160.518 74.2251 161.139H74.2377Z" fill="#531A1C"/>
<path d="M94.5853 136.937C94.0473 137.108 93.503 137.285 92.9651 137.456C91.731 136.545 91.0728 135.235 90.4082 133.905C86.7311 126.551 83.1236 119.159 79.3769 111.837C77.4909 108.153 76.8707 107.894 72.8961 108.723C69.2823 109.476 65.7128 110.438 62.2003 111.552C59.2004 112.501 58.9219 113.128 60.232 115.874C62.3142 120.254 64.4977 124.583 66.6938 128.912C67.4659 130.437 68.5735 131.285 70.3519 131.488C73.5986 131.855 76.4213 133.317 78.7061 135.614C80.5541 137.475 80.2946 138.943 78.1744 140.285C77.8896 140.019 77.6048 139.747 77.3264 139.481C73.4088 134.709 69.4216 133.848 64.3394 136.557C62.8015 137.38 62.3458 138.285 63.4724 139.753C64.3521 140.899 64.9154 142.222 66.0989 143.215C67.1811 144.127 68.5735 145.266 67.7634 147.139C67.5925 147.544 67.4216 147.943 67.2571 148.348C65.2824 145.892 63.2635 143.481 61.3522 140.975C58.8143 137.64 59.1054 135.874 62.9851 134.608C66.2318 133.551 66.0039 132.285 64.6053 129.798C61.8775 124.944 59.4092 119.944 56.9156 114.957C54.979 111.083 55.7891 108.546 59.789 107.286C65.4027 105.527 71.143 104.153 76.8517 102.717C79.5921 102.027 81.2313 103.603 82.3578 105.862C85.2185 111.602 88.0918 117.33 90.8829 123.102C91.5664 124.513 92.193 125.469 93.8132 124.279C94.0347 124.52 94.2562 124.754 94.4777 124.994C94.5853 125.868 94.1043 125.899 93.4587 125.71C92.6486 125.621 91.8512 125.602 91.2689 126.323C89.6804 126.431 89.4905 125.045 88.9969 124.089C86.3704 118.925 83.8072 113.729 81.206 108.552C79.2314 104.615 78.4909 104.305 74.2632 105.273C69.9595 106.261 65.7128 107.47 61.4535 108.628C65.871 107.432 70.2696 106.166 74.7378 105.166C77.7757 104.489 79.4276 105.09 80.7566 107.704C85.2881 116.628 89.7374 125.589 94.1992 134.545C94.5726 135.291 95.0346 136.038 94.5853 136.924V136.937Z" fill="#441A21"/>
<path d="M167.197 88.1349C164.361 87.9007 163.241 86.0906 162.956 83.5148C162.912 83.0971 162.823 82.6604 162.893 82.2616C164.393 73.4202 160.507 67.1672 153.665 62.0091C149.9 59.1738 146.837 55.4777 143.773 51.8639C141.109 48.7248 138.198 45.8514 134.812 43.4971C126.831 37.9403 118.483 37.4593 109.781 41.687C108.996 42.0667 108.224 43.5034 107.154 42.0224C114.464 36.3201 126.419 36.1366 134.451 41.6807C136.356 42.9908 138.305 44.3325 139.887 45.9907C146.729 53.1487 153.514 60.3446 160.766 67.1039C163.051 69.2367 164.058 72.2113 164.241 75.3821C164.241 75.4897 164.26 75.591 164.266 75.6986C164.557 80.0022 162.988 84.7552 167.197 88.1349Z" fill="#471E1C"/>
<path d="M171.69 94.0968C173.032 94.8309 174.361 94.5968 175.418 96.0081C170.298 98.3878 165.285 100.666 160.058 102.451C159.912 102.141 159.767 101.837 159.621 101.527C163.627 99.7675 167.627 98.008 171.665 96.2359C170.855 94.8562 169.114 95.5967 167.931 93.812C171.874 92.2867 175.671 90.8184 179.469 89.3501C179.595 89.6286 179.715 89.907 179.842 90.1855C177.583 92.1095 174.342 92.2044 171.69 94.0968Z" fill="#41212A"/>
<path d="M178.633 105.501C176.298 106.583 174.658 104.976 172.772 105.482C173.893 107.102 173.753 107.989 171.545 107.463C168.336 106.697 164.962 106.609 161.855 105.413C161.887 105.14 161.925 104.868 161.956 104.596C164.709 104.982 167.462 105.368 170.222 105.754C169.5 103.198 169.557 103.071 172.07 103.666C174.108 104.147 176.323 104.191 178.633 105.508V105.501Z" fill="#431D2A"/>
<path d="M157.102 96.7357C156.995 96.5649 156.754 96.2674 156.792 96.2358C161.634 91.2486 159.754 86.1222 157.159 80.9704C157.09 80.8375 157.241 80.5907 157.292 80.3882C159.931 81.8945 160.893 84.7298 161.058 91.4828C160.476 93.7865 159.716 95.9573 157.102 96.7357Z" fill="#542114"/>
<path d="M149.621 101.577C153.918 97.5205 155.235 93.0586 150.469 87.3879C154.785 89.5461 155.785 94.1282 153.887 98.8939C152.532 99.8939 151.741 101.793 149.621 101.577Z" fill="#57261D"/>
<path d="M98.3066 74.9328C100.326 74.8253 99.4079 73.224 99.5408 72.2937C100.104 68.3381 101.661 67.2495 105.338 68.7811C107.952 69.8697 110.534 71.1482 112.901 72.6924C119.198 76.7935 126.04 77.9011 133.432 77.5087C136.021 77.3695 139.229 74.667 141.52 78.4644C141.736 78.8251 142.134 77.9201 142.419 77.5404C143.615 75.9455 145.198 76.8252 146.368 77.3378C147.811 77.9707 146.546 79.1542 146.273 80.0339C146.065 80.7111 145.577 81.3314 145.134 81.9073C143.805 83.6351 143.868 83.5781 144.78 85.154C145.115 85.7363 145.001 86.597 145.033 87.3312C145.229 91.2298 145.615 95.1031 146.33 98.9447C147.659 106.122 151.564 110.989 158.684 113.09C159.577 113.356 160.457 113.678 161.836 114.14C153.583 123.083 144.78 130.456 132.476 131.963C124.932 132.887 111.186 126.735 106.199 120.545C110.287 119.007 113.825 117.058 118.597 119.71C124.502 122.995 128.331 121.843 132.951 116.786C138.641 110.565 142.463 103.489 142.027 94.6094C140.331 94.8816 140.856 96.103 140.805 96.8878C140.255 105.267 136.204 111.843 130.318 117.501C127.597 120.121 124.483 120.716 121.002 119.349C112.294 115.919 105.363 110.349 100.623 102.198C99.7243 100.654 99.0598 98.97 98.1358 97.4384C96.5978 94.8942 95.0916 92.6601 99.1421 90.7361C100.883 89.9134 101.572 87.7236 101.193 85.0148C99.4395 87.04 99.718 90.1729 96.446 90.6159C96.4333 85.7996 93.9587 81.0909 96.3637 76.2303C97.0092 75.7936 97.6611 75.3569 98.3066 74.9139V74.9328Z" fill="#FEE4CE"/>
<path d="M109.503 51.4779C99.2687 52.3323 95.1612 57.9271 96.0979 67.7749C93.6993 64.5914 94.4777 59.4017 97.5726 55.4398C100.591 51.5792 105.414 49.7754 109.496 51.4779H109.503Z" fill="#582212"/>
<path d="M117.046 186.429C117.787 186.208 118.521 185.986 119.262 185.758C124.312 189.404 128.768 193.758 133.609 197.657C142.071 204.46 150.45 211.378 159.804 216.972C160.437 217.352 161.07 217.738 161.722 218.08C165.925 220.264 170.203 221.662 174.823 219.257C174.791 220.333 174.766 221.409 174.734 222.479C168.741 224.434 163.652 221.998 158.729 219.061C145.83 211.365 134.521 201.581 123.128 191.91C121.046 190.144 119.072 188.258 117.046 186.429Z" fill="#61100E"/>
<path d="M97.0471 177.474C97.6863 176.885 97.6167 176.069 97.7306 175.309C98.5597 177.246 98.2749 179.284 98.2495 181.296L98.3002 181.246C95.8446 180.891 95.5977 180.157 97.0471 177.474Z" fill="#531A1C"/>
<path d="M174.823 219.257C172.76 222.403 169.868 222.358 166.735 221.346C161.241 219.567 156.507 216.378 151.849 213.105C140.793 205.346 130.534 196.581 120.319 187.771C119.73 187.265 118.781 186.859 119.262 185.758C123.781 183.613 125.483 179.657 126.154 175.037C126.325 174.765 126.407 174.474 126.432 174.151C126.673 170.898 126.888 170.695 129.679 172.17C138.711 176.923 147.957 181.22 157.305 185.309C162.197 187.448 167.064 189.663 171.203 191.473C169.096 190.347 166.102 189.163 163.127 187.973C161.146 187.182 160.653 185.98 160.969 184.075C162.178 176.727 162.248 169.284 162.881 161.892C163.507 154.519 163.52 147.076 165.286 139.817C165.634 138.386 166.184 137.07 166.646 135.962C164.931 139.038 164.494 142.734 164.159 146.342C163.254 155.917 162.684 165.531 162.058 175.132C161.855 178.208 161.931 181.41 160.963 184.461C160.507 185.897 159.893 186.461 158.482 185.841C148.084 181.277 137.755 176.55 127.774 171.107C127.287 170.841 127.072 170.335 126.749 169.93C123.591 167.822 122.205 164.525 120.888 161.183C119.736 158.246 118.502 155.342 117.452 152.367C115.604 147.158 112.484 142.975 108.148 139.526C105.56 137.469 103.009 135.912 99.5662 136.494C98.8764 136.614 97.908 136.899 97.5156 136.14C95.9081 132.988 93.8892 130.02 93.0411 126.526C92.9841 126.304 93.3196 125.982 93.4715 125.71C93.8132 125.469 94.1487 125.235 94.4904 124.994C95.2499 124.653 96.041 124.349 96.7752 123.95C101.224 121.532 105.11 120.431 109.458 124.988C112.895 128.589 117.996 130.266 122.806 131.906C133.692 135.627 142.812 131.399 151.47 125.437C155.292 122.805 158.659 119.583 161.741 116.115C162.988 114.716 164.165 114.533 165.868 114.944C182.886 119.026 187.785 124.52 188.025 142.032C188.279 160.341 187.873 178.67 184.443 196.764C182.893 204.947 179.304 212.302 174.83 219.251L174.823 219.257Z" fill="#F18E88"/>
<path d="M93.4521 138.329C94.2939 138.31 95.1799 138.45 95.971 138.241C105.148 135.779 109.8 141.829 113.989 148.145C116.78 152.354 117.831 157.462 119.863 162.082C121.084 164.86 121.989 167.847 124.59 169.784C124.755 169.911 124.919 170.062 125.021 170.24C126.957 173.524 122.407 183.91 118.641 184.904C117.875 185.106 117.413 184.784 116.964 184.366C114.439 182.049 111.293 180.777 108.344 179.17C105.059 177.379 102.287 174.986 100.287 171.778C98.8 169.398 96.7431 168.214 93.8762 167.784C88.9966 167.05 84.1866 165.86 79.3576 164.809C78.0159 164.518 76.3451 164.056 76.6235 162.36C76.902 160.62 78.6741 160.791 80.0095 160.936C87.5662 161.772 95.3318 161.278 103.218 165.031C101.68 162.278 99.5975 162.259 97.8823 161.645C90.8256 159.113 83.4081 159.17 76.0729 158.639C75.1363 158.569 74.1426 158.569 73.2945 158.234C72.0098 157.721 71.3262 156.601 71.5541 155.196C71.7883 153.753 73.0857 153.873 74.073 153.917C79.6614 154.158 85.2245 153.728 90.8003 153.601C94.6863 153.512 98.0532 155.55 101.547 156.987C102.908 157.55 104.167 158.639 106.249 158.253C100.54 152.449 93.9331 149.582 86.2625 148.981C84.56 147.595 83.7372 146.089 85.5979 144.209C92.5534 143.627 99.4836 143.171 104.901 147.652C100.692 143.26 94.6673 143.987 88.8067 143.93C87.7181 143.918 86.1612 144.487 85.6739 143.171C85.1043 141.62 86.6485 140.867 87.6358 139.95C89.3193 138.38 91.3446 138.247 93.4584 138.336L93.4521 138.329Z" fill="#FEE4CE"/>
<path d="M78.1743 140.291C79.5034 139.045 79.6426 137.64 78.2249 136.507C75.5162 134.348 72.8011 131.994 68.9657 132.5C67.7822 132.659 67.2379 132.298 66.7506 131.336C63.9912 125.893 61.2192 120.45 58.4028 115.039C57.2826 112.893 57.9724 111.723 60.1559 111.014C65.0671 109.419 70.0796 108.197 75.0984 107.02C76.9655 106.584 78.2376 107.356 79.016 108.894C83.7058 118.191 88.3449 127.513 92.9839 136.836C93.0662 137 92.9776 137.253 92.9713 137.462C92.6359 137.532 92.2941 137.608 91.9587 137.677C89.7752 139.253 87.3702 140.469 85.2753 142.247C83.1298 144.07 81.5349 141.987 79.9401 140.766C79.3515 140.608 78.7629 140.45 78.1743 140.291Z" fill="#B3B3B5"/>
<path d="M93.8765 182.531C93.8512 184.075 92.6487 184.67 91.5474 185.233C88.5539 186.758 85.3324 187.22 82.0351 186.689C79.3769 186.265 77.6175 182.828 78.6808 180.41C79.5731 178.379 79.5668 178.385 77.8517 176.518C75.7821 174.265 73.8645 171.892 72.3961 169.196C71.1114 166.841 72.105 163.632 74.453 162.468C74.6239 162.379 75.0859 162.867 75.4087 163.088C76.2378 166.278 79.1744 165.999 81.4655 166.601C82.8958 166.98 83.9844 167.158 84.016 169.018C84.035 170.196 84.8451 171.24 86.0666 171.556C87.383 171.898 88.3513 171.037 88.9019 170.025C89.75 168.449 91.0538 168.246 92.3069 168.961C93.7246 169.771 92.6233 171.094 92.174 171.904C89.9336 175.955 92.8955 179.069 93.8891 182.531H93.8765Z" fill="#FCE3CF"/>
<path d="M126.736 169.93C136.894 175.29 147.254 180.22 157.76 184.866C159.76 185.752 160.482 185.549 160.634 183.29C161.33 173.195 162.121 163.113 162.874 153.019C163.222 148.392 163.602 143.766 164.76 139.26C165.463 136.532 166.412 133.88 168.678 131.906C168.905 132.203 169.152 132.437 169.121 132.494C165.532 138.121 164.893 144.513 164.336 150.918C163.355 162.259 163.165 173.657 161.621 184.948C161.399 186.575 162.368 186.91 163.45 187.385C166.83 188.859 170.31 190.112 173.469 192.055C174.526 192.701 175.658 193.328 175.956 194.878C159.912 186.404 142.837 180.493 127.027 171.417C126.679 172.873 126.413 173.955 126.154 175.043C125.938 173.29 126.242 171.6 126.736 169.93Z" fill="#60100E"/>
<path d="M67.7631 147.139C65.8455 144.639 63.9721 142.102 61.9848 139.659C60.6241 137.981 60.9595 136.956 62.8139 135.981C68.4656 133.013 72.2187 133.165 76.497 136.709C77.3704 137.431 78.5223 138.121 77.3198 139.481C75.4084 140.475 73.4338 140.095 71.4782 139.697C69.0352 139.197 67.029 139.912 65.124 141.804C66.7821 142.564 67.6365 141.247 68.7251 140.931C70.1491 140.519 70.782 141.234 71.5794 142.19C72.5857 143.393 71.5984 143.937 70.9402 144.424C69.8137 145.26 69.5226 147.07 67.7631 147.139Z" fill="#F9E2CE"/>
<path d="M94.5853 136.937C90.0664 127.918 85.5539 118.9 81.0224 109.887C78.8516 105.565 77.6744 105.001 73.029 106.147C68.0608 107.375 63.08 108.571 57.7637 110.489C58.8965 108.647 60.3395 108.362 61.6749 108.001C66.3393 106.735 71.048 105.628 75.6808 104.248C78.5731 103.387 80.2313 104.362 81.4907 106.938C84.6868 113.431 88.0032 119.868 91.2689 126.33C92.617 129.159 93.984 131.975 95.3068 134.817C95.7245 135.709 96.6232 136.848 94.5853 136.943V136.937Z" fill="#BDADA9"/>
<path d="M79.9339 140.76C83.5477 141.272 85.1047 140.924 88.7754 138.81C89.7627 138.241 90.7754 137.709 91.9525 137.671C92.4525 137.886 92.9525 138.108 93.4525 138.323C90.5032 139.395 87.8767 141.006 85.573 143.158C89.9969 143.158 93.7753 143.222 97.5473 143.127C99.1548 143.089 100.794 142.88 102.041 144.063C104.237 146.139 106.344 148.31 109.743 148.456C107.066 149.81 104.8 148.532 102.75 147.462C97.6169 144.785 92.231 143.899 86.5413 144.399C86.2312 144.424 85.9211 144.5 85.611 144.557C83.9148 146.247 81.7377 145.728 79.7441 145.677C77.3517 145.614 75.7569 146.057 76.2379 148.93C75.9594 149.209 75.6809 149.487 75.4024 149.766C72.4405 148.968 72.0481 148.31 72.3646 144.646C72.8456 143.437 73.9405 143.076 75.0417 142.728C76.4467 142.69 77.8454 142.633 79.2504 142.665C78.5542 142.595 77.7505 142.772 77.4087 141.874C78.2505 141.5 79.0922 141.127 79.9403 140.747L79.9339 140.76Z" fill="#441A21"/>
<path d="M97.0469 177.474C97.4773 178.727 96.028 180.607 98.3001 181.246C96.8571 184.518 98.1482 187.86 98.0849 191.638C96.3951 188.011 96.2432 184.341 94.4964 181.227C93.3319 177.708 91.6041 174.221 94.0027 170.518C94.2749 170.101 94.3129 169.404 94.9014 169.385C95.6672 169.36 95.9331 170.025 96.028 170.664C96.3824 172.93 96.7052 175.202 97.0406 177.474H97.0469Z" fill="#EE8E8C"/>
<path d="M72.3641 144.652C73.4211 146.335 73.1363 148.81 75.402 149.772C73.3767 151.55 71.3831 153.373 69.3009 155.088C68.5541 155.702 68.1744 157.639 66.8516 156.557C65.5669 155.506 64.8454 153.822 66.2188 152.133C67.7947 150.19 69.3895 148.259 70.9781 146.323C71.4338 145.766 71.9021 145.209 72.3641 144.652Z" fill="#F7DFCE"/>
<path d="M76.2375 148.943C75.3324 147.899 73.6679 147.07 74.516 145.373C75.2818 143.836 76.9083 144.589 78.1804 144.57C80.6551 144.532 83.136 144.57 85.6106 144.57C84.9018 146.177 86.0473 147.506 86.2625 148.975C82.9208 149.728 79.5728 149.886 76.2375 148.943Z" fill="#EDD7C8"/>
<path d="M74.2375 161.139C73.0793 161.531 72.2186 162.405 71.7376 163.392C70.6301 165.67 69.6554 164.531 68.5858 163.468C66.5922 160.803 67.4466 158.639 70.0921 156.481C71.1807 158.683 72.7502 160.367 75.6299 160.177C75.1679 160.493 74.6995 160.816 74.2375 161.132V161.139Z" fill="#F6DECD"/>
<path d="M74.9277 152.43C77.0542 150.259 84.3451 150.152 87.3957 152.215C83.13 152.867 79.1554 152.829 74.9277 152.43Z" fill="#FBE7D5"/>
<path d="M77.4085 141.886C78.9654 142.006 80.6616 141.494 81.978 143.019C79.649 143.152 77.3326 143.741 75.0479 142.741C75.839 142.456 76.6237 142.171 77.4149 141.886H77.4085Z" fill="#E6CABE"/>
<path d="M88.4333 168.328C88.1549 169.221 87.6486 169.961 86.8258 170.195C85.6866 170.518 85.4651 169.493 85.2056 168.733C84.9778 168.075 85.136 167.322 85.9777 167.417C86.8258 167.512 87.8637 167.411 88.4397 168.328H88.4333Z" fill="#E7C5BC"/>
<path d="M93.7308 151.664C95.6358 152.139 97.351 152.981 98.8319 154.411C96.5092 153.696 94.1928 152.981 91.8701 152.266C92.2878 151.43 93.1802 152.082 93.7371 151.664H93.7308Z" fill="#956466"/>
<path d="M93.7306 151.664C93.2559 152.316 92.4774 152.038 91.8635 152.266C90.8129 152.145 89.5535 152.614 88.8193 150.956C90.6357 150.462 92.1673 151.221 93.7306 151.658V151.664Z" fill="#C2ABAE"/>
<path d="M99.4206 210.327C99.7117 218.238 95.4018 223.01 88.6931 223.637C86.5793 223.833 85.0477 222.858 83.6616 221.498C77.8327 215.757 76.4024 208.682 77.5416 200.884C78.1049 197.03 78.7567 193.188 78.7188 189.29C78.6998 187.448 79.301 187.265 80.9465 187.714C85.0983 188.834 89.1488 188.182 92.8069 186.037C94.56 185.005 94.8005 185.606 95.2182 187.119C97.4523 195.138 99.351 203.207 99.4206 210.327Z" fill="#F18E88"/>
<path d="M115.819 88.9639C118.648 88.2107 120.844 86.5842 123.205 85.0146C122.812 86.7045 122.129 88.1095 122.021 89.8056C121.901 91.698 120.217 92.3942 118.616 90.9701C117.762 90.2107 116.844 89.6854 115.819 88.9639Z" fill="#54221E"/>
<path d="M116.319 103.096C112.331 103.653 110.673 102.172 111.338 98.5205C111.604 97.0395 111.154 95.894 110.369 94.6915C109.781 93.7865 108.496 93.2991 108.572 91.9194C111.148 92.6852 113.369 95.394 112.711 97.8433C111.888 100.894 113.015 101.919 115.73 102.21C115.952 102.236 116.154 102.577 116.331 102.792C116.382 102.849 116.325 102.995 116.319 103.103V103.096Z" fill="#522A21"/>
<path d="M99.5977 96.3498C101.787 95.7675 103.762 95.0207 106.23 93.2043C105.148 95.5207 107.028 97.7928 104.87 98.8244C102.534 99.9383 101.781 96.5333 99.5977 96.3498Z" fill="#54211D"/>
<path d="M116.059 112.242C117.42 107.4 123.268 105.077 127.527 107.634C122.863 107.172 118.882 108.305 116.059 112.242Z" fill="#4A2619"/>
<path d="M108.389 80.5907C112.547 80.7995 115.876 80.5337 119.376 78.1477C117.496 81.8185 112.344 82.9134 108.389 80.5907Z" fill="#563024"/>
</g>
</g>
<defs>
<clipPath id="clip0_1305_11646">
<rect width="256" height="232" fill="white" transform="translate(0 11)"/>
</clipPath>
<clipPath id="clip1_1305_11646">
<rect width="85" height="194" fill="white" transform="translate(17)"/>
</clipPath>
<clipPath id="clip2_1305_11646">
<rect width="101.022" height="137.427" fill="white" transform="translate(135.281 10.9214)"/>
</clipPath>
<clipPath id="clip3_1305_11646">
<rect width="133.534" height="202.221" fill="white" transform="translate(55.9092 37.6365)"/>
</clipPath>
</defs>
</svg>
