<svg width="9" height="11" viewBox="0 0 9 11" fill="none" xmlns="http://www.w3.org/2000/svg">
<path d="M4.5 2.2V0L1.6875 2.75L4.5 5.5V3.3C5.39511 3.3 6.25355 3.64768 6.88649 4.26655C7.51942 4.88542 7.875 5.72479 7.875 6.6C7.875 7.47521 7.51942 8.31458 6.88649 8.93345C6.25355 9.55232 5.39511 9.9 4.5 9.9C3.60489 9.9 2.74645 9.55232 2.11351 8.93345C1.48058 8.31458 1.125 7.47521 1.125 6.6H0C0 7.76695 0.474106 8.88611 1.31802 9.71127C2.16193 10.5364 3.30653 11 4.5 11C5.69347 11 6.83807 10.5364 7.68198 9.71127C8.52589 8.88611 9 7.76695 9 6.6C9 5.43305 8.52589 4.31389 7.68198 3.48873C6.83807 2.66357 5.69347 2.2 4.5 2.2Z" fill="#003874"/>
</svg>
