<svg width="338" height="329" viewBox="0 0 338 329" fill="none" xmlns="http://www.w3.org/2000/svg">
<path d="M105 26.7739C132.975 26.7739 155.685 49.4238 155.685 77.3248V259.146H54.3149V77.3248C54.3149 49.4238 77.025 26.7739 105 26.7739Z" stroke="#BDBDBD" stroke-linecap="round" stroke-linejoin="round"/>
<path d="M65.7583 258.599V78.9578C65.7583 57.3443 83.3293 39.8198 105 39.8198C126.671 39.8198 144.242 57.3443 144.242 78.9578V258.599" stroke="#BDBDBD" stroke-linecap="round" stroke-linejoin="round"/>
<path d="M105 26.7739V258.869" stroke="#BDBDBD" stroke-linecap="round" stroke-linejoin="round"/>
<path d="M54.8628 71.4834H155.005" stroke="#BDBDBD" stroke-linecap="round" stroke-linejoin="round"/>
<path d="M54.8628 103.008H155.005" stroke="#BDBDBD" stroke-linecap="round" stroke-linejoin="round"/>
<path d="M54.8628 134.534H155.005" stroke="#BDBDBD" stroke-linecap="round" stroke-linejoin="round"/>
<path d="M54.8628 166.059H155.005" stroke="#BDBDBD" stroke-linecap="round" stroke-linejoin="round"/>
<path d="M54.8628 197.584H155.005" stroke="#BDBDBD" stroke-linecap="round" stroke-linejoin="round"/>
<path d="M54.8628 229.109H155.005" stroke="#BDBDBD" stroke-linecap="round" stroke-linejoin="round"/>
<path d="M68.252 42.5522L77.3335 50.7994" stroke="#BDBDBD" stroke-linecap="round" stroke-linejoin="round"/>
<path d="M141.37 42.5522L132.289 50.7994" stroke="#BDBDBD" stroke-linecap="round" stroke-linejoin="round"/>
<path opacity="0.7" d="M188.462 280.451C188.462 280.451 234.011 273.72 257.512 232.537C281.011 191.349 273.442 138.902 268.443 96.3141C263.444 53.7262 233.091 24.0633 195.455 23.4007C157.823 22.7354 153.076 56.2671 114.553 78.5967C76.0287 100.926 61.9974 100.948 43.2176 140.975C24.4378 181.001 51.0594 237.169 100.781 262.499C150.513 287.835 188.462 280.451 188.462 280.451Z" fill="#E5E7FA"/>
<path d="M208.854 274.46C208.009 273.95 207.074 274.002 206.14 274.002C181.182 274.002 156.225 274.002 131.267 274.002C130.333 274.002 129.394 273.95 128.543 274.441C128.09 271.762 128.576 269.096 128.744 266.435C129.155 259.907 129.174 253.392 128.721 246.868C128.455 243 128.118 239.147 127.651 235.298C127.025 230.144 126.226 225.014 125.479 219.875C124.596 213.786 123.839 207.64 124.437 201.533C124.96 196.159 125.974 190.819 126.488 185.426C126.866 181.475 126.684 177.528 126.633 175.213C126.852 177.406 126.848 181.25 126.53 185.066C126.142 189.696 125.511 194.303 124.829 198.9C124.698 199.793 124.549 200.546 123.694 201.037C114.738 206.186 106.286 212.242 96.606 216.068C93.2935 217.377 89.9391 218.626 86.3463 218.986C83.4217 219.281 81.0203 218.336 79.1936 215.965C75.6756 211.396 73.7881 206.247 73.419 200.49C72.8444 191.473 73.8535 182.518 74.2927 173.538C74.4656 170.05 74.4842 166.556 74.7926 163.067C74.9841 160.869 75.3018 158.76 76.2502 156.763C76.8436 156.109 77.7079 155.575 77.9555 156.796C78.5862 159.883 81.0577 160.846 83.417 161.982C84.9541 162.721 86.6173 163.138 88.2291 163.675C85.3699 162.679 82.4453 161.903 79.9411 160.009C78.1144 158.629 77.7032 156.773 78.063 154.869C78.376 153.218 78.6329 151.535 79.0394 149.893C79.4599 148.205 80.1467 147.948 81.5996 149.257C84.4729 151.843 87.9348 153.073 91.5836 153.971C92.7609 154.261 94.1205 153.742 95.125 154.776C95.5875 156.174 94.4755 157.39 94.6718 158.756C94.4896 159.373 94.4008 160.004 94.8493 160.533C96.5359 162.502 96.5359 164.924 96.8069 167.309C97.1993 170.765 97.6291 174.221 97.9795 177.682C98.6429 184.225 99.9137 190.725 99.5633 197.342C99.4465 199.541 98.3112 201.481 97.9235 202.894C99.6895 198.75 100.119 194.625 99.3064 189.434C98.8859 186.759 98.7597 184.047 98.3579 181.367C98.2552 180.68 98.4701 180.156 98.9233 179.679C104.403 173.861 109.402 167.58 115.429 162.277C117.578 160.388 120.101 159.228 122.699 158.19C131.066 154.851 139.831 152.826 148.479 150.426C149.932 150.024 150.675 150.618 149.955 151.886C147.255 156.632 150.287 159.597 153.239 162.361C156.58 165.485 160.299 168.188 164.195 170.62C168.022 173.01 169.568 172.935 172.764 169.675C177.006 165.35 180.122 160.275 182.145 154.556C182.813 152.671 182.729 150.894 181.281 149.337C180.612 148.621 180.173 147.817 180.673 146.802C181.187 146.194 181.907 145.988 182.635 145.801C186.116 145.259 189.312 143.762 192.647 142.733C195.315 141.91 197.95 140.984 200.697 140.418C206.822 139.151 211.667 135.405 216.675 132.001C218.857 130.518 220.969 128.923 222.964 127.188C224.08 126.216 224.973 126.646 225.099 127.955C225.365 130.7 226.898 132.707 228.21 134.199C224.468 130.958 224.828 125.687 223.865 120.903C222.749 115.356 222.071 109.73 221.179 104.142C220.576 100.377 220.399 96.5703 220.59 92.7589C220.703 90.5235 221.128 90.3083 223.216 91.0519C224.188 91.398 225.262 91.3653 226.22 91.1595C228.869 90.603 231.541 90.0371 233.373 88.6154C231.037 90.0745 228.061 91.0332 224.809 91.2296C222.978 91.3419 222.113 90.3504 221.595 88.8165C221.469 88.4517 221.478 88.0495 221.361 87.6754C220.371 84.5327 221.422 82.2988 224.515 80.9738C227.327 79.7625 229.888 78.2052 231.967 75.8809C233.42 74.2581 233.976 74.3984 234.877 76.4468C235.41 77.658 235.877 78.8927 236.48 80.0759C237.045 81.1936 237.648 82.1663 238.918 82.7462C240.521 83.4804 241.105 85.1781 241.535 86.7307C244.165 96.2102 246.422 105.788 248.547 115.394C249.58 120.07 250.57 124.756 251.182 129.522C252.173 137.238 250.855 144.043 245.17 149.926C239.087 156.221 232.275 161.604 225.468 167.019C221.212 170.405 216.918 173.744 212.886 177.401C212.256 177.972 211.588 179.3 210.536 177.799C210.7 176.358 210.807 174.918 210.803 173.987C210.214 181.872 211.125 190.178 212.424 198.456C213.297 204.03 212.882 209.572 212.34 215.151C211.583 222.952 210.205 230.663 209.275 238.436C208.168 247.677 208.513 256.923 208.453 266.169C208.434 268.928 209.21 271.668 208.859 274.456L208.854 274.46Z" fill="#6FCF97"/>
<path d="M142.139 143.089C140.695 142.219 139.368 140.811 137.471 142.111C136.444 140.058 135.061 138.216 133.145 137.014C126.763 133.015 127.212 126.613 129.282 120.688C129.996 118.635 130.991 116.689 131.846 114.692C134.323 108.893 135.439 102.669 137.513 96.7433C139.831 90.1119 142.966 84.0556 148.82 79.7484C152.973 76.6946 157.528 74.693 162.607 73.9588C164.966 73.6174 167.241 74.1552 169.33 75.3524C169.928 75.6938 170.446 76.2222 171.194 76.2643C172.221 77.7188 173.801 77.5832 175.296 77.6954C175.38 78.4998 175.992 78.1443 176.351 78.1116C183.065 77.5177 187.261 81.245 190.61 86.4126C193.591 91.0144 194.689 96.2803 195.749 101.528C197.02 107.822 199.123 113.79 202.346 119.346C203.444 121.24 204.224 123.269 204.897 125.336C206.336 129.76 204.257 133.184 201.557 136.364C200.604 137.486 199.707 138.459 199.412 140.086C199.099 141.789 197.301 141.386 195.969 141.401C195.721 141.148 195.684 140.844 195.885 140.568C198.917 136.406 198.184 132.314 195.665 128.245C198.123 132.253 198.931 136.303 195.946 140.428C195.679 140.797 195.754 141.148 195.918 141.517C195.007 142.27 194.021 142.916 192.806 142.378C192.021 142.032 191.923 140.76 192.236 137.977C192.007 139.114 191.975 140.273 192.18 141.396C192.339 142.266 192.348 142.948 191.451 143.337C190.442 143.772 189.681 143.407 189.008 142.593C188.172 141.583 188.078 140.428 188.466 139.301C188.807 138.305 188.802 137.327 188.812 136.326C188.802 140.11 187.69 143.276 183.962 144.983C182.883 145.595 181.724 145.839 180.491 145.736C178.636 145.039 179.197 143.701 179.683 142.457C180.229 141.059 181.458 140.114 182.233 138.856C183.999 135.976 185.069 132.814 185.864 129.564C186.298 127.782 187.008 126.412 188.942 125.874C190.096 125.551 190.76 124.471 191.61 123.681C193.189 122.212 193.231 122.259 193.278 119.949C193.329 117.138 192.605 116.077 189.825 115.239C188.625 114.879 188.139 114.192 187.826 112.99C186.845 109.244 185.892 105.475 183.99 102.047C185.448 104.787 186.406 107.715 187.19 110.703C187.863 113.252 188.639 115.768 189.69 118.19C189.961 118.817 190.377 119.593 189.676 120.112C188.994 120.613 188.27 120.056 187.807 119.603C186.088 117.91 184.64 116.006 183.486 113.86C181.71 110.563 180.678 106.943 178.879 103.66C177.454 101.06 175.482 99.25 172.492 98.7215C171.609 98.4316 170.726 98.151 169.937 97.6459C169.063 97.0707 168.647 96.1073 167.97 95.359C165.961 93.1376 163.686 93.0441 161.429 95.0036C158.986 97.1221 157.598 99.9421 156.5 102.837C153.963 109.525 149.74 114.79 144.096 119.107C141.961 120.739 139.92 122.568 138.121 124.616C136.518 126.44 135.785 128.61 135.603 130.055C135.752 128.156 136.976 125.799 138.836 123.713C139.714 122.731 140.504 122.661 141.298 123.751C142.382 125.238 143.793 126.3 145.489 126.987C146.619 127.445 147.114 128.334 147.376 129.466C148.343 133.67 149.81 137.664 152.464 141.129C153.221 142.121 153.823 143.224 153.015 144.319C152.188 145.441 150.941 145.03 149.815 144.632C146.554 143.482 145.479 141.761 145.297 137.379C145.409 139.118 145.666 140.9 144.232 142.289C143.662 142.841 143.176 143.744 142.129 143.089H142.139Z" fill="#3B3D43"/>
<path d="M183.308 144.665C187.527 142.406 189.045 138.833 188.415 134.091C189.41 135.728 189.344 137.402 188.952 139.062C188.686 140.185 188.676 141.199 189.377 142.163C189.788 142.729 190.092 143.341 191.026 143.033C191.951 142.724 191.9 142.139 191.783 141.386C191.442 139.216 191.802 137.163 192.9 134.577C193.502 136.663 192.549 137.958 192.554 139.357C192.573 142.602 192.643 142.696 195.717 141.288L195.666 141.316C197.418 141.073 199.221 141.022 199.282 138.468C199.305 137.467 200.347 136.803 201.043 136.074C205.234 131.715 205.991 128.198 203.421 122.759C200.599 116.797 197.305 111.049 195.899 104.507C195.231 101.397 194.633 98.2632 193.825 95.186C192.498 90.1446 190.274 85.5615 186.35 81.9932C182.967 78.9206 179.103 77.5644 174.553 79.0095C174.333 79.0796 174.1 79.1311 173.871 79.1311C173.754 79.1311 173.637 78.9908 173.497 78.8972C173.675 77.8684 174.824 78.2799 175.286 77.6954C182.341 76.8208 187.163 80.1599 190.816 85.8374C193.615 90.182 194.885 95.041 195.848 100.026C197.123 106.634 199.207 112.952 202.557 118.822C203.136 119.832 203.645 120.889 204.126 121.95C206.888 128.081 206.247 131.884 201.646 136.817C201.538 136.93 201.421 137.037 201.319 137.149C200.65 137.902 199.571 138.8 200.165 139.712C200.646 140.446 201.837 139.665 202.659 139.385C208.882 137.294 213.811 133.02 219.273 129.625C223.328 127.099 224.375 124.219 223.281 119.509C221.754 112.938 221.086 106.162 220.184 99.4557C219.74 96.1353 219.591 92.7728 220.922 89.5553C221.408 88.3768 220.674 87.4321 220.329 86.4453C219.338 83.63 217.53 80.8708 220.464 78.0835C221.104 77.4755 220.361 76.76 219.96 76.2362C218.754 74.6602 217.133 73.5425 215.391 72.6867C213.582 71.8028 211.728 70.8862 209.784 70.4279C203.295 68.8846 199.88 63.6888 196.184 58.9701C194.708 57.0901 194.96 54.2467 194.82 51.8242C194.731 50.2435 199.165 47.6526 201.403 47.2785C204.052 46.8389 206.715 46.8062 209.359 46.5069C212.414 46.1608 214.522 47.8912 216.484 49.7337C217.591 50.772 218.371 52.1983 219.17 53.5265C222.174 58.5258 225.146 63.5532 229.051 67.9259C230.392 69.4271 230.635 71.9197 233.279 72.3312C233.826 72.4154 234.209 73.8418 234.592 74.6836C235.914 77.6252 236.774 80.796 239.811 82.6947C241.138 83.5271 241.596 85.2154 242.002 86.7213C245.576 99.9374 248.744 113.252 251.229 126.721C251.537 128.399 251.659 130.116 251.836 131.818C252.621 139.277 250.201 145.488 244.978 150.875C237.9 158.176 229.701 164.11 221.88 170.508C218.273 173.459 214.746 176.503 211.181 179.506C210.522 179.132 210.275 178.664 210.821 178C211.111 178.056 211.363 178.163 211.658 177.897C220.273 170.003 229.92 163.367 238.666 155.636C241.82 152.849 244.721 149.823 247.342 146.517C251.383 141.429 251.533 135.503 250.654 129.592C248.473 114.949 244.8 100.616 240.867 86.3565C240.507 85.0564 240.371 82.6806 237.676 83.4196C237.218 83.5458 237.068 82.6432 236.858 82.1756C235.784 79.7858 234.732 77.382 233.56 74.735C230.481 79.2901 226.085 81.3618 221.357 82.8396C220.305 83.167 220.133 83.4944 220.567 84.411C220.899 85.1125 221.128 85.8608 221.399 86.5903C223.216 91.4587 223.207 91.4259 228.206 90.2661C230.897 89.6395 233.2 88.3066 235.424 86.4266C234.485 90.3082 224.889 93.0768 221.637 90.5608C220.665 92.712 220.674 94.9662 220.885 97.2063C221.913 107.986 223.861 118.63 225.776 129.279C226.047 130.794 226.944 131.949 227.883 133.118C228.822 134.283 230.093 135.218 230.789 136.822C228.229 135.976 226.122 132.749 224.216 127.02C220.959 129.391 217.694 131.725 214.47 134.124C208.948 138.234 202.687 140.615 196.1 142.383C192.283 143.407 188.573 144.852 184.822 146.119C184.088 146.367 183.383 146.751 182.575 146.451C182.528 145.394 183.369 145.128 184.088 145.048C185.434 144.894 186.34 143.982 187.462 143.458C186.102 143.982 185.088 145.591 183.294 144.674L183.308 144.665Z" fill="#350C0A"/>
<path d="M142.139 143.089C146.031 141.527 145.087 138.459 144.396 135.4C145.718 136.406 145.783 137.748 145.914 139.1C146.204 142.065 147.984 143.959 150.899 144.431C151.483 144.525 152.24 144.899 152.646 144.3C153.034 143.73 153.029 142.832 152.586 142.317C149.175 138.351 147.587 133.595 146.475 128.615C146.362 128.124 146.077 127.824 145.564 127.679C143.125 126.997 141.387 125.388 140.069 123.185C137.005 125.996 135.57 129.326 135.911 133.441C134.617 131.561 135.182 129.7 135.738 127.918C136.299 126.122 137.318 124.527 138.672 123.204C139.896 122.007 141.107 120.781 142.457 119.734C148.993 114.669 154.109 108.571 156.795 100.602C157.257 99.2267 158.108 97.95 158.939 96.7387C162.63 91.37 166.723 91.5617 170.007 97.2111C169.363 98.4597 168.802 97.6133 168.223 97.1456C164.845 93.2313 162.761 93.568 159.78 98.5159C157.785 101.518 156.566 104.876 155.048 108.566C156.753 108.309 158.206 108.29 159.561 108.889C160.07 109.113 160.607 109.389 160.453 110.067C160.304 110.731 159.678 110.886 159.154 110.769C155.015 109.852 152.361 112.181 149.937 114.968C148.236 116.923 145.722 118.247 145.19 121.132C145.054 121.862 144.354 121.637 143.821 121.576C143.031 121.492 142.284 121.768 142.218 122.558C142.116 123.821 143.298 124.34 144.083 125.042C144.653 125.547 145.022 125.173 145.353 124.626C146.26 123.143 146.862 124.027 147.25 124.986C147.713 126.141 147.82 127.403 148.072 128.624C149.848 137.159 154.179 143.617 162.532 147.05C165.859 148.416 168.881 148.116 171.927 146.512C178.777 142.906 183.332 137.528 184.911 129.803C185.238 128.203 185.542 126.585 186.093 125.051C186.443 124.083 187.013 123.045 188.191 124.387C188.891 125.191 189.274 124.42 189.69 124.074C190.139 123.704 190.368 123.208 189.914 122.652C189.765 122.47 189.592 122.315 189.401 122.18C184.775 118.845 182.309 114.019 180.314 108.893C178.819 105.054 177.085 101.453 173.109 99.54C172.633 99.3109 172.208 98.8853 172.469 98.2166C175.371 98.1885 177.183 99.9376 178.702 102.103C180.599 104.811 181.547 107.967 182.841 110.965C184.388 114.547 186.387 117.788 189.98 120.627C186.836 113.528 186.401 106.167 182.734 99.8534C184.701 101.705 185.56 104.095 186.425 106.461C186.957 107.916 187.387 109.426 187.719 110.942C188.167 113.004 188.513 114.706 191.335 115.001C193.559 115.235 194.236 117.536 193.932 119.589C193.624 121.679 193.465 123.372 196.32 123.489C196.095 123.798 195.974 124.004 195.951 123.994C191.989 122.222 190.48 126.8 187.392 127.329C186.85 127.422 186.938 128.255 186.812 128.769C185.593 133.722 184.023 138.473 180.379 142.303C179.571 143.154 179.113 144.525 180.767 145.343C181.173 145.815 181.215 146.339 180.977 146.9C180.767 147.546 180.884 147.99 181.472 148.486C183.369 150.076 183.747 152.213 182.963 154.425C180.72 160.743 177.319 166.383 172.399 170.98C169.633 173.567 168.106 173.623 164.868 171.738C160.005 168.913 155.487 165.607 151.553 161.571C147.703 157.629 147.404 155.332 150.105 150.356C139.485 153.644 128.707 155.505 118.905 160.467C115.934 161.968 113.659 164.349 111.43 166.739C107.557 170.896 103.773 175.138 99.8718 179.267C98.9561 180.235 98.8019 181.133 98.9281 182.391C99.3813 186.881 100.297 191.328 100.161 195.869C100.049 199.686 98.545 203.015 96.8304 206.345C96.2417 205.98 96.195 205.658 96.3538 205.391C99.9933 199.194 99.4046 192.582 98.4936 185.857C97.5826 179.15 97.0453 172.393 96.1763 165.677C95.9754 164.12 96.5127 162.085 94.186 161.216C93.5273 160.968 94.0459 159.658 94.3916 158.873C94.6953 158.952 94.7186 159.256 94.8588 159.462C96.1296 160.715 96.6949 162.296 96.8958 164.021C97.3676 168.114 97.8208 172.21 98.2833 176.302C98.3768 177.135 98.2927 178.005 98.872 178.973C101.6 176.003 104.474 173.258 106.903 170.162C113.206 162.127 121.316 157.152 131.165 154.701C137.789 153.055 144.316 151.03 150.904 149.229C152.104 148.902 152.992 148.715 153.001 147.069C153.011 145.334 151.964 145.567 150.922 145.385C148.628 144.983 146.694 143.954 145.451 141.588C144.639 142.785 143.756 143.692 142.531 143.977C141.574 144.202 141.695 143.636 142.144 143.075L142.139 143.089Z" fill="#370D09"/>
<path d="M76.7034 156.656C75.3765 159.387 75.199 162.338 75.0495 165.294C74.5636 174.698 74.0917 184.103 73.6339 193.512C73.2928 200.551 74.1431 207.337 77.9741 213.477C81.0576 218.415 83.6926 219.472 89.3457 218.041C95.9658 216.367 102.03 213.402 107.879 209.988C112.976 207.014 117.994 203.895 123.054 200.855C123.745 200.438 124.217 200.036 124.343 199.11C125.413 191.478 126.558 183.864 126.203 176.115C126.114 174.146 125.465 172.276 125.366 170.307C126.918 172.248 127.081 174.553 127.175 176.836C127.399 182.298 127.034 187.769 126.053 193.115C124.152 203.474 124.876 213.72 126.553 223.995C129.282 240.728 130.576 257.521 128.543 274.446C127.207 274.498 127.787 273.525 127.838 272.978C128.903 261.305 128.922 249.637 127.525 237.997C126.642 230.654 125.53 223.345 124.577 216.012C123.965 211.298 123.661 206.56 124.072 201.388C121.881 202.693 119.966 203.806 118.083 204.961C109.865 209.988 101.74 215.198 92.4338 218.097C92.3591 218.121 92.2937 218.163 92.2189 218.186C82.9124 221.072 79.2729 219.388 75.3205 210.409C73.3349 205.901 72.5593 201.154 72.7555 196.286C73.2134 184.926 73.76 173.567 74.3907 162.212C74.5262 159.752 74.928 157.24 76.7641 155.295C77.1721 155.519 77.1534 155.976 76.708 156.665L76.7034 156.656Z" fill="#2E0E0C"/>
<path d="M94.8543 159.462C94.7001 159.265 94.5412 159.069 94.3871 158.872C94.5085 157.544 94.6253 156.221 94.7468 154.893C94.6721 154.261 94.8776 153.578 94.4057 153.036C93.6536 152.723 93.5134 153.532 93.0649 153.761C92.6491 153.981 92.238 154.182 91.8689 153.686C91.4064 151.474 92.3361 149.524 93.2751 147.691C95.9428 142.476 97.2416 137.112 96.0176 131.243C95.5737 129.106 95.9942 128.886 98.1527 129.676C98.447 129.784 98.746 129.84 99.0543 129.891C99.7925 130.013 100.844 129.812 100.998 130.77C101.133 131.626 100.073 131.902 99.5262 132.463C101.105 131.584 101.764 130.219 101.432 128.437C101.133 126.851 99.8439 126.735 98.5872 126.557C97.4005 126.388 95.5597 126.543 95.8027 124.901C96.0176 123.461 97.7462 124.279 98.8207 124.256C99.7037 124.233 100.587 124.752 101.755 124.307C100.535 123.325 99.2926 123.363 98.0966 123.264C96.8539 123.162 95.6111 123.026 94.4571 122.535C93.8778 122.287 93.3032 121.899 93.5648 121.132C93.7704 120.524 94.3544 120.407 94.9243 120.477C96.3119 120.646 97.6855 120.95 99.1011 120.809C97.1762 120.426 95.2374 120.309 93.2705 120.435C92.1071 120.51 90.9298 120.557 89.8179 120.098C89.2339 119.855 88.6172 119.509 88.7246 118.766C88.8461 117.919 89.5563 118.036 90.1916 118.064C92.579 118.167 94.9757 117.985 96.7604 118.298C94.2703 118.144 91.1868 117.91 88.0893 118.115C85.814 118.27 84.8282 119.593 84.4685 121.67C83.8938 124.971 83.8051 128.32 83.5434 131.65C83.2071 135.915 82.7772 140.166 82.2727 144.408C82.1652 145.324 82.3007 146.498 81.0486 146.914C79.8806 145.984 80.474 144.945 80.8617 143.921C81.5018 136.401 82.0157 128.867 82.838 121.37C83.2631 117.47 84.8469 116.32 88.7901 116.409C91.7427 116.474 94.6907 116.708 97.6341 116.932C99.2272 117.054 100.157 117.84 101.231 119.271C104.194 123.236 104.016 127.188 102.554 131.491C102.012 133.09 101.152 134.287 99.5449 134.769C98.447 135.101 98.2227 135.742 98.162 136.799C97.9284 140.895 96.7838 144.758 94.7421 148.317C94.1254 149.388 93.9058 150.094 94.9804 151.1C96.9473 152.933 95.7793 155.215 95.3261 157.259C95.1673 157.979 95.0318 158.737 94.8543 159.466V159.462Z" fill="#300B09"/>
<path d="M210.84 178C210.718 178.556 210.952 179.033 211.2 179.506C210.849 184.425 211.438 189.303 212.293 194.101C214.11 204.306 213.227 214.393 211.592 224.481C209.074 240.035 207.831 255.641 209.322 271.392C209.415 272.356 210.228 273.637 208.854 274.46C207.584 265.013 207.63 255.534 208.144 246.04C208.756 234.76 211.06 223.686 212.209 212.467C212.956 205.166 211.933 198.034 210.938 190.865C210.233 185.768 209.985 180.637 210.242 175.498C210.335 173.613 210.606 171.752 212.055 170.269C211.246 172.804 211.223 175.432 210.835 178H210.84Z" fill="#280C0A"/>
<path d="M171.189 76.2689C170.979 77.1668 170.582 76.9096 170.087 76.484C167.564 74.3234 164.55 74.0475 161.504 74.6555C150.95 76.7693 143.653 82.9612 139.499 92.8335C138.299 95.691 137.345 98.6653 136.486 101.649C134.748 107.701 132.959 113.724 130.314 119.467C129.669 120.87 129.207 122.376 128.819 123.872C127.53 128.848 128.511 133.048 132.902 136.237C134.939 137.715 137.121 139.244 137.462 142.116C135.098 138.763 131.375 136.747 128.945 133.483C127.034 130.911 127.273 127.899 127.656 124.943C127.796 123.872 128.03 122.769 128.473 121.791C132.445 112.98 134.706 103.59 137.859 94.5031C141.247 84.7383 147.722 77.9385 157.612 74.618C160.509 73.6453 163.49 73.1496 166.555 73.8137C168.33 74.1971 169.974 74.8238 171.18 76.2736L171.189 76.2689Z" fill="#370C09"/>
<path d="M91.9199 153.77C92.2703 153.639 92.616 153.508 92.9664 153.377C93.7467 153.293 94.2886 152.676 95.0034 152.442C95.6154 153.331 95.6528 154.158 94.7464 154.888C89.0046 154.79 84.0804 152.713 79.7588 148.364C79.4224 150.398 79.1328 152.115 78.8524 153.831C78.161 158.096 78.7543 159.298 82.6788 161.15C84.7111 162.109 86.8275 162.862 89.0653 163.236C89.682 163.339 90.4716 163.189 90.9762 164.115C88.8271 164.583 86.9817 163.764 85.1362 163.189C83.0619 162.539 81.0763 161.632 79.3851 160.224C78.3572 159.368 77.5303 158.363 77.549 156.88C77.563 155.968 77.0771 156.38 76.6987 156.646C76.5445 156.183 77.1612 155.753 76.7547 155.276C78.6656 153.256 78.2918 150.553 78.7777 148.14C79.1094 146.484 79.5766 145.034 80.852 143.907C81.067 144.871 80.6184 145.932 81.2819 146.825C83.3609 149.982 86.4677 151.586 89.967 152.606C90.7192 152.826 91.4761 153.022 91.9152 153.761L91.9199 153.77Z" fill="#3F1A19"/>
<path d="M66.9112 126.197C64.8322 122.488 66.458 116.292 70.2563 114.599C67.0047 118.228 66.402 122.053 66.9112 126.197Z" fill="#401816"/>
<path d="M241.932 57.5811C240.89 53.592 239.068 50.2061 234.919 48.1531C238.601 47.8491 242.609 53.4143 241.932 57.5811Z" fill="#381714"/>
<path d="M239.026 57.9411C237.769 54.111 235.616 51.0899 231.406 49.4951C235.144 48.8638 239.479 53.821 239.026 57.9411Z" fill="#3F1E19"/>
<path d="M73.4612 114.954C70.4524 117.816 69.5881 121.413 69.8918 125.977C67.9296 122.002 69.9759 116.165 73.4612 114.954Z" fill="#371814"/>
<path d="M180.972 146.9C180.725 146.404 179.973 145.984 180.757 145.343C181.608 145.118 182.458 144.889 183.308 144.665C185.028 144.791 186.224 143.902 187.256 142.663C187.518 142.35 187.714 141.723 188.284 142.177C188.569 142.406 188.775 142.789 188.905 143.145C189.139 143.786 188.588 143.86 188.177 144.052C186.34 144.913 184.126 144.88 182.594 146.442C182.126 146.858 181.556 146.905 180.972 146.9Z" fill="#D3BBB5"/>
<path d="M168.634 96.8508C169.035 97.1641 169.264 98.1462 169.998 97.2109C170.853 97.4634 171.764 97.5897 172.465 98.2117C172.451 98.5437 172.539 98.8617 172.88 98.9553C176.754 100.026 178.505 103.08 179.963 106.447C181.533 110.072 182.752 113.864 185.172 117.077C186.588 118.957 188.111 120.776 190.171 121.894C191.975 122.872 191.353 123.61 190.298 124.532C189.536 125.191 188.774 125.86 187.733 126.056C187.069 125.439 188.06 124.55 187.298 123.807C186.438 124.583 186.518 125.626 186.368 126.547C184.892 135.583 180.748 142.719 172.325 147.054C168.643 148.948 165.256 149.089 161.453 147.335C154.029 143.916 149.647 138.23 147.834 130.387C147.339 128.236 146.834 126.089 146.241 123.545C145.307 124.766 146.082 125.696 145.741 126.627C144.241 126.37 143.083 125.49 142.2 124.349C141.658 123.648 140.074 122.974 141.569 121.759C142.522 120.982 143.47 119.35 144.942 121.716C143.653 119.21 145.414 118.368 146.694 117.25C147.806 116.282 148.946 115.305 149.866 114.164C152.571 110.806 155.758 108.921 160.42 110.637C159.15 108.94 158.566 108.846 153.725 109.398C155.776 105.638 156.809 101.569 159.252 98.1649C162.149 96.1025 165.204 95.1812 168.624 96.8508H168.634Z" fill="#FEE4CF"/>
<path d="M161.658 82.7553C164.461 81.1887 168.414 81.9136 170.745 83.9572C172.95 85.8934 173.861 89.0361 172.567 92.118C172.623 84.4763 168.386 82.3298 161.658 82.7507V82.7553Z" fill="#48130C"/>
<path d="M195.721 141.293C195.25 140.807 195.371 140.39 195.745 139.867C198.212 136.378 197.772 132.87 195.773 129.344C195.231 128.39 194.395 127.548 194.18 126.164C198.978 129.606 199.59 136.888 195.675 141.316L195.721 141.288V141.293Z" fill="#350C0A"/>
<path d="M142.143 140.699C138.247 138.567 136.5 131.879 138.742 128.227C138.14 132.838 138.892 137.098 142.143 140.699Z" fill="#4B1812"/>
<path d="M212.928 61.8931C213.349 63.4224 213.442 65.1013 214.433 66.4669C214.69 66.8223 214.956 67.4162 215.465 67.1543C216.115 66.8223 215.624 66.378 215.344 66.0413C214.461 64.9704 214.223 63.6936 214.022 62.3655C213.811 60.9859 213.559 59.5922 213.106 58.2781C211.779 54.4432 211.555 54.4105 208.013 56.9078C209.579 57.455 210.648 58.54 211.527 59.8214C211.83 60.2657 212.078 60.8035 211.574 61.2992C211.167 61.7014 210.719 61.5564 210.289 61.3366C208.065 60.2002 205.892 58.9749 204.281 57.0014C203.276 55.7714 203.318 54.504 204.626 53.5453C206.565 52.119 208.532 50.7066 210.592 49.472C212.802 48.1485 214.283 48.373 215.89 50.4681C217.591 52.6802 219.081 55.0652 220.52 57.4644C222.567 60.8689 224.66 64.2314 227.29 67.2292C228.523 68.6368 229.589 70.1661 230.322 71.9152C231.943 75.7734 231.77 76.4001 228.285 78.7197C227.771 79.0657 227.234 79.3884 226.673 79.6503C225.482 80.2115 224.164 81.3058 223.09 81.1094C221.973 80.9083 222.328 79.019 221.941 77.9013C221.319 76.1288 220.184 74.8193 218.736 73.7063C216.231 71.7842 213.452 70.3812 210.406 69.6376C203.58 67.9774 200.398 62.2626 196.422 57.3053C198.754 59.3397 201.622 59.8822 204.435 60.3218C207.205 60.7567 209.658 63.067 212.933 61.8838L212.928 61.8931Z" fill="#FEE4CF"/>
<path d="M202.36 57.0806C199.894 53.8304 199.875 53.1102 203.103 50.6877C205.561 48.8404 208.158 46.9931 211.578 47.6572C209.228 49.0088 207.121 50.6549 204.888 52.1141C203.229 53.199 202.328 54.5599 202.828 56.6036C203 57.09 202.79 57.1976 202.356 57.076L202.36 57.0806Z" fill="#F4DCCC"/>
<path d="M205.86 47.4468C204.117 48.948 201.931 49.888 200.51 51.7493C198.609 54.2419 200.487 56.0565 201.734 57.9458C201.632 58.1797 201.534 58.1937 201.384 58.044C199.777 56.4306 197.006 54.8265 198.016 52.4788C199.324 49.4484 202.538 48.0454 205.86 47.4468Z" fill="#EED4C6"/>
<path d="M199.366 57.7122C194.661 54.2047 194.101 51.2537 199.525 48.9902C198.478 50.6691 196.53 51.4548 196.862 53.3816C197.161 55.1119 198.488 56.2671 199.366 57.7122Z" fill="#D9BDB3"/>
<path d="M221.356 78.626C221.226 80.1178 222.338 81.0344 221.277 81.9651C220.866 82.3252 220.067 82.2925 219.875 81.75C219.45 80.5761 220.315 79.8559 221.356 78.626Z" fill="#B9BCB4"/>
<path d="M212.274 58.7033C212.036 58.7033 211.947 58.7314 211.915 58.7033C211.289 58.0907 210.457 57.6324 210.275 56.6877C210.256 56.5802 210.803 56.1967 210.924 56.2575C211.915 56.7579 211.938 57.7727 212.274 58.708V58.7033Z" fill="#CAA4A0"/>
<path d="M202.36 57.0807C202.519 56.9217 202.673 56.7627 202.832 56.6084C203.57 57.4642 204.313 58.32 205.051 59.1759C203.804 58.9374 203.014 58.0956 202.36 57.0807Z" fill="#C19996"/>
<path d="M152.59 150.136C153.141 151.165 152.216 152.203 153.034 153.405C154.384 150.169 153.562 146.984 153.973 143.496C162.139 150.917 170.311 151.951 178.678 143.627C179.169 147.171 178.398 150.347 179.57 153.84C180.449 151.89 179.44 150.445 179.883 149.061C181.897 149.687 182.696 151.231 182.215 153.695C181.822 155.711 180.776 157.465 179.855 159.261C177.781 163.306 175.277 167.052 171.918 170.143C169.325 172.528 168.288 172.622 165.293 170.887C160.149 167.908 155.407 164.372 151.389 159.981C147.965 156.235 148.357 153.363 152.595 150.141L152.59 150.136Z" fill="#FEE4CF"/>
<path d="M168.634 96.8507C165.387 96.4064 162.322 97.2716 159.262 98.1648C159.631 97.5896 159.958 96.9816 160.378 96.4438C163.354 92.6417 165.919 92.7773 168.634 96.8507Z" fill="#3B3D43"/>
<path d="M192.643 121.66C190.984 120.295 190.209 118.625 189.461 116.946C189.293 116.563 188.915 116.03 189.368 115.726C189.69 115.511 190.265 115.548 190.695 115.637C192.736 116.058 193.418 118.045 192.638 121.66H192.643Z" fill="#F3D9C9"/>
<path d="M91.9199 153.77C88.5047 153.022 85.2811 151.871 82.5386 149.585C81.6463 148.841 81.0903 148.032 81.2819 146.835C81.9733 139.324 82.6648 131.813 83.3562 124.298C83.3936 123.91 83.3936 123.522 83.4403 123.134C84.057 118.013 84.9447 117.194 90.0979 117.349C92.6581 117.423 95.209 117.713 97.7692 117.877C98.5494 117.928 99.2315 118.111 100.362 119.037C96.1948 118.733 92.6441 119.126 88.7897 118.312C89.626 119.799 90.7753 119.673 91.7517 119.72C94.0036 119.827 96.2648 119.771 98.512 119.879C99.7174 119.935 100.988 120.08 101.483 121.787C98.797 121.805 96.3489 121.314 93.798 120.959C94.0503 122.245 94.952 122.072 95.6622 122.165C97.2787 122.385 98.8998 122.591 100.526 122.741C102.385 122.909 103.179 123.807 102.665 125.865C100.488 124.794 98.1056 125.271 95.4145 124.401C96.5452 126.113 97.8393 125.809 98.9792 125.921C100.526 126.075 102.268 125.977 102.343 128.222C102.427 130.705 100.502 133.82 98.8811 134.077C97.9234 134.231 98.1383 133.516 97.9935 133.076C97.7879 132.445 97.7038 131.888 98.6475 131.701C99.3437 131.561 100.255 131.767 100.722 130.719C99.8809 130.106 99.1147 130.808 98.3859 130.892C97.1292 131.042 97.5683 129.452 96.6386 129.353C96.1107 129.559 96.2929 129.966 96.3957 130.298C98.0449 135.559 97.3067 140.666 95.0174 145.502C93.7467 148.191 92.7749 150.945 91.9059 153.761L91.9199 153.77Z" fill="#FEE4CF"/>
<path d="M95.0033 152.447C95.0687 154.378 94.2838 154.453 92.9663 153.382C93.4942 152.741 93.1018 150.094 95.0033 152.447Z" fill="#C3C6C0"/>
<path d="M165.984 132.173C168.241 132.211 170.469 132.398 172.698 132.711C173.53 132.828 173.941 132.973 173.6 134.011C172.642 136.911 169.479 139.492 166.536 139.619C163.303 139.759 160.238 137.598 159.004 134.442C158.495 133.137 158.794 132.604 160.201 132.552C162.13 132.477 164.055 132.304 165.984 132.178V132.173Z" fill="#351311"/>
<path d="M177.239 117.559C177.281 118.831 177.692 120.547 175.254 120.323C174.361 120.239 173.843 119.841 173.726 118.897C173.651 118.303 174.254 117.344 172.796 117.353C172.165 117.353 172.595 116.689 172.96 116.409C174.086 115.543 177.678 115.707 178.762 116.661C178.996 116.867 179.295 117.11 179.089 117.419C178.505 118.303 178.057 116.942 177.239 117.564V117.559Z" fill="#511B1B"/>
<path d="M154.575 117.54C153.87 117.433 153.384 118.302 152.753 117.676C154.15 116.09 157.523 115.585 158.99 116.745C159.154 116.871 159.252 117.077 159.383 117.25C157.407 117.526 158.766 119.939 157.229 120.571C155.501 121.281 154.58 120.318 154.575 117.545V117.54Z" fill="#4D1818"/>
<path d="M166.158 116.409C166.611 116.993 166.471 117.456 166.34 117.891C165.709 119.977 165.826 121.829 167.667 123.353C168.536 124.074 168.624 125.154 168.045 126.108C167.405 127.16 166.774 128.357 165.162 128.227C165.139 127.301 165.924 127.216 166.316 126.81C167.363 125.72 167.769 124.794 166.48 123.466C164.611 121.544 164.583 119.116 166.162 116.413L166.158 116.409Z" fill="#3E1A16"/>
<path d="M180.804 111.998C178.062 110.31 175.189 109.548 171.923 110.811C173.39 108.215 179.052 108.991 180.804 111.998Z" fill="#401B19"/>
<path d="M166.139 133.146C167.844 133.244 169.549 133.329 171.254 133.45C172.17 133.516 172.782 133.698 172.044 134.844C170.717 136.892 169.105 138.566 166.554 138.693C163.924 138.819 162.004 137.407 160.574 135.274C159.803 134.124 159.617 133.296 161.481 133.361C163.032 133.417 164.583 133.371 166.139 133.371C166.139 133.296 166.139 133.221 166.139 133.146Z" fill="#FBFAFA"/>
</svg>
