<svg width="160" height="52" viewBox="0 0 160 52" fill="none" xmlns="http://www.w3.org/2000/svg">
<g clip-path="url(#clip0_931_1650)">
<path d="M143.732 21.8645C134.884 23.386 126.1 25.2511 117.308 27.0574C114.222 27.6919 111.113 28.2176 107.983 28.7992C107.925 28.1031 108.407 28.059 108.696 27.9004C125.361 18.7364 142.029 9.58408 158.702 0.440601C159.062 0.243809 159.433 -0.190896 159.871 0.0998864C160.12 0.264369 159.971 0.625644 159.749 0.851808C157.992 3.52465 156.184 6.16225 154.386 8.80279C151.707 12.7357 148.96 16.6216 146.237 20.5251C145.6 21.4386 144.878 22.0025 143.732 21.8674V21.8645Z" fill="#C33509"/>
<path d="M92.9987 33.1785C94.5094 31.9978 95.7367 30.7994 97.5426 30.3764C101.435 29.4659 104.705 31.5455 105.415 35.5048C105.909 38.2716 105.608 41.0649 105.648 43.8464C105.675 45.6058 105.596 47.3681 105.672 49.1275C105.716 50.1291 105.345 50.411 104.415 50.3611C103.299 50.3024 102.171 50.273 101.058 50.367C99.9679 50.458 99.7721 49.9763 99.7867 49.0129C99.8335 46.0317 99.8101 43.0475 99.8014 40.0662C99.8014 39.3819 99.8014 38.6946 99.7195 38.0161C99.4595 35.8161 98.5916 34.8909 96.812 34.8527C94.752 34.8087 93.4224 35.9042 93.1331 38.0014C92.8263 40.2366 93.0338 42.4924 92.9958 44.7393C92.9724 46.158 92.949 47.5767 92.9987 48.9924C93.0338 49.9734 92.7357 50.4492 91.675 50.3523C90.2373 50.2201 88.3613 50.9515 87.4818 50.0321C86.7863 49.3067 87.2538 47.4327 87.248 46.0699C87.21 38.2981 87.2129 30.5262 87.1311 22.7574C87.1194 21.5326 87.4613 21.1037 88.6798 21.2359C90.024 21.3828 91.7714 20.6808 92.6334 21.4973C93.5714 22.3873 92.949 24.176 92.9753 25.5712C93.025 28.106 92.9899 30.6408 92.9899 33.1756L92.9987 33.1785Z" fill="#003874"/>
<path d="M9.30441 50.7459C8.12972 50.7371 6.95796 50.7283 5.78327 50.7195C4.23748 50.5315 2.70337 50.2759 1.22771 49.7443C0.59361 49.5152 0.131918 49.1921 0.155294 48.3844C0.193282 47.0656 0.166983 45.7439 0.140684 44.4251C0.123151 43.5586 0.415362 43.5263 1.06407 43.9639C3.1826 45.3943 5.52905 46.0728 8.08881 46.0082C10.184 45.9553 11.8437 45.0448 12.1681 43.7642C12.5304 42.3338 11.7035 41.0062 9.63753 39.9282C8.34596 39.2527 6.9638 38.7533 5.6547 38.1101C3.04526 36.8236 0.84199 35.167 0.19036 32.0565C-0.51679 28.6876 0.804002 25.5125 3.87221 23.8882C7.93687 21.7352 12.2061 21.9262 16.5074 23.0893C16.9574 23.2097 17.3227 23.3918 17.3168 23.9587C17.3051 25.5066 17.3139 27.0516 17.3139 28.8491C14.8447 27.498 12.4515 27.0163 9.92098 27.2131C9.17584 27.2718 8.48038 27.4363 7.82583 27.777C6.08425 28.6817 5.80957 30.5351 7.24433 31.8744C8.25537 32.8202 9.51188 33.3841 10.7684 33.9158C12.2061 34.5208 13.6145 35.1817 14.9178 36.0452C17.5448 37.7841 18.8363 40.2366 18.5412 43.3853C18.211 46.8864 16.1714 49.0453 12.8898 50.0968C11.7239 50.4698 10.5171 50.6196 9.30733 50.7459H9.30441Z" fill="#003874"/>
<path d="M137.377 33.6867C138.751 32.0007 140.121 30.7935 142.096 30.3588C145.918 29.5217 149.159 31.6394 149.793 35.5224C150.012 36.8735 150.094 38.2334 150.082 39.6051C150.053 42.7303 150.044 45.8584 150.091 48.9836C150.106 49.9822 149.814 50.4257 148.77 50.364C147.704 50.2994 146.626 50.2701 145.562 50.364C144.402 50.461 144.189 49.9382 144.209 48.9072C144.267 46.1727 144.235 43.4352 144.224 40.7007C144.218 39.5787 144.215 38.4537 143.961 37.3493C143.663 36.054 143.005 35.1053 141.62 34.8645C139.992 34.5796 138.648 35.1788 137.877 36.5181C137.403 37.3405 137.231 38.2364 137.237 39.188C137.251 42.4601 137.211 45.735 137.26 49.0071C137.275 50.0263 136.95 50.4199 135.928 50.3611C134.812 50.2965 133.689 50.3171 132.573 50.3611C131.714 50.3934 131.378 50.0968 131.384 49.1833C131.419 43.3706 131.419 37.555 131.384 31.7422C131.378 30.8728 131.699 30.632 132.491 30.7025C133.07 30.7524 133.657 30.7142 134.242 30.7142C136.118 30.7142 137.164 31.707 137.38 33.6925L137.377 33.6867Z" fill="#003874"/>
<path d="M29.8869 45.3767C31.0879 41.0678 32.324 36.7678 33.4636 32.4413C33.7938 31.1841 34.2526 30.4675 35.7049 30.676C36.7071 30.8199 37.7474 30.7553 38.7643 30.6907C39.8133 30.6261 40.0062 30.958 39.638 31.9331C38.3581 35.308 37.1338 38.7063 35.8948 42.0958C35.0211 44.4779 34.124 46.8511 33.3029 49.2508C33.0194 50.0791 32.6045 50.4081 31.7191 50.367C30.2142 50.2994 28.7035 50.3317 27.1957 50.3581C26.5177 50.3699 26.1379 50.129 25.907 49.4535C23.8557 43.5027 21.781 37.5579 19.6888 31.6218C19.4141 30.8376 19.7092 30.6525 20.4018 30.7025C20.4982 30.7083 20.5976 30.6995 20.694 30.7025C22.2924 30.77 24.2268 30.0915 25.3986 30.9492C26.5733 31.8068 26.4914 33.8599 26.921 35.399C27.8415 38.7151 28.7298 42.043 29.6298 45.3679C29.7145 45.3679 29.7993 45.3708 29.884 45.3737L29.8869 45.3767Z" fill="#003874"/>
<path d="M143.732 21.8645C145.649 21.559 146.295 19.8349 147.23 18.5337C150.275 14.3042 153.232 10.0129 156.163 5.70111C157.297 4.03279 158.124 2.14711 159.751 0.851807C159.103 4.25014 157.998 7.52805 157.095 10.8588C155.59 16.4043 154.001 21.9232 152.429 27.451C152.142 28.4585 151.78 29.4454 151.397 30.6056C150.179 29.6187 149.542 28.3498 148.712 27.2572C147.683 25.9031 146.713 24.4962 145.836 23.0394C145.322 22.1817 144.72 21.7441 143.735 21.8674L143.732 21.8645Z" fill="#ED4A17"/>
<path d="M82.0412 22.2434C82.0412 21.5149 81.8834 21.1713 81.071 21.2124C79.759 21.277 78.4441 21.2858 77.132 21.23C76.3548 21.1977 76.1385 21.4709 76.1531 22.2287C76.197 24.6225 76.1911 27.0192 76.1619 29.413C76.1502 30.4587 76.3197 31.5278 76.0187 32.6263C75.7908 32.5265 75.6096 32.5088 75.5541 32.4149C73.6343 29.3308 68.1612 29.601 65.3735 32.1564C62.3432 34.932 61.7296 38.4919 62.0306 42.3308C62.3695 46.6426 64.2748 49.756 68.7602 50.7635C68.8157 50.7753 68.8449 50.9192 68.8858 51.0014H70.6391C72.3632 50.3288 74.2596 49.9675 75.3875 48.2463C75.5307 48.026 75.7265 47.7382 76.1911 47.935C76.1911 48.1729 76.232 48.4578 76.1853 48.728C75.9661 49.9793 76.3723 50.5285 77.7252 50.3699C78.7333 50.2524 79.7678 50.3024 80.7876 50.3611C81.7577 50.4169 82.0499 50.0086 82.047 49.0717C82.0236 40.1279 82.0266 31.1842 82.047 22.2404L82.0412 22.2434ZM75.4518 44.1431C74.6103 45.547 73.3859 46.4076 71.7261 46.2402C69.9846 46.064 68.7427 45.1182 68.281 43.3353C67.8017 41.4996 67.8222 39.6521 68.3394 37.8369C68.9794 35.5812 70.4667 34.6354 72.8599 34.8645C74.6716 35.0378 76.045 36.6062 76.1999 38.7093C76.2349 39.1939 76.2057 39.6873 76.2057 40.1749C76.27 41.5554 76.1882 42.9212 75.4547 44.1431H75.4518Z" fill="#003874"/>
<path d="M126.405 37.0174C126.291 33.6631 124.108 31.1548 121.09 30.4822C117.931 29.7802 114.912 30.3764 111.943 31.4426C111.444 31.6218 110.959 31.845 110.982 32.5529C111.017 33.6602 110.991 34.7705 110.991 36.0981C112.615 35.3285 114.05 34.5884 115.643 34.3945C117.136 34.2153 118.667 33.9745 120.005 34.9643C120.724 35.496 121.13 36.3007 120.923 37.1437C120.748 37.8633 119.915 37.7047 119.316 37.7958C117.116 38.1365 114.857 38.1747 112.767 39.0735C110.143 40.2043 108.907 42.322 109.118 45.2827C109.322 48.1876 110.64 49.8001 113.469 50.6137C113.726 50.6871 114.082 50.599 114.164 50.9985H115.625C117.598 50.364 119.477 49.571 120.695 47.7235C121.578 48.5195 120.254 49.9851 121.61 50.2994C122.58 50.5256 123.643 50.3405 124.666 50.3376C124.862 50.3376 125.058 50.3229 125.251 50.3376C126.092 50.411 126.487 50.1026 126.478 49.1803C126.437 45.1241 126.542 41.0619 126.405 37.0086V37.0174ZM117.262 46.5985C115.783 46.622 114.658 45.8055 114.471 44.5778C114.252 43.1385 114.927 42.0341 116.461 41.6406C117.674 41.3292 118.936 41.2147 120.178 41.0384C120.569 40.9826 120.993 40.9856 121.046 41.5407C121.291 44.143 119.897 46.5339 117.262 46.5985Z" fill="#003874"/>
<path d="M58.1173 37.1643C57.9829 33.3871 55.9404 31.2018 52.2322 30.3941C50.026 29.9124 47.8841 30.2737 45.751 30.7701C42.6915 31.4838 42.6944 31.5014 42.7003 34.6031C42.7003 35.0261 42.7003 35.449 42.7003 36.057C43.2935 35.7956 43.7289 35.6164 44.1526 35.4138C45.9438 34.5561 47.8227 34.1655 49.8068 34.2771C50.8325 34.3358 51.715 34.6942 52.2819 35.5841C53.1731 36.9793 52.8663 37.5932 51.2474 37.7811C49.4182 37.9926 47.5802 38.1512 45.7948 38.6417C42.3759 39.5816 40.8155 41.5554 40.8272 44.9068C40.8389 48.1083 42.259 49.7561 45.8182 50.7165C45.9292 50.7459 46.0081 50.9016 46.1016 50.9985H47.5627C49.462 50.2789 51.3 49.4624 52.7143 47.3388C52.7523 48.1788 52.8342 48.5225 52.7699 48.8338C52.4981 50.1379 53.1088 50.4493 54.2748 50.3553C55.242 50.276 56.2209 50.3141 57.191 50.3553C57.9537 50.3876 58.2108 50.0762 58.205 49.3243C58.167 45.271 58.2605 41.2118 58.1173 37.1614V37.1643ZM52.7991 42.2046C52.7582 44.8745 50.964 46.7601 48.5971 46.5927C47.3523 46.5046 46.4523 45.9084 46.2331 44.6189C46.011 43.3295 46.4289 42.2956 47.7292 41.7904C49.1055 41.2558 50.5724 41.2177 52.013 41.0356C53.0095 40.9122 52.7582 41.6641 52.7991 42.2046Z" fill="#003874"/>
</g>
<defs>
<clipPath id="clip0_931_1650">
<rect width="160" height="51.0044" fill="white"/>
</clipPath>
</defs>
</svg>
