<svg width="20" height="20" viewBox="0 0 20 20" fill="none" xmlns="http://www.w3.org/2000/svg">
<path d="M7.82128 14.6649L2.93298 9.77661L4.31148 8.38833L7.82128 11.8981L15.2417 4.47769L16.6202 5.86596M9.77661 0C8.49272 0 7.22141 0.252879 6.03526 0.7442C4.84911 1.23552 3.77134 1.95566 2.8635 2.8635C1.03003 4.69697 0 7.18369 0 9.77661C0 12.3695 1.03003 14.8562 2.8635 16.6897C3.77134 17.5976 4.84911 18.3177 6.03526 18.809C7.22141 19.3003 8.49272 19.5532 9.77661 19.5532C12.3695 19.5532 14.8562 18.5232 16.6897 16.6897C18.5232 14.8562 19.5532 12.3695 19.5532 9.77661C19.5532 8.49272 19.3003 7.22141 18.809 6.03526C18.3177 4.84911 17.5976 3.77134 16.6897 2.8635C15.7819 1.95566 14.7041 1.23552 13.518 0.7442C12.3318 0.252879 11.0605 0 9.77661 0Z" fill="#27AE60"/>
</svg>
