<svg width="21" height="21" viewBox="0 0 21 21" fill="none" xmlns="http://www.w3.org/2000/svg">
<path d="M10.8874 15.3767C12.0884 11.0678 13.3245 6.76775 14.4641 2.44127C14.7943 1.18415 15.2531 0.467476 16.7053 0.676017C17.7076 0.819939 18.7479 0.75532 19.7648 0.690701C20.8138 0.626083 21.0067 0.957987 20.6385 1.93314C19.3586 5.30797 18.1342 8.7063 16.8953 12.0958C16.0216 14.4779 15.1245 16.8511 14.3034 19.2508C14.0199 20.0791 13.605 20.4081 12.7196 20.367C11.2147 20.2994 9.70397 20.3317 8.19616 20.3581C7.51823 20.3699 7.13836 20.129 6.90751 19.4535C4.85619 13.5027 2.78149 7.55786 0.689265 1.62179C0.414587 0.837563 0.709721 0.652518 1.40226 0.70245C1.49869 0.708325 1.59804 0.699513 1.69447 0.70245C3.29286 0.770006 5.2273 0.0915153 6.39906 0.949176C7.57375 1.80684 7.49193 3.85993 7.92148 5.39902C8.84195 8.71511 9.73027 12.043 10.6303 15.3679C10.715 15.3679 10.7998 15.3708 10.8845 15.3737L10.8874 15.3767Z" fill="#003874"/>
</svg>
