<svg width="22" height="31" viewBox="0 0 22 31" fill="none" xmlns="http://www.w3.org/2000/svg">
<path d="M21.0412 1.24336C21.0412 0.514934 20.8834 0.171282 20.071 0.212402C18.759 0.277021 17.4441 0.285831 16.132 0.230025C15.3548 0.197716 15.1385 0.470875 15.1531 1.22867C15.197 3.62248 15.1911 6.01923 15.1619 8.41305C15.1502 9.45869 15.3197 10.5278 15.0187 11.6263C14.7908 11.5265 14.6096 11.5088 14.5541 11.4149C12.6343 8.33081 7.16116 8.60103 4.37347 11.1564C1.34325 13.932 0.729605 17.4919 1.03058 21.3308C1.36955 25.6426 3.27476 28.7561 7.7602 29.7635C7.81572 29.7753 7.84494 29.9192 7.88585 30.0014H9.63911C11.3632 29.3288 13.2596 28.9675 14.3875 27.2463C14.5307 27.026 14.7265 26.7382 15.1911 26.935C15.1911 27.1729 15.232 27.4578 15.1853 27.728C14.9661 28.9793 15.3723 29.5285 16.7252 29.3699C17.7333 29.2524 18.7678 29.3024 19.7876 29.3611C20.7577 29.4169 21.0499 29.0086 21.047 28.0717C21.0236 19.1279 21.0266 10.1842 21.047 1.24042L21.0412 1.24336ZM14.4518 23.1431C13.6103 24.547 12.3859 25.4076 10.7261 25.2402C8.98456 25.064 7.74266 24.1182 7.28097 22.3353C6.80174 20.4996 6.8222 18.6521 7.33941 16.8369C7.97935 14.5812 9.46671 13.6354 11.8599 13.8645C13.6716 14.0378 15.045 15.6062 15.1999 17.7093C15.2349 18.1939 15.2057 18.6873 15.2057 19.1749C15.27 20.5554 15.1882 21.9212 14.4547 23.1431H14.4518Z" fill="#003874"/>
</svg>
