<svg width="19" height="30" viewBox="0 0 19 30" fill="none" xmlns="http://www.w3.org/2000/svg">
<path d="M5.99918 12.1785C7.50991 10.9978 8.73719 9.7994 10.5431 9.37645C14.4353 8.46592 17.7051 10.5455 18.4152 14.5048C18.9091 17.2716 18.6081 20.0649 18.649 22.8464C18.6753 24.6058 18.5964 26.3681 18.6724 28.1275C18.7162 29.1291 18.3451 29.411 17.4159 29.3611C16.2996 29.3024 15.1717 29.273 14.0584 29.367C12.9684 29.458 12.7726 28.9763 12.7872 28.0129C12.834 25.0317 12.8106 22.0475 12.8019 19.0662C12.8019 18.3819 12.8019 17.6946 12.72 17.0161C12.46 14.8161 11.5921 13.8909 9.81253 13.8527C7.75244 13.8087 6.42289 14.9042 6.1336 17.0014C5.82678 19.2366 6.03425 21.4924 5.99626 23.7393C5.97288 25.158 5.94951 26.5767 5.99918 27.9924C6.03425 28.9734 5.73619 29.4492 4.67547 29.3523C3.23779 29.2201 1.3618 29.9515 0.482241 29.0321C-0.213221 28.3067 0.254311 26.4327 0.248467 25.0699C0.21048 17.2981 0.213404 9.52625 0.131585 1.75737C0.119896 0.532561 0.461788 0.10373 1.68031 0.235904C3.02448 0.382764 4.7719 -0.319226 5.63392 0.497314C6.57192 1.38728 5.9495 3.17603 5.9758 4.5712C6.02548 7.106 5.99042 9.6408 5.99042 12.1756L5.99918 12.1785Z" fill="#003874"/>
</svg>
