<svg width="19" height="29" viewBox="0 0 19 29" fill="none" xmlns="http://www.w3.org/2000/svg">
<path d="M9.30392 28.7459C8.12924 28.7371 6.95747 28.7283 5.78278 28.7195C4.23699 28.5315 2.70288 28.2759 1.22722 27.7443C0.593122 27.5152 0.131429 27.1921 0.154806 26.3844C0.192793 25.0656 0.166495 23.7439 0.140196 22.4251C0.122663 21.5586 0.414874 21.5263 1.06358 21.9639C3.18211 23.3943 5.52856 24.0728 8.08833 24.0082C10.1835 23.9553 11.8432 23.0448 12.1676 21.7642C12.5299 20.3338 11.703 19.0062 9.63704 17.9282C8.34547 17.2527 6.96332 16.7533 5.65421 16.1101C3.04477 14.8236 0.841501 13.167 0.189871 10.0565C-0.517279 6.68757 0.803514 3.51247 3.87173 1.8882C7.93638 -0.264764 12.2056 -0.0738468 16.5069 1.08928C16.9569 1.20971 17.3222 1.39181 17.3163 1.95869C17.3047 3.50659 17.3134 5.05156 17.3134 6.84912C14.8442 5.49801 12.451 5.01631 9.92049 5.2131C9.17535 5.27185 8.47989 5.43633 7.82534 5.77704C6.08376 6.6817 5.80908 8.53507 7.24384 9.87443C8.25489 10.8202 9.51139 11.3841 10.7679 11.9158C12.2056 12.5208 13.614 13.1817 14.9173 14.0452C17.5443 15.7841 18.8358 18.2366 18.5407 21.3853C18.2105 24.8864 16.1709 27.0453 12.8893 28.0968C11.7234 28.4698 10.5166 28.6196 9.30685 28.7459H9.30392Z" fill="#003874"/>
</svg>
