<svg width="18" height="21" viewBox="0 0 18 21" fill="none" xmlns="http://www.w3.org/2000/svg">
<path d="M17.4044 7.01748C17.2904 3.6632 15.1076 1.15484 12.0891 0.482222C8.93029 -0.219767 5.91175 0.376485 2.94289 1.44269C2.4432 1.62185 1.95813 1.84508 1.98151 2.55294C2.01657 3.66027 1.99028 4.77053 1.99028 6.09814C3.61497 5.32859 5.04973 4.58842 6.64227 4.39456C8.13547 4.2154 9.66665 3.97455 11.005 4.96438C11.7238 5.49601 12.13 6.3008 11.9225 7.14378C11.7472 7.86339 10.9144 7.70478 10.3154 7.79583C8.11502 8.13655 5.85623 8.17473 3.76692 9.07351C1.14287 10.2043 -0.093179 12.3221 0.117213 15.2827C0.32176 18.1876 1.63963 19.8001 4.46823 20.6138C4.72537 20.6872 5.08187 20.5991 5.16369 20.9985H6.62474C8.59716 20.3641 10.4761 19.571 11.6946 17.7235C12.5771 18.5195 11.2534 19.9852 12.6092 20.2995C13.5794 20.5256 14.643 20.3406 15.6657 20.3377C15.8615 20.3377 16.0573 20.323 16.2502 20.3377C17.0917 20.4111 17.4862 20.1027 17.4774 19.1804C17.4365 15.1241 17.5417 11.062 17.4044 7.00867V7.01748ZM8.26112 16.5986C6.78254 16.6221 5.65752 15.8056 5.47051 14.5778C5.25135 13.1386 5.92635 12.0342 7.46046 11.6406C8.67313 11.3293 9.93548 11.2147 11.1774 11.0385C11.5689 10.9827 11.9926 10.9856 12.0452 11.5408C12.2907 14.1431 10.8969 16.534 8.26112 16.5986Z" fill="#003874"/>
</svg>
