<svg width="20" height="21" viewBox="0 0 20 21" fill="none" xmlns="http://www.w3.org/2000/svg">
<path d="M6.37711 3.68667C7.7505 2.00072 9.12097 0.793531 11.0963 0.358827C14.9184 -0.478274 18.159 1.63944 18.7931 5.52241C19.0123 6.87352 19.0941 8.23344 19.0824 9.60511C19.0532 12.7303 19.0445 15.8584 19.0912 18.9836C19.1058 19.9822 18.8136 20.4257 17.7704 20.3641C16.7038 20.2994 15.6256 20.2701 14.5619 20.3641C13.4019 20.461 13.1885 19.9382 13.209 18.9072C13.2674 16.1727 13.2353 13.4352 13.2236 10.7007C13.2178 9.57868 13.2148 8.45373 12.9606 7.34935C12.6626 6.05405 12.0051 5.10533 10.62 4.86448C8.9924 4.57957 7.64823 5.17876 6.87679 6.51812C6.40341 7.34054 6.231 8.23638 6.23685 9.18803C6.25146 12.4601 6.21055 15.735 6.26023 19.0071C6.27484 20.0263 5.95049 20.4199 4.92775 20.3611C3.8115 20.2965 2.68941 20.3171 1.57317 20.3611C0.714068 20.3934 0.378023 20.0968 0.383867 19.1833C0.418933 13.3706 0.418933 7.55495 0.383867 1.74224C0.378023 0.872835 0.699457 0.631985 1.49135 0.702478C2.06993 0.75241 2.65727 0.714227 3.24169 0.714227C5.11768 0.714227 6.1638 1.707 6.38004 3.69254L6.37711 3.68667Z" fill="#003874"/>
</svg>
