<svg width="19" height="21" viewBox="0 0 19 21" fill="none" xmlns="http://www.w3.org/2000/svg">
<path d="M18.1178 7.16433C17.9834 3.3871 15.9408 1.20183 12.2327 0.394104C10.0265 -0.0875956 7.88459 0.273679 5.75145 0.770064C2.69201 1.4838 2.69493 1.50142 2.70077 4.6031C2.70077 5.02606 2.70077 5.44901 2.70077 6.05701C3.29396 5.7956 3.72936 5.61643 4.15306 5.41377C5.94431 4.55611 7.82323 4.16546 9.80734 4.27707C10.833 4.33582 11.7155 4.69415 12.2824 5.58412C13.1736 6.97929 12.8668 7.59316 11.2479 7.78115C9.4187 7.99262 7.58069 8.15123 5.79528 8.64174C2.37642 9.58164 0.816013 11.5554 0.827702 14.9068C0.83939 18.1083 2.25954 19.7561 5.81866 20.7165C5.9297 20.7459 6.0086 20.9016 6.10211 20.9985H7.56316C9.46253 20.2789 11.3005 19.4624 12.7148 17.3388C12.7528 18.1788 12.8346 18.5225 12.7704 18.8338C12.4986 20.1379 13.1093 20.4493 14.2752 20.3553C15.2425 20.276 16.2214 20.3141 17.1915 20.3553C17.9542 20.3876 18.2113 20.0762 18.2055 19.3243C18.1675 15.271 18.261 11.2118 18.1178 7.1614V7.16433ZM12.7996 12.2046C12.7587 14.8745 10.9645 16.7601 8.59758 16.5927C7.35277 16.5046 6.45276 15.9084 6.2336 14.6189C6.01152 13.3295 6.42938 12.2956 7.72972 11.7904C9.10603 11.2558 10.5729 11.2177 12.0135 11.0356C13.01 10.9122 12.7587 11.6641 12.7996 12.2046Z" fill="#003874"/>
</svg>
