<svg width="15" height="15" viewBox="0 0 15 15" fill="none" xmlns="http://www.w3.org/2000/svg">
<path fill-rule="evenodd" clip-rule="evenodd" d="M6.22663 10.5737C8.66941 10.5737 10.6497 8.58727 10.6497 6.13686C10.6497 3.68645 8.66941 1.7 6.22663 1.7C3.78385 1.7 1.80359 3.68645 1.80359 6.13686C1.80359 8.58727 3.78385 10.5737 6.22663 10.5737ZM6.22663 12.2737C9.60537 12.2737 12.3444 9.52616 12.3444 6.13686C12.3444 2.74757 9.60537 0 6.22663 0C2.84789 0 0.108887 2.74757 0.108887 6.13686C0.108887 9.52616 2.84789 12.2737 6.22663 12.2737Z" fill="#1A051D"/>
<path fill-rule="evenodd" clip-rule="evenodd" d="M9.99712 9.9193C9.66621 10.2512 9.66621 10.7894 9.99712 11.1214L12.4691 13.601C12.8 13.933 13.3365 13.933 13.6674 13.601C13.9983 13.2691 13.9983 12.7309 13.6674 12.399L11.1955 9.9193C10.8645 9.58735 10.328 9.58735 9.99712 9.9193Z" fill="#1A051D"/>
</svg>
