<svg width="11" height="11" viewBox="0 0 11 11" fill="none" xmlns="http://www.w3.org/2000/svg">
<path d="M1.7085 8.75001H4.00516C4.07645 8.75042 4.14712 8.73676 4.21311 8.7098C4.27911 8.68285 4.33913 8.64313 4.38975 8.59292L8.13808 4.83917L9.67641 3.33334C9.72718 3.28299 9.76748 3.22308 9.79498 3.15707C9.82248 3.09106 9.83664 3.02026 9.83664 2.94876C9.83664 2.87725 9.82248 2.80645 9.79498 2.74045C9.76748 2.67444 9.72718 2.61453 9.67641 2.56417L7.37975 0.240424C7.32939 0.189655 7.26948 0.149358 7.20348 0.121858C7.13747 0.0943584 7.06667 0.0802002 6.99516 0.0802002C6.92366 0.0802002 6.85286 0.0943584 6.78685 0.121858C6.72084 0.149358 6.66093 0.189655 6.61058 0.240424L5.08308 1.77334L1.32391 5.52709C1.27371 5.5777 1.23399 5.63773 1.20704 5.70373C1.18008 5.76972 1.16642 5.84039 1.16683 5.91167V8.20834C1.16683 8.352 1.2239 8.48978 1.32548 8.59136C1.42706 8.69294 1.56484 8.75001 1.7085 8.75001ZM6.99516 1.38876L8.52808 2.92167L7.75891 3.69084L6.226 2.15792L6.99516 1.38876ZM2.25016 6.13376L5.46225 2.92167L6.99516 4.45459L3.78308 7.66667H2.25016V6.13376ZM10.3752 9.83334H0.625163C0.481504 9.83334 0.343729 9.89041 0.242147 9.99199C0.140564 10.0936 0.0834961 10.2313 0.0834961 10.375C0.0834961 10.5187 0.140564 10.6564 0.242147 10.758C0.343729 10.8596 0.481504 10.9167 0.625163 10.9167H10.3752C10.5188 10.9167 10.6566 10.8596 10.7582 10.758C10.8598 10.6564 10.9168 10.5187 10.9168 10.375C10.9168 10.2313 10.8598 10.0936 10.7582 9.99199C10.6566 9.89041 10.5188 9.83334 10.3752 9.83334Z" fill="#003874"/>
</svg>
