<svg width="30" height="32" viewBox="0 0 30 32" fill="none" xmlns="http://www.w3.org/2000/svg">
<mask id="mask0_11195_22067" style="mask-type:luminance" maskUnits="userSpaceOnUse" x="0" y="0" width="30" height="32">
<path d="M11.8166 4.24665C9.6946 4.24665 6.44127 5.47132 7.5726 13.0553C7.58993 13.17 7.6126 13.294 7.63593 13.4267C7.8426 14.5673 8.16127 16.3333 6.13327 17.7893C7.5126 18.9213 9.47727 20.0527 11.8646 20.5427C11.7703 21.0841 11.6519 21.6211 11.5099 22.152C11.3159 22.864 10.9093 23.3687 10.1826 23.584C9.5426 23.7733 8.87193 23.9267 8.18527 24.084C8.0086 24.124 7.8306 24.1647 7.65193 24.2067C6.79527 24.406 5.92193 24.6267 5.14793 24.9387C4.37193 25.252 3.6506 25.674 3.12927 26.3033C2.5986 26.9453 2.3146 27.7547 2.33393 28.7667C2.3406 29.0813 2.60993 29.3333 2.9406 29.3333H27.0593C27.3899 29.3333 27.6593 29.0813 27.6659 28.7667C27.6853 27.7547 27.4019 26.9453 26.8706 26.3033C26.3499 25.674 25.6279 25.2513 24.8526 24.9387C24.0779 24.626 23.2046 24.4053 22.3473 24.206L21.8153 24.084C21.1279 23.9267 20.4573 23.7733 19.8173 23.584C19.0906 23.3687 18.6839 22.864 18.4899 22.152C18.3202 21.5199 18.1853 20.8789 18.0859 20.232C19.9113 19.6827 21.8513 18.6953 23.8666 17.1187L23.8573 17.1093C22.9113 16.204 21.1379 14.5067 21.0119 10.4773C21.0119 4.92932 17.4746 0.0533177 11.8166 4.24665Z" fill="white" stroke="white" stroke-width="4" stroke-linejoin="round"/>
</mask>
<g mask="url(#mask0_11195_22067)">
<path d="M-1 0H31V32H-1V0Z" fill="white"/>
</g>
</svg>
