<svg width="142" height="115" viewBox="0 0 142 115" fill="none" xmlns="http://www.w3.org/2000/svg">
<g clip-path="url(#clip0_1097_1979)">
<path d="M141.76 19.4478H0.239746V40.9529H141.76V19.4478Z" fill="white"/>
<path d="M142 41.1885H0V19.2075H142V41.1933V41.1885ZM0.479471 40.7078H141.521V19.6882H0.479471V40.7126V40.7078Z" fill="#DBDBDB"/>
<path d="M12.7348 25.2737C13.032 26.0956 13.1855 26.9128 13.3005 27.7347C13.406 28.5566 13.454 29.3786 13.454 30.1957C13.454 31.0177 13.406 31.8348 13.3005 32.6568C13.1903 33.4787 13.0368 34.2958 12.7348 35.1178C12.4375 34.2958 12.2793 33.4787 12.169 32.6568C12.0635 31.8348 12.0156 31.0177 12.0156 30.1957C12.0156 29.3738 12.0635 28.5566 12.169 27.7347C12.2793 26.9128 12.4327 26.0956 12.7348 25.2737V25.2737Z" fill="#37474F"/>
<path d="M17.6493 30.1956C16.8294 30.4936 16.0143 30.6474 15.1944 30.7628C14.3745 30.8685 13.5594 30.9166 12.7396 30.9166C11.9197 30.9166 11.1046 30.8685 10.2847 30.7628C9.46477 30.6522 8.64967 30.4984 7.82977 30.1956C8.64967 29.8976 9.46477 29.739 10.2847 29.6284C11.1046 29.5227 11.9197 29.4746 12.7396 29.4746C13.5594 29.4746 14.3745 29.5227 15.1944 29.6284C16.0143 29.739 16.8294 29.8928 17.6493 30.1956V30.1956Z" fill="#37474F"/>
<path d="M16.2061 26.7156C15.8369 27.5087 15.3671 28.196 14.8684 28.8546C14.365 29.5083 13.8184 30.1235 13.243 30.7051C12.6628 31.2867 12.0491 31.8299 11.397 32.3394C10.7402 32.8393 10.0497 33.3104 9.25861 33.6805C9.6278 32.8874 10.0929 32.1952 10.5963 31.5367C11.0998 30.883 11.6464 30.2677 12.2265 29.6861C12.8067 29.1045 13.4204 28.5613 14.0725 28.0566C14.7294 27.5567 15.4198 27.0857 16.2061 26.7156V26.7156Z" fill="#37474F"/>
<path d="M16.2061 33.6805C15.415 33.3104 14.7294 32.8393 14.0725 32.3394C13.4204 31.8347 12.8067 31.2867 12.2265 30.7099C11.6464 30.1283 11.1046 29.5131 10.5963 28.8594C10.0977 28.2008 9.6278 27.5087 9.25861 26.7156C10.0497 27.0857 10.7402 27.5519 11.397 28.0566C12.0491 28.5613 12.6628 29.1093 13.243 29.6909C13.8232 30.2725 14.365 30.8878 14.8684 31.5415C15.3671 32.2 15.8369 32.8922 16.2061 33.6805V33.6805Z" fill="#37474F"/>
<path d="M31.8848 25.2737C32.1821 26.0956 32.3355 26.9128 32.4506 27.7347C32.5561 28.5566 32.604 29.3786 32.604 30.1957C32.604 31.0177 32.5561 31.8348 32.4506 32.6568C32.3403 33.4787 32.1869 34.2958 31.8848 35.1178C31.5875 34.2958 31.4293 33.4787 31.319 32.6568C31.2135 31.8348 31.1656 31.0177 31.1656 30.1957C31.1656 29.3738 31.2135 28.5566 31.319 27.7347C31.4293 26.9128 31.5827 26.0956 31.8848 25.2737V25.2737Z" fill="#37474F"/>
<path d="M36.7946 30.1956C35.9747 30.4936 35.1596 30.6474 34.3397 30.7628C33.5198 30.8685 32.7047 30.9166 31.8848 30.9166C31.0649 30.9166 30.2498 30.8685 29.4299 30.7628C28.61 30.6522 27.7949 30.4984 26.975 30.1956C27.7949 29.8976 28.61 29.739 29.4299 29.6284C30.2498 29.5227 31.0649 29.4746 31.8848 29.4746C32.7047 29.4746 33.5198 29.5227 34.3397 29.6284C35.1596 29.739 35.9747 29.8928 36.7946 30.1956V30.1956Z" fill="#37474F"/>
<path d="M35.3562 26.7156C34.987 27.5087 34.5171 28.196 34.0184 28.8546C33.515 29.5083 32.9684 30.1235 32.393 30.7051C31.8129 31.2867 31.1991 31.8299 30.5471 32.3394C29.8902 32.8393 29.1998 33.3104 28.4086 33.6805C28.7778 32.8874 29.2429 32.1952 29.7464 31.5367C30.2498 30.883 30.7964 30.2677 31.3766 29.6861C31.9567 29.1045 32.5704 28.5613 33.2225 28.0566C33.8794 27.5567 34.5698 27.0857 35.3562 26.7156V26.7156Z" fill="#37474F"/>
<path d="M35.3562 33.6805C34.565 33.3104 33.8794 32.8393 33.2225 32.3394C32.5704 31.8347 31.9567 31.2867 31.3766 30.7099C30.7964 30.1283 30.2546 29.5131 29.7464 28.8594C29.2477 28.2008 28.7778 27.5087 28.4086 26.7156C29.1998 27.0857 29.8902 27.5519 30.5471 28.0566C31.1991 28.5613 31.8129 29.1093 32.393 29.6909C32.9732 30.2725 33.515 30.8878 34.0184 31.5415C34.5171 32.2 34.987 32.8922 35.3562 33.6805V33.6805Z" fill="#37474F"/>
<path d="M51.0348 25.2737C51.3321 26.0956 51.4855 26.9128 51.6006 27.7347C51.7061 28.5566 51.754 29.3786 51.754 30.1957C51.754 31.0177 51.7061 31.8348 51.6006 32.6568C51.4903 33.4787 51.3369 34.2958 51.0348 35.1178C50.7375 34.2958 50.5793 33.4787 50.469 32.6568C50.3636 31.8348 50.3156 31.0177 50.3156 30.1957C50.3156 29.3738 50.3636 28.5566 50.469 27.7347C50.5793 26.9128 50.7328 26.0956 51.0348 25.2737V25.2737Z" fill="#37474F"/>
<path d="M55.9446 30.1956C55.1247 30.4936 54.3096 30.6474 53.4897 30.7628C52.6698 30.8685 51.8547 30.9166 51.0348 30.9166C50.2149 30.9166 49.3998 30.8685 48.58 30.7628C47.7601 30.6522 46.945 30.4984 46.1251 30.1956C46.945 29.8976 47.7601 29.739 48.58 29.6284C49.3998 29.5227 50.2149 29.4746 51.0348 29.4746C51.8547 29.4746 52.6698 29.5227 53.4897 29.6284C54.3096 29.739 55.1247 29.8928 55.9446 30.1956V30.1956Z" fill="#37474F"/>
<path d="M54.5062 26.7156C54.137 27.5087 53.6671 28.196 53.1685 28.8546C52.665 29.5083 52.1184 30.1235 51.5431 30.7051C50.9629 31.2867 50.3492 31.8299 49.6971 32.3394C49.0402 32.8393 48.3498 33.3104 47.5587 33.6805C47.9278 32.8874 48.3929 32.1952 48.8964 31.5367C49.3998 30.883 49.9464 30.2677 50.5266 29.6861C51.1067 29.1045 51.7205 28.5613 52.3725 28.0566C53.0294 27.5567 53.7198 27.0857 54.5062 26.7156V26.7156Z" fill="#37474F"/>
<path d="M54.5062 33.6805C53.7151 33.3104 53.0294 32.8393 52.3725 32.3394C51.7205 31.8347 51.1067 31.2867 50.5266 30.7099C49.9464 30.1283 49.4046 29.5131 48.8964 28.8594C48.3977 28.2008 47.9278 27.5087 47.5587 26.7156C48.3498 27.0857 49.0402 27.5519 49.6971 28.0566C50.3492 28.5613 50.9629 29.1093 51.5431 29.6909C52.1232 30.2725 52.665 30.8878 53.1685 31.5415C53.6671 32.2 54.137 32.8922 54.5062 33.6805V33.6805Z" fill="#37474F"/>
<path d="M70.1801 25.2737C70.4774 26.0956 70.6308 26.9128 70.7459 27.7347C70.8514 28.5566 70.8993 29.3786 70.8993 30.1957C70.8993 31.0177 70.8514 31.8348 70.7459 32.6568C70.6356 33.4787 70.4822 34.2958 70.1801 35.1178C69.8829 34.2958 69.7246 33.4787 69.6144 32.6568C69.5089 31.8348 69.4609 31.0177 69.4609 30.1957C69.4609 29.3738 69.5089 28.5566 69.6144 27.7347C69.7246 26.9128 69.8781 26.0956 70.1801 25.2737V25.2737Z" fill="#37474F"/>
<path d="M75.0947 30.1956C74.2748 30.4936 73.4597 30.6474 72.6398 30.7628C71.8199 30.8685 71.0048 30.9166 70.1849 30.9166C69.365 30.9166 68.5499 30.8685 67.73 30.7628C66.9101 30.6522 66.095 30.4984 65.2751 30.1956C66.095 29.8976 66.9101 29.739 67.73 29.6284C68.5499 29.5227 69.365 29.4746 70.1849 29.4746C71.0048 29.4746 71.8199 29.5227 72.6398 29.6284C73.4597 29.739 74.2748 29.8928 75.0947 30.1956V30.1956Z" fill="#37474F"/>
<path d="M73.6563 26.7156C73.2871 27.5087 72.8172 28.196 72.3185 28.8546C71.8151 29.5083 71.2685 30.1235 70.6931 30.7051C70.113 31.2867 69.4993 31.8299 68.8472 32.3394C68.1903 32.8393 67.4999 33.3104 66.7087 33.6805C67.0779 32.8874 67.543 32.1952 68.0465 31.5367C68.5499 30.883 69.0965 30.2677 69.6767 29.6861C70.2568 29.1045 70.8705 28.5613 71.5226 28.0566C72.1795 27.5567 72.8699 27.0857 73.6563 26.7156V26.7156Z" fill="#37474F"/>
<path d="M73.6563 33.6805C72.8651 33.3104 72.1795 32.8393 71.5226 32.3394C70.8705 31.8347 70.2568 31.2867 69.6767 30.7099C69.0965 30.1283 68.5547 29.5131 68.0465 28.8594C67.5478 28.2008 67.0779 27.5087 66.7087 26.7156C67.4999 27.0857 68.1903 27.5519 68.8472 28.0566C69.4993 28.5613 70.113 29.1093 70.6931 29.6909C71.2733 30.2725 71.8151 30.8878 72.3185 31.5415C72.8172 32.2 73.2871 32.8922 73.6563 33.6805V33.6805Z" fill="#37474F"/>
<path d="M89.3302 25.2737C89.6274 26.0956 89.7809 26.9128 89.8959 27.7347C90.0014 28.5566 90.0494 29.3786 90.0494 30.1957C90.0494 31.0177 90.0014 31.8348 89.8959 32.6568C89.7857 33.4787 89.6322 34.2958 89.3302 35.1178C89.0329 34.2958 88.8747 33.4787 88.7644 32.6568C88.6589 31.8348 88.611 31.0177 88.611 30.1957C88.611 29.3738 88.6589 28.5566 88.7644 27.7347C88.8747 26.9128 89.0281 26.0956 89.3302 25.2737V25.2737Z" fill="#37474F"/>
<path d="M94.2447 30.1956C93.4248 30.4936 92.6097 30.6474 91.7898 30.7628C90.9699 30.8685 90.1548 30.9166 89.335 30.9166C88.5151 30.9166 87.7 30.8685 86.8801 30.7628C86.0602 30.6522 85.2451 30.4984 84.4252 30.1956C85.2451 29.8976 86.0602 29.739 86.8801 29.6284C87.7 29.5227 88.5151 29.4746 89.335 29.4746C90.1548 29.4746 90.9699 29.5227 91.7898 29.6284C92.6097 29.739 93.4248 29.8928 94.2447 30.1956V30.1956Z" fill="#37474F"/>
<path d="M92.8063 26.7156C92.4371 27.5087 91.9672 28.196 91.4686 28.8546C90.9651 29.5083 90.4185 30.1235 89.8432 30.7051C89.263 31.2867 88.6493 31.8299 87.9972 32.3394C87.3403 32.8393 86.6499 33.3104 85.8588 33.6805C86.228 32.8874 86.693 32.1952 87.1965 31.5367C87.6999 30.883 88.2465 30.2677 88.8267 29.6861C89.4068 29.1045 90.0206 28.5613 90.6726 28.0566C91.3295 27.5567 92.02 27.0857 92.8063 26.7156V26.7156Z" fill="#37474F"/>
<path d="M92.8063 33.6805C92.0152 33.3104 91.3295 32.8393 90.6726 32.3394C90.0206 31.8347 89.4068 31.2867 88.8267 30.7099C88.2465 30.1283 87.7047 29.5131 87.1965 28.8594C86.6978 28.2008 86.228 27.5087 85.8588 26.7156C86.6499 27.0857 87.3403 27.5519 87.9972 28.0566C88.6493 28.5613 89.263 29.1093 89.8432 29.6909C90.4233 30.2725 90.9651 30.8878 91.4686 31.5415C91.9672 32.2 92.4371 32.8922 92.8063 33.6805V33.6805Z" fill="#37474F"/>
<path d="M108.48 25.2737C108.778 26.0956 108.931 26.9128 109.046 27.7347C109.152 28.5566 109.199 29.3786 109.199 30.1957C109.199 31.0177 109.152 31.8348 109.046 32.6568C108.936 33.4787 108.782 34.2958 108.48 35.1178C108.183 34.2958 108.025 33.4787 107.914 32.6568C107.809 31.8348 107.761 31.0177 107.761 30.1957C107.761 29.3738 107.809 28.5566 107.914 27.7347C108.025 26.9128 108.178 26.0956 108.48 25.2737V25.2737Z" fill="#37474F"/>
<path d="M113.395 30.1956C112.575 30.4936 111.76 30.6474 110.94 30.7628C110.12 30.8685 109.305 30.9166 108.485 30.9166C107.665 30.9166 106.85 30.8685 106.03 30.7628C105.21 30.6522 104.39 30.4984 103.575 30.1956C104.395 29.8976 105.21 29.739 106.03 29.6284C106.85 29.5227 107.665 29.4746 108.485 29.4746C109.305 29.4746 110.12 29.5227 110.94 29.6284C111.76 29.739 112.575 29.8928 113.395 30.1956V30.1956Z" fill="#37474F"/>
<path d="M111.956 26.7156C111.587 27.5087 111.117 28.196 110.619 28.8546C110.115 29.5083 109.569 30.1235 108.993 30.7051C108.413 31.2867 107.799 31.8299 107.147 32.3394C106.49 32.8393 105.8 33.3104 105.009 33.6805C105.378 32.8874 105.843 32.1952 106.347 31.5367C106.85 30.883 107.397 30.2677 107.977 29.6861C108.557 29.1045 109.171 28.5613 109.823 28.0566C110.48 27.5567 111.17 27.0857 111.956 26.7156V26.7156Z" fill="#37474F"/>
<path d="M111.956 33.6805C111.165 33.3104 110.48 32.8393 109.823 32.3394C109.171 31.8347 108.557 31.2867 107.977 30.7099C107.397 30.1283 106.855 29.5131 106.347 28.8594C105.848 28.2008 105.378 27.5087 105.009 26.7156C105.8 27.0857 106.49 27.5519 107.147 28.0566C107.799 28.5613 108.413 29.1093 108.993 29.6909C109.573 30.2725 110.115 30.8878 110.619 31.5415C111.117 32.2 111.587 32.8922 111.956 33.6805V33.6805Z" fill="#37474F"/>
<path d="M95.1988 25.8504V52.0276H87.8198V25.8504C87.8198 15.8957 80.2777 7.80125 71 7.80125C61.7222 7.80125 54.1801 15.8957 54.1801 25.8504V52.0276H46.8011V25.8504C46.8011 11.5937 57.6563 0 71 0C84.3436 0 95.1988 11.5937 95.1988 25.8504Z" fill="#455A64"/>
<path d="M46.8011 32.6567L54.1801 32.9548V52.0277H46.8011V32.6567Z" fill="#263238"/>
<path d="M95.1989 34.6322V52.0276H87.8198V34.3293L95.1989 34.6322Z" fill="#263238"/>
<path d="M104.659 37.1221H37.3459V98.3449H104.659V37.1221Z" fill="#6979F8"/>
<path opacity="0.1" d="M104.654 37.1221H71V98.3449H104.654V37.1221Z" fill="black"/>
<path d="M73.8481 69.9757L76.6673 83.3768H64.7094L67.5286 69.9757C65.8457 68.9086 64.7094 67.0484 64.7094 64.9095C64.7094 61.5688 67.3896 58.9155 70.6883 58.9155C73.9871 58.9155 76.6673 61.5688 76.6673 64.9095C76.6673 67.0436 75.531 68.9038 73.8481 69.9757Z" fill="white"/>
<path d="M51.4472 69.9516C51.4472 69.9516 47.9279 98.1957 42.1455 104.55C35.2027 112.174 30.1635 111.058 27.3586 114.99C27.3538 114.99 27.3538 114.995 27.3538 114.995C24.5489 111.058 19.5097 112.178 12.5621 104.55C6.77972 98.1957 3.2652 69.9516 3.2652 69.9516C18.5076 62.5349 27.3538 54.2241 27.3538 54.2241H27.3586C27.6319 54.4837 36.4446 62.6551 51.4472 69.9516V69.9516Z" fill="#EBEBEB"/>
<path d="M27.3636 54.2289V114.99L27.3588 114.995C24.5539 111.058 19.5147 112.178 12.5671 104.55C6.78472 98.1957 3.2702 69.9516 3.2702 69.9516C18.5126 62.5349 27.3588 54.2241 27.3588 54.2241H27.3636V54.2289Z" fill="#DBDBDB"/>
<path d="M47.7121 72.2299C47.7121 72.2299 44.7394 96.0903 39.8536 101.459C33.9849 107.91 29.7224 106.963 27.3538 110.284C24.9852 106.963 20.7275 107.91 14.854 101.459C9.96817 96.0903 7.00024 72.2299 7.00024 72.2299C19.874 65.962 27.349 58.9395 27.349 58.9395C27.349 58.9395 34.8287 65.962 47.7025 72.2299H47.7121Z" fill="#DBDBDB"/>
<path d="M7.01465 72.2299C7.01465 72.2299 9.98737 96.0854 14.8732 101.459C20.7371 107.905 24.9948 106.963 27.3634 110.275V58.949C27.1332 59.1653 19.6871 66.0629 7.01465 72.2299V72.2299Z" fill="#C7C7C7"/>
<path d="M34.0306 91.3032C37.7156 87.609 37.7156 81.6195 34.0306 77.9253C30.3456 74.2311 24.3711 74.2312 20.6861 77.9253C17.0011 81.6195 17.0011 87.609 20.6861 91.3032C24.3711 94.9974 30.3456 94.9974 34.0306 91.3032Z" fill="#4F4F4F"/>
<path d="M26.2845 90.7597L22.0796 86.376L23.6379 84.8715L25.9585 87.2892L30.9498 79.6082L32.7622 80.7906L26.2845 90.7597Z" fill="white"/>
</g>
<defs>
<clipPath id="clip0_1097_1979">
<rect width="142" height="115" fill="white"/>
</clipPath>
</defs>
</svg>
