<svg width="18" height="18" viewBox="0 0 18 18" fill="none" xmlns="http://www.w3.org/2000/svg">
<path d="M16.5583 13.025L14.8333 11.2583C14.4623 10.9056 13.9942 10.6719 13.4894 10.5873C12.9845 10.5026 12.4658 10.5709 12 10.7833L11.25 10.0333C12.1338 8.85243 12.5374 7.38056 12.3796 5.91403C12.2218 4.44749 11.5143 3.09518 10.3995 2.12933C9.28474 1.16348 7.84545 0.655794 6.37139 0.708484C4.89733 0.761174 3.49796 1.37032 2.45498 2.4133C1.41199 3.45629 0.802845 4.85566 0.750156 6.32972C0.697466 7.80378 1.20515 9.24307 2.171 10.3579C3.13686 11.4726 4.48916 12.1801 5.9557 12.3379C7.42223 12.4957 8.8941 12.0921 10.075 11.2083L10.8167 11.95C10.5792 12.4164 10.4942 12.9455 10.5734 13.4628C10.6526 13.98 10.8922 14.4594 11.2583 14.8333L13.025 16.6C13.4938 17.0682 14.1292 17.3311 14.7917 17.3311C15.4542 17.3311 16.0896 17.0682 16.5583 16.6C16.7965 16.3672 16.9856 16.0891 17.1148 15.7822C17.244 15.4752 17.3105 15.1455 17.3105 14.8125C17.3105 14.4795 17.244 14.1498 17.1148 13.8428C16.9856 13.5359 16.7965 13.2578 16.5583 13.025ZM9.49167 9.49166C8.90853 10.0733 8.16609 10.4691 7.35812 10.629C6.55015 10.789 5.71292 10.7058 4.95217 10.3902C4.19143 10.0745 3.5413 9.54042 3.08393 8.85544C2.62656 8.17047 2.38245 7.3653 2.38245 6.54166C2.38245 5.71802 2.62656 4.91286 3.08393 4.22788C3.5413 3.54291 4.19143 3.00885 4.95217 2.69317C5.71292 2.3775 6.55015 2.29437 7.35812 2.45429C8.16609 2.61421 8.90853 3.01 9.49167 3.59166C9.8797 3.97871 10.1876 4.43851 10.3976 4.94472C10.6077 5.45093 10.7158 5.9936 10.7158 6.54166C10.7158 7.08972 10.6077 7.6324 10.3976 8.13861C10.1876 8.64482 9.8797 9.10462 9.49167 9.49166ZM15.3833 15.3833C15.3059 15.4614 15.2137 15.5234 15.1121 15.5657C15.0106 15.608 14.9017 15.6298 14.7917 15.6298C14.6817 15.6298 14.5727 15.608 14.4712 15.5657C14.3696 15.5234 14.2775 15.4614 14.2 15.3833L12.4333 13.6167C12.3552 13.5392 12.2932 13.447 12.2509 13.3455C12.2086 13.2439 12.1868 13.135 12.1868 13.025C12.1868 12.915 12.2086 12.8061 12.2509 12.7045C12.2932 12.603 12.3552 12.5108 12.4333 12.4333C12.5108 12.3552 12.603 12.2932 12.7045 12.2509C12.8061 12.2086 12.915 12.1868 13.025 12.1868C13.135 12.1868 13.2439 12.2086 13.3455 12.2509C13.447 12.2932 13.5392 12.3552 13.6167 12.4333L15.3833 14.2C15.4614 14.2775 15.5234 14.3696 15.5657 14.4712C15.6081 14.5727 15.6298 14.6817 15.6298 14.7917C15.6298 14.9017 15.6081 15.0106 15.5657 15.1121C15.5234 15.2137 15.4614 15.3059 15.3833 15.3833Z" fill="#808080"/>
</svg>
