<svg width="29" height="29" viewBox="0 0 29 29" fill="none" xmlns="http://www.w3.org/2000/svg">
<path d="M23.8334 12.3978C23.524 12.3978 23.2272 12.5207 23.0085 12.7395C22.7897 12.9583 22.6667 13.255 22.6667 13.5645V21.7311C22.6667 22.0405 22.5438 22.3373 22.325 22.5561C22.1062 22.7749 21.8095 22.8978 21.5001 22.8978H5.16675C4.85733 22.8978 4.56058 22.7749 4.34179 22.5561C4.123 22.3373 4.00008 22.0405 4.00008 21.7311V12.3978C4.00008 12.0884 4.123 11.7916 4.34179 11.5728C4.56058 11.354 4.85733 11.2311 5.16675 11.2311H7.50008C7.75449 11.2444 8.00626 11.174 8.21692 11.0308C8.42759 10.8875 8.58557 10.6793 8.66675 10.4378L9.29675 8.52445C9.37501 8.29273 9.52413 8.09146 9.72301 7.9491C9.9219 7.80674 10.1605 7.73049 10.4051 7.73112H16.8334C17.1428 7.73112 17.4396 7.6082 17.6584 7.38941C17.8772 7.17062 18.0001 6.87387 18.0001 6.56445C18.0001 6.25503 17.8772 5.95829 17.6584 5.7395C17.4396 5.5207 17.1428 5.39779 16.8334 5.39779H10.3467C9.61355 5.39916 8.89931 5.63075 8.30481 6.05988C7.71031 6.489 7.26559 7.09399 7.03341 7.78945L6.66008 8.95612H5.16675C4.23849 8.95612 3.34825 9.32487 2.69187 9.98125C2.0355 10.6376 1.66675 11.5279 1.66675 12.4561V21.7895C1.66675 22.7177 2.0355 23.608 2.69187 24.2643C3.34825 24.9207 4.23849 25.2895 5.16675 25.2895H21.5001C22.4283 25.2895 23.3186 24.9207 23.975 24.2643C24.6313 23.608 25.0001 22.7177 25.0001 21.7895V13.6228C25.008 13.4647 24.9837 13.3067 24.9286 13.1584C24.8735 13.01 24.7888 12.8744 24.6797 12.7599C24.5706 12.6453 24.4393 12.5541 24.2938 12.4918C24.1483 12.4296 23.9917 12.3976 23.8334 12.3978ZM13.3334 11.2311C12.4104 11.2311 11.5082 11.5048 10.7408 12.0176C9.97333 12.5304 9.37519 13.2592 9.02198 14.1119C8.66877 14.9647 8.57635 15.903 8.75642 16.8082C8.93648 17.7135 9.38094 18.545 10.0336 19.1976C10.6862 19.8503 11.5177 20.2947 12.423 20.4748C13.3282 20.6549 14.2666 20.5624 15.1193 20.2092C15.972 19.856 16.7008 19.2579 17.2136 18.4904C17.7264 17.723 18.0001 16.8208 18.0001 15.8978C18.0001 14.6601 17.5084 13.4731 16.6332 12.598C15.7581 11.7228 14.5711 11.2311 13.3334 11.2311ZM13.3334 18.2311C12.8719 18.2311 12.4208 18.0943 12.0371 17.8379C11.6534 17.5815 11.3543 17.2171 11.1777 16.7907C11.0011 16.3644 10.9549 15.8952 11.0449 15.4426C11.1349 14.99 11.3572 14.5742 11.6835 14.2479C12.0098 13.9215 12.4256 13.6993 12.8782 13.6093C13.3308 13.5193 13.8 13.5655 14.2263 13.7421C14.6527 13.9187 15.0171 14.2177 15.2735 14.6015C15.5299 14.9852 15.6667 15.4363 15.6667 15.8978C15.6667 16.5166 15.4209 17.1101 14.9833 17.5477C14.5457 17.9853 13.9523 18.2311 13.3334 18.2311ZM26.1667 5.39779H25.0001V4.23112C25.0001 3.9217 24.8772 3.62495 24.6584 3.40616C24.4396 3.18737 24.1428 3.06445 23.8334 3.06445C23.524 3.06445 23.2272 3.18737 23.0085 3.40616C22.7897 3.62495 22.6667 3.9217 22.6667 4.23112V5.39779H21.5001C21.1907 5.39779 20.8939 5.5207 20.6751 5.7395C20.4563 5.95829 20.3334 6.25503 20.3334 6.56445C20.3334 6.87387 20.4563 7.17062 20.6751 7.38941C20.8939 7.6082 21.1907 7.73112 21.5001 7.73112H22.6667V8.89779C22.6667 9.20721 22.7897 9.50395 23.0085 9.72274C23.2272 9.94154 23.524 10.0645 23.8334 10.0645C24.1428 10.0645 24.4396 9.94154 24.6584 9.72274C24.8772 9.50395 25.0001 9.20721 25.0001 8.89779V7.73112H26.1667C26.4762 7.73112 26.7729 7.6082 26.9917 7.38941C27.2105 7.17062 27.3334 6.87387 27.3334 6.56445C27.3334 6.25503 27.2105 5.95829 26.9917 5.7395C26.7729 5.5207 26.4762 5.39779 26.1667 5.39779Z" fill="#808080"/>
</svg>
