<svg width="16" height="15" viewBox="0 0 16 15" fill="none" xmlns="http://www.w3.org/2000/svg">
<path d="M11.0496 6.66873C10.8133 6.66873 10.5587 6.66873 10.3223 6.68817V2.00206H10.3041C10.3223 1.94373 10.3223 1.86595 10.3223 1.80762C10.3223 0.602062 7.86769 0.0576172 5.59488 0.0576172C3.32207 0.0576172 0.867432 0.602062 0.867432 1.80762C0.867432 1.86595 0.867432 1.94373 0.885614 2.00206H0.867432V9.58539C0.867432 10.7909 3.32207 11.3354 5.59488 11.3354C5.83125 11.3354 6.0858 11.3354 6.32218 11.3159V12.3076C6.32218 13.5132 8.77681 14.0576 11.0496 14.0576C13.3224 14.0576 15.7771 13.5132 15.7771 12.3076V8.41873C15.7771 7.21317 13.3224 6.66873 11.0496 6.66873ZM9.46775 6.76595C9.52229 6.74651 9.55866 6.72706 9.59502 6.68817V6.74651C9.55866 6.74651 9.50411 6.74651 9.46775 6.76595ZM5.59488 0.835395C8.19497 0.835395 9.59502 1.51595 9.59502 1.80762C9.59502 2.09928 8.19497 2.77984 5.59488 2.77984C2.99478 2.77984 1.59473 2.09928 1.59473 1.80762C1.59473 1.51595 2.99478 0.835395 5.59488 0.835395ZM1.59473 2.79928C2.48567 3.32428 4.08573 3.55762 5.59488 3.55762C7.10402 3.55762 8.70408 3.32428 9.59502 2.79928V3.75206C9.59502 4.04373 8.19497 4.72428 5.59488 4.72428C2.99478 4.72428 1.59473 4.04373 1.59473 3.75206V2.79928ZM1.59473 4.74373C2.48567 5.26873 4.08573 5.50206 5.59488 5.50206C7.10402 5.50206 8.70408 5.26873 9.59502 4.74373V5.69651C9.59502 5.98817 8.19497 6.66873 5.59488 6.66873C2.99478 6.66873 1.59473 5.98817 1.59473 5.69651V4.74373ZM1.59473 6.68817C2.48567 7.21317 4.08573 7.44651 5.59488 7.44651C6.12217 7.44651 6.66764 7.40762 7.17675 7.34928C6.64946 7.62151 6.32218 7.97151 6.32218 8.41873V8.59373C6.0858 8.61317 5.83125 8.61317 5.59488 8.61317C2.99478 8.61317 1.59473 7.93262 1.59473 7.64095V6.68817ZM5.59488 10.5576C2.99478 10.5576 1.59473 9.87706 1.59473 9.58539V8.63262C2.48567 9.15762 4.08573 9.39095 5.59488 9.39095C5.83125 9.39095 6.0858 9.39095 6.32218 9.3715V10.5382C6.0858 10.5576 5.83125 10.5576 5.59488 10.5576ZM11.0496 13.2798C8.44953 13.2798 7.04948 12.5993 7.04948 12.3076V11.3548C7.94042 11.8798 9.54048 12.1132 11.0496 12.1132C12.5588 12.1132 14.1588 11.8798 15.0498 11.3548V12.3076C15.0498 12.5993 13.6497 13.2798 11.0496 13.2798ZM11.0496 11.3354C8.44953 11.3354 7.04948 10.6548 7.04948 10.3632V9.41039C7.94042 9.93539 9.54048 10.1687 11.0496 10.1687C12.5588 10.1687 14.1588 9.93539 15.0498 9.41039V10.3632C15.0498 10.6548 13.6497 11.3354 11.0496 11.3354ZM11.0496 9.39095C8.44953 9.39095 7.04948 8.71039 7.04948 8.41873C7.04948 8.12706 8.44953 7.44651 11.0496 7.44651C13.6497 7.44651 15.0498 8.12706 15.0498 8.41873C15.0498 8.71039 13.6497 9.39095 11.0496 9.39095Z" fill="#27AE60"/>
</svg>
