<svg width="18" height="18" viewBox="0 0 18 18" fill="none" xmlns="http://www.w3.org/2000/svg">
<path d="M16.5582 13.0248L14.8332 11.2582C14.4622 10.9055 13.9942 10.6718 13.4893 10.5871C12.9844 10.5025 12.4657 10.5707 11.9999 10.7832L11.2499 10.0332C12.1337 8.85226 12.5373 7.38039 12.3795 5.91386C12.2217 4.44732 11.5142 3.09502 10.3994 2.12916C9.28465 1.16331 7.84536 0.655627 6.3713 0.708316C4.89724 0.761006 3.49787 1.37015 2.45489 2.41314C1.4119 3.45612 0.802754 4.85549 0.750064 6.32955C0.697375 7.80361 1.20506 9.2429 2.17091 10.3577C3.13676 11.4725 4.48907 12.18 5.95561 12.3378C7.42214 12.4956 8.89401 12.092 10.0749 11.2082L10.8166 11.9498C10.5792 12.4162 10.4941 12.9453 10.5733 13.4626C10.6525 13.9799 10.8921 14.4593 11.2582 14.8332L13.0249 16.5998C13.4937 17.068 14.1291 17.331 14.7916 17.331C15.4541 17.331 16.0895 17.068 16.5582 16.5998C16.7964 16.367 16.9856 16.0889 17.1147 15.782C17.2439 15.475 17.3104 15.1454 17.3104 14.8123C17.3104 14.4793 17.2439 14.1496 17.1147 13.8427C16.9856 13.5357 16.7964 13.2577 16.5582 13.0248ZM9.49158 9.4915C8.90844 10.0732 8.16599 10.469 7.35803 10.6289C6.55006 10.7888 5.71282 10.7057 4.95208 10.39C4.19133 10.0743 3.54121 9.54025 3.08384 8.85528C2.62646 8.1703 2.38236 7.36514 2.38236 6.5415C2.38236 5.71786 2.62646 4.91269 3.08384 4.22771C3.54121 3.54274 4.19133 3.00868 4.95208 2.69301C5.71282 2.37733 6.55006 2.2942 7.35803 2.45412C8.16599 2.61404 8.90844 3.00983 9.49158 3.5915C9.87961 3.97854 10.1875 4.43834 10.3975 4.94455C10.6076 5.45076 10.7157 5.99343 10.7157 6.5415C10.7157 7.08956 10.6076 7.63223 10.3975 8.13844C10.1875 8.64465 9.87961 9.10445 9.49158 9.4915ZM15.3832 15.3832C15.3058 15.4613 15.2136 15.5233 15.1121 15.5656C15.0105 15.6079 14.9016 15.6297 14.7916 15.6297C14.6816 15.6297 14.5726 15.6079 14.4711 15.5656C14.3695 15.5233 14.2774 15.4613 14.1999 15.3832L12.4332 13.6165C12.3551 13.539 12.2931 13.4469 12.2508 13.3453C12.2085 13.2438 12.1867 13.1348 12.1867 13.0248C12.1867 12.9148 12.2085 12.8059 12.2508 12.7043C12.2931 12.6028 12.3551 12.5106 12.4332 12.4332C12.5107 12.3551 12.6029 12.2931 12.7044 12.2508C12.806 12.2084 12.9149 12.1867 13.0249 12.1867C13.1349 12.1867 13.2438 12.2084 13.3454 12.2508C13.4469 12.2931 13.5391 12.3551 13.6166 12.4332L15.3832 14.1998C15.4614 14.2773 15.5233 14.3695 15.5657 14.471C15.608 14.5726 15.6297 14.6815 15.6297 14.7915C15.6297 14.9015 15.608 15.0104 15.5657 15.112C15.5233 15.2135 15.4614 15.3057 15.3832 15.3832Z" fill="#808080"/>
</svg>
