<svg width="79" height="80" viewBox="0 0 79 80" fill="none" xmlns="http://www.w3.org/2000/svg">
<g filter="url(#filter0_d_12332_15264)">
<path d="M8.20713 41.4963L16.4865 48.1215L17.3557 58.6708L27.9674 59.1845L34.8911 67.212L43.7752 61.3994L54.1116 63.823L57.8722 53.9115L67.6731 49.8276L64.8818 39.6172L70.391 30.5316L62.1116 23.9064L61.2374 13.3289L50.6258 12.8152L43.702 4.78766L34.8229 10.6285L24.4866 8.20496L20.726 18.1164L10.93 22.2286L13.7213 32.4389L8.20713 41.4963Z" fill="url(#paint0_linear_12332_15264)"/>
</g>
<path d="M34.4208 47.5903L25.2388 38.3276L29.4232 34.1064L34.4208 39.1628L49.0292 24.4111L53.2136 28.6323L34.4208 47.5903Z" fill="white"/>
<defs>
<filter id="filter0_d_12332_15264" x="0.207031" y="0.787598" width="78.1838" height="78.4243" filterUnits="userSpaceOnUse" color-interpolation-filters="sRGB">
<feFlood flood-opacity="0" result="BackgroundImageFix"/>
<feColorMatrix in="SourceAlpha" type="matrix" values="0 0 0 0 0 0 0 0 0 0 0 0 0 0 0 0 0 0 127 0" result="hardAlpha"/>
<feOffset dy="4"/>
<feGaussianBlur stdDeviation="4"/>
<feComposite in2="hardAlpha" operator="out"/>
<feColorMatrix type="matrix" values="0 0 0 0 0 0 0 0 0 0 0 0 0 0 0 0 0 0 0.08 0"/>
<feBlend mode="normal" in2="BackgroundImageFix" result="effect1_dropShadow_12332_15264"/>
<feBlend mode="normal" in="SourceGraphic" in2="effect1_dropShadow_12332_15264" result="shape"/>
</filter>
<linearGradient id="paint0_linear_12332_15264" x1="44.5013" y1="65.5175" x2="34.0918" y2="6.4822" gradientUnits="userSpaceOnUse">
<stop stop-color="#219653"/>
<stop offset="1" stop-color="#45DF87"/>
</linearGradient>
</defs>
</svg>
