<svg width="271" height="269" viewBox="0 0 271 269" fill="none" xmlns="http://www.w3.org/2000/svg">
<path d="M206.456 265.053C241.24 254.135 286.369 86.7823 265.853 41.4663C242.519 -10.0831 55.9928 -22.8445 12.7504 57.373C-19.7976 117.75 15.5742 238 55.9928 252.89C96.4113 267.78 179.374 273.557 206.449 265.053H206.456Z" fill="url(#paint0_linear_3263_15725)"/>
<path d="M151.068 195.245H241.315C244.851 195.245 247.717 192.39 247.717 188.868L247.717 19.3765C247.717 15.8549 244.851 13 241.315 13H151.068C147.533 13 144.666 15.8549 144.666 19.3765L144.666 188.868C144.666 192.39 147.533 195.245 151.068 195.245Z" fill="#38385C"/>
<path d="M152.718 181.843H239.664L239.664 26.4005H152.718V181.843Z" fill="#B9D4FD"/>
<path d="M152.719 26.4021L231.795 32.4968L228.586 182.737L242.138 181.845L242.088 23.3757L152.719 26.4021Z" fill="#739BFD"/>
<path opacity="0.2" d="M149.425 61.3931L242.138 152.946V181.844H152.719L149.425 61.3931Z" fill="white"/>
<path d="M188.535 21.894H204.984C205.774 21.894 206.415 21.2562 206.415 20.4686C206.415 19.681 205.774 19.0432 204.984 19.0432H188.535C187.744 19.0432 187.104 19.681 187.104 20.4686C187.104 21.2562 187.744 21.894 188.535 21.894Z" fill="white"/>
<path d="M172.078 66.5826C186.132 52.6119 206.66 99.5008 207.771 100.863C256.489 124.533 206.951 146.76 172.095 133.711C162.868 131.364 156.144 123.446 155.4 113.99C154.032 96.5758 154.859 69.9488 172.078 66.581V66.5826Z" fill="#38385C"/>
<path d="M163.206 87.495C166.812 53.7006 199.979 75.5457 185.482 99.3299L188.949 116.317L176.077 118.566L174.381 104.682C168.074 103.563 163.206 96.2971 163.206 87.4934V87.495Z" fill="#FFB6A6"/>
<path d="M190.891 88.8173C190.891 88.8173 181.341 86.3676 178.189 83.6923L181.37 86.8314C181.37 86.8314 171.57 84.5169 169.405 78.5479C169.405 78.5479 165.531 83.3847 165.169 87.3984C164.54 82.4908 162.263 71.9943 171.679 70.6768L190.021 85.3319L190.891 88.8189V88.8173Z" fill="#FF8370"/>
<path d="M185.482 99.3298C185.482 99.3298 182.251 103.688 176.077 104.524C176.077 104.524 183.103 106.507 187.607 104.212L185.482 99.3314" fill="#FF8370"/>
<path d="M171.341 98.2395C171.341 98.2395 175.639 97.9866 177.165 95.7043C177.165 95.7043 176.493 99.7938 173.973 100.18C171.562 100.549 171.341 98.2395 171.341 98.2395Z" fill="white"/>
<path d="M173.794 68.6925C173.794 68.6925 173.154 86.1018 188.947 86.5577C188.947 86.5577 189.554 66.3361 173.794 68.6925Z" fill="#38385C"/>
<path d="M174.32 70.3143C174.32 70.3143 173.904 81.2119 178.514 85.3303C178.514 85.3303 170.151 80.9429 171.485 71.2888C171.485 71.2888 171.888 70.2853 174.32 70.3143Z" fill="#38385C"/>
<path d="M172.816 70.1084C172.816 70.1084 165.913 79.3422 165.497 85.3305C165.497 85.3305 165.248 75.7279 168.241 70.3146L172.816 70.1084Z" fill="#38385C"/>
<path d="M214.582 123.644C209.775 108.749 187.406 107.699 187.406 107.699L174.535 109.947C167.565 111.149 146.675 141.392 141.206 148.277L161.002 160.471C162.097 171.917 163.207 181.843 163.207 181.843H209.608C209.608 181.843 219.391 138.538 214.584 123.643L214.582 123.644Z" fill="#F85C3D"/>
<path d="M161 160.471L159.365 131.593C159.365 131.593 152.905 150.693 151.317 150.353C149.731 150.015 140.592 145.639 140.592 145.639L139.529 147.957L161.291 163.785L161 160.47" fill="#DF4930"/>
<path d="M161 160.471L111.192 124.274L105.531 133.688L142.235 170.262C147.516 175.835 155.58 175.624 162.244 172.88L161 160.473V160.471Z" fill="#FFB6A6"/>
<path d="M128.525 160.46C128.525 160.46 143.9 168.283 149.173 168.394C154.448 168.505 159.273 157.442 159.273 157.442L165.67 160.571L165.109 173.87L147.603 177.223L128.525 160.46Z" fill="#FF8370"/>
<path d="M190.835 176.895C190.835 176.895 199.936 177.534 203.354 174.864C206.772 172.194 215.098 148.828 215.098 148.828C215.098 148.828 212.078 174.35 209.609 181.843H181.083C181.083 181.843 188.852 178.462 190.836 176.895H190.835Z" fill="#DF4930"/>
<path d="M181.081 159.595L194.172 131.593C194.172 131.593 176.265 151.904 174.619 164.322L181.082 159.595H181.081Z" fill="#DF4930"/>
<path d="M197.535 161.687C196.006 156.005 189.151 153.692 184.389 157.176L139.372 190.104C137.11 190.115 123.779 190.257 124.413 191.969C125.105 193.841 132.917 194.332 132.917 194.332C132.917 194.332 116.799 202.999 117.195 203.983C117.591 204.967 131.83 210.876 133.708 209.892C135.412 208.998 144.566 200.161 146.254 198.524L188.069 178.496C194.495 175.888 199.772 167.465 197.534 161.687H197.535Z" fill="#FFB6A6"/>
<path d="M188.339 153.699C188.339 153.699 192.021 162.728 191.534 167.067C191.048 171.406 146.256 198.521 146.256 198.521C146.256 198.521 189.634 184.188 192.579 181.608C199.917 172.748 207.414 157.305 188.339 153.697V153.699Z" fill="#FF8370"/>
<path d="M120.835 131.282C120.835 131.282 120.125 123.758 119.096 123.57C118.068 123.382 107.397 125.532 107.528 126.113C107.657 126.695 109.994 129.151 110.709 129.151C111.423 129.151 116.422 129.344 116.422 129.344L113.514 138.762C113.514 138.762 121.706 137.07 120.838 131.28L120.835 131.282Z" fill="#FFB6A6"/>
<path d="M116.42 129.346C116.42 129.346 120.95 137.45 112.208 140.34C112.208 140.34 116.781 131.628 116.42 129.346Z" fill="#FF8370"/>
<path d="M267 59.1317C266.457 90.8065 219.145 90.8016 218.607 59.1317C219.15 27.4586 266.461 27.4634 267 59.1317Z" fill="#3875FF"/>
<path d="M237.132 60.1159C235.869 59.0126 233.765 54.9442 231.666 56.8334L230.151 58.1687C229.362 58.8644 229.287 60.066 229.986 60.8536L236.627 68.3285C237.326 69.1145 238.532 69.1886 239.323 68.4928C240.975 67.0255 256.473 53.3915 258.515 51.5844C260.119 50.0961 258.396 48.5322 257.34 47.3919C256.641 46.6059 255.435 46.5318 254.644 47.2276L239.827 60.2818C239.038 60.9776 237.83 60.9035 237.132 60.1175V60.1159Z" fill="#E3EEFE"/>
<g clip-path="url(#clip0_3263_15725)">
<path d="M52.0179 156.685L47.96 240.085L58.7111 240.512L73.7407 153.474L52.0179 156.685Z" fill="#F9B59D"/>
<path d="M90.4586 154.553L69.2788 157.725L78.989 239.352L90.2076 240.579L90.4586 154.553Z" fill="#F9B59D"/>
<path d="M98.0271 241.298L90.2072 237.177C86.4432 240.818 83.0016 237.808 83.0016 237.808C80.642 236.543 78.7089 239.023 78.7089 239.023L78.1108 244.19H100.738C100.942 242.433 98.0271 241.296 98.0271 241.296V241.298Z" fill="#F47458"/>
<path d="M100.404 246C100.673 246 101.463 245.634 101.498 245.332L101.639 244.529C101.673 244.227 101.41 243.619 101.14 243.619L77.9092 243.51C77.7745 243.51 77.6499 243.634 77.6316 243.784L77.407 245.726C77.3887 245.878 77.4846 246 77.6214 246H100.406H100.404Z" fill="white"/>
<path d="M101.107 245.632L101.199 245.775C101.497 245.521 101.693 245.147 101.74 244.755C101.826 244.018 101.359 243.416 100.699 243.416H78.2314C77.8782 243.416 77.5537 243.737 77.5067 244.133L77.3618 245.374H77.5292L77.6721 244.133C77.7068 243.841 77.9456 243.601 78.2089 243.601H100.677C101.244 243.601 101.646 244.117 101.573 244.753C101.534 245.092 101.365 245.411 101.107 245.632Z" fill="black"/>
<path d="M100.608 243.548L100.767 243.469C100.753 243.425 100.42 242.38 98.8154 241.57C97.2396 240.774 90.3198 237.128 90.2504 237.091L90.1626 237.262C90.232 237.298 97.1518 240.944 98.7297 241.741C100.273 242.521 100.604 243.538 100.608 243.548Z" fill="black"/>
<path d="M78.6274 239.025L78.1191 243.412H78.2845L78.7927 239.025H78.6274Z" fill="black"/>
<path d="M86.7681 238.856C86.7476 238.858 84.7534 239.167 83.0571 237.731L82.9448 237.885C84.1594 238.913 85.5249 239.072 86.2516 239.072C86.5701 239.072 86.764 239.041 86.7701 239.041L86.766 238.856H86.7681Z" fill="black"/>
<path d="M79.4501 241.722L79.3398 241.877L80.3074 242.677L80.4176 242.523L79.4501 241.722Z" fill="black"/>
<path d="M80.2362 241.495L80.126 241.649L81.0935 242.45L81.2037 242.295L80.2362 241.495Z" fill="black"/>
<path d="M67.1004 241.298L59.2804 237.177C55.5164 240.818 52.0749 237.808 52.0749 237.808C49.7152 236.543 47.7822 239.023 47.7822 239.023L47.1841 244.19H69.8111C70.0153 242.433 67.1004 241.296 67.1004 241.296V241.298Z" fill="#F47458"/>
<path d="M69.4764 246C69.7459 246 70.5358 245.634 70.5705 245.332L70.7114 244.529C70.7461 244.227 70.4827 243.619 70.2133 243.619L46.98 243.51C46.8453 243.51 46.7207 243.634 46.7024 243.784L46.4778 245.726C46.4595 245.878 46.5554 246 46.6922 246H69.4764Z" fill="white"/>
<path d="M70.1807 245.632L70.2726 245.775C70.5706 245.521 70.7666 245.147 70.8135 244.755C70.8992 244.018 70.4318 243.416 69.7725 243.416H47.3026C46.9494 243.416 46.6249 243.737 46.5779 244.133L46.4351 245.374H46.6004L46.7453 244.133C46.78 243.841 47.0189 243.601 47.2822 243.601H69.75C70.3175 243.601 70.7196 244.117 70.6461 244.753C70.6073 245.092 70.4379 245.411 70.1807 245.632Z" fill="black"/>
<path d="M69.6808 243.548L69.84 243.469C69.8258 243.425 69.493 242.38 67.8886 241.57C66.3128 240.774 59.393 237.128 59.3236 237.091L59.2358 237.262C59.3052 237.298 66.225 240.944 67.8029 241.741C69.3461 242.521 69.6767 243.538 69.6808 243.548Z" fill="black"/>
<path d="M55.8413 238.856C55.8209 238.858 53.8266 239.167 52.1303 237.731L52.0181 237.885C53.2326 238.913 54.5982 239.072 55.3249 239.072C55.6433 239.072 55.8372 239.041 55.8433 239.041L55.8393 238.856H55.8413Z" fill="black"/>
<path d="M48.5233 241.722L48.4131 241.877L49.3786 242.677L49.4909 242.523L48.5233 241.722Z" fill="black"/>
<path d="M49.3094 241.495L49.1992 241.649L50.1647 242.45L50.277 242.295L49.3094 241.495Z" fill="black"/>
<path d="M54.8513 121.664C60.7035 126.264 56.2822 75.6579 56.2822 75.081C56.2822 74.5042 51.8609 70.0498 51.8609 70.0498C51.8609 70.0498 47.4396 71.5529 46.2047 79.1393C44.9697 86.7278 47.0497 110.306 47.0497 110.306C47.0497 110.306 49.0012 117.063 54.8534 121.664H54.8513Z" fill="#F9B59D"/>
<path d="M46.2046 184.996C46.2046 184.996 72.5405 186.938 81.5138 184.996L83.8551 169.252L87.366 185.857H95.9494C95.9494 185.857 99.0521 136.859 84.7492 111.786C84.7492 111.786 88.9276 95.799 86.9761 81.7799C85.0247 67.7627 51.8629 70.0478 51.8629 70.0478L50.8871 88.1638L53.9041 111.409C53.9041 111.409 46.5924 131.082 45.8126 155.45C45.0329 179.82 46.2046 184.996 46.2046 184.996Z" fill="#F47458"/>
<path d="M105.806 135.455L109.762 127.12C105.349 121.958 92.7527 98.2667 91.9526 95.7522C91.183 93.329 88.7192 86.9552 87.0311 81.7939C84.5694 83.4717 78.5804 86.6809 73.1875 87.8265C75.4778 93.5443 81.1544 106.343 82.4527 108.833C85.3961 114.475 94.9797 127.839 105.804 135.455H105.806Z" fill="#F9B59D"/>
<path d="M88.395 85.7854C88.395 85.7854 85.6108 72.5015 80.7792 71.2625C75.9476 70.0235 72.159 72.5889 71.6712 76.5294C71.1833 80.4698 73.1899 87.8267 73.1899 87.8267L85.7169 91.4666L88.395 85.7854Z" fill="#F9B59D"/>
<path d="M65.382 71.1021C65.6759 72.4142 67.5783 75.0385 71.0933 75.0385C72.2017 75.0385 73.1795 74.8496 73.998 74.5916C75.6718 74.0635 76.7149 72.402 76.5006 70.6674L75.927 65.9998C79.0031 65.5631 78.8561 62.0634 78.8561 62.0634V51.7145L66.2597 48.5073L65.8596 60.4425L65.9658 63.5217C65.9658 63.5217 65.086 69.7899 65.3799 71.1021H65.382Z" fill="#F9B59D"/>
<path d="M78.346 52.8743C82.5142 50.7537 81.3099 46.4212 81.3099 46.4212C80.1994 37.6628 68.5277 41.9039 63.8042 42.9175C59.0808 43.931 56.7661 49.7402 56.6722 54.9014C56.5803 60.0646 46.5599 67.5535 44.7432 77.813C43.939 82.3547 41.5001 87.5 56.6722 90C65.5001 90 67.9853 83.8562 70.5001 75.5C75.993 57.254 74.5573 61.7001 74.0001 60C73.4448 58.2999 74.1758 54.9928 78.3439 52.8743H78.346Z" fill="#38385C"/>
<path d="M76.2595 58.0293C76.2595 56.5811 75.1042 55.405 73.6774 55.405C72.2506 55.405 71.0952 56.579 71.0952 58.0293C71.0952 59.4796 72.2506 60.6536 73.6774 60.6536C75.1042 60.6536 76.2595 59.4796 76.2595 58.0293Z" fill="#F9B59D"/>
<path d="M72.8834 57.6189C72.4956 57.8626 72.3364 58.3339 72.4752 58.8173C72.5936 59.2276 72.9508 59.6359 73.4876 59.6359C73.4917 59.6359 73.4978 59.6359 73.5019 59.6359C73.5407 59.6359 73.5734 59.6013 73.5734 59.5627C73.5734 59.5221 73.5407 59.4916 73.5019 59.4916C73.4958 59.4916 73.4917 59.4916 73.4876 59.4916C72.9957 59.4916 72.7079 59.1078 72.614 58.7767C72.5221 58.4578 72.5568 57.9967 72.959 57.7428C73.6836 57.2858 74.298 57.8911 74.3245 57.9175L74.5062 58.1023L74.4429 57.8484C74.3307 57.3955 74.1102 57.0746 73.7836 56.8917C73.2202 56.5769 72.5527 56.7963 72.5242 56.8064C72.4874 56.8186 72.467 56.8613 72.4793 56.8978C72.4915 56.9364 72.5323 56.9567 72.5691 56.9446C72.5752 56.9425 73.2059 56.7354 73.7142 57.0197C73.949 57.1517 74.1245 57.367 74.2347 57.6656C73.9694 57.4889 73.4509 57.2574 72.8793 57.6169L72.8834 57.6189Z" fill="#F07162"/>
<path d="M122.757 132.202C121.702 130.893 117.946 128.862 116.774 128.69C116.135 128.594 113.541 128.19 111.31 127.843C111.287 127.802 109.707 127.077 109.685 127.032L105.807 135.458L108.346 136.357C115.223 137.899 119.001 139.268 119.001 139.268C120.167 139.999 121.287 140.676 121.798 140.982C122.073 141.149 122.408 141.175 122.694 141.027C123.084 140.826 123.373 140.31 122.528 139C122.528 139 124.672 138.967 122.888 136.727C122.888 136.727 125.086 137.162 123.308 134.491C123.308 134.491 124.674 134.576 122.761 132.202H122.757Z" fill="#F9B59D"/>
<path d="M122.431 139.116C122.49 139.173 122.58 139.166 122.631 139.104C122.684 139.039 122.678 138.939 122.618 138.882C122.565 138.829 121.286 137.574 120.304 136.957C120.289 136.948 120.277 136.942 120.263 136.938C120.204 136.924 120.142 136.955 120.11 137.013C120.071 137.089 120.095 137.184 120.163 137.227C121.118 137.828 122.416 139.101 122.431 139.114V139.116Z" fill="#F07162"/>
<path d="M122.79 136.843C122.849 136.902 122.939 136.896 122.99 136.831C123.043 136.766 123.037 136.666 122.98 136.609C122.937 136.567 121.941 135.579 120.655 134.998C120.646 134.994 120.638 134.992 120.63 134.99C120.565 134.976 120.495 135.013 120.469 135.084C120.438 135.165 120.475 135.256 120.546 135.289C121.785 135.85 122.78 136.833 122.79 136.843Z" fill="#F07162"/>
<path d="M123.206 134.602C123.261 134.663 123.353 134.661 123.406 134.6C123.461 134.539 123.459 134.44 123.406 134.379C123.37 134.338 122.49 133.392 121.386 132.851C121.375 132.847 121.367 132.843 121.357 132.841C121.294 132.827 121.226 132.862 121.198 132.931C121.165 133.01 121.198 133.103 121.269 133.138C122.327 133.656 123.196 134.594 123.206 134.604V134.602Z" fill="#F07162"/>
</g>
<defs>
<linearGradient id="paint0_linear_3263_15725" x1="203" y1="272" x2="76.9319" y2="9.91891" gradientUnits="userSpaceOnUse">
<stop stop-color="#DAE3FE" stop-opacity="0"/>
<stop offset="1" stop-color="#E9EFFD"/>
</linearGradient>
<clipPath id="clip0_3263_15725">
<rect width="80" height="205" fill="white" transform="translate(44 41)"/>
</clipPath>
</defs>
</svg>
