<svg width="40" height="40" viewBox="0 0 40 40" fill="none" xmlns="http://www.w3.org/2000/svg">
<g clip-path="url(#clip0_10493_21585)">
<path d="M38.7077 1.29231C37.8737 0.459109 36.766 0 35.587 0H4.41296C3.23401 0 2.12632 0.459109 1.29231 1.29231C0.459109 2.12632 0 3.23401 0 4.41296V35.587C0 36.766 0.459109 37.8737 1.29231 38.7077C2.12632 39.5409 3.23401 40 4.41296 40H35.587C36.766 40 37.8737 39.5409 38.7077 38.7077C39.5409 37.8737 40 36.766 40 35.587V4.41296C40 3.23401 39.5409 2.12632 38.7077 1.29231ZM36.8421 35.587C36.8421 35.9174 36.7085 36.2413 36.4745 36.4745C36.2405 36.7077 35.9174 36.8421 35.587 36.8421H4.41296C4.08259 36.8421 3.7587 36.7085 3.52551 36.4745C3.29231 36.2405 3.15789 35.9174 3.15789 35.587V4.41296C3.15789 4.08259 3.2915 3.7587 3.52551 3.52551C3.75951 3.29231 4.08259 3.15789 4.41296 3.15789H35.587C35.9174 3.15789 36.2413 3.2915 36.4745 3.52551C36.7077 3.75951 36.8421 4.08259 36.8421 4.41296V35.587Z" fill="#003874"/>
<path d="M31.4874 11.3506C31.4372 11.3458 31.3861 11.3433 31.3351 11.3433C30.9691 11.3433 30.6177 11.4713 30.34 11.6972V11.5935L23.7546 20.8194L16.459 17.17C16.2412 17.0615 15.9975 17.0041 15.7546 17.0041C15.6461 17.0041 15.5368 17.0154 15.4299 17.0381C15.0833 17.1109 14.7675 17.3004 14.5408 17.5733L7.45821 26.0721C7.17967 26.3895 7.03958 26.8138 7.07197 27.2356C7.10517 27.6575 7.31084 28.0543 7.63554 28.3239C7.91894 28.5603 8.27764 28.6899 8.64606 28.6899C8.70031 28.6899 8.75456 28.6866 8.80801 28.6818C9.22906 28.6381 9.62015 28.4235 9.88007 28.0956L16.1643 20.5547L23.544 24.2543C23.7619 24.3628 24.0056 24.4202 24.2493 24.4202C24.378 24.4202 24.506 24.4049 24.6315 24.3733C24.9959 24.2826 25.3173 24.064 25.5351 23.7579L32.6202 13.8389C32.9465 13.3814 33.0048 12.779 32.7724 12.2672C32.5392 11.7555 32.0469 11.4041 31.4874 11.3498V11.3506Z" fill="#003874" fill-opacity="0.5"/>
</g>
<defs>
<clipPath id="clip0_10493_21585">
<rect width="40" height="40" fill="white"/>
</clipPath>
</defs>
</svg>
