<svg width="40" height="25" viewBox="0 0 40 25" fill="none" xmlns="http://www.w3.org/2000/svg">
<path d="M6.375 15H26.625C27.5199 15 28.3785 14.7366 29.0118 14.268C29.6444 13.7989 30 13.1629 30 12.5C30 11.8371 29.6444 11.2011 29.0118 10.732C28.3785 10.2634 27.5199 10 26.625 10H6.375C5.48014 10 4.62154 10.2634 3.9882 10.732C3.35563 11.2011 3 11.8371 3 12.5C3 13.1629 3.35563 13.7989 3.9882 14.268C4.62154 14.7366 5.48014 15 6.375 15Z" fill="#003874"/>
<path d="M0 2.5C0 1.83714 0.358261 1.20114 0.995518 0.732C1.63355 0.263429 2.49851 0 3.4 0H30.6C31.5015 0 32.3664 0.263429 33.0045 0.732C33.6417 1.20114 34 1.83714 34 2.5C34 3.16286 33.6417 3.79886 33.0045 4.268C32.3664 4.73657 31.5015 5 30.6 5H3.4C2.49851 5 1.63355 4.73657 0.995518 4.268C0.358261 3.79886 0 3.16286 0 2.5Z" fill="#003874"/>
<path d="M6 22.5C6 21.8371 6.35826 21.2011 6.99552 20.732C7.63355 20.2634 8.49851 20 9.4 20H36.6C37.5015 20 38.3664 20.2634 39.0045 20.732C39.6417 21.2011 40 21.8371 40 22.5C40 23.1629 39.6417 23.7989 39.0045 24.268C38.3664 24.7366 37.5015 25 36.6 25H9.4C8.49851 25 7.63355 24.7366 6.99552 24.268C6.35826 23.7989 6 23.1629 6 22.5Z" fill="#003874" fill-opacity="0.6"/>
</svg>
