<svg width="24" height="23" viewBox="0 0 24 23" fill="none" xmlns="http://www.w3.org/2000/svg">
<g clip-path="url(#clip0_1833_4228)">
<path d="M7.16511 8.24808H15.9056V8.56815L15.9877 8.24808H20.6821V8.57636L20.7642 8.24808H22.2907C22.3974 8.24808 22.5041 8.23166 22.5943 8.19063C22.6846 8.14959 22.7749 8.10035 22.8488 8.02649C22.9226 7.96083 22.9719 7.87876 23.0129 7.79669C23.0539 7.70641 23.0704 7.61614 23.0704 7.52586V4.11994C23.0704 3.97221 23.0211 3.82448 22.9308 3.70958C22.8324 3.58648 22.701 3.48799 22.5451 3.43875L11.7939 0.0410352C11.7118 0.0164141 11.6297 0 11.5395 0C11.4492 0 11.3671 0.0164141 11.285 0.0410352L0.533818 3.43875C0.377885 3.48799 0.238365 3.58648 0.148088 3.70958C0.0578101 3.83269 0.00856781 3.97221 0.00856781 4.12814V7.52586C0.00856781 7.61614 0.0249819 7.70641 0.0660171 7.79669C0.107052 7.88697 0.164502 7.96083 0.230158 8.03469C0.304021 8.10035 0.386092 8.1578 0.484576 8.19884C0.583061 8.23987 0.681545 8.25629 0.788237 8.25629H7.17332L7.16511 8.24808ZM1.56791 6.80364V4.88319L1.62536 4.62877L11.4328 1.5183L11.5559 1.49368L21.273 4.56312L21.5028 4.69443V6.46715L21.4207 6.79543H1.56791V6.80364Z" fill="#003874"/>
<path d="M19.1143 16.9967V16.6685L19.0322 16.9967H2.38834V16.8572L2.33089 17.1116L2.1093 17.1855C1.48557 17.3907 0.960316 17.7682 0.582792 18.277C0.205268 18.7777 0.0082986 19.3686 9.15527e-05 19.9841V22.2492C9.15527e-05 22.3395 0.0165056 22.4298 0.0575409 22.5201C0.0985761 22.6104 0.147818 22.6842 0.221682 22.7581C0.295545 22.8237 0.377616 22.8812 0.4761 22.9222C0.574585 22.9633 0.673069 22.9797 0.779761 22.9797H22.2904C22.3971 22.9797 22.4956 22.9633 22.6023 22.9222C22.7008 22.8894 22.7828 22.8319 22.8567 22.7581C22.9306 22.6924 22.9798 22.6104 23.0209 22.5283C23.0619 22.4462 23.0783 22.3477 23.0783 22.2575V19.9923C23.0783 19.3768 22.8731 18.7859 22.4956 18.2852C22.1181 17.7764 21.5846 17.3989 20.9116 17.1773L20.6818 17.046V17.0132H19.1143V16.9967ZM21.0265 18.8844C21.3302 19.1716 21.5025 19.5738 21.5025 19.9841V21.1987L21.4205 21.527H1.89592L1.56764 21.445V19.9841C1.56764 19.5738 1.73998 19.1716 2.04365 18.8844C2.34731 18.5971 2.74124 18.4412 3.16801 18.4412H19.9022C20.3289 18.4412 20.7229 18.5971 21.0265 18.8844Z" fill="#003874"/>
<path d="M8.73239 8.24805H7.16484V17.005H8.73239V8.24805Z" fill="#2174BF"/>
<path d="M15.9053 8.24805H14.3378V16.9968H15.9053V8.56812V8.24805Z" fill="#2174BF"/>
<path d="M19.1143 8.24805V16.6685V16.9968H20.6818V8.57633V8.24805H19.1143Z" fill="#2174BF"/>
<path d="M3.95589 16.9968V8.24805H2.38834V16.8572V16.9968H3.95589Z" fill="#2174BF"/>
</g>
<defs>
<clipPath id="clip0_1833_4228">
<rect width="23.07" height="22.9797" fill="white"/>
</clipPath>
</defs>
</svg>
