<svg width="35" height="34" viewBox="0 0 35 34" fill="none" xmlns="http://www.w3.org/2000/svg">
<path d="M34.7993 7.1684V6.9684H34.7941C34.7436 5.86353 34.2764 4.81263 33.4815 4.02688L33.4812 4.02665C32.6372 3.19516 31.493 2.72725 30.3015 2.72725H5.29778C4.10697 2.72725 2.9621 3.19515 2.1181 4.02665L2.11786 4.02688C1.27518 4.85984 0.8 5.9902 0.8 7.1684V28.7588C0.8 29.9364 1.27517 31.0674 2.11786 31.9003L2.1181 31.9006C2.96209 32.7321 4.10629 33.2 5.29778 33.2H30.3022C31.493 33.2 32.6379 32.7321 33.4819 31.9006L33.4822 31.9003C34.3242 31.0674 34.7993 29.937 34.7993 28.7588V7.1684ZM32.0545 7.12061V7.1684V28.7588C32.0545 29.2161 31.8703 29.6541 31.5422 29.9792C31.2134 30.3031 30.7682 30.4861 30.3015 30.4861H5.29778C4.832 30.4861 4.38689 30.3032 4.05731 29.9794C3.72908 29.6542 3.54479 29.2168 3.54479 28.7588V7.1684C3.54479 6.7111 3.7291 6.27303 4.0573 5.94787C4.38612 5.62408 4.8312 5.44114 5.29778 5.44114H30.3022C30.7682 5.44114 31.2134 5.6241 31.543 5.94819C31.8595 6.26126 32.0422 6.68008 32.0545 7.12061Z" fill="#003874" stroke="#003874" stroke-width="0.4"/>
<path d="M18.4372 17.1928C18.4372 17.9442 19.0543 18.5494 19.8093 18.5494H26.3949C27.1498 18.5494 27.767 17.9442 27.767 17.1928C27.767 16.4413 27.1498 15.8361 26.3949 15.8361H19.8093C19.0543 15.8361 18.4372 16.4413 18.4372 17.1928Z" fill="#003874" stroke="#003874" stroke-width="0.4"/>
<path d="M25.614 7.36841C26.3689 7.36841 26.986 6.7632 26.986 6.01179V2.15662C26.986 1.40522 26.3689 0.8 25.614 0.8C24.859 0.8 24.2419 1.40522 24.2419 2.15662V6.01179C24.2419 6.7632 24.859 7.36841 25.614 7.36841Z" fill="#003874" stroke="#003874" stroke-width="0.4"/>
<path d="M9.98603 7.36841C10.741 7.36841 11.3581 6.7632 11.3581 6.01179V2.15662C11.3581 1.40522 10.741 0.8 9.98603 0.8C9.2311 0.8 8.61396 1.40522 8.61396 2.15662V6.01179C8.61396 6.7632 9.2311 7.36841 9.98603 7.36841Z" fill="#003874" stroke="#003874" stroke-width="0.4"/>
<path d="M0.8 11.0236C0.8 11.7751 1.41796 12.3802 2.17273 12.3802H33.4279C34.1829 12.3802 34.8 11.775 34.8 11.0236C34.8 10.2722 34.1829 9.66694 33.4279 9.66694H2.17206C1.41714 9.66694 0.8 10.2722 0.8 11.0236Z" fill="#003874" stroke="#003874" stroke-width="0.4"/>
<path d="M18.4372 21.8192C18.4372 22.5706 19.0543 23.1758 19.8093 23.1758H28.739C29.494 23.1758 30.1111 22.5706 30.1111 21.8192C30.1111 21.0678 29.494 20.4626 28.739 20.4626H19.8093C19.0543 20.4626 18.4372 21.0678 18.4372 21.8192Z" fill="#003874" stroke="#003874" stroke-width="0.4"/>
</svg>
