<svg width="60" height="60" viewBox="0 0 60 60" fill="none" xmlns="http://www.w3.org/2000/svg">
<circle cx="30" cy="30" r="30" fill="#EA4047"/>
<path d="M22 23.9867C22.3536 23.9867 22.6928 23.8462 22.9428 23.5961C23.1929 23.3461 23.3333 23.0069 23.3333 22.6533V21.8667L27.1733 25.7067C27.9233 26.4557 28.94 26.8765 30 26.8765C31.06 26.8765 32.0767 26.4557 32.8267 25.7067L38.9467 19.5867C39.195 19.3368 39.3344 18.9989 39.3344 18.6467C39.3344 18.2944 39.195 17.9565 38.9467 17.7067C38.8227 17.5817 38.6753 17.4825 38.5128 17.4148C38.3503 17.3471 38.176 17.3123 38 17.3123C37.824 17.3123 37.6497 17.3471 37.4872 17.4148C37.3248 17.4825 37.1773 17.5817 37.0533 17.7067L30.9467 23.8133C30.8227 23.9383 30.6753 24.0375 30.5128 24.1052C30.3503 24.1729 30.176 24.2077 30 24.2077C29.824 24.2077 29.6497 24.1729 29.4872 24.1052C29.3248 24.0375 29.1773 23.9383 29.0533 23.8133L25.2133 19.9867H26C26.3536 19.9867 26.6928 19.8462 26.9428 19.5961C27.1929 19.3461 27.3333 19.0069 27.3333 18.6533C27.3333 18.2997 27.1929 17.9606 26.9428 17.7105C26.6928 17.4605 26.3536 17.32 26 17.32H22C21.7383 17.3202 21.4824 17.3974 21.2643 17.5421C21.0462 17.6867 20.8754 17.8923 20.7733 18.1333C20.7062 18.2986 20.67 18.4749 20.6667 18.6533V22.6533C20.6667 23.0069 20.8071 23.3461 21.0572 23.5961C21.3072 23.8462 21.6464 23.9867 22 23.9867ZM43.2533 33.8C39.4566 30.87 34.7959 29.2808 30 29.2808C25.2041 29.2808 20.5435 30.87 16.7467 33.8C16.3462 34.1229 16.0199 34.5281 15.7898 34.9882C15.5597 35.4483 15.4313 35.9525 15.4133 36.4667C15.3785 36.9744 15.4534 37.4837 15.6328 37.9599C15.8123 38.4361 16.0921 38.8682 16.4533 39.2267L18.8 41.6267C19.3997 42.2261 20.1929 42.5928 21.0381 42.6612C21.8832 42.7296 22.7251 42.4952 23.4133 42L24.04 41.5733C24.4667 41.2979 24.9123 41.0529 25.3733 40.84C25.9401 40.5897 26.3919 40.1353 26.639 39.5671C26.886 38.9989 26.9102 38.3585 26.7067 37.7733L26.5867 37.4533C28.8696 36.8669 31.2637 36.8669 33.5467 37.4533L33.4267 37.7733C33.2232 38.3585 33.2473 38.9989 33.4944 39.5671C33.7414 40.1353 34.1932 40.5897 34.76 40.84C35.2211 41.0529 35.6666 41.2979 36.0933 41.5733L36.72 42C37.3152 42.4368 38.0351 42.6705 38.7733 42.6667C39.7324 42.6678 40.6528 42.2891 41.3333 41.6133L43.7467 39.1867C44.0847 38.8193 44.3413 38.3848 44.4999 37.9115C44.6584 37.4382 44.7152 36.9368 44.6667 36.44C44.6352 35.9241 44.4926 35.4211 44.2487 34.9654C44.0048 34.5098 43.6652 34.1122 43.2533 33.8ZM41.7333 37.32L39.3333 39.7333C39.1875 39.8853 38.9932 39.9817 38.784 40.0061C38.5747 40.0304 38.3635 39.9811 38.1867 39.8667C37.9333 39.68 37.68 39.5067 37.4 39.3333C36.9305 39.0364 36.4453 38.7649 35.9467 38.52L36.48 37.0667C36.6001 36.7342 36.5833 36.3678 36.4333 36.0477C36.2833 35.7277 36.0123 35.4803 35.68 35.36C32.0198 34.027 28.0069 34.027 24.3467 35.36C24.0144 35.4803 23.7434 35.7277 23.5934 36.0477C23.4434 36.3678 23.4266 36.7342 23.5467 37.0667L24.08 38.5333C23.5746 38.7684 23.0847 39.0356 22.6133 39.3333L21.84 39.8667C21.6627 39.9939 21.4445 40.0507 21.2277 40.026C21.0108 40.0014 20.8109 39.8971 20.6667 39.7333L18.2667 37.32C18.1802 37.2349 18.1119 37.1331 18.0661 37.0208C18.0202 36.9084 17.9978 36.788 18 36.6667C18.0111 36.5297 18.0499 36.3964 18.1141 36.275C18.1782 36.1535 18.2665 36.0463 18.3733 35.96C21.7057 33.3933 25.7937 32.0014 30 32.0014C34.2063 32.0014 38.2943 33.3933 41.6267 35.96C41.7336 36.0463 41.8218 36.1535 41.886 36.275C41.9501 36.3964 41.9889 36.5297 42 36.6667C42.0023 36.788 41.9798 36.9084 41.9339 37.0208C41.8881 37.1331 41.8198 37.2349 41.7333 37.32Z" fill="white"/>
</svg>
