<svg width="52" height="44" viewBox="0 0 52 44" fill="none" xmlns="http://www.w3.org/2000/svg">
<path d="M33.7498 34.3013H34.3579L34.3119 34.2558C35.1202 34.1249 35.8232 33.7099 36.3222 33.0589L36.3239 33.0567C36.9474 32.2239 37.1609 31.1459 36.8718 30.1556L36.8715 30.1545C36.7154 29.6289 36.1634 29.3226 35.6259 29.4757L35.6246 29.476C35.0975 29.6292 34.7825 30.1751 34.9391 30.7133L34.9394 30.714C35.048 31.0829 34.9646 31.5252 34.7147 31.8513L34.7143 31.8518C34.5549 32.0608 34.2628 32.3098 33.7417 32.3098H28.5857C27.5471 32.3098 26.5027 32.2037 25.4983 31.9835C24.923 31.857 24.3628 31.7224 23.945 31.6194C23.7362 31.5679 23.5631 31.5243 23.4417 31.4936L23.2999 31.4576L23.2607 31.4478L23.2478 31.4447L23.2449 31.444C22.7057 31.3044 22.1693 31.6245 22.0243 32.1544C21.8768 32.6886 22.2064 33.2308 22.7401 33.3735L22.74 33.3735L22.742 33.374L22.8046 33.132L22.742 33.3741L22.7421 33.3741L22.7422 33.3741L22.7429 33.3743L22.7455 33.3749L22.7553 33.3775L22.7937 33.3873L22.9391 33.4242C23.0644 33.4558 23.2438 33.5006 23.4604 33.5534C23.8933 33.6589 24.4756 33.7965 25.0722 33.9248C26.223 34.1759 27.4121 34.3013 28.5937 34.3013H33.7498Z" fill="#003874" stroke="#003874" stroke-width="0.5"/>
<path d="M25.9051 27.9981L25.8994 27.9925C25.8922 27.9855 25.8811 27.9749 25.8662 27.9608C25.8365 27.9328 25.7917 27.8913 25.7329 27.8388C25.6153 27.7337 25.4417 27.5847 25.2201 27.4108L25.2191 27.4101C22.1538 24.9814 17.9402 24.4804 14.2328 26.0983L9.78909 28.0448C9.78886 28.0449 9.78864 28.045 9.78841 28.0451C9.27981 28.271 8.68882 28.0443 8.45992 27.5411C8.22854 27.0323 8.46247 26.4454 8.96887 26.2201L8.9702 26.2195L8.9702 26.2195L13.4156 24.2722L13.4157 24.2721C17.8094 22.3511 22.8142 22.9474 26.4751 25.8507C26.7538 26.0714 26.9714 26.2629 27.1214 26.4003C27.1965 26.4691 27.2545 26.5242 27.2943 26.5622L27.3264 26.5927L27.3383 26.5982L27.3723 26.6359C27.6742 26.9701 28.3183 27.265 29.3777 27.4838C30.4234 27.6998 31.8248 27.8325 33.5838 27.8827C33.5838 27.8827 33.5839 27.8827 33.5839 27.8827L33.8729 27.8906L33.8769 27.8907V27.8908C34.2673 27.9077 34.6492 27.9812 34.9943 28.1265L34.9992 28.1286L34.9992 28.1286L35.1554 28.1984L35.1585 28.1997L35.1585 28.1998C35.6291 28.4176 36.0331 28.7276 36.3436 29.1186L46.5092 24.3686C47.8929 23.7181 49.5485 24.0834 50.5131 25.2718L50.5134 25.2721C50.9863 25.8563 51.2485 26.5846 51.2485 27.3378C51.2485 28.5085 50.6388 29.5716 49.6249 30.1648C49.6249 30.1649 49.6248 30.1649 49.6248 30.1649L32.7854 40.076C32.1326 40.4941 31.1951 40.7376 29.975 40.8155L29.9744 40.8155C29.7112 40.8317 29.4481 40.8398 29.1778 40.8398L29.1776 40.839C27.3513 40.8387 25.4808 40.4204 23.7163 39.6026L25.9051 27.9981ZM25.9051 27.9981C26.6187 28.7799 27.8117 29.2216 29.1524 29.4831C30.5057 29.747 32.0598 29.836 33.5386 29.8749M25.9051 27.9981L33.5389 29.875M19.3239 35.799C18.7969 35.7057 18.3249 35.6354 17.9242 35.5812L17.9233 35.5811C16.474 35.3909 14.9525 35.5177 13.5193 35.9694L13.5193 35.9694L13.1523 36.0851L13.1523 36.085L13.1491 36.0861C12.6249 36.2593 12.3296 36.8139 12.4973 37.3423L12.4974 37.3428C12.6665 37.8718 13.2384 38.155 13.7632 37.992L13.7643 37.9917L14.1306 37.8762C14.1307 37.8762 14.1307 37.8762 14.1307 37.8762C15.283 37.516 16.5039 37.4109 17.6619 37.5682C18.0419 37.6216 18.4846 37.691 18.9824 37.7754C19.8048 37.9183 20.6041 38.167 21.3488 38.5126L21.3494 38.5129L23.7157 39.6024L19.2809 36.0453M19.3239 35.799C19.3241 35.7991 19.3243 35.7991 19.3245 35.7991L19.2809 36.0453M19.3239 35.799C19.3239 35.799 19.3239 35.799 19.3238 35.799L19.2809 36.0453M19.3239 35.799C20.3226 35.9733 21.2879 36.2811 22.19 36.6997L22.1898 36.6996L22.0852 36.9267M19.2809 36.0453C20.2576 36.2158 21.2022 36.5169 22.0852 36.9267M22.0852 36.9267L22.1905 36.6999M22.0852 36.9267L22.1905 36.6999M22.1905 36.6999L24.556 37.7891L24.4521 38.0164L24.5567 37.7893L24.5563 37.7892L22.1905 36.6999ZM33.5389 29.875L33.5455 29.625L33.5385 29.8749L33.5386 29.8749M33.5389 29.875C33.5388 29.875 33.5387 29.8749 33.5386 29.8749M33.5389 29.875L33.5386 29.8749M48.9377 26.5056L49.1316 26.3478L48.9373 26.5051C48.9374 26.5052 48.9375 26.5054 48.9377 26.5056ZM47.3626 26.1494L47.3629 26.1493L47.2566 25.923L47.3622 26.1496C47.3624 26.1496 47.3625 26.1495 47.3626 26.1494ZM34.1756 29.9485C34.1782 29.9495 34.1807 29.9504 34.1831 29.9513L34.2723 29.7178L34.1669 29.9445L34.1756 29.9485ZM33.8183 29.8828L33.8197 29.8829L33.8268 29.633L33.8169 29.8828C33.8174 29.8828 33.8178 29.8828 33.8183 29.8828ZM27.3456 26.6108C27.3457 26.6109 27.3457 26.6109 27.3456 26.6107L27.3456 26.6108Z" fill="#003874" stroke="#003874" stroke-width="0.5"/>
<path d="M8.77964 43.2501H8.17218C7.78039 43.2501 7.39548 43.0167 7.23701 42.6226C7.23687 42.6223 7.23672 42.6219 7.23657 42.6215L0.82438 26.986C0.824178 26.9856 0.823976 26.9851 0.823774 26.9846C0.717331 26.7322 0.729616 26.4532 0.833106 26.2171C0.9394 25.9674 1.13859 25.7829 1.38209 25.6831L1.3838 25.6824L1.3838 25.6824L6.3516 23.6895C6.35174 23.6895 6.35188 23.6894 6.35202 23.6894C7.64334 23.1666 9.1163 23.7915 9.63737 25.0628C9.63737 25.0628 9.63738 25.0628 9.63739 25.0628L14.9104 37.921L14.9106 37.9214C15.1619 38.5379 15.1627 39.2177 14.8928 39.8372C14.6317 40.457 14.1355 40.9284 13.5142 41.1763L8.77964 43.2501ZM8.77964 43.2501L8.65425 43.1259L13.5137 41.1764L8.77964 43.2501ZM8.72278 40.945L3.06884 27.1582L7.10876 25.5434L7.10878 25.5435L7.1138 25.5413C7.36629 25.434 7.66381 25.5566 7.76806 25.8147L7.76854 25.8158L13.0402 38.6788C13.0879 38.806 13.0866 38.9394 13.0347 39.0619C12.984 39.1814 12.8878 39.2749 12.7561 39.3298C12.7557 39.33 12.7553 39.3301 12.7549 39.3303L8.72278 40.945Z" fill="#003874" stroke="#003874" stroke-width="0.5"/>
<path opacity="0.5" fill-rule="evenodd" clip-rule="evenodd" d="M34.1379 17.7415C34.3331 17.9172 34.5924 17.9999 34.8407 18C34.8405 18 34.8403 18 34.8401 18H34.8413C34.8411 18 34.8409 18 34.8407 18C35.1212 17.9998 35.4139 17.896 35.619 17.6696C36.0084 17.2565 35.9762 16.6263 35.5435 16.2545L32.5691 13.6829C33.8914 13.2919 34.9383 12.2775 35.3216 11H36.9504C37.5339 11 38 10.5571 38 10C38 9.44287 37.5352 9 36.9504 9H35.3619C35.2713 8.6472 35.1306 8.31185 34.9489 8.00393H36.9504C37.5352 8.00393 38 7.56019 38 7.00197C38 6.44375 37.5352 6 36.9504 6H30.0496C29.4648 6 29 6.44375 29 7.00197C29 7.56019 29.4648 8.00393 30.0496 8.00393H31.3699C32.1229 8.00393 32.7853 8.40834 33.1298 9H30.0496C29.4648 9 29 9.44287 29 10C29 10.5571 29.4648 11 30.0496 11H33.0345C32.6731 11.5079 32.0635 11.8442 31.3699 11.8442H30.0496C29.6169 11.8442 29.2275 12.1027 29.0754 12.4851C28.9135 12.8769 29.0223 13.3112 29.3462 13.5897L34.1379 17.7415Z" fill="#003874"/>
<path opacity="0.5" d="M34 24C27.3868 24 22 18.6144 22 12C22 5.38562 27.3856 0 34 0C40.6144 0 46 5.38562 46 12C46 18.6144 40.6132 24 34 24ZM34 2.01783C28.4884 2.01783 24.0178 6.49911 24.0178 12C24.0178 17.5009 28.4991 21.9822 34 21.9822C39.5009 21.9822 43.9822 17.5009 43.9822 12C43.9822 6.49911 39.5009 2.01783 34 2.01783Z" fill="#003874"/>
</svg>
