<?xml version="1.0" encoding="utf-8"?>
<!-- Generator: Adobe Illustrator 27.1.1, SVG Export Plug-In . SVG Version: 6.00 Build 0)  -->
<svg version="1.1" id="Layer_1" xmlns="http://www.w3.org/2000/svg" xmlns:xlink="http://www.w3.org/1999/xlink" x="0px" y="0px"
	 viewBox="0 0 51 43.5" style="enable-background:new 0 0 51 43.5;" xml:space="preserve">
<style type="text/css">
	.st0{opacity:0.5;fill-rule:evenodd;clip-rule:evenodd;fill:#003874;enable-background:new    ;}
	.st1{fill:#003874;enable-background:new    ;}
</style>
<path class="st0" d="M33.5,0c-6.6,0-12,5.4-12,12s5.4,12,12,12s12-5.4,12-12S40.1,0,33.5,0z M33.5,22c-5.5,0-10-4.5-10-10
	S28,2,33.5,2c5.5,0,10,4.5,10,10S39,22,33.5,22z"/>
<path class="st0" d="M37.5,7c0-0.6-0.5-1-1-1h-6.9c-0.6,0-1,0.4-1,1s0.5,1,1,1h1.3c0.8,0,1.4,0.4,1.8,1h-3.1c-0.6,0-1,0.4-1,1
	s0.5,1,1,1h3c-0.4,0.5-1,0.8-1.7,0.8h-1.3c-0.4,0-0.8,0.3-1,0.6c-0.2,0.4-0.1,0.8,0.3,1.1l4.8,4.2c0.2,0.2,0.5,0.3,0.7,0.3
	c0.3,0,0.6-0.1,0.8-0.3c0.4-0.4,0.4-1-0.1-1.4l-3-2.6c1.3-0.4,2.4-1.4,2.8-2.7h1.6c0.6,0,1-0.4,1-1s-0.5-1-1-1h-1.6
	c-0.1-0.4-0.2-0.7-0.4-1h2C37,8,37.5,7.6,37.5,7z"/>
<path class="st1" d="M7.7,43.5c-0.5,0-1-0.3-1.2-0.8L0.1,27.1c-0.1-0.3-0.1-0.7,0-1c0.1-0.3,0.4-0.5,0.7-0.7l5-2
	c0.3-0.1,0.7-0.2,1-0.2c1.1,0,2.1,0.7,2.6,1.7l0.2,0.5l3.2-1.4c1.7-0.8,3.5-1.1,5.4-1.1c2.9,0,5.7,1,7.9,2.7
	c0.4,0.4,0.7,0.6,0.8,0.7l0.1,0l0,0c0.4,0.5,1.8,1,6,1.2l0.3,0c0.4,0,0.9,0.1,1.2,0.3l0.2,0.1c0.4,0.2,0.8,0.5,1.2,0.8l10-4.7
	c0.5-0.2,1-0.3,1.5-0.3c1.1,0,2.1,0.5,2.8,1.3c0.5,0.6,0.8,1.4,0.8,2.2c0,1.3-0.7,2.4-1.7,3l-16.8,9.9c-0.7,0.4-1.6,0.7-2.9,0.8
	c-0.3,0-0.5,0-0.8,0v0c-1.9,0-3.8-0.4-5.6-1.3l-2.4-1.1c-0.7-0.3-1.5-0.6-2.3-0.7c-0.5-0.1-0.9-0.2-1.3-0.2c-0.3,0-0.7-0.1-1-0.1
	c-0.5,0-1,0-1.4,0.1c0.3,0.7,0.2,1.4,0,2.1c-0.3,0.7-0.8,1.2-1.5,1.5l-5,2C8,43.5,7.8,43.5,7.7,43.5L7.7,43.5z M8.4,40.6l3.8-1.5
	c0.1,0,0.1-0.1,0.1-0.1c0-0.1,0-0.1,0-0.2l-4.5-11c0,0,0-0.1-0.1-0.1c0-0.1-0.1-0.1-0.1-0.2L7,25.9c0-0.1-0.1-0.2-0.2-0.2
	c0,0-0.1,0-0.1,0l-3.8,1.5L8.4,40.6z M16.1,35.2c0.5,0,0.9,0,1.3,0.1c0.4,0.1,0.9,0.1,1.4,0.2c1,0.2,2,0.5,2.9,0.9l2.4,1.1
	c1.5,0.7,3,1,4.5,1c0.2,0,0.4,0,0.6,0c1.1-0.1,1.6-0.3,1.8-0.4L48,28.2c0.3-0.2,0.5-0.5,0.5-0.9c0-0.2-0.1-0.5-0.2-0.7
	c-0.2-0.2-0.5-0.4-0.8-0.4c-0.2,0-0.3,0-0.5,0.1l-10.2,4.8c0,0.7-0.3,1.4-0.7,2c-0.7,0.9-1.7,1.3-2.8,1.3h-5.2
	c-1.2,0-2.4-0.1-3.6-0.4c-1.2-0.3-2.3-0.6-2.3-0.6c-0.3-0.1-0.6-0.3-0.8-0.6c-0.2-0.3-0.2-0.6-0.1-0.9c0.1-0.5,0.6-0.9,1.2-0.9
	c0.1,0,0.2,0,0.3,0l0.1,0c0.4,0.1,1.2,0.3,2.2,0.5c1,0.2,2,0.3,3,0.3h5.2c0.3,0,0.6-0.1,0.8-0.4c0.2-0.3,0.3-0.6,0.2-0.9l0-0.2
	c-0.1-0.1-0.2-0.3-0.5-0.4l-0.1-0.1c0,0-0.1,0-0.3,0l-0.3,0c-3.1-0.1-6.4-0.4-7.8-2v0c0,0-0.2-0.2-0.6-0.6c-1.8-1.4-4.1-2.2-6.4-2.2
	c-1.5,0-3,0.3-4.4,0.9l-3.3,1.5l3.2,7.7C14.5,35.3,15.3,35.2,16.1,35.2z"/>
<path class="st1" d="M49.8,25.4c-0.9-1.1-2.4-1.4-3.7-0.8l-10.4,4.8c-0.3-0.4-0.7-0.8-1.2-1l-0.2-0.1c-0.3-0.1-0.7-0.2-1-0.2l-0.3,0
	c-3.5-0.1-5.7-0.5-6.4-1.3c0,0,0,0-0.1,0c-0.1-0.1-0.4-0.4-0.8-0.7c-3.6-2.8-8.5-3.4-12.8-1.5l-3.7,1.6l-0.4-1
	c-0.5-1.1-1.8-1.7-3-1.2l-5,2c-0.2,0.1-0.3,0.2-0.4,0.4c-0.1,0.2-0.1,0.4,0,0.6L7,42.5C7.1,42.8,7.4,43,7.7,43l0,0
	c0.1,0,0.2,0,0.3-0.1l5-2c0.6-0.2,1-0.6,1.2-1.2c0.2-0.6,0.2-1.2,0-1.7L14,37.5c1.1-0.3,2.2-0.3,3.2-0.2c0.4,0.1,0.8,0.1,1.3,0.2
	c0.8,0.1,1.7,0.4,2.4,0.8l2.4,1.1c1.7,0.8,3.6,1.2,5.4,1.2l0,0c0.3,0,0.5,0,0.8,0c1.2-0.1,2.1-0.3,2.7-0.7L49,29.9
	c0.9-0.5,1.5-1.5,1.5-2.6C50.5,26.6,50.3,26,49.8,25.4z M12.8,39.2c-0.1,0.2-0.2,0.3-0.4,0.4l-4.3,1.7L2.2,27l0,0l4.3-1.7
	c0.4-0.2,0.8,0,1,0.4l0.6,1.5c0,0.1,0,0.1,0.1,0.2c0,0,0,0.1,0.1,0.1l4.5,11C12.8,38.8,12.8,39,12.8,39.2z M48.2,28.6l-16.9,9.9
	c-0.3,0.2-0.9,0.4-2,0.5c-1.8,0.1-3.6-0.2-5.4-1l-2.4-1.1c-0.9-0.4-1.8-0.7-2.8-0.9c-0.5-0.1-1-0.2-1.4-0.2c-1.3-0.2-2.7-0.1-4,0.3
	l-3.5-8.6l3.8-1.6c3.8-1.7,8.1-1.1,11.2,1.3c0.5,0.4,0.7,0.6,0.7,0.6c1.3,1.4,4.5,1.7,7.5,1.8l0.3,0c0.2,0,0.3,0,0.4,0.1l0.1,0.1
	c0.4,0.2,0.6,0.4,0.8,0.8c0,0,0,0.1,0,0.1c0.1,0.4,0,1-0.3,1.4c-0.2,0.3-0.6,0.6-1.2,0.6h-5.2c-1.1,0-2.1-0.1-3.1-0.3
	c-0.9-0.2-1.8-0.4-2.1-0.5h0h0l0,0l0,0l0,0l0,0c-0.1,0-0.1,0-0.1,0c-0.4-0.1-0.8,0.1-0.9,0.5c-0.1,0.4,0.1,0.8,0.5,0.9
	c0,0,1.1,0.3,2.3,0.5c1.1,0.2,2.3,0.4,3.5,0.4h5.2l0,0c1,0,1.8-0.4,2.4-1.1c0.4-0.6,0.7-1.3,0.6-2l10.5-4.9c0.6-0.3,1.4-0.1,1.9,0.4
	c0.2,0.3,0.3,0.6,0.3,1C49,27.9,48.7,28.4,48.2,28.6z"/>
</svg>
