<svg width="54" height="48" viewBox="0 0 54 48" fill="none" xmlns="http://www.w3.org/2000/svg">
<path d="M23.6502 12.6761L28.3432 14.4877L17.3571 19.3542C15.8727 20.0118 15.9229 22.1383 17.4391 22.7236L20.554 23.9274C21.7573 24.392 23.145 26.1734 22.4025 28.1004C21.6593 30.0257 19.4362 30.4119 18.2329 29.9474C18.2329 29.9474 7.17921 28.3035 6.39748 28.0881C5.61574 27.8727 4.55912 26.7884 4.55912 26.7884C4.55912 26.7884 3.85909 25.0733 3.53101 24.3318L1.53143 19.5328C1.33549 19.0905 1.3572 19.27 1.53143 18.8187C1.70566 18.3673 3.26217 17.6134 3.70451 17.4174L13.8784 12.9108C15.412 12.2318 17.0643 11.8616 18.741 11.8214C20.4176 11.7811 22.0858 12.0716 23.6502 12.6761Z" stroke="#003874" stroke-width="2.30713" stroke-linecap="round" stroke-linejoin="round"/>
<path d="M42.2269 16.6916L40.7493 13.3559C40.3574 12.4713 39.6301 11.7785 38.7274 11.43C37.8248 11.0816 36.8206 11.106 35.936 11.4979L32.6003 12.9755M42.2269 16.6916C40.0036 17.6765 34.9644 18.3126 32.6003 12.9755M42.2269 16.6916L43.7045 20.0273M32.6003 12.9755L22.5932 17.4083M43.7045 20.0273L45.1821 23.363C45.5739 24.2477 45.5983 25.2518 45.2499 26.1545C44.9014 27.0572 44.2087 27.7844 43.324 28.1763L39.9883 29.6539M43.7045 20.0273C41.4812 21.0122 37.6241 24.3168 39.9883 29.6539M29.9812 34.0867L26.6455 35.5643C25.7608 35.9562 24.7567 35.9806 23.854 35.6322C22.9514 35.2837 22.2241 34.5909 21.8322 33.7063L20.3546 30.3706C22.5778 29.3857 27.617 28.7496 29.9812 34.0867ZM29.9812 34.0867L39.9883 29.6539" stroke="#003874" stroke-width="1.41599" stroke-linecap="round" stroke-linejoin="round"/>
<path d="M21.1282 35.7445C21.5808 36.7662 22.4064 37.5727 23.4235 37.9864C24.4406 38.4001 25.5658 38.3872 26.5516 37.9505L30.2684 36.304L41.419 31.3647L45.1359 29.7182C46.1217 29.2816 46.8873 28.4569 47.2643 27.4257C47.6413 26.3944 47.5989 25.2411 47.1463 24.2194" stroke="#6688AC" stroke-width="0.539501" stroke-linecap="round" stroke-linejoin="round"/>
<path d="M20.5538 37.6241C21.0542 38.7537 21.9671 39.6454 23.0917 40.1028C24.2162 40.5602 25.4603 40.5459 26.5502 40.0631L30.6598 38.2427L42.9886 32.7815L47.0982 30.961C48.1881 30.4782 49.0346 29.5664 49.4515 28.4262C49.8683 27.286 49.8214 26.0108 49.321 24.8812" stroke="#6688AC" stroke-width="0.431601" stroke-linecap="round" stroke-linejoin="round"/>
<path d="M20.1775 39.2964C20.7261 40.5348 21.7268 41.5122 22.9596 42.0137C24.1924 42.5151 25.5562 42.4995 26.751 41.9702L31.2561 39.9746L44.7713 33.9878L49.2764 31.9922C50.4712 31.4629 51.3992 30.4634 51.8562 29.2135C52.3131 27.9635 52.2617 26.5656 51.7131 25.3272" stroke="#6688AC" stroke-width="0.3237" stroke-linecap="round" stroke-linejoin="round"/>
<path d="M33.3576 20.1671L33.5225 21.3968L27.9314 23.7474L27.7707 22.5159L33.3576 20.1671ZM33.2893 27.8708L28.8485 25.5632L28.4511 24.6296L29.9089 24.0167C30.2572 23.8703 30.5237 23.6905 30.7084 23.4773C30.8948 23.2601 31.004 23.0208 31.0363 22.7594C31.0701 22.4939 31.0268 22.2179 30.9063 21.9314C30.7257 21.5017 30.454 21.2093 30.0914 21.0544C29.7288 20.8994 29.2694 20.9389 28.7132 21.1727L27.129 21.8387L26.9103 20.3987L28.1659 19.8708C28.8737 19.5732 29.5054 19.4365 30.061 19.4608C30.6182 19.481 31.0952 19.6408 31.492 19.94C31.8917 20.238 32.2031 20.6525 32.4263 21.1833C32.6235 21.6524 32.7138 22.107 32.6972 22.547C32.6805 22.987 32.5378 23.4023 32.269 23.7929C32.0003 24.1836 31.5847 24.5434 31.0223 24.8724L30.9788 24.9105L35.0144 27.0563L35.0463 27.1322L33.2893 27.8708ZM32.4803 18.0569L32.6439 19.307L28.1033 21.1961L27.9468 19.9629L32.4803 18.0569Z" fill="#809BB9"/>
</svg>
