<svg width="22" height="25" viewBox="0 0 22 25" fill="none" xmlns="http://www.w3.org/2000/svg">
<g clip-path="url(#clip0_7334_24969)">
<path d="M2.02259 24.9999C1.48218 24.9999 0.974015 24.7942 0.592255 24.421C0.210495 24.0473 2.19318e-05 23.5506 2.19318e-05 23.023V7.80275C-0.00250628 7.27951 0.213656 6.76739 0.592255 6.39674C0.974015 6.02361 1.48218 5.8179 2.02196 5.8179H9.69002C9.72288 5.81605 9.75575 5.81543 9.78862 5.81543C9.81769 5.81543 9.84613 5.81543 9.87521 5.81728C9.89164 5.81605 9.90808 5.81543 9.92451 5.81543C9.94537 5.81543 9.96559 5.81667 9.98645 5.81852C10.1078 5.82408 10.2235 5.85991 10.3252 5.92354C10.6115 6.01497 10.8776 6.17002 11.0957 6.37388L15.8146 10.8341C16.209 11.2054 16.4346 11.7255 16.4334 12.2611V23.0224C16.4334 23.5506 16.2229 24.0467 15.8405 24.4204C15.4588 24.7935 14.9506 24.9993 14.4108 24.9993H2.02259V24.9999ZM2.03713 7.17697C1.6876 7.17882 1.40255 7.45743 1.40128 7.79905L1.36273 23.0342C1.36273 23.3764 1.64841 23.6569 1.9992 23.6581H14.3862C14.7389 23.6581 15.0252 23.3776 15.0252 23.0335V12.3383H11.2853C10.7449 12.3383 10.2374 12.1326 9.85498 11.7595C9.47322 11.3864 9.26275 10.8897 9.26275 10.3615V7.17697H2.03776H2.03713ZM10.6672 10.3615C10.6684 10.6969 10.9497 10.9762 11.2935 10.983H13.976L10.6672 7.83364V10.3615Z" fill="#003874"/>
<path d="M3.99457 10.9753C3.61092 10.9753 3.29932 10.6707 3.29932 10.2957C3.29932 9.92077 3.61092 9.61621 3.99457 9.61621H6.52152C6.90517 9.61621 7.21678 9.92077 7.21678 10.2957C7.21678 10.6707 6.90517 10.9753 6.52152 10.9753H3.99457Z" fill="#003874"/>
<path d="M3.99457 14.5519C3.61092 14.5519 3.29932 14.2474 3.29932 13.8724C3.29932 13.4974 3.61092 13.1929 3.99457 13.1929H12.2169C12.6006 13.1929 12.9122 13.4974 12.9122 13.8724C12.9122 14.2474 12.6006 14.5519 12.2169 14.5519H3.99457Z" fill="#003874"/>
<path d="M3.99457 18.1257C3.61092 18.1257 3.29932 17.8211 3.29932 17.4461C3.29932 17.0712 3.61092 16.7666 3.99457 16.7666H12.2169C12.6006 16.7666 12.9122 17.0712 12.9122 17.4461C12.9122 17.8211 12.6006 18.1257 12.2169 18.1257H3.99457Z" fill="#003874"/>
<path d="M3.99457 21.7028C3.61092 21.7028 3.29932 21.3983 3.29932 21.0233C3.29932 20.6483 3.61092 20.3438 3.99457 20.3438H9.23302C9.61668 20.3438 9.92828 20.6483 9.92828 21.0233C9.92828 21.3983 9.61668 21.7028 9.23302 21.7028H3.99457Z" fill="#003874"/>
<path d="M17.2144 19.6508C16.8307 19.6508 16.5191 19.3463 16.5191 18.9713C16.5191 18.5963 16.8307 18.2918 17.2144 18.2918H19.613C19.9038 18.2794 20.132 18.0478 20.1332 17.763V6.15904H16.698C16.1816 6.15904 15.6956 5.96259 15.3303 5.60553C14.9649 5.24846 14.7639 4.77341 14.7639 4.2687V1.36092H8.11474C7.81515 1.36092 7.57118 1.59937 7.57118 1.89219V4.41387C7.57118 4.78885 7.25958 5.0934 6.87592 5.0934C6.49227 5.0934 6.18066 4.78885 6.18066 4.41387V1.89219C6.18066 1.38748 6.38166 0.912427 6.74698 0.555363C7.11168 0.198918 7.59773 0.00185327 8.11411 0.00185327H15.2266C15.2569 0.000617757 15.2873 0 15.3176 0C15.3448 0 15.3713 0 15.3985 0.00185327C15.4131 0.000617757 15.4282 0.000617757 15.4434 0.000617757C15.4617 0.000617757 15.4807 0.00123551 15.499 0.00308878C15.6191 0.00803084 15.7341 0.0426252 15.8353 0.105019C16.107 0.19274 16.3586 0.34162 16.5653 0.535595L20.9612 4.67642C21.3354 5.03101 21.5503 5.52522 21.5522 6.03363V17.7617C21.5522 18.2665 21.3512 18.7415 20.9859 19.0986C20.6205 19.4556 20.1345 19.6521 19.6181 19.6521H17.215L17.2144 19.6508ZM16.1684 4.2687C16.1684 4.56152 16.4123 4.79997 16.7119 4.79997H19.0777L16.1684 2.04972V4.2687Z" fill="#2174BF"/>
</g>
<defs>
<clipPath id="clip0_7334_24969">
<rect width="21.5517" height="25" fill="white"/>
</clipPath>
</defs>
</svg>
