<svg width="15" height="18" viewBox="0 0 15 18" fill="none" xmlns="http://www.w3.org/2000/svg">
<path d="M4.40024 6.39938V6.29938V4.49953V4.49929H4.50024C4.49892 3.96483 4.65625 3.442 4.95229 2.99702C5.24834 2.55204 5.66978 2.20493 6.16324 1.99964C6.6567 1.79435 7.19999 1.74012 7.72429 1.84383C8.24859 1.94753 8.73033 2.2045 9.10848 2.58219L4.40024 6.39938ZM4.40024 6.39938H4.50024H11.7006C12.3902 6.39938 13.0516 6.67332 13.5392 7.16095C14.0268 7.64857 14.3008 8.30992 14.3008 8.99952V15.2999C14.3008 15.9895 14.0268 16.6508 13.5392 17.1384C13.0516 17.6261 12.3902 17.9 11.7006 17.9H2.70014C2.01054 17.9 1.34919 17.6261 0.861564 17.1384C0.373943 16.6508 0.1 15.9895 0.1 15.2999V8.99952C0.1 8.30992 0.373943 7.64857 0.861564 7.16095C1.34919 6.67332 2.01054 6.39938 2.70014 6.39938H2.80014V6.29938V4.49931C2.80014 4.4993 2.80014 4.49929 2.80014 4.49929C2.80033 3.62967 3.05819 2.77962 3.54115 2.05645C4.02412 1.33327 4.71054 0.769422 5.51373 0.43609C6.31693 0.102758 7.20089 0.0148937 8.05399 0.183593C8.907 0.352273 9.6909 0.769898 10.3067 1.38374C10.8615 1.94264 11.2593 2.63788 11.4598 3.39942L4.40024 6.39938ZM12.4078 16.007C12.5953 15.8195 12.7007 15.5651 12.7007 15.2999V8.99952C12.7007 8.73429 12.5953 8.47993 12.4078 8.29238C12.2202 8.10484 11.9658 7.99948 11.7006 7.99948H2.70014C2.43491 7.99948 2.18055 8.10484 1.993 8.29238C1.80546 8.47993 1.7001 8.73429 1.7001 8.99952V15.2999C1.7001 15.5651 1.80546 15.8195 1.993 16.007C2.18055 16.1945 2.43491 16.2999 2.70014 16.2999H11.7006C11.9658 16.2999 12.2202 16.1945 12.4078 16.007Z" fill="#003874" stroke="white" stroke-width="0.2"/>
</svg>
