<svg width="20" height="20" viewBox="0 0 20 20" fill="none" xmlns="http://www.w3.org/2000/svg">
<path d="M10.0003 6.9C9.8065 6.89925 9.61594 6.94971 9.44792 7.04628C9.27987 7.14286 9.14032 7.28213 9.0434 7.45L9.04332 7.44995L9.04139 7.45365C8.98513 7.5612 8.90769 7.65626 8.81374 7.73311C8.71978 7.80996 8.61125 7.86701 8.49468 7.90083C8.3781 7.93465 8.25589 7.94454 8.13539 7.92991C8.0149 7.91527 7.89861 7.87641 7.79352 7.81567C7.68843 7.75492 7.59671 7.67355 7.52389 7.57644C7.45107 7.47933 7.39864 7.36849 7.36976 7.25059C7.34088 7.1327 7.33615 7.01018 7.35585 6.8904C7.37555 6.77063 7.41928 6.65608 7.48439 6.55365L7.48447 6.55369L7.48661 6.55C7.74129 6.10887 8.10767 5.7426 8.54888 5.48806C8.98999 5.23358 9.49032 5.09974 9.99957 5.1C10.6795 5.10535 11.336 5.34948 11.8543 5.78973C12.3726 6.23005 12.7197 6.83853 12.8348 7.50882C12.95 8.17911 12.8259 8.86855 12.4843 9.45663C12.1427 10.0447 11.6052 10.494 10.9659 10.726L10.9 10.7499V10.82V11C10.9 11.2387 10.8052 11.4676 10.6364 11.6364C10.4676 11.8052 10.2387 11.9 10 11.9C9.76131 11.9 9.53239 11.8052 9.36361 11.6364C9.19482 11.4676 9.1 11.2387 9.1 11V10C9.1 9.7613 9.19482 9.53238 9.36361 9.3636C9.53239 9.19482 9.76131 9.1 10 9.1C10.2917 9.1 10.5715 8.9841 10.7778 8.77781C10.9841 8.57152 11.1 8.29174 11.1 8C11.1 7.70826 10.9841 7.42847 10.7778 7.22218C10.5716 7.01596 10.2919 6.90007 10.0003 6.9ZM10.0003 6.9C10.0002 6.9 10.0001 6.9 10 6.9V7L10.0004 6.9C10.0004 6.9 10.0003 6.9 10.0003 6.9ZM9.16914 13.6653L9.17001 13.6658L9.17458 13.6525C9.19349 13.5974 9.21961 13.5451 9.25224 13.4969C9.28624 13.4487 9.3231 13.4026 9.3626 13.3588C9.44593 13.2752 9.54491 13.2088 9.65388 13.1634C9.76356 13.1177 9.88119 13.0942 10 13.0942C10.1188 13.0942 10.2364 13.1177 10.3461 13.1634C10.4558 13.2091 10.5553 13.2761 10.639 13.3604C10.7224 13.4445 10.7884 13.5442 10.8332 13.6539C10.878 13.7636 10.9007 13.881 10.9 13.9994L10.8999 13.9994L10.9001 14.0037C10.9044 14.1201 10.886 14.2363 10.8461 14.3457L10.846 14.346C10.806 14.4563 10.7424 14.5564 10.6594 14.6394C10.5765 14.7224 10.4763 14.786 10.366 14.826L10.3659 14.8257L10.3596 14.8285C10.2526 14.8758 10.137 14.9002 10.02 14.9002C9.90306 14.9002 9.7874 14.8758 9.68043 14.8285L9.68052 14.8283L9.67403 14.826C9.56373 14.786 9.46355 14.7224 9.3806 14.6394C9.29765 14.5564 9.23396 14.4563 9.19403 14.346L9.19445 14.3458L9.19045 14.3373C9.14113 14.2328 9.11699 14.1181 9.11997 14.0026L9.12047 14.0026L9.11973 13.9926C9.11531 13.9327 9.11519 13.8724 9.11937 13.8124C9.12878 13.7613 9.14554 13.7117 9.16914 13.6653ZM4.49986 1.76845C6.1279 0.680625 8.04197 0.1 10 0.1C11.3001 0.1 12.5874 0.356071 13.7886 0.853592C14.9897 1.35111 16.0811 2.08034 17.0004 2.99964C17.9197 3.91894 18.6489 5.01031 19.1464 6.21143C19.6439 7.41255 19.9 8.69991 19.9 10C19.9 11.958 19.3194 13.8721 18.2315 15.5001C17.1437 17.1282 15.5976 18.3971 13.7886 19.1464C11.9796 19.8957 9.98902 20.0918 8.06861 19.7098C6.1482 19.3278 4.38419 18.3849 2.99965 17.0004C1.61511 15.6158 0.672224 13.8518 0.29023 11.9314C-0.0917634 10.011 0.10429 8.02042 0.853597 6.21143C1.6029 4.40244 2.87181 2.85628 4.49986 1.76845ZM5.49988 16.7349C6.83192 17.6249 8.39797 18.1 10 18.1C12.1483 18.1 14.2085 17.2466 15.7276 15.7276C17.2466 14.2085 18.1 12.1482 18.1 10C18.1 8.39797 17.6249 6.83192 16.7349 5.49988C15.8449 4.16784 14.5798 3.12964 13.0997 2.51658C11.6197 1.90351 9.99102 1.7431 8.41977 2.05564C6.84853 2.36818 5.40524 3.13963 4.27244 4.27243C3.13963 5.40524 2.36818 6.84852 2.05564 8.41977C1.7431 9.99101 1.90351 11.6197 2.51658 13.0997C3.12965 14.5798 4.16785 15.8449 5.49988 16.7349Z" fill="#003874" stroke="white" stroke-width="0.2"/>
</svg>
