<svg width="20" height="20" viewBox="0 0 20 20" fill="none" xmlns="http://www.w3.org/2000/svg">
<path d="M8.70952 4.92698C8.70952 4.62143 8.83095 4.32818 9.04683 4.11191C9.26309 3.89564 9.55595 3.7746 9.86151 3.7746C10.1671 3.7746 10.4603 3.89603 10.6766 4.11191C10.8929 4.32818 11.0139 4.62103 11.0139 4.92698C11.0139 5.23294 10.8925 5.52579 10.6766 5.74167C10.4603 5.95794 10.1675 6.07937 9.86151 6.07937C9.55556 6.07937 9.2627 5.95794 9.04683 5.74167C8.83056 5.5254 8.70952 5.23254 8.70952 4.92698ZM7.84444 9.08056C8.48452 8.79325 9.00754 8.90238 9.00754 9.71627V15.1544C9.00754 16.2409 10.2512 16.5079 11.1984 15.9222C11.6909 15.604 12.1246 15.2028 12.4802 14.7369C12.5532 14.6393 12.5504 14.5048 12.4734 14.4103C12.3968 14.3159 12.2655 14.2857 12.1552 14.3373C11.5151 14.625 10.9921 14.5155 10.9921 13.7016V8.26349C10.9921 7.17738 9.74841 6.90992 8.80119 7.49564C8.30873 7.81389 7.875 8.21468 7.51905 8.68095C7.44603 8.77857 7.44881 8.9127 7.52579 9.00714C7.60238 9.10159 7.73373 9.13175 7.84405 9.08016L7.84444 9.08056ZM0 10C0 7.34762 1.05357 4.80437 2.92897 2.92897C4.80437 1.05357 7.34802 0 10 0C12.652 0 15.1956 1.05357 17.071 2.92897C18.9464 4.80437 20 7.34802 20 10C20 12.652 18.9464 15.1956 17.071 17.071C15.1956 18.9464 12.652 20 10 20C7.34881 19.9972 4.80714 18.9425 2.93214 17.0679C1.05754 15.1929 0.00277778 12.6512 0 10ZM1.33333 10C1.33333 12.2984 2.24643 14.5028 3.87143 16.1282C5.49683 17.7536 7.70119 18.6663 9.9996 18.6663C12.298 18.6663 14.5024 17.7532 16.1278 16.1282C17.7532 14.5028 18.6663 12.2984 18.6663 10C18.6663 7.70159 17.7532 5.49722 16.1282 3.87183C14.5028 2.24643 12.2984 1.33333 10 1.33333C7.70238 1.33571 5.49921 2.2496 3.8746 3.8746C2.25 5.49921 1.33571 7.70238 1.33333 10Z" fill="#003874"/>
</svg>
