<svg width="24" height="18" viewBox="0 0 24 18" fill="none" xmlns="http://www.w3.org/2000/svg">
<path d="M21.6444 12.8464L21.8508 13.343L21.8528 13.3419L22.5578 15.0321C22.5966 15.1289 22.5475 15.2313 22.4664 15.2649L22.4564 15.269L22.4467 15.2736C22.4425 15.2755 22.4379 15.2771 22.4313 15.2784C22.4243 15.2798 22.4131 15.2811 22.3959 15.2811C22.3289 15.2811 22.2665 15.2412 22.2396 15.1771C22.2396 15.177 22.2396 15.177 22.2395 15.1769L21.5011 13.401L21.373 13.093H21.0394H17.8173H17.4837L17.3556 13.401L16.6169 15.1774L16.6169 15.1774L16.6159 15.18C16.5815 15.264 16.4827 15.3078 16.3944 15.2738C16.3017 15.2309 16.2632 15.1278 16.2989 15.0394L17.2109 12.8465L17.2109 12.8464L19.2715 7.88904L19.2715 7.88905L19.2735 7.88416C19.2954 7.82994 19.3557 7.7854 19.4276 7.7854C19.4914 7.7854 19.5547 7.82331 19.5852 7.89251L21.6444 12.8464ZM17.9123 12.05L17.6244 12.742H18.3739H20.4813H21.2309L20.943 12.05L19.8893 9.51738L19.4276 8.4078L18.966 9.51738L17.9123 12.05Z" fill="black" stroke="#003874"/>
<path d="M0.743112 5.06489H1.34691H7.45577H8.0593L7.94704 5.65789C7.61477 7.41314 6.1806 8.79767 4.40168 8.79803L0.743112 5.06489ZM0.743112 5.06489L0.855671 5.6581M0.743112 5.06489L0.855671 5.6581M0.855671 5.6581C1.18866 7.413 2.62193 8.79767 4.40099 8.79803L0.855671 5.6581ZM9.64492 4.64864H10.1449V4.14864V0.707749C10.1449 0.636945 10.1712 0.579788 10.2039 0.543728C10.2307 0.514118 10.2562 0.503464 10.2757 0.500758H10.2871C10.3072 0.500758 10.3375 0.509037 10.3696 0.544486C10.4023 0.580546 10.4286 0.637703 10.4286 0.708507V9.00654C10.4286 9.07734 10.4023 9.1345 10.3696 9.17056C10.3375 9.20601 10.3072 9.21429 10.2871 9.21429C10.267 9.21429 10.2367 9.20601 10.2046 9.17056C10.1719 9.1345 10.1456 9.07734 10.1456 9.00654V5.56565V5.06565H9.64561H8.76005H8.32275L8.2645 5.49905C7.97725 7.63659 6.31907 9.21429 4.40237 9.21429C2.29796 9.21429 0.5 7.30463 0.5 4.85714C0.5 4.78572 0.526422 4.72837 0.559069 4.69232C0.591161 4.65689 0.621371 4.64864 0.641482 4.64864H7.45646H8.06025L7.94769 4.05543C7.61466 2.3003 6.18107 0.915497 4.40168 0.915497C4.38154 0.915497 4.35127 0.907218 4.31915 0.87177C4.28646 0.835709 4.2602 0.778553 4.2602 0.707749C4.2602 0.636945 4.28646 0.579788 4.31915 0.543728C4.35127 0.508279 4.38154 0.5 4.40168 0.5C6.31855 0.5 7.9772 2.0771 8.26379 4.21507L8.32191 4.64864H8.75936H9.64492Z" fill="black" stroke="#003874"/>
<line x1="18.494" y1="0.838526" x2="10.553" y2="16.7205" stroke="#003874" stroke-width="1.25" stroke-linecap="round"/>
</svg>
