<svg width="18" height="18" viewBox="0 0 18 18" fill="none" xmlns="http://www.w3.org/2000/svg">
<g clip-path="url(#clip0_7581_4036)">
<path d="M8.99981 0C11.3868 0 13.6759 0.948214 15.3638 2.6361C17.0518 4.32398 18 6.61301 18 9C18 11.387 17.0518 13.676 15.3638 15.3639C13.6759 17.0518 11.3868 18 8.99981 18C6.61277 18 4.32369 17.0518 2.63577 15.3639C0.947851 13.676 -0.00038147 11.387 -0.00038147 9C0.00191307 6.61378 0.950912 4.32589 2.63807 2.63839C4.32598 0.951275 6.61392 0.00229592 9.00019 0H8.99981ZM13.7142 10.2861C14.0551 10.2861 14.3823 10.1506 14.6234 9.90957C14.8645 9.6685 14.9999 9.34133 14.9999 9.00038C14.9999 8.65944 14.8645 8.33227 14.6234 8.0912C14.3823 7.85013 14.0551 7.71467 13.7142 7.71467C13.3732 7.71467 13.0461 7.85013 12.805 8.0912C12.5639 8.33227 12.4285 8.65944 12.4285 9.00038C12.4285 9.34133 12.5639 9.6685 12.805 9.90957C13.0461 10.1506 13.3732 10.2861 13.7142 10.2861ZM8.99981 10.2861C9.34076 10.2861 9.66794 10.1506 9.90901 9.90957C10.1501 9.6685 10.2856 9.34133 10.2856 9.00038C10.2856 8.65944 10.1501 8.33227 9.90901 8.0912C9.66794 7.85013 9.34076 7.71467 8.99981 7.71467C8.65886 7.71467 8.33168 7.85013 8.09061 8.0912C7.84953 8.33227 7.71407 8.65944 7.71407 9.00038C7.71407 9.34133 7.84953 9.6685 8.09061 9.90957C8.33168 10.1506 8.65886 10.2861 8.99981 10.2861ZM4.28542 10.2861C4.62637 10.2861 4.95355 10.1506 5.19463 9.90957C5.4357 9.6685 5.57117 9.34133 5.57117 9.00038C5.57117 8.65944 5.4357 8.33227 5.19463 8.0912C4.95355 7.85013 4.62637 7.71467 4.28542 7.71467C3.94447 7.71467 3.6173 7.85013 3.37622 8.0912C3.13514 8.33227 2.99968 8.65944 2.99968 9.00038C2.99968 9.34133 3.13514 9.6685 3.37622 9.90957C3.6173 10.1506 3.94447 10.2861 4.28542 10.2861Z" fill="white"/>
</g>
<defs>
<clipPath id="clip0_7581_4036">
<rect width="18" height="18" fill="white" transform="matrix(-1 0 0 1 18 0)"/>
</clipPath>
</defs>
</svg>
