<svg width="36" height="35" viewBox="0 0 36 35" fill="none" xmlns="http://www.w3.org/2000/svg">
<path d="M26.2502 2.05884C25.6344 2.05884 25.135 2.55819 25.135 3.17403V7.6348H20.6743C20.0584 7.6348 19.5591 8.13415 19.5591 8.75C19.5591 9.36584 20.0584 9.86519 20.6743 9.86519H25.135V14.326C25.135 14.9418 25.6344 15.4412 26.2502 15.4412C26.8661 15.4412 27.3654 14.9418 27.3654 14.326V9.86519H31.8262C32.4421 9.86519 32.9414 9.36584 32.9414 8.75C32.9414 8.13415 32.4421 7.6348 31.8262 7.6348H27.3654V3.17403C27.3654 2.55819 26.8661 2.05884 26.2502 2.05884Z" fill="#003874" fill-opacity="0.5"/>
<path d="M26.2502 1.90884C25.5516 1.90884 24.985 2.47534 24.985 3.17403V7.4848H20.6743C19.9756 7.4848 19.4091 8.05131 19.4091 8.75C19.4091 9.44869 19.9756 10.0152 20.6743 10.0152H24.985V14.326C24.985 15.0247 25.5516 15.5912 26.2502 15.5912C26.9489 15.5912 27.5154 15.0247 27.5154 14.326V10.0152H31.8262C32.5249 10.0152 33.0914 9.44869 33.0914 8.75C33.0914 8.05131 32.5249 7.4848 31.8262 7.4848H27.5154V3.17403C27.5154 2.47534 26.9489 1.90884 26.2502 1.90884Z" stroke="#003874" stroke-opacity="0.5" stroke-width="0.3"/>
<path d="M33.6689 24.6517C32.6015 24.0094 27.2236 20.7807 26.2081 20.3525C24.4631 19.6171 23.2398 20.7597 22.5832 21.373L22.4593 21.4881C22.0595 21.8583 21.4329 22.4156 21.0051 22.7958C20.5924 22.6447 19.6959 22.2014 18.0078 20.8948C15.97 19.318 13.4864 16.1534 12.6679 14.9517C12.425 14.5966 12.2931 14.2164 12.2202 13.9182C12.574 13.587 13.0567 13.1218 13.5544 12.5965C14.9706 11.0988 14.6038 9.50295 14.5578 9.32586C14.5298 9.22081 14.4899 9.11875 14.4389 9.0217L11.6345 3.76401C10.3332 1.01261 9.48574 0.0271016 8.39936 0.00108824C8.08354 -0.0109179 7.7977 0.0771272 7.54685 0.230205C6.24559 0.753473 5.1982 1.69996 4.42164 2.47936C4.29172 2.60942 4.08284 2.80052 3.83098 3.03264C2.34683 4.39834 0.85169 5.83307 0.29501 7.04069C-0.459557 8.67553 0.422936 12.1483 0.837698 13.566C0.844694 13.591 0.85269 13.6151 0.860685 13.6391C3.04343 19.8242 8.10853 24.8898 8.29242 25.0719C13.2256 30.2706 18.3456 33.5863 23.0999 34.6628C24.1583 34.903 25.0558 35 25.8184 35C28.245 35 29.2874 34.0115 29.6731 33.4772C30.2978 32.8679 33.3101 29.9174 34.2785 28.7518C35.0121 27.8724 35.0581 27.0499 34.9671 26.5137C34.7752 25.3691 33.8538 24.7628 33.6699 24.6517H33.6689ZM27.6143 31.5732C27.5054 31.6783 27.4154 31.8014 27.3455 31.9354C27.3415 31.9434 26.367 32.5297 23.7176 31.9294C19.5649 30.9899 14.8067 27.8693 10.2913 23.1119C10.2433 23.0649 5.49103 18.3145 3.51116 12.7416C2.97047 10.8787 2.65066 8.72355 2.83455 8.21529C3.20334 7.41488 4.96933 5.79005 5.72389 5.0957C6.01273 4.82956 6.25059 4.60945 6.40051 4.45937C6.83426 4.02415 7.43791 3.45686 8.09553 3.07366C8.3274 3.43184 8.66121 4.02215 9.11795 4.99164C9.12794 5.01265 9.13793 5.03266 9.14893 5.05367L11.8414 10.1013C11.8194 10.2063 11.7474 10.4314 11.5226 10.6685C10.6591 11.58 9.82054 12.3164 9.81255 12.3234C9.50572 12.5915 9.33082 12.9807 9.33482 13.3889C9.33582 13.559 9.3758 15.0888 10.3572 16.5295C10.9629 17.417 13.7453 21.1359 16.2988 23.1109C18.8264 25.0669 20.4325 25.8233 21.6607 25.6482C21.9296 25.6092 22.1814 25.4931 22.3853 25.314C22.3853 25.314 23.6836 24.1705 24.3602 23.5461L24.4941 23.4211C24.694 23.235 24.9958 22.9528 25.1238 22.9348C25.7224 23.188 29.5262 25.4291 32.1098 26.9819C31.2842 27.9664 28.5908 30.6258 27.6143 31.5752V31.5732Z" fill="#003874"/>
</svg>
