<svg width="39" height="38" viewBox="0 0 39 38" fill="none" xmlns="http://www.w3.org/2000/svg">
<path d="M31.5 24C30.9017 24 30.4167 24.4851 30.4167 25.0833V29.4167H26.0833C25.4851 29.4167 25 29.9017 25 30.5C25 31.0983 25.4851 31.5833 26.0833 31.5833H30.4167V35.9167C30.4167 36.5149 30.9017 37 31.5 37C32.0983 37 32.5833 36.5149 32.5833 35.9167V31.5833H36.9167C37.5149 31.5833 38 31.0983 38 30.5C38 29.9017 37.5149 29.4167 36.9167 29.4167H32.5833V25.0833C32.5833 24.4851 32.0983 24 31.5 24Z" fill="#003874" fill-opacity="0.5"/>
<path d="M31.5 23.85C30.8189 23.85 30.2667 24.4022 30.2667 25.0833V29.2667H26.0833C25.4022 29.2667 24.85 29.8189 24.85 30.5C24.85 31.1811 25.4022 31.7333 26.0833 31.7333H30.2667V35.9167C30.2667 36.5978 30.8189 37.15 31.5 37.15C32.1811 37.15 32.7333 36.5978 32.7333 35.9167V31.7333H36.9167C37.5978 31.7333 38.15 31.1811 38.15 30.5C38.15 29.8189 37.5978 29.2667 36.9167 29.2667H32.7333V25.0833C32.7333 24.4022 32.1811 23.85 31.5 23.85Z" stroke="#003874" stroke-opacity="0.5" stroke-width="0.3"/>
<path d="M27.4545 18.9696C25.4146 14.7723 25.3333 8.36353 25.3333 8.36353" stroke="#003874" stroke-width="3.5" stroke-linecap="round" stroke-linejoin="round"/>
<path d="M10.4381 8.36353C10.4381 8.36353 10.3063 19.3818 6.51192 22.0557L12.8988 22.9743C13.4925 23.0562 14.388 23.367 14.388 23.6574C14.388 23.9479 13.5447 24.4224 13.0204 24.7021L2 30.6159V32.7566C2.00243 33.0387 2.11848 33.3083 2.32141 33.5067C2.52495 33.7051 2.79958 33.8175 3.08636 33.8181H21.0909" stroke="#003874" stroke-width="3.5" stroke-linecap="round" stroke-linejoin="round"/>
<path d="M25.3333 8.14774C25.0155 6.41427 24.0968 4.84802 22.7395 3.72388C21.3821 2.59973 19.672 1.98926 17.9091 2.00014C14.1852 2.00014 11.0965 4.87265 10.4849 8.36364" stroke="#003874" stroke-width="3.5" stroke-linecap="round" stroke-linejoin="round"/>
</svg>
