<svg width="21" height="19" viewBox="0 0 21 19" fill="none" xmlns="http://www.w3.org/2000/svg">
<g clip-path="url(#clip0_7581_4029)">
<path d="M5.92667 4.75C5.92667 2.13265 7.98 0 10.5 0C13.02 0 15.0733 2.13265 15.0733 4.75C15.0733 7.36735 13.02 9.5 10.5 9.5C7.98 9.5 5.92667 7.36735 5.92667 4.75ZM14 11.1722H7C3.15 11.1722 0 14.4439 0 18.4426V18.7577C0 18.9031 0.0933333 19 0.233333 19H20.7667C20.9067 19 21 18.9031 21 18.7577V18.4426C21 14.4439 17.85 11.1722 14 11.1722Z" fill="white"/>
</g>
<defs>
<clipPath id="clip0_7581_4029">
<rect width="21" height="19" fill="white"/>
</clipPath>
</defs>
</svg>
