<svg width="21" height="22" viewBox="0 0 21 22" fill="none" xmlns="http://www.w3.org/2000/svg">
<g clip-path="url(#clip0_7581_4034)">
<path d="M10.5 0C6.54631 0 3.34091 3.14363 3.34091 7.02114V9.36152H3.10227C1.39602 9.36152 0 10.7306 0 12.404V14.2763C0 15.9497 1.39602 17.3188 3.10227 17.3188H5.48864C5.86364 17.3188 6.20455 16.9845 6.20455 16.6167V10.0636C6.20455 9.69586 5.86364 9.36152 5.48864 9.36152H4.77273V7.02114C4.77273 3.89715 7.31463 1.40423 10.5 1.40423C13.6854 1.40423 16.2273 3.89715 16.2273 7.02114V9.36152H15.5114C15.0545 9.38493 14.8031 9.76775 14.7955 10.0636V16.6167C14.7955 16.9845 15.1364 17.3188 15.5114 17.3188H16.108C15.9639 17.7459 15.6839 18.1409 15.2207 18.489C14.5956 18.9588 13.627 19.3303 12.2599 19.4105C11.9697 18.7364 11.2866 18.255 10.5 18.255C9.45426 18.255 8.59091 19.1017 8.59091 20.1273C8.59091 21.1529 9.45426 21.9996 10.5 21.9996C11.3007 21.9996 11.9936 21.5077 12.2749 20.8148C13.8959 20.7312 15.176 20.297 16.093 19.6078C16.9023 18.9997 17.4068 18.1864 17.5845 17.3188H17.8977C19.604 17.3188 21 15.9497 21 14.2763V12.404C21 10.7306 19.604 9.36152 17.8977 9.36152H17.6591V7.02114C17.6591 3.14363 14.4537 0 10.5 0Z" fill="white"/>
</g>
<defs>
<clipPath id="clip0_7581_4034">
<rect width="21" height="22" fill="white"/>
</clipPath>
</defs>
</svg>
